<svg width="24" height="24" viewBox="0 0 24 24" fill="none" xmlns="http://www.w3.org/2000/svg">
<path d="M1.79784 20.6035H22.1973C22.9788 20.6035 23.6124 21.2359 23.6124 22.016C23.6124 22.7961 22.9788 23.4285 22.1973 23.4285H1.79784C1.01636 23.4285 0.382812 22.7961 0.382812 22.016C0.382813 21.2359 1.01636 20.6035 1.79784 20.6035Z" fill="#CE7419"/>
<path d="M1.79785 7.21853C7.18098 14.1728 10.6254 13.07 12.0001 3.34106C13.3749 13.07 16.8193 14.1728 22.2024 7.21853V20.6033H1.79785V7.21853Z" fill="#FCBA29"/>
<path d="M12 3.34106C13.3747 13.07 16.8191 14.1728 22.2023 7.21853V20.6033H12V3.34106Z" fill="#E99A23"/>
<path d="M1.16324 7.34943C1.80568 7.34943 2.32648 6.82863 2.32648 6.18619C2.32648 5.54375 1.80568 5.02295 1.16324 5.02295C0.5208 5.02295 0 5.54375 0 6.18619C0 6.82863 0.5208 7.34943 1.16324 7.34943Z" fill="#FCBA29"/>
<path d="M22.8368 7.4754C23.4793 7.4754 24.0001 6.9546 24.0001 6.31217C24.0001 5.66973 23.4793 5.14893 22.8368 5.14893C22.1944 5.14893 21.6736 5.66973 21.6736 6.31217C21.6736 6.9546 22.1944 7.4754 22.8368 7.4754Z" fill="#FCBA29"/>
<path d="M12 3.34115C12.7649 3.34115 13.3849 2.72115 13.3849 1.95634C13.3849 1.19153 12.7649 0.571533 12 0.571533C11.2352 0.571533 10.6152 1.19153 10.6152 1.95634C10.6152 2.72115 11.2352 3.34115 12 3.34115Z" fill="#FCBA29"/>
<path d="M12.0001 12.4707L12.9972 13.8001L13.9993 15.1295L12.9972 16.459L12.0001 17.7884L11.0031 16.459L10.001 15.1295L11.0031 13.8001L12.0001 12.4707Z" fill="#CE7419"/>
<path d="M18.4205 13.6541L19.1355 14.6008L19.8456 15.5525L19.1355 16.4992L18.4205 17.4459L17.7054 16.4992L16.9954 15.5525L17.7054 14.6008L18.4205 13.6541Z" fill="#CE7419"/>
<path d="M5.57954 13.6541L6.29461 14.6008L7.00464 15.5525L6.29461 16.4992L5.57954 17.4459L4.86448 16.4992L4.14941 15.5525L4.86448 14.6008L5.57954 13.6541Z" fill="#CE7419"/>
<path d="M6.18887 5.68781C6.83131 5.68781 7.35211 5.16701 7.35211 4.52457C7.35211 3.88213 6.83131 3.36133 6.18887 3.36133C5.54644 3.36133 5.02563 3.88213 5.02563 4.52457C5.02563 5.16701 5.54644 5.68781 6.18887 5.68781Z" fill="#FCBA29"/>
<path d="M17.8112 5.68781C18.4536 5.68781 18.9744 5.16701 18.9744 4.52457C18.9744 3.88213 18.4536 3.36133 17.8112 3.36133C17.1687 3.36133 16.6479 3.88213 16.6479 4.52457C16.6479 5.16701 17.1687 5.68781 17.8112 5.68781Z" fill="#FCBA29"/>
<path d="M6.50616 5.64249C6.72773 9.02142 4.3811 10.0688 4.3811 10.0688C7.17086 12.5464 9.27577 12.1737 10.6707 8.82503C8.03196 9.36385 6.74787 6.22662 6.53133 5.63745L6.50616 5.64249Z" fill="#CE7419"/>
<path d="M13.3296 8.82512C14.7194 12.1738 16.8294 12.5465 19.6191 10.0689C19.6191 10.0689 17.2776 9.02151 17.4941 5.64258H17.4689C17.2524 6.22672 15.9683 9.36394 13.3296 8.82512Z" fill="#CE7419"/>
</svg>
