<svg width="359" height="71" viewBox="0 0 359 71" fill="none" xmlns="http://www.w3.org/2000/svg">
<mask id="mask0" mask-type="alpha" maskUnits="userSpaceOnUse" x="0" y="0" width="359" height="71">
<mask id="path-1-inside-1" mask-type="luminance" fill="white">
<path fill-rule="evenodd" clip-rule="evenodd" d="M354.205 8.77764C356.627 10.1036 359 12.2386 359 15V66C359 68.7614 356.761 71 354 71H5C2.23858 71 0 68.7614 0 66V14.4788C0 11.9087 2.06668 9.86294 4.25254 8.51109C5.72523 7.6003 6.94387 6.31795 7.77763 4.79488C9.10361 2.37264 11.2386 0 14 0H344C346.761 0 348.896 2.37262 350.222 4.79486C351.141 6.47304 352.527 7.85897 354.205 8.77764Z"/>
</mask>
<path fill-rule="evenodd" clip-rule="evenodd" d="M354.205 8.77764C356.627 10.1036 359 12.2386 359 15V66C359 68.7614 356.761 71 354 71H5C2.23858 71 0 68.7614 0 66V14.4788C0 11.9087 2.06668 9.86294 4.25254 8.51109C5.72523 7.6003 6.94387 6.31795 7.77763 4.79488C9.10361 2.37264 11.2386 0 14 0H344C346.761 0 348.896 2.37262 350.222 4.79486C351.141 6.47304 352.527 7.85897 354.205 8.77764Z" fill="url(#paint0_linear)"/>
<path d="M350.222 4.79486L349.345 5.27504L350.222 4.79486ZM7.77763 4.79488L8.6548 5.27506L7.77763 4.79488ZM354.205 8.77764L354.685 7.90047L354.205 8.77764ZM358 15V66H360V15H358ZM354 70H5V72H354V70ZM1 66V14.4788H-1V66H1ZM4.77853 9.36158C6.39792 8.36006 7.73774 6.9503 8.6548 5.27506L6.90046 4.3147C6.15 5.68561 5.05254 6.84053 3.72655 7.66059L4.77853 9.36158ZM14 1H344V-1H14V1ZM354.685 7.90047C353.175 7.07351 351.926 5.82534 351.1 4.31468L349.345 5.27504C350.356 7.12075 351.879 8.64444 353.725 9.65481L354.685 7.90047ZM344 1C345.076 1 346.078 1.45902 346.998 2.24816C347.924 3.04166 348.719 4.13195 349.345 5.27504L351.1 4.31468C350.399 3.03552 349.465 1.72838 348.3 0.730014C347.131 -0.272711 345.685 -1 344 -1V1ZM8.6548 5.27506C9.28055 4.13198 10.0763 3.04168 11.0015 2.24817C11.9217 1.45902 12.9235 1 14 1V-1C12.3151 -1 10.8687 -0.272702 9.69952 0.730028C8.53542 1.7284 7.6007 3.03555 6.90046 4.3147L8.6548 5.27506ZM1 14.4788C1 12.4626 2.65195 10.6768 4.77853 9.36158L3.72655 7.66059C1.48142 9.04911 -1 11.3548 -1 14.4788H1ZM5 70C2.79086 70 1 68.2091 1 66H-1C-1 69.3137 1.68629 72 5 72V70ZM358 66C358 68.2091 356.209 70 354 70V72C357.314 72 360 69.3137 360 66H358ZM360 15C360 13.3151 359.273 11.8687 358.27 10.6995C357.272 9.53542 355.964 8.60071 354.685 7.90047L353.725 9.65481C354.868 10.2806 355.958 11.0763 356.752 12.0015C357.541 12.9217 358 13.9235 358 15H360Z" fill="url(#paint1_linear)" mask="url(#path-1-inside-1)"/>
</mask>
<g mask="url(#mask0)">
<mask id="mask1" mask-type="alpha" maskUnits="userSpaceOnUse" x="-4" y="-9" width="89" height="87">
<rect x="-4" y="-9" width="89" height="87" fill="#25F7B6"/>
</mask>
<g mask="url(#mask1)">
<path opacity="0.3" d="M167.943 -45.4258L149.441 -29.4689L133.557 -0.480293L115.07 28.2889L96.5682 15.4766L78.081 24.4423L59.5791 43.0319L41.0919 36.3625L22.6047 49.1017L4.10291 61.2705V104.3H167.943V-45.4258Z" fill="#25F7B6"/>
<path d="M4.36619 61.6654L3.85428 60.8756L22.3415 48.7068L41.0188 35.836L59.4622 42.4761L77.8031 24.0621L77.8762 24.0328L96.6121 14.9355L114.924 27.6162L133.148 -0.714298L149.075 -29.7761L149.134 -29.8346L167.636 -45.7769L168.25 -45.0602L149.821 -29.1764L133.967 -0.23164L133.952 -0.21701L115.202 28.9471L96.5243 16.0178L78.3589 24.8372L59.7108 43.5731L41.1651 36.889L22.868 49.482L4.36619 61.6654Z" fill="#25F7B6"/>
<path d="M4.41006 66.9161H3.56175V68.2324H4.41006V66.9161Z" fill="#25F7B6"/>
<path d="M4.41006 64.5467H3.56175V65.863H4.41006V64.5467Z" fill="#25F7B6"/>
<path d="M4.41006 62.1919H3.56175V63.5082H4.41006V62.1919Z" fill="#25F7B6"/>
<path d="M4.41006 69.3001H3.56175V70.6164H4.41006V69.3001Z" fill="#25F7B6"/>
<path d="M22.8973 55.2739H22.049V56.7218H22.8973V55.2739Z" fill="#25F7B6"/>
<path d="M22.8973 52.6704H22.049V54.1184H22.8973V52.6704Z" fill="#25F7B6"/>
<path d="M22.8973 50.067H22.049V51.515H22.8973V50.067Z" fill="#25F7B6"/>
<path d="M22.8973 63.1133H22.049V64.5613H22.8973V63.1133Z" fill="#25F7B6"/>
<path d="M22.8973 60.4953H22.049V61.9433H22.8973V60.4953Z" fill="#25F7B6"/>
<path d="M22.8973 57.9065H22.049V59.3545H22.8973V57.9065Z" fill="#25F7B6"/>
<path d="M22.8973 70.9382H22.049V72.3862H22.8973V70.9382Z" fill="#25F7B6"/>
<path d="M22.8973 68.3348H22.049V69.7828H22.8973V68.3348Z" fill="#25F7B6"/>
<path d="M22.8973 65.7314H22.049V67.1794H22.8973V65.7314Z" fill="#25F7B6"/>
<path d="M41.3991 42.1982H40.5508V43.5877H41.3991V42.1982Z" fill="#25F7B6"/>
<path d="M41.3991 39.6972H40.5508V41.0867H41.3991V39.6972Z" fill="#25F7B6"/>
<path d="M41.3991 37.2108H40.5508V38.6003H41.3991V37.2108Z" fill="#25F7B6"/>
<path d="M41.3991 49.716H40.5508V51.1054H41.3991V49.716Z" fill="#25F7B6"/>
<path d="M41.3991 47.2149H40.5508V48.6044H41.3991V47.2149Z" fill="#25F7B6"/>
<path d="M41.3991 44.7285H40.5508V46.118H41.3991V44.7285Z" fill="#25F7B6"/>
<path d="M41.3991 57.2337H40.5508V58.6232H41.3991V57.2337Z" fill="#25F7B6"/>
<path d="M41.3991 54.7327H40.5508V56.1221H41.3991V54.7327Z" fill="#25F7B6"/>
<path d="M41.3991 52.2463H40.5508V53.6357H41.3991V52.2463Z" fill="#25F7B6"/>
<path d="M41.3991 64.7515H40.5508V66.1409H41.3991V64.7515Z" fill="#25F7B6"/>
<path d="M41.3991 62.2505H40.5508V63.64H41.3991V62.2505Z" fill="#25F7B6"/>
<path d="M41.3991 59.764H40.5508V61.1535H41.3991V59.764Z" fill="#25F7B6"/>
<path d="M41.3991 69.7682H40.5508V71.1577H41.3991V69.7682Z" fill="#25F7B6"/>
<path d="M41.3991 67.2817H40.5508V68.6712H41.3991V67.2817Z" fill="#25F7B6"/>
<path d="M59.8863 49.0432H59.038V50.4619H59.8863V49.0432Z" fill="#25F7B6"/>
<path d="M59.8863 46.4983H59.038V47.917H59.8863V46.4983Z" fill="#25F7B6"/>
<path d="M59.8863 43.9826H59.038V45.4013H59.8863V43.9826Z" fill="#25F7B6"/>
<path d="M59.8863 56.6487H59.038V58.0674H59.8863V56.6487Z" fill="#25F7B6"/>
<path d="M59.8863 54.1184H59.038V55.5371H59.8863V54.1184Z" fill="#25F7B6"/>
<path d="M59.8863 51.5881H59.038V53.0068H59.8863V51.5881Z" fill="#25F7B6"/>
<path d="M59.8863 64.2689H59.038V65.6876H59.8863V64.2689Z" fill="#25F7B6"/>
<path d="M59.8863 61.7239H59.038V63.1427H59.8863V61.7239Z" fill="#25F7B6"/>
<path d="M59.8863 59.2083H59.038V60.627H59.8863V59.2083Z" fill="#25F7B6"/>
<path d="M59.8863 69.344H59.038V70.7627H59.8863V69.344Z" fill="#25F7B6"/>
<path d="M59.8863 66.8137H59.038V68.2324H59.8863V66.8137Z" fill="#25F7B6"/>
<path d="M78.3735 30.673H77.5252V32.1502H78.3735V30.673Z" fill="#25F7B6"/>
<path d="M78.3735 28.0403H77.5252V29.5176H78.3735V28.0403Z" fill="#25F7B6"/>
<path d="M78.3735 25.393H77.5252V26.8702H78.3735V25.393Z" fill="#25F7B6"/>
<path d="M78.3735 38.6295H77.5252V40.1067H78.3735V38.6295Z" fill="#25F7B6"/>
<path d="M78.3735 35.9822H77.5252V37.4594H78.3735V35.9822Z" fill="#25F7B6"/>
<path d="M78.3735 33.3495H77.5252V34.8268H78.3735V33.3495Z" fill="#25F7B6"/>
<path d="M78.3735 46.586H77.5252V48.0632H78.3735V46.586Z" fill="#25F7B6"/>
<path d="M78.3735 43.9387H77.5252V45.4159H78.3735V43.9387Z" fill="#25F7B6"/>
<path d="M78.3735 41.2914H77.5252V42.7687H78.3735V41.2914Z" fill="#25F7B6"/>
<path d="M78.3735 54.528H77.5252V56.0052H78.3735V54.528Z" fill="#25F7B6"/>
<path d="M78.3735 51.8806H77.5252V53.3578H78.3735V51.8806Z" fill="#25F7B6"/>
<path d="M78.3735 49.248H77.5252V50.7252H78.3735V49.248Z" fill="#25F7B6"/>
<path d="M78.3735 62.4844H77.5252V63.9617H78.3735V62.4844Z" fill="#25F7B6"/>
<path d="M78.3735 59.8372H77.5252V61.3144H78.3735V59.8372Z" fill="#25F7B6"/>
<path d="M78.3735 57.2045H77.5252V58.6817H78.3735V57.2045Z" fill="#25F7B6"/>
<path d="M78.3735 70.441H77.5252V71.9182H78.3735V70.441Z" fill="#25F7B6"/>
<path d="M78.3735 67.7936H77.5252V69.2709H78.3735V67.7936Z" fill="#25F7B6"/>
<path d="M78.3735 65.1464H77.5252V66.6236H78.3735V65.1464Z" fill="#25F7B6"/>
<path d="M4.10292 63.3766C5.2661 63.3766 6.20905 62.4336 6.20905 61.2704C6.20905 60.1073 5.2661 59.1643 4.10292 59.1643C2.93973 59.1643 1.99678 60.1073 1.99678 61.2704C1.99678 62.4336 2.93973 63.3766 4.10292 63.3766Z" fill="#25F7B6"/>
<path d="M4.10292 63.8446C2.6842 63.8446 1.52875 62.6892 1.52875 61.2705C1.52875 59.8517 2.6842 58.6963 4.10292 58.6963C5.52163 58.6963 6.67708 59.8517 6.67708 61.2705C6.67708 62.6892 5.52163 63.8446 4.10292 63.8446ZM4.10292 59.6324C3.19611 59.6324 2.46481 60.3636 2.46481 61.2705C2.46481 62.1773 3.19611 62.9086 4.10292 62.9086C5.00972 62.9086 5.74102 62.1773 5.74102 61.2705C5.74102 60.3636 5.00972 59.6324 4.10292 59.6324Z" fill="#25F7B6"/>
<path d="M22.6047 51.2078C23.7679 51.2078 24.7109 50.2649 24.7109 49.1017C24.7109 47.9385 23.7679 46.9956 22.6047 46.9956C21.4416 46.9956 20.4986 47.9385 20.4986 49.1017C20.4986 50.2649 21.4416 51.2078 22.6047 51.2078Z" fill="#25F7B6"/>
<path d="M22.6047 51.6759C21.186 51.6759 20.0306 50.5204 20.0306 49.1017C20.0306 47.683 21.186 46.5275 22.6047 46.5275C24.0235 46.5275 25.1789 47.683 25.1789 49.1017C25.1789 50.5204 24.0235 51.6759 22.6047 51.6759ZM22.6047 47.4636C21.6979 47.4636 20.9666 48.1949 20.9666 49.1017C20.9666 50.0085 21.6979 50.7398 22.6047 50.7398C23.5116 50.7398 24.2429 50.0085 24.2429 49.1017C24.2429 48.1949 23.4969 47.4636 22.6047 47.4636Z" fill="#25F7B6"/>
<path d="M41.0919 38.4687C42.2551 38.4687 43.1981 37.5257 43.1981 36.3625C43.1981 35.1993 42.2551 34.2564 41.0919 34.2564C39.9288 34.2564 38.9858 35.1993 38.9858 36.3625C38.9858 37.5257 39.9288 38.4687 41.0919 38.4687Z" fill="#25F7B6"/>
<path d="M41.092 38.9367C39.6732 38.9367 38.5178 37.7812 38.5178 36.3625C38.5178 34.9438 39.6732 33.7883 41.092 33.7883C42.5107 33.7883 43.6661 34.9438 43.6661 36.3625C43.6661 37.7812 42.5107 38.9367 41.092 38.9367ZM41.092 34.7244C40.1852 34.7244 39.4539 35.4557 39.4539 36.3625C39.4539 37.2693 40.1852 38.0006 41.092 38.0006C41.9988 38.0006 42.7301 37.2693 42.7301 36.3625C42.7301 35.4557 41.9988 34.7244 41.092 34.7244Z" fill="#25F7B6"/>
<path d="M59.5792 45.1381C60.7423 45.1381 61.6853 44.1951 61.6853 43.0319C61.6853 41.8687 60.7423 40.9258 59.5792 40.9258C58.416 40.9258 57.473 41.8687 57.473 43.0319C57.473 44.1951 58.416 45.1381 59.5792 45.1381Z" fill="#25F7B6"/>
<path d="M59.5792 45.6061C58.1604 45.6061 57.005 44.4507 57.005 43.0319C57.005 41.6132 58.1604 40.4578 59.5792 40.4578C60.9979 40.4578 62.1533 41.6132 62.1533 43.0319C62.168 44.4507 61.0125 45.6061 59.5792 45.6061ZM59.5792 41.3792C58.6723 41.3792 57.9411 42.1105 57.9411 43.0173C57.9411 43.9241 58.6723 44.6554 59.5792 44.6554C60.486 44.6554 61.2173 43.9241 61.2173 43.0173C61.2173 42.1105 60.486 41.3792 59.5792 41.3792Z" fill="#25F7B6"/>
<path d="M79.5637 25.9309C80.3862 25.1084 80.3862 23.7749 79.5637 22.9524C78.7412 22.1299 77.4077 22.1299 76.5852 22.9524C75.7627 23.7749 75.7627 25.1084 76.5852 25.9309C77.4077 26.7534 78.7412 26.7534 79.5637 25.9309Z" fill="#25F7B6"/>
<path d="M78.081 27.0311C76.6623 27.0311 75.5068 25.8757 75.5068 24.457C75.5068 23.0382 76.6623 21.8828 78.081 21.8828C79.4997 21.8828 80.6551 23.0382 80.6551 24.457C80.6551 25.8757 79.4997 27.0311 78.081 27.0311ZM78.081 22.8042C77.1742 22.8042 76.4429 23.5355 76.4429 24.4423C76.4429 25.3491 77.1742 26.0804 78.081 26.0804C78.9878 26.0804 79.7191 25.3491 79.7191 24.4423C79.7191 23.5501 78.9878 22.8042 78.081 22.8042Z" fill="#25F7B6"/>
</g>
</g>
<defs>
<linearGradient id="paint0_linear" x1="209" y1="49" x2="-5.99999" y2="49" gradientUnits="userSpaceOnUse">
<stop stop-color="#037264" stop-opacity="0.13"/>
<stop offset="1" stop-color="#00B277"/>
</linearGradient>
<linearGradient id="paint1_linear" x1="-2" y1="71" x2="179" y2="71" gradientUnits="userSpaceOnUse">
<stop stop-color="#28FFBC"/>
<stop offset="1" stop-color="#28FFBC" stop-opacity="0"/>
</linearGradient>
</defs>
</svg>
