<svg width="24" height="24" viewBox="0 0 24 24" fill="none" xmlns="http://www.w3.org/2000/svg">
<g>
<path d="M4.64062 12C4.64062 16.0645 7.93552 19.3594 12 19.3594L12.9844 11.9531L12 4.64062C7.93552 4.64062 4.64062 7.93552 4.64062 12Z" fill="url(#casino_paint0_linear)"/>
<path d="M12 4.64062V19.3594C16.0645 19.3594 19.3594 16.0645 19.3594 12C19.3594 7.93552 16.0645 4.64062 12 4.64062Z" fill="url(#casino_paint1_linear)"/>
<path d="M12 4.64062V0.703125C10.6425 0.703125 9.341 0.942797 8.13524 1.38173L9.48229 5.0827C10.2678 4.79677 11.1156 4.64062 12 4.64062Z" fill="#CA2E43"/>
<path d="M7.26968 6.36264L4.7388 3.34647C3.73324 4.19111 2.87683 5.2074 2.21524 6.35078L5.62568 8.31981C6.05665 7.57497 6.6146 6.9129 7.26968 6.36264Z" fill="#CA2E43"/>
<path d="M9.48229 5.08271L8.13524 1.38174C6.88508 1.8369 5.73833 2.50684 4.73877 3.34646L7.26964 6.36263C7.92083 5.8157 8.66788 5.37924 9.48229 5.08271Z" fill="#00607F"/>
<path d="M14.5177 5.0827L15.8647 1.38173C14.659 0.942797 13.3575 0.703125 12 0.703125V4.64062C12.8843 4.64062 13.7322 4.79677 14.5177 5.0827Z" fill="#00465F"/>
<path d="M18.3743 8.31981L21.7848 6.35078C21.1232 5.2074 20.2668 4.19111 19.2612 3.34647L16.7303 6.36264C17.3854 6.9129 17.9433 7.57497 18.3743 8.31981Z" fill="#00465F"/>
<path d="M19.2485 10.7219L23.1268 10.0381C22.8951 8.7156 22.4337 7.47228 21.7848 6.3508L18.3743 8.31983C18.797 9.05038 19.0977 9.86033 19.2485 10.7219Z" fill="#8E1E2C"/>
<path d="M23.1267 10.038L19.2485 10.7219C19.3212 11.137 19.3594 11.564 19.3594 12C19.3594 12.436 19.3212 12.863 19.2485 13.2781L23.1267 13.9619C23.2383 13.3247 23.2969 12.6692 23.2969 12C23.2969 11.3308 23.2383 10.6753 23.1267 10.038Z" fill="#00465F"/>
<path d="M16.7303 6.36263L19.2612 3.34646C18.2616 2.50684 17.1149 1.8369 15.8647 1.38174L14.5177 5.08271C15.3321 5.37924 16.0792 5.8157 16.7303 6.36263Z" fill="#8E1E2C"/>
<path d="M5.6257 8.3198L2.21526 6.35077C1.56637 7.47225 1.10489 8.71557 0.873276 10.0381L4.75148 10.7219C4.90237 9.86035 5.20298 9.05039 5.6257 8.3198Z" fill="#00607F"/>
<path d="M14.5177 18.9173L15.8648 22.6183C17.1149 22.1631 18.2617 21.4932 19.2612 20.6535L16.7304 17.6374C16.0792 18.1843 15.3321 18.6208 14.5177 18.9173Z" fill="#8E1E2C"/>
<path d="M16.7303 17.6374L19.2612 20.6535C20.2668 19.8089 21.1232 18.7926 21.7848 17.6492L18.3743 15.6802C17.9433 16.425 17.3854 17.0871 16.7303 17.6374Z" fill="#00465F"/>
<path d="M12 19.3594V23.2969C13.3575 23.2969 14.659 23.0572 15.8647 22.6183L14.5177 18.9173C13.7322 19.2032 12.8843 19.3594 12 19.3594Z" fill="#00465F"/>
<path d="M9.48229 18.9173L8.13524 22.6183C9.341 23.0572 10.6425 23.2969 12 23.2969V19.3594C11.1156 19.3594 10.2678 19.2032 9.48229 18.9173Z" fill="#CA2E43"/>
<path d="M18.3743 15.6802L21.7848 17.6492C22.4337 16.5278 22.8951 15.2844 23.1268 13.962L19.2485 13.2782C19.0977 14.1397 18.797 14.9496 18.3743 15.6802Z" fill="#8E1E2C"/>
<path d="M5.62568 15.6802L2.21524 17.6492C2.87679 18.7926 3.73324 19.8089 4.7388 20.6535L7.26968 17.6374C6.6146 17.0871 6.05665 16.425 5.62568 15.6802Z" fill="#CA2E43"/>
<path d="M4.75148 13.2781L0.873276 13.9619C1.10489 15.2844 1.56637 16.5277 2.21526 17.6492L5.6257 15.6802C5.20298 14.9496 4.90237 14.1397 4.75148 13.2781Z" fill="#00607F"/>
<path d="M7.2697 17.6374L4.73882 20.6535C5.73839 21.4932 6.88509 22.1632 8.13529 22.6183L9.48234 18.9173C8.66789 18.6208 7.92084 18.1843 7.2697 17.6374Z" fill="#00607F"/>
<path d="M4.64062 12C4.64062 11.564 4.67878 11.137 4.75148 10.7219L0.873281 10.0381C0.761719 10.6753 0.703125 11.3308 0.703125 12C0.703125 12.6692 0.761719 13.3247 0.873328 13.962L4.75153 13.2781C4.67878 12.863 4.64062 12.436 4.64062 12Z" fill="#CA2E43"/>
<path d="M7.47798 1.62543L8.79981 1.14451L10.1464 4.84571L8.82459 5.32663L7.47798 1.62543Z" fill="#00B5BD"/>
<path d="M4.20028 3.79669L5.27747 2.89247L7.80931 5.90863L6.73212 6.81285L4.20028 3.79669Z" fill="#00B5BD"/>
<path d="M1.86498 6.96059L2.56811 5.74277L5.97798 7.71152L5.27486 8.92934L1.86498 6.96059Z" fill="#00B5BD"/>
<path d="M0.75502 10.7333L0.999716 9.34806L4.87815 10.0332L4.63346 11.4184L0.75502 10.7333Z" fill="#00B5BD"/>
<path d="M0.757217 13.2715L4.63566 12.5864L4.88035 13.9716L1.00191 14.6567L0.757217 13.2715Z" fill="#00B5BD"/>
<path d="M1.86492 17.0392L5.2748 15.0704L5.97792 16.2882L2.56805 18.257L1.86492 17.0392Z" fill="#00B5BD"/>
<path d="M4.19983 20.2063L6.73167 17.1901L7.80886 18.0944L5.27702 21.1105L4.19983 20.2063Z" fill="#00B5BD"/>
<path d="M7.48158 22.3731L8.82819 18.6719L10.15 19.1528L8.80341 22.854L7.48158 22.3731Z" fill="#00B5BD"/>
<path d="M13.8604 19.1621L15.1822 18.6812L16.5288 22.3824L15.207 22.8633L13.8604 19.1621Z" fill="#00959B"/>
<path d="M16.1948 18.0849L17.272 17.1807L19.8038 20.1969L18.7267 21.1011L16.1948 18.0849Z" fill="#00959B"/>
<path d="M18.0215 16.2891L18.7246 15.0713L22.1345 17.04L21.4313 18.2578L18.0215 16.2891Z" fill="#00959B"/>
<path d="M19.1348 13.9705L19.3795 12.5853L23.2579 13.2704L23.0132 14.6556L19.1348 13.9705Z" fill="#00959B"/>
<path d="M11.2969 23.2969H12L12.2812 21.5156L12 19.3594H11.2969V23.2969Z" fill="#00B5BD"/>
<path d="M12 19.3594H12.7031V23.2969H12V19.3594Z" fill="#00959B"/>
<path d="M19.1325 10.0249L23.0109 9.33981L23.2556 10.725L19.3772 11.4101L19.1325 10.0249Z" fill="#00959B"/>
<path d="M18.0214 7.71133L21.4313 5.74258L22.1344 6.9604L18.7245 8.92915L18.0214 7.71133Z" fill="#00959B"/>
<path d="M11.2969 0.703125V4.64062H12L12.3281 2.76562L12 0.703125H11.2969Z" fill="#00B5BD"/>
<path d="M12 0.703125H12.7031V4.64062H12V0.703125Z" fill="#00959B"/>
<path d="M16.1953 5.91225L18.7271 2.89609L19.8043 3.8003L17.2724 6.81647L16.1953 5.91225Z" fill="#00959B"/>
<path d="M13.8571 4.84004L15.2037 1.13884L16.5256 1.61976L15.179 5.32096L13.8571 4.84004Z" fill="#00959B"/>
<path d="M5.34375 12C5.34375 8.32973 8.32973 5.34375 12 5.34375L12.5156 4.6875L12 3.9375C7.55433 3.9375 3.9375 7.55433 3.9375 12C3.9375 16.4457 7.55433 20.0625 12 20.0625L12.375 19.3594L12 18.6562C8.32973 18.6562 5.34375 15.6703 5.34375 12Z" fill="url(#casino_paint2_linear)"/>
<path d="M12 3.9375V5.34375C15.6703 5.34375 18.6562 8.32973 18.6562 12C18.6562 15.6703 15.6703 18.6562 12 18.6562V20.0625C16.4457 20.0625 20.0625 16.4457 20.0625 12C20.0625 7.55433 16.4457 3.9375 12 3.9375Z" fill="url(#casino_paint3_linear)"/>
<path d="M4.50909 19.4909C2.50819 17.49 1.40625 14.8297 1.40625 12C1.40625 9.1703 2.50819 6.51 4.50909 4.50909C6.51 2.50819 9.1703 1.40625 12 1.40625L12.4219 0.703125L12 0C8.79469 0 5.78123 1.24823 3.51469 3.51469C1.24823 5.78123 0 8.79469 0 12C0 15.2053 1.24823 18.2188 3.51469 20.4853C5.78123 22.7518 8.79469 24 12 24L12.5625 23.25L12 22.5938C9.1703 22.5938 6.51 21.4918 4.50909 19.4909Z" fill="url(#casino_paint4_linear)"/>
<path d="M20.4853 3.51469C18.2188 1.24823 15.2053 0 12 0V1.40625C14.8297 1.40625 17.49 2.50819 19.4909 4.50909C21.4918 6.51 22.5938 9.1703 22.5938 12C22.5938 14.8297 21.4918 17.49 19.4909 19.4909C17.49 21.4918 14.8297 22.5938 12 22.5938V24C15.2053 24 18.2188 22.7518 20.4853 20.4853C22.7518 18.2188 24 15.2053 24 12C24 8.79469 22.7518 5.78123 20.4853 3.51469Z" fill="url(#casino_paint5_linear)"/>
<path d="M11.2969 8.71875V11.2969H8.71875V12.7031H11.2969V15.2812H12L12.4688 12.0469L12 8.71875H11.2969Z" fill="#00B5BD"/>
<path d="M12.7031 11.2969V8.71875H12V15.2812H12.7031V12.7031H15.2812V11.2969H12.7031Z" fill="#00959B"/>
<path d="M8.0625 10.2188H9.46875V13.7812H8.0625V10.2188Z" fill="#F4F4F7"/>
<path d="M14.5781 10.2188H15.9844V13.7812H14.5781V10.2188Z" fill="#DFE2F8"/>
<path d="M12 8.0625H13.7812V9.46875H12V8.0625Z" fill="#DFE2F8"/>
<path d="M10.2188 8.0625H12V9.46875H10.2188V8.0625Z" fill="#F4F4F7"/>
<path d="M12 14.5781H13.7812V15.9844H12V14.5781Z" fill="#DFE2F8"/>
<path d="M10.2188 14.5781H12V15.9844H10.2188V14.5781Z" fill="#F4F4F7"/>
</g>
<defs>
<linearGradient id="casino_paint0_linear" x1="8.8125" y1="4.64062" x2="8.8125" y2="19.3594" gradientUnits="userSpaceOnUse">
<stop stop-color="#03389E"/>
<stop offset="1" stop-color="#004760"/>
</linearGradient>
<linearGradient id="casino_paint1_linear" x1="15.6797" y1="4.64062" x2="15.6797" y2="19.3594" gradientUnits="userSpaceOnUse">
<stop stop-color="#03389E"/>
<stop offset="1" stop-color="#004760"/>
</linearGradient>
<linearGradient id="casino_paint2_linear" x1="8.22656" y1="3.9375" x2="8.22656" y2="20.0625" gradientUnits="userSpaceOnUse">
<stop stop-color="#FFD567"/>
<stop offset="1" stop-color="#FF720D"/>
</linearGradient>
<linearGradient id="casino_paint3_linear" x1="16.0312" y1="3.9375" x2="16.0312" y2="20.0625" gradientUnits="userSpaceOnUse">
<stop stop-color="#FFD567"/>
<stop offset="1" stop-color="#FF720D"/>
</linearGradient>
<linearGradient id="casino_paint4_linear" x1="6.28125" y1="0" x2="6.28125" y2="24" gradientUnits="userSpaceOnUse">
<stop stop-color="#FFD567"/>
<stop offset="1" stop-color="#FF720D"/>
</linearGradient>
<linearGradient id="casino_paint5_linear" x1="18" y1="0" x2="18" y2="24" gradientUnits="userSpaceOnUse">
<stop offset="0.598958" stop-color="#FFD567"/>
<stop offset="1" stop-color="#FF720D"/>
</linearGradient>
</defs>
</svg>
