<svg width="30" height="40" viewBox="0 0 30 40" fill="none"  xmlns="http://www.w3.org/2000/svg">
<filter id="online_filter0_d" x="0.000976562" y="0" width="30" height="40" filterUnits="userSpaceOnUse" color-interpolation-filters="sRGB">
<feFlood flood-opacity="0" result="BackgroundImageFix"/>
<feColorMatrix in="SourceAlpha" type="matrix" values="0 0 0 0 0 0 0 0 0 0 0 0 0 0 0 0 0 0 127 0"/>
<feOffset/>
<feGaussianBlur stdDeviation="5"/>
<feColorMatrix type="matrix" values="0 0 0 0 0 0 0 0 0 0.729412 0 0 0 0 0.486275 0 0 0 0.2 0"/>
<feBlend mode="normal" in2="BackgroundImageFix" result="effect1_dropShadow"/>
<feBlend mode="normal" in="SourceGraphic" in2="effect1_dropShadow" result="shape"/>
</filter>
<linearGradient id="online_paint0_linear" x1="15.001" y1="10" x2="15.001" y2="16" gradientUnits="userSpaceOnUse">
<stop stop-color="#00FFAA"/>
<stop offset="1" stop-color="#00C885"/>
</linearGradient>
<linearGradient id="online_paint1_linear" x1="15.001" y1="16" x2="15.001" y2="30" gradientUnits="userSpaceOnUse">
<stop stop-color="#00FFAA"/>
<stop offset="1" stop-color="#00C885"/>
</linearGradient>
<g filter="url(#online_filter0_d)">
<path d="M15.001 16C16.6578 16 18.001 14.6569 18.001 13C18.001 11.3431 16.6578 10 15.001 10C13.3441 10 12.001 11.3431 12.001 13C12.001 14.6569 13.3441 16 15.001 16Z" fill="url(#online_paint0_linear)"/>
<path d="M15.001 16C12.244 16 10.001 18.243 10.001 21V24C10.001 24.2652 10.1063 24.5196 10.2939 24.7071C10.4814 24.8946 10.7358 25 11.001 25H12.001V29C12.001 29.2652 12.1063 29.5196 12.2939 29.7071C12.4814 29.8946 12.7358 30 13.001 30H17.001C17.2662 30 17.5205 29.8946 17.7081 29.7071C17.8956 29.5196 18.001 29.2652 18.001 29V25H19.001C19.2662 25 19.5205 24.8946 19.7081 24.7071C19.8956 24.5196 20.001 24.2652 20.001 24V21C20.001 18.243 17.758 16 15.001 16Z" fill="url(#online_paint1_linear)"/>
</g>
</svg>
