<svg width="55" id="logo-svg" height="26" viewBox="0 0 55 26" xmlns="http://www.w3.org/2000/svg">
<g clip-path="url(#logo_clip0)">
<path d="M7.72704 12.5394C7.97465 11.2483 8.28415 10.1783 8.64671 9.32935C9.00928 8.48042 9.46027 7.80836 9.99085 7.32199C10.5214 6.83563 11.1581 6.49959 11.8921 6.30505C12.6261 6.1105 13.4927 6.01323 14.4919 6.01323C15.1286 6.01323 15.7034 6.01323 16.2252 6.01323C16.7469 6.01323 17.2421 6.02207 17.7019 6.03092C18.1618 6.03976 18.6304 6.05744 19.0991 6.06629C19.559 6.07513 20.0542 6.09282 20.5759 6.11935L22.6805 0.619006C21.3629 0.574791 20.178 0.530576 19.1168 0.504047C18.0557 0.468675 16.9061 0.450989 15.6857 0.450989C13.6695 0.450989 11.8656 0.619006 10.2827 0.946196C8.69093 1.26454 7.30258 1.85702 6.09993 2.71479C4.89729 3.58141 3.88919 4.77521 3.05795 6.30505C2.23555 7.83489 1.59001 9.79803 1.13902 12.1945C0.864884 13.6005 0.732239 14.9093 0.732239 16.1385C0.732239 17.4561 0.909099 18.6322 1.27166 19.6845C1.63422 20.7368 2.20902 21.6388 3.00489 22.3816C3.80076 23.1333 4.82654 23.7081 6.08225 24.1148C7.33795 24.5216 8.85895 24.725 10.6541 24.725C10.9901 24.725 11.4057 24.725 11.8744 24.725C12.3519 24.725 12.8383 24.7162 13.3512 24.7073C13.8641 24.6985 14.3504 24.6808 14.828 24.6543C15.3055 24.6277 15.7299 24.6012 16.119 24.5481C17.136 24.4332 17.9407 24.106 18.5332 23.5666C19.1257 23.0271 19.5413 22.1252 19.7889 20.8871L21.7962 10.6293H13.1301L11.2642 15.6256H14.4212L13.7049 19.26C13.6165 19.26 13.4573 19.2689 13.2451 19.2777C13.0328 19.2866 12.8029 19.2954 12.5642 19.2954C12.3254 19.2954 12.1132 19.2954 11.9186 19.2954C11.7241 19.2954 11.6091 19.2954 11.5649 19.2954C10.0704 19.2954 9.00043 19.0124 8.3549 18.4465C7.70936 17.8805 7.39101 16.9255 7.39101 15.5902C7.39101 15.1569 7.41754 14.697 7.47944 14.193C7.5325 13.7066 7.62093 13.1495 7.72704 12.5394ZM35.2818 10.6381L33.4159 15.6344H36.5729L35.8566 19.2689C35.7682 19.2689 35.609 19.2777 35.3968 19.2866C35.1845 19.2954 34.9546 19.3042 34.7158 19.3042C34.4771 19.3042 34.2649 19.3042 34.0703 19.3042C33.8758 19.3042 33.7608 19.3042 33.7166 19.3042C32.2221 19.3042 31.1521 19.0213 30.5066 18.4553C29.861 17.8894 29.5427 16.9343 29.5427 15.599C29.5427 15.1657 29.5692 14.7059 29.6311 14.2018C29.6842 13.7066 29.7726 13.1495 29.8876 12.5394C30.1352 11.2483 30.4447 10.1783 30.8072 9.32935C31.1698 8.48042 31.6208 7.80836 32.1514 7.32199C32.682 6.83563 33.3187 6.49959 34.0526 6.30505C34.7866 6.1105 35.6532 6.01323 36.6525 6.01323C37.2892 6.01323 37.864 6.01323 38.3857 6.01323C38.9074 6.01323 39.4026 6.02207 39.8625 6.03092C40.3223 6.03976 40.791 6.05744 41.2597 6.06629C41.7195 6.07513 42.2147 6.09282 42.7364 6.11935L44.8411 0.619006C43.5235 0.574791 42.3385 0.530576 41.2773 0.504047C40.2162 0.468675 39.0666 0.450989 37.8463 0.450989C35.8301 0.450989 34.0261 0.619006 32.4432 0.946196C30.8426 1.26454 29.4454 1.85702 28.2516 2.71479C27.049 3.57256 26.0409 4.76637 25.2096 6.29621C24.3784 7.82604 23.7417 9.78918 23.2907 12.1945C23.0166 13.6005 22.8839 14.9093 22.8839 16.1385C22.8839 17.4561 23.0608 18.6322 23.4233 19.6845C23.7859 20.7368 24.3607 21.6388 25.1566 22.3816C25.9524 23.1333 26.9782 23.7081 28.2339 24.1148C29.4896 24.5216 31.0106 24.725 32.8058 24.725C33.1418 24.725 33.5574 24.725 34.0261 24.725C34.5036 24.725 34.99 24.7162 35.5029 24.7073C36.0158 24.6985 36.5021 24.6808 36.9797 24.6543C37.4572 24.6277 37.8816 24.6012 38.2707 24.5481C39.2877 24.4332 40.0924 24.106 40.6849 23.5666C41.2773 23.0271 41.693 22.1252 41.9406 20.8871L43.9479 10.6293H35.2818V10.6381ZM47.6443 18.924C46.309 18.924 45.3451 19.2158 44.7526 19.8083C44.1602 20.4008 43.8683 21.3381 43.8683 22.6292C43.8683 23.487 44.1248 24.1148 44.6465 24.4951C45.1683 24.8842 45.9022 25.0699 46.8573 25.0699C48.1926 25.0699 49.1564 24.7781 49.7489 24.1856C50.3414 23.5931 50.6332 22.6557 50.6332 21.3647C50.6332 19.7375 49.6428 18.924 47.6443 18.924ZM48.1218 0.51289L46.7954 7.26893C46.6097 8.15323 46.4593 9.02869 46.3178 9.88646C46.1852 10.7442 46.0614 11.717 45.9464 12.8046L45.4689 17.12H50.872L52.0304 12.8046C52.3488 11.717 52.6052 10.7354 52.8086 9.86877C53.012 8.99332 53.2065 8.1267 53.3834 7.26893L54.7098 0.51289H48.1218Z" fill="url(#logo_paint0_linear)"/>
</g>
<defs>
<linearGradient id="logo_paint0_linear" x1="5.13466" y1="26.63" x2="53.628" y2="-1.36769" gradientUnits="userSpaceOnUse">
<stop stop-color="#FF3D00"/>
<stop offset="1" stop-color="#FF8A00"/>
</linearGradient>
<clipPath id="logo_clip0">
<rect width="55" height="25.0876" fill="white"/>
</clipPath>
</defs>
</svg>
