<svg width="184" height="183" viewBox="0 0 184 183" fill="none" xmlns="http://www.w3.org/2000/svg">
<g opacity="0.4">
<path d="M22.7981 59.8484L8.92017 54.098L9.49843 52.7167L22.0271 57.9209C25.2717 51.1104 29.48 44.8461 34.5236 39.2564L24.9183 29.6511L25.9784 28.591L36.5796 39.1922L36.0977 39.7383C30.765 45.5207 26.3961 52.0742 23.0872 59.2059L22.7981 59.8484Z" fill="#3B4042"/>
<path d="M40.2097 35.5942L29.6085 24.993L30.6687 23.9329L40.274 33.5382C45.8637 28.4946 52.128 24.2863 58.9384 21.0417L53.7342 8.51301L55.1156 7.93476L60.8659 21.8126L60.2234 22.1018C53.0917 25.4106 46.5383 29.8117 40.7558 35.1123L40.2097 35.5942Z" fill="#3B4042"/>
<path d="M16.7266 89.6922H0.985474V86.6725H13.8354C14.253 79.5087 15.6344 72.5055 17.9473 65.8236L6.0612 60.9085L7.21768 58.1136L21.738 64.1209L21.2562 65.4702C18.5898 72.7304 17.08 80.4082 16.7587 88.2466L16.7266 89.6922Z" fill="#3B4042"/>
<path d="M162.187 59.8484L161.898 59.2059C158.589 52.0742 154.188 45.5207 148.888 39.7383L148.406 39.1922L159.007 28.591L160.067 29.6511L150.462 39.2564C155.505 44.8461 159.714 51.1104 162.958 57.9209L175.487 52.7167L176.065 54.098L162.187 59.8484Z" fill="#3B4042"/>
<path d="M7.24978 124.869L6.0933 122.074L17.9795 117.159C15.6665 110.445 14.2851 103.442 13.8675 96.31H1.01758V93.2902H16.7587L16.823 94.7359C17.1442 102.574 18.6541 110.22 21.3204 117.512L21.8023 118.862L7.24978 124.869Z" fill="#3B4042"/>
<path d="M144.776 35.5942L144.23 35.1123C138.447 29.7796 131.894 25.4106 124.762 22.1018L124.12 21.8126L129.87 7.93476L131.251 8.51301L126.047 21.0417C132.858 24.2863 139.122 28.4946 144.712 33.5382L154.317 23.9329L155.377 24.993L144.776 35.5942Z" fill="#3B4042"/>
<path d="M119.847 20.7847L118.498 20.3028C111.238 17.6365 103.56 16.1266 95.7212 15.8054L94.2756 15.7411V-3.8147e-06H97.2954V12.8499C104.459 13.2675 111.462 14.6489 118.144 16.9619L123.059 5.0757L125.854 6.23219L119.847 20.7847Z" fill="#3B4042"/>
<path d="M65.1385 20.7847L59.1312 6.26433L61.9261 5.10784L66.8412 16.994C73.5552 14.681 80.5584 13.2997 87.6901 12.882V0.0321388H90.7099V15.7733L89.2642 15.8375C81.4258 16.1587 73.7801 17.6686 66.4878 20.335L65.1385 20.7847Z" fill="#3B4042"/>
<path d="M129.87 175.048L124.12 161.17L124.762 160.881C131.894 157.572 138.447 153.171 144.23 147.87L144.776 147.388L155.377 157.989L154.317 159.05L144.712 149.444C139.122 154.488 132.858 158.696 126.047 161.941L131.251 174.469L129.87 175.048Z" fill="#3B4042"/>
<path d="M25.9784 154.391L24.9183 153.331L34.5236 143.726C29.48 138.136 25.2717 131.872 22.0271 125.062L9.49843 130.266L8.92017 128.884L22.7981 123.134L23.0872 123.777C26.3961 130.908 30.7971 137.462 36.0977 143.244L36.5796 143.79L25.9784 154.391Z" fill="#3B4042"/>
<path d="M158.975 154.391L148.374 143.79L148.856 143.244C154.188 137.462 158.557 130.908 161.866 123.777L162.155 123.134L176.033 128.884L175.455 130.266L162.926 125.062C159.682 131.872 155.473 138.136 150.43 143.726L160.035 153.331L158.975 154.391Z" fill="#3B4042"/>
<path d="M183.968 89.6922H168.227L168.163 88.2466C167.841 80.4082 166.331 72.7625 163.665 65.4702L163.183 64.1209L177.704 58.1136L178.86 60.9085L166.974 65.8236C169.287 72.5376 170.668 79.5408 171.086 86.6725H183.936V89.6922H183.968Z" fill="#3B4042"/>
<path d="M177.736 124.869L163.215 118.862L163.697 117.512C166.364 110.252 167.873 102.574 168.195 94.7359L168.259 93.2902H184V96.31H171.15C170.733 103.474 169.351 110.477 167.038 117.159L178.924 122.074L177.736 124.869Z" fill="#3B4042"/>
<path d="M97.2954 182.982H94.2756V167.241L95.7212 167.177C103.56 166.856 111.205 165.346 118.498 162.68L119.847 162.198L125.854 176.718L123.059 177.875L118.144 165.989C111.43 168.301 104.427 169.683 97.2954 170.1V182.982Z" fill="#3B4042"/>
<path d="M55.1156 175.048L53.7342 174.469L58.9384 161.941C52.128 158.696 45.8637 154.488 40.274 149.444L30.6687 159.05L29.6085 157.989L40.2097 147.388L40.7558 147.87C46.5383 153.203 53.0917 157.572 60.2234 160.881L60.8659 161.17L55.1156 175.048Z" fill="#3B4042"/>
<path d="M90.7099 182.982H87.6901V170.133C80.5263 169.715 73.5231 168.334 66.8412 166.021L61.9261 177.907L59.1312 176.75L65.1385 162.198L66.4878 162.68C73.748 165.346 81.4258 166.856 89.2642 167.177L90.7099 167.241V182.982Z" fill="#3B4042"/>
<path d="M92.5409 154.231H92.4767C91.5129 154.231 90.517 154.199 89.5533 154.167C89.3605 154.167 89.1999 153.974 89.1999 153.781C89.1999 153.588 89.3927 153.396 89.5854 153.428C90.5492 153.46 91.5451 153.492 92.5088 153.492C92.7015 153.492 92.9264 153.653 92.9264 153.877C92.8943 154.07 92.7658 154.231 92.5409 154.231ZM97.0705 154.07C96.8777 154.07 96.7171 153.91 96.685 153.717C96.685 153.524 96.8135 153.331 97.0384 153.299C98.0342 153.235 99.0301 153.139 100.026 153.01C100.219 152.978 100.411 153.139 100.444 153.331C100.476 153.524 100.315 153.717 100.122 153.749C99.1265 153.877 98.0985 153.974 97.0705 154.07C97.1026 154.07 97.0705 154.07 97.0705 154.07ZM85.0558 153.781H85.0237C84.0278 153.653 82.9999 153.524 82.0361 153.363C81.8434 153.331 81.6828 153.139 81.7149 152.914C81.747 152.721 81.9397 152.56 82.1646 152.592C83.1283 152.753 84.1242 152.914 85.1201 153.01C85.3129 153.042 85.4735 153.235 85.4414 153.428C85.3771 153.653 85.2165 153.781 85.0558 153.781ZM104.523 153.074C104.363 153.074 104.202 152.946 104.17 152.785C104.138 152.592 104.266 152.368 104.459 152.335C105.423 152.143 106.419 151.918 107.383 151.693C107.575 151.629 107.8 151.757 107.832 151.982C107.897 152.175 107.768 152.4 107.543 152.432C106.547 152.689 105.551 152.882 104.588 153.074C104.588 153.074 104.556 153.074 104.523 153.074ZM77.635 152.432C77.6029 152.432 77.5708 152.432 77.5387 152.432C76.5428 152.207 75.579 151.918 74.6153 151.629C74.4225 151.564 74.2941 151.372 74.3583 151.147C74.4226 150.954 74.6153 150.826 74.8402 150.89C75.8039 151.179 76.7677 151.436 77.7314 151.661C77.9242 151.725 78.0527 151.918 78.0205 152.111C77.9563 152.335 77.7957 152.432 77.635 152.432ZM111.816 151.179C111.655 151.179 111.495 151.083 111.462 150.922C111.398 150.729 111.494 150.504 111.719 150.44C112.651 150.119 113.615 149.798 114.546 149.444C114.739 149.38 114.964 149.476 115.028 149.669C115.092 149.862 114.996 150.087 114.803 150.151C113.872 150.504 112.908 150.858 111.944 151.147C111.88 151.179 111.848 151.179 111.816 151.179ZM70.4391 150.215C70.407 150.215 70.3427 150.215 70.3106 150.183C69.379 149.83 68.4152 149.444 67.4836 149.027C67.2909 148.93 67.1945 148.705 67.2909 148.545C67.3873 148.352 67.6121 148.256 67.7728 148.352C68.6722 148.738 69.636 149.123 70.5676 149.476C70.7603 149.541 70.8567 149.765 70.7925 149.958C70.7282 150.119 70.5997 150.215 70.4391 150.215ZM118.819 148.416C118.69 148.416 118.53 148.352 118.466 148.191C118.369 147.999 118.466 147.774 118.658 147.677C119.558 147.26 120.457 146.81 121.325 146.36C121.517 146.264 121.742 146.328 121.839 146.521C121.935 146.714 121.871 146.939 121.678 147.035C120.779 147.517 119.879 147.967 118.98 148.384C118.915 148.416 118.851 148.416 118.819 148.416ZM63.5644 147.131C63.5002 147.131 63.4359 147.131 63.4038 147.099C62.5043 146.617 61.6048 146.135 60.7374 145.621C60.5447 145.525 60.5125 145.3 60.6089 145.107C60.7053 144.915 60.9623 144.883 61.1229 144.979C61.9903 145.493 62.8577 145.975 63.7572 146.425C63.9499 146.521 64.0142 146.746 63.9178 146.939C63.8214 147.067 63.6929 147.131 63.5644 147.131ZM125.437 144.818C125.308 144.818 125.18 144.754 125.115 144.626C125.019 144.465 125.051 144.208 125.244 144.112C126.079 143.598 126.914 143.019 127.75 142.473C127.91 142.345 128.167 142.409 128.264 142.57C128.392 142.73 128.328 142.987 128.167 143.084C127.332 143.662 126.497 144.208 125.629 144.754C125.565 144.818 125.501 144.818 125.437 144.818ZM57.1073 143.244C57.0431 143.244 56.9467 143.212 56.8825 143.18C56.0472 142.602 55.2441 142.023 54.441 141.413C54.2804 141.285 54.2482 141.06 54.3767 140.899C54.5052 140.738 54.7301 140.706 54.8907 140.835C55.6939 141.445 56.497 142.023 57.3322 142.602C57.4928 142.73 57.5571 142.955 57.4286 143.116C57.3643 143.18 57.2358 143.244 57.1073 143.244ZM131.572 140.481C131.476 140.481 131.348 140.449 131.283 140.353C131.155 140.192 131.187 139.967 131.348 139.839C132.119 139.229 132.89 138.554 133.628 137.911C133.789 137.783 134.014 137.783 134.175 137.944C134.303 138.104 134.303 138.329 134.142 138.49C133.404 139.164 132.6 139.807 131.829 140.449C131.733 140.449 131.637 140.481 131.572 140.481ZM51.1964 138.586C51.1 138.586 51.0036 138.554 50.9394 138.49C50.2005 137.815 49.4295 137.14 48.7228 136.434C48.5621 136.273 48.5621 136.048 48.7228 135.888C48.8834 135.727 49.1083 135.727 49.2689 135.888C49.9757 136.594 50.7145 137.269 51.4534 137.911C51.614 138.04 51.614 138.297 51.4855 138.458C51.3891 138.554 51.2928 138.586 51.1964 138.586ZM137.13 135.406C137.034 135.406 136.937 135.374 136.873 135.309C136.712 135.149 136.712 134.924 136.873 134.763C137.58 134.057 138.254 133.318 138.929 132.579C139.058 132.418 139.315 132.418 139.475 132.547C139.636 132.675 139.636 132.932 139.507 133.093C138.833 133.832 138.158 134.603 137.451 135.309C137.323 135.374 137.226 135.406 137.13 135.406ZM45.8637 133.286C45.7673 133.286 45.6709 133.253 45.5746 133.157C44.8999 132.418 44.2574 131.647 43.6149 130.844C43.4864 130.683 43.5186 130.459 43.6792 130.33C43.8398 130.202 44.0647 130.234 44.1932 130.394C44.8357 131.165 45.4782 131.936 46.1207 132.675C46.2492 132.836 46.2492 133.061 46.0886 133.221C46.0564 133.253 45.96 133.286 45.8637 133.286ZM142.045 129.72C141.981 129.72 141.885 129.688 141.82 129.655C141.66 129.527 141.627 129.302 141.756 129.141C142.366 128.338 142.945 127.535 143.523 126.732C143.651 126.571 143.876 126.507 144.037 126.636C144.197 126.764 144.262 126.989 144.133 127.15C143.555 127.985 142.977 128.788 142.334 129.591C142.27 129.655 142.174 129.72 142.045 129.72ZM41.2056 127.375C41.0771 127.375 40.9807 127.31 40.8843 127.214C40.3061 126.379 39.76 125.543 39.2139 124.676C39.1175 124.515 39.1496 124.258 39.3424 124.162C39.503 124.066 39.76 124.098 39.8564 124.291C40.3703 125.126 40.9486 125.961 41.4947 126.796C41.6232 126.957 41.559 127.214 41.3984 127.31C41.3662 127.342 41.2698 127.375 41.2056 127.375ZM146.253 123.487C146.189 123.487 146.125 123.455 146.061 123.423C145.868 123.327 145.836 123.102 145.932 122.909C146.446 122.042 146.928 121.174 147.378 120.275C147.474 120.082 147.699 120.018 147.892 120.114C148.085 120.211 148.149 120.436 148.052 120.628C147.571 121.528 147.089 122.427 146.575 123.295C146.51 123.391 146.382 123.487 146.253 123.487ZM37.3185 120.95C37.19 120.95 37.0615 120.885 36.9972 120.757C36.5154 119.857 36.0656 118.958 35.648 118.058C35.5516 117.866 35.648 117.641 35.8408 117.544C36.0335 117.448 36.2584 117.544 36.3547 117.737C36.7724 118.637 37.2221 119.536 37.6719 120.403C37.7682 120.596 37.704 120.821 37.5112 120.918C37.4149 120.918 37.3506 120.95 37.3185 120.95ZM149.691 116.773C149.627 116.773 149.594 116.773 149.53 116.741C149.337 116.645 149.241 116.42 149.337 116.259C149.723 115.36 150.108 114.428 150.462 113.497C150.526 113.304 150.751 113.208 150.944 113.272C151.136 113.336 151.233 113.561 151.169 113.754C150.815 114.717 150.43 115.649 150.012 116.581C149.98 116.677 149.819 116.773 149.691 116.773ZM34.2024 114.107C34.0418 114.107 33.9133 114.011 33.849 113.85C33.4957 112.918 33.1423 111.955 32.821 110.991C32.7568 110.798 32.8532 110.573 33.078 110.509C33.2708 110.445 33.4957 110.541 33.5599 110.766C33.8812 111.698 34.2024 112.661 34.5558 113.593C34.62 113.786 34.5237 114.011 34.3309 114.075C34.2988 114.075 34.2345 114.107 34.2024 114.107ZM152.261 109.674C152.229 109.674 152.197 109.674 152.164 109.674C151.972 109.61 151.843 109.417 151.907 109.192C152.197 108.228 152.454 107.264 152.678 106.301C152.743 106.108 152.935 105.979 153.128 106.012C153.321 106.076 153.449 106.269 153.417 106.461C153.192 107.425 152.903 108.421 152.614 109.385C152.582 109.577 152.421 109.674 152.261 109.674ZM31.9537 106.911C31.7931 106.911 31.6324 106.783 31.6003 106.622C31.3433 105.658 31.1506 104.662 30.9578 103.667C30.9257 103.474 31.0542 103.249 31.2469 103.217C31.4397 103.185 31.6645 103.313 31.6967 103.506C31.8894 104.47 32.1143 105.465 32.3392 106.429C32.4034 106.622 32.2749 106.847 32.05 106.879C32.0179 106.911 31.9858 106.911 31.9537 106.911ZM153.963 102.349C153.931 102.349 153.931 102.349 153.899 102.349C153.706 102.317 153.546 102.125 153.578 101.9C153.739 100.904 153.899 99.9079 153.996 98.9442C154.028 98.7514 154.22 98.5908 154.413 98.6229C154.606 98.6551 154.767 98.8478 154.734 99.0405C154.606 100.036 154.477 101.032 154.317 102.028C154.317 102.221 154.156 102.349 153.963 102.349ZM30.5723 99.5224C30.3795 99.5224 30.2189 99.3939 30.1868 99.2012C30.0583 98.2053 29.9619 97.1773 29.8977 96.1815C29.8977 95.9887 30.0262 95.7959 30.251 95.7638C30.4438 95.7317 30.6366 95.8923 30.6687 96.1172C30.7329 97.1131 30.8293 98.1089 30.9578 99.1048C30.9899 99.2975 30.8293 99.4903 30.6366 99.5224C30.6044 99.5224 30.6044 99.5224 30.5723 99.5224ZM154.766 94.8643C154.542 94.8643 154.381 94.6716 154.381 94.4788C154.413 93.483 154.445 92.4871 154.445 91.4912V91.2342C154.445 91.0415 154.606 90.8487 154.831 90.8487C155.024 90.8487 155.216 91.0094 155.216 91.2342V91.4912C155.216 92.4871 155.184 93.5151 155.152 94.511C155.152 94.7037 154.991 94.8643 154.766 94.8643ZM30.1225 92.0052C29.9298 92.0052 29.7371 91.8446 29.7371 91.6197V91.4912C29.7371 90.5275 29.7692 89.5637 29.8013 88.6C29.8013 88.4073 29.9619 88.2145 30.1868 88.2466C30.3796 88.2466 30.5402 88.4394 30.5402 88.6321C30.5081 89.5959 30.4759 90.5596 30.4759 91.4912V91.6197C30.5081 91.8125 30.3474 92.0052 30.1225 92.0052ZM154.67 87.0901C154.477 87.0901 154.317 86.9295 154.285 86.7368C154.22 85.7409 154.124 84.745 153.996 83.7492C153.963 83.5564 154.124 83.3637 154.317 83.3316C154.51 83.2994 154.702 83.4601 154.734 83.6528C154.863 84.6487 154.959 85.6767 155.024 86.6725C155.056 86.8653 154.895 87.058 154.67 87.0901C154.702 87.0901 154.67 87.0901 154.67 87.0901ZM30.5402 84.488H30.5081C30.3153 84.4559 30.1547 84.2632 30.1868 84.0704C30.3153 83.0746 30.4438 82.0787 30.6044 81.0828C30.6365 80.8901 30.8293 80.7295 31.022 80.7616C31.2148 80.7937 31.3754 80.9865 31.3433 81.1792C31.1827 82.1751 31.022 83.1709 30.9257 84.1347C30.8935 84.3274 30.7329 84.488 30.5402 84.488ZM153.642 79.6372C153.482 79.6372 153.321 79.5087 153.289 79.3481C153.096 78.3843 152.871 77.3885 152.646 76.4247C152.582 76.232 152.711 76.0071 152.935 75.975C153.128 75.9107 153.353 76.0393 153.385 76.2641C153.642 77.2279 153.867 78.2237 154.06 79.2196C154.092 79.4123 153.963 79.6372 153.771 79.6693C153.706 79.6051 153.674 79.6372 153.642 79.6372ZM31.8894 77.0672C31.8573 77.0672 31.8252 77.0672 31.7931 77.0672C31.6003 77.003 31.4718 76.8102 31.5039 76.6175C31.7288 75.6537 32.0179 74.6579 32.307 73.6941C32.3713 73.5014 32.564 73.3729 32.7889 73.4371C32.9817 73.5014 33.1102 73.6941 33.0459 73.919C32.7568 74.8827 32.4998 75.8465 32.2749 76.8102C32.2107 76.9708 32.05 77.0672 31.8894 77.0672ZM151.747 72.3449C151.586 72.3449 151.426 72.2485 151.393 72.0879C151.072 71.1563 150.751 70.1925 150.398 69.2609C150.333 69.0682 150.43 68.8433 150.622 68.779C150.815 68.7148 151.04 68.8112 151.104 69.0039C151.458 69.9355 151.811 70.8993 152.132 71.863C152.197 72.0558 152.1 72.2807 151.907 72.3449C151.811 72.3449 151.779 72.3449 151.747 72.3449ZM34.106 69.8713C34.0739 69.8713 34.0096 69.8713 33.9775 69.8392C33.7848 69.7749 33.6884 69.5501 33.7527 69.3573C34.106 68.3936 34.4915 67.4619 34.877 66.5303C34.9734 66.3376 35.1661 66.2412 35.3589 66.3376C35.5516 66.4339 35.648 66.6588 35.5516 66.8194C35.1661 67.7189 34.7806 68.6506 34.4273 69.6143C34.3951 69.7749 34.2666 69.8713 34.106 69.8713ZM148.952 65.3417C148.823 65.3417 148.663 65.2775 148.599 65.1168C148.181 64.2173 147.731 63.3179 147.249 62.4505C147.153 62.2577 147.217 62.0329 147.41 61.9365C147.603 61.8401 147.828 61.9044 147.924 62.0971C148.406 62.9966 148.856 63.8961 149.273 64.7956C149.37 64.9883 149.273 65.2132 149.08 65.3096C149.048 65.3417 149.016 65.3417 148.952 65.3417ZM37.19 62.9966C37.1257 62.9966 37.0615 62.9966 37.0294 62.9645C36.8366 62.8681 36.7724 62.6432 36.8687 62.4505C37.3185 61.551 37.8325 60.6515 38.3465 59.7841C38.4429 59.5914 38.6677 59.5593 38.8605 59.6556C39.0532 59.752 39.0854 59.9769 38.989 60.1696C38.475 61.037 37.9931 61.9044 37.5434 62.8039C37.447 62.9324 37.3185 62.9966 37.19 62.9966ZM145.354 58.7561C145.225 58.7561 145.097 58.6919 145.033 58.5955C144.519 57.7603 143.94 56.925 143.394 56.0898C143.266 55.9292 143.33 55.6722 143.491 55.5758C143.651 55.4473 143.908 55.5115 144.005 55.6722C144.583 56.5074 145.161 57.3427 145.675 58.21C145.772 58.3706 145.739 58.6276 145.547 58.724C145.482 58.724 145.418 58.7561 145.354 58.7561ZM41.0771 56.5395C41.0129 56.5395 40.9165 56.5074 40.8522 56.4753C40.6916 56.3468 40.6274 56.1219 40.7559 55.9613C41.3341 55.126 41.9445 54.2908 42.5227 53.5198C42.6512 53.3592 42.8761 53.3271 43.0367 53.4556C43.1973 53.5841 43.2294 53.8089 43.1009 53.9696C42.4906 54.7405 41.9123 55.5758 41.3341 56.411C41.302 56.5074 41.2056 56.5395 41.0771 56.5395ZM140.985 52.6524C140.889 52.6524 140.76 52.6203 140.696 52.5239C140.053 51.7529 139.411 50.9819 138.768 50.2431C138.64 50.0825 138.64 49.8576 138.801 49.697C138.961 49.5685 139.186 49.5685 139.347 49.7291C140.021 50.468 140.664 51.2389 141.306 52.0421C141.435 52.2027 141.403 52.4276 141.242 52.5561C141.146 52.6203 141.049 52.6524 140.985 52.6524ZM45.703 50.6286C45.6067 50.6286 45.5103 50.5965 45.4461 50.5322C45.2854 50.4037 45.2854 50.1467 45.4139 49.9861C46.0886 49.2472 46.7632 48.4762 47.4699 47.7695C47.6305 47.6089 47.8554 47.6089 48.016 47.7695C48.1767 47.9301 48.1767 48.155 48.016 48.3156C47.3093 49.0223 46.6347 49.7612 45.9922 50.5001C45.9279 50.5643 45.7994 50.6286 45.703 50.6286ZM135.909 47.0949C135.813 47.0949 135.717 47.0627 135.652 46.9985C134.946 46.2917 134.207 45.6171 133.468 44.9746C133.307 44.8461 133.307 44.5891 133.436 44.4285C133.564 44.2679 133.821 44.2679 133.982 44.3964C134.721 45.071 135.492 45.7456 136.198 46.4524C136.359 46.613 136.359 46.8379 136.198 46.9985C136.102 47.0306 136.006 47.0949 135.909 47.0949ZM51.0358 45.2637C50.9394 45.2637 50.843 45.2316 50.7466 45.1353C50.6181 44.9746 50.6181 44.7498 50.7788 44.5891C51.5176 43.9145 52.2886 43.272 53.0917 42.6295C53.2523 42.501 53.4773 42.5331 53.6058 42.6938C53.7343 42.8544 53.7021 43.0793 53.5415 43.2078C52.7705 43.8503 51.9995 44.4928 51.2606 45.1353C51.1964 45.2638 51.1 45.2637 51.0358 45.2637ZM130.191 42.1798C130.127 42.1798 130.03 42.1477 129.966 42.1155C129.163 41.5052 128.36 40.9269 127.525 40.3487C127.364 40.2202 127.3 39.9953 127.428 39.8347C127.557 39.674 127.782 39.6098 127.942 39.7383C128.778 40.3165 129.613 40.8948 130.416 41.5052C130.577 41.6337 130.609 41.8585 130.48 42.0191C130.416 42.1155 130.287 42.1798 130.191 42.1798ZM56.9146 40.6057C56.7861 40.6057 56.6897 40.5414 56.5933 40.445C56.4648 40.2844 56.5291 40.0274 56.6897 39.931C57.525 39.3528 58.3602 38.7746 59.2276 38.2606C59.3882 38.1321 59.6452 38.1963 59.7416 38.3891C59.8379 38.5497 59.8058 38.8067 59.6131 38.9031C58.7778 39.4171 57.9426 39.9632 57.1073 40.5414C57.0752 40.6057 57.011 40.6057 56.9146 40.6057ZM123.927 38.0036C123.863 38.0036 123.798 37.9714 123.734 37.9393C122.867 37.4253 121.999 36.9434 121.1 36.4937C120.907 36.3973 120.843 36.1725 120.939 35.9797C121.036 35.787 121.26 35.7227 121.453 35.8191C122.353 36.3009 123.252 36.7828 124.12 37.2968C124.312 37.3932 124.344 37.6181 124.248 37.8108C124.184 37.9072 124.055 38.0036 123.927 38.0036ZM63.3395 36.7186C63.211 36.7186 63.0825 36.6543 63.0183 36.5258C62.9219 36.3331 62.9861 36.1082 63.1789 36.0118C64.0463 35.5621 64.9779 35.0802 65.8774 34.6626C66.0701 34.5662 66.295 34.6626 66.3914 34.8553C66.4877 35.0481 66.3914 35.273 66.1986 35.3693C65.2991 35.787 64.3996 36.2367 63.5323 36.7186C63.468 36.6864 63.4038 36.7186 63.3395 36.7186ZM117.213 34.5983C117.148 34.5983 117.116 34.5983 117.052 34.5662C116.153 34.1807 115.189 33.7952 114.257 33.4419C114.064 33.3776 113.968 33.1527 114.032 32.96C114.097 32.7672 114.321 32.6709 114.514 32.7351C115.446 33.0885 116.41 33.474 117.341 33.8595C117.534 33.9558 117.63 34.1486 117.534 34.3413C117.502 34.502 117.341 34.5983 117.213 34.5983ZM70.1821 33.6025C70.0215 33.6025 69.893 33.5061 69.8287 33.3455C69.7645 33.1527 69.8609 32.9278 70.0536 32.8636C70.9852 32.5102 71.949 32.1569 72.9127 31.8356C73.1055 31.7714 73.3303 31.8677 73.3946 32.0605C73.4588 32.2532 73.3624 32.4781 73.1697 32.5424C72.2381 32.8636 71.2743 33.1848 70.3427 33.5382C70.2785 33.6025 70.2464 33.6025 70.1821 33.6025ZM110.113 32.0284C110.081 32.0284 110.049 32.0284 110.017 32.0284C109.085 31.7392 108.089 31.4822 107.126 31.2574C106.933 31.1931 106.804 31.0004 106.836 30.8076C106.901 30.6149 107.093 30.4864 107.286 30.5185C108.282 30.7434 109.246 31.0325 110.21 31.2895C110.402 31.3537 110.531 31.5465 110.467 31.7714C110.434 31.932 110.274 32.0284 110.113 32.0284ZM77.3781 31.3537C77.2174 31.3537 77.0568 31.2252 77.0247 31.0646C76.9604 30.8719 77.0889 30.647 77.3138 30.6149C78.3096 30.3579 79.3055 30.133 80.2693 29.9403C80.462 29.9081 80.6869 30.0366 80.719 30.2294C80.7511 30.4221 80.6227 30.647 80.4299 30.6791C79.4662 30.8719 78.4703 31.0967 77.5065 31.3216C77.4423 31.3216 77.4102 31.3537 77.3781 31.3537ZM102.789 30.3257C102.757 30.3257 102.757 30.3257 102.724 30.3257C101.761 30.1651 100.765 30.0366 99.769 29.9081C99.5762 29.876 99.4156 29.6833 99.4477 29.4905C99.4799 29.2978 99.6726 29.1371 99.8654 29.1693C100.861 29.2978 101.889 29.4263 102.853 29.5869C103.046 29.619 103.206 29.8118 103.174 30.0045C103.11 30.1972 102.949 30.3257 102.789 30.3257ZM84.7667 29.9724C84.574 29.9724 84.4133 29.8439 84.3812 29.6511C84.3491 29.4584 84.5097 29.2656 84.7025 29.2335C85.6983 29.105 86.7263 29.0086 87.7222 28.9444C87.9149 28.9123 88.1077 29.0729 88.1398 29.2978C88.1398 29.4905 88.0113 29.6833 87.7864 29.7154C86.7906 29.7796 85.7947 29.876 84.7989 30.0045C84.7989 29.9724 84.7989 29.9724 84.7667 29.9724ZM95.3036 29.5548C95.3036 29.5548 95.2715 29.5548 95.3036 29.5548C94.372 29.5226 93.4404 29.4905 92.5088 29.4905H92.3161C92.1233 29.4905 91.9305 29.3299 91.9305 29.105C91.9305 28.9123 92.0912 28.7195 92.3161 28.7195H92.5088C93.4725 28.7195 94.4041 28.7516 95.3357 28.7838C95.5285 28.7838 95.6891 28.9765 95.6891 29.1693C95.657 29.3941 95.4964 29.5548 95.3036 29.5548Z" fill="#3B4042"/>
<path d="M92.4767 92.5513L59.9664 60.0411L61.0266 58.981L92.4767 90.4311L123.927 58.981L124.987 60.0411L92.4767 92.5513Z" fill="#3B4042"/>
<path d="M99.3835 109.802H85.602L73.8765 98.0768L80.976 90.9772L82.0362 92.0374L75.9967 98.0768L86.2124 108.292H98.741L108.957 98.0768L102.917 92.0374L103.977 90.9772L111.109 98.0768L99.3835 109.802Z" fill="#3B4042"/>
<path d="M139.989 97.6913H110.049V98.4302H139.989V97.6913Z" fill="#3B4042"/>
<path d="M75.4828 97.6913H45.5425V98.4302H75.4828V97.6913Z" fill="#3B4042"/>
<path d="M98.3555 65.3095H86.5979V42.0191H98.3555V65.3095ZM87.3689 64.5707H97.6167V42.7901H87.3689V64.5707Z" fill="#3B4042"/>
<path d="M104.138 135.695H80.8475V123.937H104.138V135.695ZM81.5864 134.924H103.367V124.676H81.5864V134.924Z" fill="#3B4042"/>
</g>
</svg>
