<svg width="20" height="17" viewBox="0 0 20 17" fill="none" xmlns="http://www.w3.org/2000/svg">
<path d="M19 1.04767e-06H12C11.8687 -0.000189449 11.7386 0.0256001 11.6172 0.0758854C11.4959 0.126171 11.3857 0.199959 11.293 0.293001L10 1.586L8.707 0.293001C8.51951 0.105452 8.26519 5.76851e-05 8 1.04767e-06H1C0.734784 1.04767e-06 0.48043 0.105358 0.292893 0.292894C0.105357 0.480431 0 0.734785 0 1V14C0 14.2652 0.105357 14.5196 0.292893 14.7071C0.48043 14.8946 0.734784 15 1 15H7.586L9.293 16.707C9.38565 16.8002 9.49581 16.8741 9.61715 16.9246C9.73848 16.9751 9.86859 17.001 10 17.001C10.1314 17.001 10.2615 16.9751 10.3829 16.9246C10.5042 16.8741 10.6143 16.8002 10.707 16.707L12.414 15H19C19.2652 15 19.5196 14.8946 19.7071 14.7071C19.8946 14.5196 20 14.2652 20 14V1C20 0.734785 19.8946 0.480431 19.7071 0.292894C19.5196 0.105358 19.2652 1.04767e-06 19 1.04767e-06ZM8 13H2V2H7.586L9 3.415V13.587L8.707 13.294C8.61434 13.2008 8.50418 13.1269 8.38285 13.0764C8.26152 13.026 8.13141 13 8 13ZM18 13H12C11.8687 12.9998 11.7386 13.0256 11.6172 13.0759C11.4959 13.1262 11.3857 13.2 11.293 13.293L11 13.586V3.415L12.414 2H18V13Z" fill="#3B4042"/>
<path d="M5 4H8V6H5V4Z" fill="#3B4042"/>
<path d="M3 7H8V9H3V7Z" fill="#3B4042"/>
<path d="M3 10H8V12H3V10Z" fill="#3B4042"/>
<path d="M12 10H17V12H12V10Z" fill="#3B4042"/>
<path d="M12 7H17V9H12V7Z" fill="#3B4042"/>
<path d="M12 4H15V6H12V4Z" fill="#3B4042"/>
</svg>
