<svg width="24" height="22" viewBox="0 0 24 22" fill="none" xmlns="http://www.w3.org/2000/svg">
<path d="M20.998 22L15.664 18H12.498C11.671 18 10.998 17.327 10.998 16.5V9.5C10.998 8.673 11.671 8 12.498 8H22.498C23.325 8 23.998 8.673 23.998 9.5V16.5C23.998 17.327 23.325 18 22.498 18H20.998V22ZM12.998 16H16.332L18.998 18V16H21.998V10H12.998V16Z" fill="white"/>
<path d="M2.99805 18V14H1.49805C0.671047 14 -0.00195312 13.327 -0.00195312 12.5V1.5C-0.00195312 0.673 0.671047 0 1.49805 0H14.498C15.325 0 15.998 0.673 15.998 1.5V5.998H13.998V2H1.99805V12H4.99805V14L7.66405 12H8.99805V14H8.33205L2.99805 18Z" fill="white"/>
</svg>
