<svg width="24" height="24" viewBox="0 0 24 24" xmlns="http://www.w3.org/2000/svg">
<path d="M20 8H16.885C17.3396 7.7721 17.7565 7.47563 18.121 7.121C18.6829 6.55816 18.9985 5.79533 18.9985 5C18.9985 4.20467 18.6829 3.44184 18.121 2.879C16.987 1.746 15.013 1.746 13.879 2.879C12.242 4.516 12.02 7.597 12 7.943C11.98 7.596 11.758 4.515 10.121 2.879C8.987 1.746 7.011 1.747 5.879 2.879C5.313 3.445 5 4.199 5 5C5 5.801 5.313 6.555 5.879 7.121C6.236 7.479 6.663 7.765 7.115 8H4C2.896 8 2 8.897 2 10V13C2 13.2652 2.10536 13.5196 2.29289 13.7071C2.48043 13.8946 2.73478 14 3 14V20C3 21.103 3.896 22 5 22H19C20.104 22 21 21.103 21 20V14C21.2652 14 21.5196 13.8946 21.7071 13.7071C21.8946 13.5196 22 13.2652 22 13V10C22 8.897 21.104 8 20 8ZM8 20H5V14H8V20ZM8 12H4V10H8V12ZM7.293 5.707C7.104 5.518 7 5.267 7 5C7 4.733 7.104 4.482 7.293 4.293C7.482 4.104 7.732 4.001 8 4.001C8.268 4.001 8.518 4.105 8.707 4.294C9.297 4.883 9.641 5.941 9.825 6.824C8.945 6.639 7.88 6.295 7.293 5.707ZM14 20H10V14H14V20ZM14 12H10V10H14V12ZM15.293 4.294C15.482 4.105 15.732 4.001 16 4.001C16.268 4.001 16.518 4.105 16.707 4.293C17.096 4.684 17.097 5.317 16.707 5.707C16.116 6.298 15.057 6.643 14.174 6.826C14.358 5.943 14.703 4.884 15.293 4.294ZM19 20H16V14H19V20ZM20 12H16V10H20V12Z" />
</svg>
