<svg width="24" height="24" viewBox="0 0 24 24" fill="none" xmlns="http://www.w3.org/2000/svg">
<g clip-path="url(#clip0)">
<path d="M8 18.001H6V2.00101H16V7.99501H18V1.00101C18 0.735791 17.8946 0.481437 17.7071 0.2939C17.5196 0.106364 17.2652 0.00100708 17 0.00100708H1C0.734784 0.00100708 0.48043 0.106364 0.292893 0.2939C0.105357 0.481437 0 0.735791 0 1.00101L0 19.001C0 19.2662 0.105357 19.5206 0.292893 19.7081C0.48043 19.8957 0.734784 20.001 1 20.001H8V18.001ZM4 18.001H2V2.00101H4V18.001Z" fill="#3B4042"/>
<path d="M17 24.001C13.141 24.001 10 20.861 10 17.001C10 13.141 13.141 10.001 17 10.001C20.859 10.001 24 13.141 24 17.001C24 20.861 20.859 24.001 17 24.001ZM17 12.001C14.243 12.001 12 14.244 12 17.001C12 19.758 14.243 22.001 17 22.001C19.757 22.001 22 19.758 22 17.001C22 14.244 19.757 12.001 17 12.001Z" fill="#3B4042"/>
<path d="M20 18.001H16V13.001H18V16.001H20V18.001Z" fill="#3B4042"/>
</g>
<defs>
<clipPath id="clip0">
<rect width="24" height="24" fill="white"/>
</clipPath>
</defs>
</svg>
