<svg width="24" height="24" viewBox="0 0 24 24" fill="none" xmlns="http://www.w3.org/2000/svg">
<path d="M12 18C12.8284 18 13.5 17.3284 13.5 16.5C13.5 15.6716 12.8284 15 12 15C11.1716 15 10.5 15.6716 10.5 16.5C10.5 17.3284 11.1716 18 12 18Z" fill="#3B4042"/>
<path d="M17 11V7C17 4.243 14.757 2 12 2C9.243 2 7 4.243 7 7V11C6.46957 11 5.96086 11.2107 5.58579 11.5858C5.21071 11.9609 5 12.4696 5 13V20C5 21.103 5.896 22 7 22H17C18.104 22 19 21.103 19 20V13C19 12.4696 18.7893 11.9609 18.4142 11.5858C18.0391 11.2107 17.5304 11 17 11ZM9 7C9 5.346 10.346 4 12 4C13.654 4 15 5.346 15 7V11H9V7ZM7 20V13H17L17.002 20H7Z" fill="#3B4042"/>
</svg>
