<svg width="20" height="18" viewBox="0 0 20 18" fill="none" xmlns="http://www.w3.org/2000/svg">
<path d="M20 6.99999H16.58L12.868 0.502991L11.132 1.49499L14.277 6.99999H5.723L8.869 1.49599L7.132 0.503991L3.42 6.99999H0V8.99999H1.197L3.023 17.217C3.0724 17.4392 3.19615 17.6379 3.3738 17.7803C3.55144 17.9227 3.77234 18.0002 4 18H16C16.469 18 16.875 17.674 16.977 17.217L18.803 8.99999H20V6.99999ZM15.197 16H4.803L3.246 8.99999H16.754L15.197 16Z" fill="white"/>
<path d="M9 10H11V15H9V10Z" fill="white"/>
<path d="M12 10H14V15H12V10Z" fill="white"/>
<path d="M6 10H8V15H6V10Z" fill="white"/>
</svg>
