<svg width="18" height="18" viewBox="0 0 18 18" fill="none" xmlns="http://www.w3.org/2000/svg">
<path d="M14.2496 6.87427H14.25C15.5595 6.87427 16.625 5.8088 16.625 4.49927C16.625 3.18973 15.5595 2.12427 14.25 2.12427L14.2496 2.12427C13.7601 2.12565 13.2829 2.27864 12.8838 2.56219C12.509 2.82851 12.2203 3.19773 12.052 3.62427H1.5H1.375V3.74927V5.24927V5.37427H1.5H12.052C12.2203 5.80081 12.509 6.17003 12.8838 6.43634C13.2829 6.7199 13.7601 6.87288 14.2496 6.87427ZM14.25 3.87427C14.4158 3.87427 14.5747 3.94012 14.6919 4.05733C14.8092 4.17454 14.875 4.33351 14.875 4.49927C14.875 4.66503 14.8092 4.824 14.6919 4.94121C14.5747 5.05842 14.4158 5.12427 14.25 5.12427C14.0842 5.12427 13.9253 5.05842 13.8081 4.94121C13.6908 4.824 13.625 4.66503 13.625 4.49927C13.625 4.33351 13.6908 4.17454 13.8081 4.05733C13.9253 3.94012 14.0842 3.87427 14.25 3.87427Z" fill="#3B4042" stroke="#3B4042" stroke-width="0.25"/>
<path d="M6.75035 6.62427L6.74965 6.62427C6.26007 6.62565 5.78294 6.77864 5.38384 7.06219C5.009 7.32851 4.72027 7.69773 4.55198 8.12427H1.5H1.375V8.24927V9.74927V9.87427H1.5H4.55234C4.9014 10.7498 5.75011 11.3743 6.75 11.3743C7.74989 11.3743 8.5986 10.7498 8.94766 9.87427H16.5H16.625V9.74927V8.24927V8.12427H16.5H8.94802C8.77973 7.69773 8.491 7.32851 8.11616 7.06219C7.71706 6.77864 7.23993 6.62565 6.75035 6.62427ZM6.75 9.62427C6.58424 9.62427 6.42527 9.55842 6.30806 9.44121C6.19085 9.324 6.125 9.16503 6.125 8.99927C6.125 8.83351 6.19085 8.67454 6.30806 8.55733C6.42527 8.44012 6.58424 8.37427 6.75 8.37427C6.91576 8.37427 7.07473 8.44012 7.19194 8.55733C7.30915 8.67454 7.375 8.83351 7.375 8.99927C7.375 9.16503 7.30915 9.324 7.19194 9.44121C7.07473 9.55842 6.91576 9.62427 6.75 9.62427Z" fill="#3B4042" stroke="#3B4042" stroke-width="0.25"/>
<path d="M14.25 11.1243L14.2496 11.1243C13.7601 11.1257 13.2829 11.2786 12.8838 11.5622C12.509 11.8285 12.2203 12.1977 12.052 12.6243H1.5H1.375V12.7493V14.2493V14.3743H1.5H12.052C12.2204 14.8007 12.5091 15.1699 12.8839 15.4362C13.283 15.7197 13.7601 15.8728 14.2496 15.8743H14.25C15.5595 15.8743 16.625 14.8088 16.625 13.4993C16.625 12.1897 15.5595 11.1243 14.25 11.1243ZM14.25 14.1243C14.0842 14.1243 13.9253 14.0584 13.8081 13.9412C13.6908 13.824 13.625 13.665 13.625 13.4993C13.625 13.3335 13.6908 13.1745 13.8081 13.0573C13.9253 12.9401 14.0842 12.8743 14.25 12.8743C14.4158 12.8743 14.5747 12.9401 14.6919 13.0573C14.8092 13.1745 14.875 13.3335 14.875 13.4993C14.875 13.665 14.8092 13.824 14.6919 13.9412C14.5747 14.0584 14.4158 14.1243 14.25 14.1243Z" fill="#3B4042" stroke="#3B4042" stroke-width="0.25"/>
</svg>
