<svg width="18" height="18" viewBox="0 0 18 18" fill="none" xmlns="http://www.w3.org/2000/svg">
<path d="M12.75 6.4395L10.8105 4.5H8.6895L12.75 8.56125V14.25H10.0605L5.25 9.4395V4.5H3.75V15C3.75 15.1989 3.82902 15.3897 3.96967 15.5303C4.11032 15.671 4.30109 15.75 4.5 15.75H13.5C13.6989 15.75 13.8897 15.671 14.0303 15.5303C14.171 15.3897 14.25 15.1989 14.25 15V4.5H12.75V6.4395ZM5.25 11.5612L7.9395 14.25H5.25V11.5612Z" fill="white"/>
<path d="M17.25 2.25H0.75C0.551088 2.25 0.360322 2.32902 0.21967 2.46967C0.0790176 2.61032 0 2.80109 0 3L0 7.5C0 7.69891 0.0790176 7.88968 0.21967 8.03033C0.360322 8.17098 0.551088 8.25 0.75 8.25H3V6.75H1.5V3.75H16.5V6.75H15V8.25H17.25C17.4489 8.25 17.6397 8.17098 17.7803 8.03033C17.921 7.88968 18 7.69891 18 7.5V3C18 2.80109 17.921 2.61032 17.7803 2.46967C17.6397 2.32902 17.4489 2.25 17.25 2.25Z" fill="white"/>
<path d="M11.25 9C11.25 7.7595 10.2405 6.75 9 6.75C7.7595 6.75 6.75 7.7595 6.75 9C6.75 10.2405 7.7595 11.25 9 11.25C10.2405 11.25 11.25 10.2405 11.25 9ZM8.25 9C8.25 8.58675 8.58675 8.25 9 8.25C9.41325 8.25 9.75 8.58675 9.75 9C9.75 9.41325 9.41325 9.75 9 9.75C8.58675 9.75 8.25 9.41325 8.25 9Z" fill="white"/>
</svg>
