<svg width="24" height="24" viewBox="0 0 24 24" fill="none" xmlns="http://www.w3.org/2000/svg">
<path d="M0 6H6V8H0V6Z" fill="#3B4042"/>
<path d="M1 10H6V12H1V10Z" fill="#3B4042"/>
<path d="M2 14H6V16H2V14Z" fill="#3B4042"/>
<path d="M23 6H9C8.73478 6 8.48043 6.10536 8.29289 6.29289C8.10536 6.48043 8 6.73478 8 7V17C8 17.2652 8.10536 17.5196 8.29289 17.7071C8.48043 17.8946 8.73478 18 9 18H23C23.2652 18 23.5196 17.8946 23.7071 17.7071C23.8946 17.5196 24 17.2652 24 17V7C24 6.73478 23.8946 6.48043 23.7071 6.29289C23.5196 6.10536 23.2652 6 23 6ZM22 10.586L19.414 8H22V10.586ZM10 13.414L12.586 16H10V13.414ZM15.414 16L10 10.586V8H16.586L22 13.414V16H15.414Z" fill="#3B4042"/>
<path d="M16 14C17.1046 14 18 13.1046 18 12C18 10.8954 17.1046 10 16 10C14.8954 10 14 10.8954 14 12C14 13.1046 14.8954 14 16 14Z" fill="#3B4042"/>
</svg>
