<svg width="41" height="41" viewBox="0 0 41 41" fill="none" xmlns="http://www.w3.org/2000/svg">
<path d="M20.4999 0.083252C9.24217 0.083252 0.083252 9.24217 0.083252 20.4999C0.083252 31.7597 9.24217 40.9166 20.4999 40.9166C31.7577 40.9166 40.9166 31.7597 40.9166 20.4999C40.9166 9.24217 31.7577 0.083252 20.4999 0.083252ZM20.4999 36.8332C11.4941 36.8332 4.16658 29.5057 4.16658 20.4999C4.16658 11.4941 11.4941 4.16658 20.4999 4.16658C29.5057 4.16658 36.8332 11.4941 36.8332 20.4999C36.8332 29.5057 29.5057 36.8332 20.4999 36.8332Z" fill="#EB2D39"/>
<path d="M20.5 22.5416C16.2389 22.5327 12.1448 24.1978 9.09937 27.1782L11.9495 30.1039C14.2332 27.8679 17.3039 26.6185 20.5 26.6249C23.7749 26.6249 26.8496 27.8989 29.1608 30.2121L32.0497 27.3252C30.5368 25.8034 28.7369 24.597 26.7543 23.7759C24.7717 22.9548 22.6459 22.5352 20.5 22.5416Z" fill="#EB2D39"/>
<path d="M14.375 16.8291L17.4784 19.9345L19.9325 17.4804L16.8291 14.375L19.9325 11.2717L17.4784 8.81763L14.375 11.921L11.2717 8.81763L8.81763 11.2717L11.921 14.375L8.81763 17.4804L11.2717 19.9345L14.375 16.8291Z" fill="#EB2D39"/>
<path d="M23.2724 19.9345L26.3778 16.8291L29.4812 19.9345L31.9352 17.4804L28.8319 14.375L31.9352 11.2717L29.4812 8.81763L26.3778 11.921L23.2724 8.81763L20.8184 11.2717L23.9237 14.375L20.8184 17.4804L23.2724 19.9345Z" fill="#EB2D39"/>
</svg>
