<svg width="24" height="24" viewBox="0 0 24 24" fill="none" xmlns="http://www.w3.org/2000/svg">
<path d="M14 20.9961C13.433 20.9961 12.89 20.7721 12.474 20.2761L9.479 15.9961H7C5.897 15.9961 5 15.0991 5 13.9961V9.99611C5 8.89411 5.897 7.99611 7 7.99611H9.479L12.586 3.58211C12.8669 3.30491 13.2229 3.11608 13.61 3.03895C13.9971 2.96182 14.3983 2.99977 14.764 3.14811C15.1304 3.2984 15.4436 3.55448 15.6638 3.88364C15.8839 4.2128 16.001 4.60012 16 4.99611V18.9961C16.0009 19.259 15.9498 19.5195 15.8496 19.7626C15.7495 20.0056 15.6022 20.2265 15.4163 20.4124C15.2304 20.5983 15.0095 20.7456 14.7665 20.8458C14.5234 20.9459 14.2629 20.997 14 20.9961ZM7 9.99611V13.9961H10.521L14.001 18.9721L14 5.02311L10.521 9.99611H7Z" fill="#747A7C"/>
<path d="M18 14.9961V12.9961C18.2575 12.9846 18.5006 12.8742 18.6787 12.6879C18.8569 12.5017 18.9563 12.2539 18.9563 11.9961C18.9563 11.7384 18.8569 11.4906 18.6787 11.3043C18.5006 11.118 18.2575 11.0076 18 10.9961V8.99612C19.654 8.99612 21 10.3421 21 11.9961C21 13.6501 19.654 14.9961 18 14.9961Z" fill="#747A7C"/>
</svg>
