<svg width="19" height="19" viewBox="0 0 19 19" fill="none" xmlns="http://www.w3.org/2000/svg">
<path d="M18.414 1.70364L17 0.289642L0 17.2896L1.414 18.7036L6.586 13.5326L9.206 17.2776C9.623 17.7736 10.165 17.9976 10.732 17.9976C10.9948 17.9983 11.2552 17.947 11.4981 17.8467C11.7411 17.7465 11.9618 17.5992 12.1477 17.4133C12.3335 17.2275 12.4808 17.0067 12.5811 16.7638C12.6814 16.5208 12.7327 16.2605 12.732 15.9976V7.38664L18.414 1.70364ZM10.734 15.9726L8.023 12.0956L10.734 9.38464V15.9726Z" fill="#3B4042"/>
<path d="M3.73199 10.7286V6.99664H7.25299L10.732 2.02364V3.72864L12.697 1.76364C12.6601 1.41147 12.5291 1.07572 12.3178 0.791582C12.1065 0.507441 11.8226 0.285368 11.496 0.148638C11.1303 -9.67532e-05 10.729 -0.0382557 10.3419 0.0388906C9.95473 0.116037 9.59873 0.305097 9.31799 0.582638L6.21099 4.99664H3.73199C2.62899 4.99664 1.73199 5.89464 1.73199 6.99664V10.9966C1.73199 11.4796 1.91099 11.9176 2.19699 12.2646L3.73199 10.7286Z" fill="#3B4042"/>
</svg>
