<svg width="24" height="24" viewBox="0 0 24 24" fill="none" xmlns="http://www.w3.org/2000/svg">
<path d="M12 10.823L20.965 5.26C20.6709 5.09212 20.3386 5.00259 20 5H4C3.648 5 3.322 5.1 3.035 5.26L12 10.823Z" fill="#E73B27"/>
<path d="M12.527 12.8489C12.3688 12.9472 12.1864 12.9994 12.0001 12.9996C11.8139 12.9997 11.6314 12.9479 11.473 12.8499L2.003 6.97292C2.003 6.98192 2 6.99092 2 6.99892V15.9989C2 17.1009 2.897 17.9989 4 17.9989H20C21.103 17.9989 22 17.1009 22 15.9989V6.99892L21.997 6.97192L12.527 12.8489Z" fill="#E73B27"/>
</svg>
