<svg width="24" height="24" viewBox="0 0 24 24" fill="none" xmlns="http://www.w3.org/2000/svg">
<path fill-rule="evenodd" clip-rule="evenodd" d="M21.4564 6.81256C21.5969 6.34417 21.4564 6 20.7879 6H18.5774C18.0153 6 17.7562 6.29732 17.6157 6.62517C17.6157 6.62517 16.4916 9.3652 14.8991 11.145C14.3839 11.6602 14.1497 11.8242 13.8686 11.8242C13.7281 11.8242 13.5247 11.6602 13.5247 11.1919V6.81256C13.5247 6.2505 13.3616 6 12.8932 6H9.4195C9.06826 6 8.85702 6.26087 8.85702 6.5081C8.85702 7.04093 9.65322 7.1638 9.73529 8.66264V11.9179C9.73529 12.6316 9.6064 12.761 9.32537 12.761C8.57599 12.761 6.75312 10.0087 5.67199 6.85938C5.46012 6.24726 5.24761 6 4.68266 6H2.47213C1.84056 6 1.71423 6.29732 1.71423 6.62517C1.71423 7.21066 2.46365 10.1146 5.20365 13.9553C7.03029 16.5782 9.60392 18 11.9458 18C13.3509 18 13.5248 17.6842 13.5248 17.1403V15.1579C13.5248 14.5263 13.6579 14.4003 14.1028 14.4003C14.4307 14.4003 14.9928 14.5642 16.3042 15.8288C17.803 17.3276 18.0501 18 18.8932 18H21.1037C21.7353 18 22.0511 17.6842 21.8689 17.061C21.6696 16.4399 20.954 15.5388 20.0044 14.4705C19.4892 13.8616 18.7164 13.2059 18.4822 12.878C18.1543 12.4565 18.248 12.2691 18.4822 11.8945C18.4822 11.8945 21.1754 8.10058 21.4564 6.81256Z" fill="#4A76A8"/>
</svg>
