<svg width="24" height="24" viewBox="0 0 24 24" fill="none" xmlns="http://www.w3.org/2000/svg">
<g clip-path="url(#clip0)">
<path d="M15.001 17C14.7357 17 14.4814 16.8946 14.2939 16.7071C14.1063 16.5196 14.001 16.2652 14.001 16V14H13.001V12H15.001C15.2662 12 15.5205 12.1054 15.7081 12.2929C15.8956 12.4804 16.001 12.7348 16.001 13V14L18.401 12.2C18.5741 12.0702 18.7846 12 19.001 12C20.655 12 22.001 10.654 22.001 9V7C22.001 5.346 20.655 4 19.001 4H13.001C12.348 4.00162 11.7132 4.21554 11.1925 4.60949C10.6717 5.00345 10.2932 5.55607 10.114 6.184L8.18896 5.641C8.48735 4.59416 9.11818 3.6728 9.98623 3.01599C10.8543 2.35918 11.9124 2.00257 13.001 2H19.001C21.758 2 24.001 4.243 24.001 7V9C23.9996 10.2651 23.5193 11.4828 22.6566 12.4082C21.794 13.3336 20.6129 13.898 19.351 13.988L15.601 16.8C15.424 16.932 15.213 17 15.001 17Z" fill="#3B4042"/>
<path d="M8.00098 16C5.79498 16 4.00098 14.206 4.00098 12C4.00098 9.795 5.79498 8 8.00098 8C10.207 8 12.001 9.795 12.001 12C12.001 14.206 10.207 16 8.00098 16ZM8.00098 10C6.89798 10 6.00098 10.896 6.00098 12C6.00098 13.103 6.89798 14 8.00098 14C9.10398 14 10.001 13.103 10.001 12C10.001 10.896 9.10398 10 8.00098 10Z" fill="#3B4042"/>
<path d="M16.001 24H0.000976562V23C0.000976562 19.467 3.29098 17 8.00098 17C12.711 17 16.001 19.467 16.001 23V24ZM2.15998 22H13.843C13.245 20.192 11.01 19 8.00198 19C4.99398 19 2.75798 20.192 2.15998 22Z" fill="#3B4042"/>
</g>
<defs>
<clipPath id="clip0">
<rect width="24" height="24" fill="white"/>
</clipPath>
</defs>
</svg>
