<svg width="20" height="20" viewBox="0 0 20 20" fill="none" xmlns="http://www.w3.org/2000/svg">
<path d="M16.0001 20.001C15.8026 20.0011 15.6094 19.9426 15.4451 19.833L10.0001 16.203L4.55509 19.833C4.38484 19.9464 4.18394 20.0048 3.97947 20.0004C3.775 19.996 3.57679 19.929 3.41156 19.8085C3.24634 19.6879 3.12205 19.5196 3.05545 19.3262C2.98885 19.1329 2.98314 18.9237 3.03909 18.727L4.87709 12.292L0.29309 7.70801C0.153766 7.56798 0.0589911 7.38985 0.0206977 7.19606C-0.0175956 7.00227 0.00230522 6.80148 0.0778941 6.61897C0.153483 6.43647 0.281381 6.28041 0.445482 6.17045C0.609584 6.06048 0.802552 6.00153 1.00009 6.00102H6.38209L9.10609 0.554015C9.44509 -0.122985 10.5561 -0.122985 10.8951 0.554015L13.6191 6.00102H19.0001C19.1978 6.00106 19.3911 6.05973 19.5555 6.16961C19.72 6.2795 19.8481 6.43566 19.9238 6.61836C19.9994 6.80106 20.0192 7.00209 19.9807 7.19605C19.9421 7.39 19.8469 7.56816 19.7071 7.70801L15.1231 12.292L16.9611 18.727C17.0035 18.8758 17.0108 19.0323 16.9824 19.1843C16.9541 19.3364 16.8908 19.4797 16.7977 19.6032C16.7046 19.7267 16.5841 19.8269 16.4457 19.8959C16.3073 19.9649 16.1547 20.0009 16.0001 20.001ZM10.0001 14.001C10.1931 14.001 10.3871 14.058 10.5551 14.169L14.2911 16.66L13.0391 12.276C12.9896 12.1046 12.987 11.923 13.0317 11.7503C13.0764 11.5775 13.1667 11.4199 13.2931 11.294L16.5861 8.00102H13.0001C12.6211 8.00102 12.2751 7.78701 12.1051 7.44801L10.0001 3.23701L7.89509 7.44801C7.72509 7.78701 7.37909 8.00102 7.00009 8.00102H3.41409L6.70709 11.294C6.83315 11.4202 6.92317 11.5778 6.96784 11.7504C7.0125 11.9231 7.01017 12.1046 6.96109 12.276L5.70909 16.66L9.44509 14.169C9.61309 14.058 9.80709 14.001 10.0001 14.001Z" fill="#3B4042"/>
</svg>
