<svg width="24" height="32" viewBox="0 0 24 32" fill="none" xmlns="http://www.w3.org/2000/svg">
<path d="M23.387 3.87909C14.0315 3.87909 12.4474 0.327128 12.4332 0.29381C12.3646 0.120149 12.197 0.00403862 12.0031 0C12.0031 0 12.0011 0 11.997 0C11.8103 0 11.6396 0.11611 11.5669 0.285732C11.5538 0.32309 9.93533 3.87909 0.613189 3.87909C0.353708 3.87909 0.146729 4.09011 0.146729 4.34454V20.2607C0.146729 26.776 11.3388 31.7536 11.8113 31.9626C11.8739 31.9899 11.9355 32 12.0011 32C12.0627 32 12.1283 31.9899 12.1869 31.9626C12.6644 31.7536 23.8544 26.776 23.8544 20.2607V4.34454C23.8534 4.09011 23.6464 3.87909 23.387 3.87909ZM21.2818 19.3349C21.2818 24.4326 12.52 28.3329 12.1465 28.4945C12.101 28.5177 12.0485 28.5258 12.0011 28.5258C11.9496 28.5258 11.9021 28.5177 11.8517 28.4945C11.4831 28.3329 2.72135 24.4326 2.72135 19.3349V6.87676C2.72135 6.67584 2.8839 6.51025 3.08583 6.51025C10.3856 6.51025 11.6487 3.72765 11.6629 3.70038C11.7204 3.5661 11.8527 3.47523 12.0001 3.47523C12.0021 3.47523 12.0041 3.47523 12.0041 3.47523C12.1546 3.47725 12.2858 3.56812 12.3403 3.70644C12.3514 3.73168 13.5913 6.51025 20.9163 6.51025C21.1193 6.51025 21.2808 6.67584 21.2808 6.87676C21.2808 6.87676 21.2808 19.3349 21.2818 19.3349ZM19.5341 19.1996C19.5341 23.3412 12.4211 26.5034 12.1172 26.6337C12.0808 26.6549 12.0374 26.6609 11.9991 26.6609C11.9577 26.6609 11.8809 6.32549 11.9991 6.32549H12.0011C12.1233 6.32751 12.2323 6.4002 12.2747 6.51328C12.2828 6.53348 13.2904 8.78904 19.2363 8.78904C19.4019 8.78904 19.5341 8.92333 19.5341 9.08487V19.1996Z" fill="#3B4042"/>
</svg>
