<svg width="32" height="32" viewBox="0 0 32 32" fill="none" xmlns="http://www.w3.org/2000/svg">
<path d="M16 32C11.7262 32 7.70831 30.3357 4.68625 27.3137C1.66431 24.2917 0 20.2738 0 16C0 11.7262 1.66431 7.70831 4.68625 4.68625C7.70831 1.66431 11.7262 0 16 0C20.2738 0 24.2917 1.66431 27.3137 4.68625C30.3357 7.70831 32 11.7262 32 16C32 20.2738 30.3357 24.2917 27.3137 27.3137C24.2917 30.3357 20.2738 32 16 32ZM16 2.5C8.55606 2.5 2.5 8.55606 2.5 16C2.5 23.4439 8.55606 29.5 16 29.5C23.4439 29.5 29.5 23.4439 29.5 16C29.5 8.55606 23.4439 2.5 16 2.5ZM21.8586 18.7617C21.2761 18.3911 20.5035 18.5627 20.1329 19.1453C20.1175 19.1694 18.5619 21.5663 15.9375 21.5663C13.3131 21.5663 11.7575 19.1694 11.7421 19.1453C11.3714 18.5628 10.5989 18.3911 10.0164 18.7617C9.434 19.1324 9.26231 19.905 9.63294 20.4874C9.72594 20.6335 11.9562 24.0663 15.9375 24.0663C19.9188 24.0663 22.1491 20.6336 22.2421 20.4874C22.6127 19.9049 22.441 19.1324 21.8586 18.7617ZM10.5 10.3125C11.3629 10.3125 12.0625 11.0121 12.0625 11.875C12.0625 12.7379 11.3629 13.4375 10.5 13.4375C9.63706 13.4375 8.9375 12.7379 8.9375 11.875C8.9375 11.0121 9.63706 10.3125 10.5 10.3125ZM19.875 11.875C19.875 12.7379 20.5746 13.4375 21.4375 13.4375C22.3004 13.4375 23 12.7379 23 11.875C23 11.0121 22.3004 10.3125 21.4375 10.3125C20.5746 10.3125 19.875 11.0121 19.875 11.875Z" fill="url(#paint0_radial)"/>
<defs>
<radialGradient id="paint0_radial" cx="0" cy="0" r="1" gradientUnits="userSpaceOnUse" gradientTransform="translate(16 16) rotate(90) scale(16)">
<stop stop-color="#FF8000"/>
<stop offset="1" stop-color="#FF4A00"/>
</radialGradient>
</defs>
</svg>
