<svg width="24" height="24" viewBox="0 0 24 24" fill="none" xmlns="http://www.w3.org/2000/svg">
<path d="M17.903 1.75C14.554 1.75 11.822 4.446 11.796 7.77L7.993 13.197C6.932 13.101 6.017 13.32 5.208 13.811L0 11.714V17.441L3.08 18.674C3.525 20.713 5.358 22.25 7.527 22.25C9.885 22.25 11.839 20.447 12.054 18.151L17.909 13.892C21.268 13.892 24 11.181 24 7.819L23.999 7.818C23.999 4.472 21.267 1.75 17.903 1.75ZM7.527 21.042C6.24 21.042 5.132 20.321 4.569 19.27C5.115 19.478 5.667 19.707 6.214 19.921C7.581 20.481 9.134 19.814 9.68 18.453C10.232 17.092 9.562 15.556 8.197 15.011L6.804 14.451C7.045 14.397 7.286 14.371 7.527 14.371C9.386 14.371 10.875 15.854 10.875 17.706C10.875 19.559 9.386 21.042 7.527 21.042ZM17.909 11.886C15.648 11.886 13.811 10.071 13.811 7.819C13.811 5.577 15.643 3.752 17.909 3.752C20.154 3.752 21.991 5.577 21.991 7.819C21.991 10.077 20.153 11.892 17.909 11.886Z" fill="white"/>
<path d="M17.9201 4.55591C16.1151 4.55591 14.6531 6.01291 14.6531 7.81091C14.6531 9.60891 16.1101 11.0659 17.9201 11.0659C19.7141 11.0659 21.1871 9.61391 21.1871 7.81091C21.1871 6.00791 19.7141 4.55591 17.9201 4.55591Z" fill="white"/>
</svg>
