<svg width="24" height="24" viewBox="0 0 24 24" fill="none" xmlns="http://www.w3.org/2000/svg">
<path d="M21.406 6.08699L12.406 2.08699C12.278 2.03012 12.1395 2.00073 11.9995 2.00073C11.8595 2.00073 11.721 2.03012 11.593 2.08699L2.593 6.08699C2.41652 6.16562 2.2666 6.29369 2.16137 6.45572C2.05613 6.61774 2.00008 6.80679 2 6.99999V17C1.99998 17.1935 2.05608 17.3828 2.16151 17.545C2.26695 17.7073 2.41718 17.8354 2.594 17.914L11.594 21.914C11.7216 21.9716 11.86 22.0014 12 22.0014C12.14 22.0014 12.2784 21.9716 12.406 21.914L21.406 17.914C21.583 17.8356 21.7333 17.7075 21.8388 17.5452C21.9443 17.383 22.0003 17.1935 22 17V6.99999C21.9998 6.80667 21.9436 6.61755 21.8382 6.45552C21.7328 6.29348 21.5827 6.16547 21.406 6.08699ZM12 4.09499L18.538 6.99999L16.75 7.79499L10.212 4.88999L12 4.09499ZM12 9.90699L5.462 6.99999L7.75 5.98299L14.288 8.88899L12 9.90699ZM4 8.53999L11 11.651V19.463L4 16.352V8.53999ZM13 19.462V11.65L20 8.53899V16.35L13 19.462Z" fill="url(#paint0_radial)"/>
<defs>
<radialGradient id="paint0_radial" cx="0" cy="0" r="1" gradientUnits="userSpaceOnUse" gradientTransform="translate(12 12.001) rotate(90) scale(10.0003 10)">
<stop stop-color="#FF8000"/>
<stop offset="1" stop-color="#FF4A00"/>
</radialGradient>
</defs>
</svg>
