<svg width="24" height="24" viewBox="0 0 24 24" fill="none" xmlns="http://www.w3.org/2000/svg">
<path d="M12 2C6.487 2 2 6.486 2 12C2 17.514 6.486 22 12 22C17.514 22 22 17.514 22 12C22 6.486 17.514 2 12 2ZM19.931 10.999L16.899 11C16.6766 9.94363 16.1173 8.98804 15.305 8.277L16.828 5.636C17.6762 6.27829 18.3877 7.08353 18.9205 8.00447C19.4534 8.92541 19.7969 9.9435 19.931 10.999ZM12 15C10.346 15 9 13.654 9 12C9 10.346 10.346 9 12 9C13.654 9 15 10.346 15 12C15 13.654 13.655 15 12 15ZM15.102 4.626L13.573 7.277C13.075 7.111 12.553 7 12 7C11.447 7 10.926 7.111 10.428 7.277L8.897 4.627C9.852 4.224 10.901 4 12 4C13.099 4 14.148 4.224 15.102 4.626ZM7.171 5.637L8.695 8.277C7.88322 8.98828 7.32422 9.94382 7.102 11L4.07 11.002C4.20364 9.94632 4.54678 8.92796 5.07929 8.00668C5.61179 7.08539 6.32294 6.27974 7.171 5.637ZM4.071 13.002L7.102 13C7.32429 14.0572 7.88406 15.0135 8.697 15.725L7.175 18.365C6.32616 17.7232 5.61427 16.9181 5.0812 15.9971C4.54813 15.0761 4.20466 14.0577 4.071 13.002ZM8.9 19.374L10.43 16.724C10.926 16.889 11.448 17 12 17C12.552 17 13.074 16.889 13.572 16.723L15.103 19.372C14.1213 19.7875 13.066 20.0011 12 20C10.9352 20.001 9.88098 19.7882 8.9 19.374ZM16.831 18.362L15.306 15.723C16.1185 15.0121 16.6779 14.0565 16.9 13L19.932 12.999C19.7976 14.0542 19.4541 15.072 18.9217 15.9928C18.3892 16.9137 17.6785 17.7191 16.831 18.362Z" fill="#3B4042"/>
<path d="M11 5H13V6H11V5Z" fill="#3B4042"/>
<path d="M6.30322 14.1345L7.30301 15.8667L6.43779 16.3661L5.438 14.6339L6.30322 14.1345Z" fill="#3B4042"/>
<path d="M16.6991 15.8669L17.6999 14.1353L18.5657 14.6357L17.5649 16.3673L16.6991 15.8669Z" fill="#3B4042"/>
</svg>
