<svg width="24" height="24" viewBox="0 0 24 24" fill="none" xmlns="http://www.w3.org/2000/svg">
<path d="M18 3.00098V5.00098C17.9885 5.25846 17.8781 5.50157 17.6918 5.6797C17.5055 5.85783 17.2577 5.95724 17 5.95724C16.7423 5.95724 16.4945 5.85783 16.3082 5.6797C16.1219 5.50157 16.0115 5.25846 16 5.00098C16 3.34698 14.654 2.00098 13 2.00098C11.346 2.00098 10 3.34698 10 5.00098V7.00098H9C8.73478 7.00098 8.48043 7.10633 8.29289 7.29387C8.10536 7.48141 8 7.73576 8 8.00098V8.68298C6.80507 9.2511 5.79532 10.1458 5.08748 11.2637C4.37964 12.3815 4.00262 13.6769 4 15C4 18.86 7.141 22 11 22C14.859 22 18 18.86 18 15C17.9974 13.6769 17.6204 12.3815 16.9125 11.2637C16.2047 10.1458 15.1949 9.2511 14 8.68298V8.00098C14 7.73576 13.8946 7.48141 13.7071 7.29387C13.5196 7.10633 13.2652 7.00098 13 7.00098H12V5.00098C12.0115 4.7435 12.1219 4.50038 12.3082 4.32225C12.4945 4.14412 12.7423 4.04471 13 4.04471C13.2577 4.04471 13.5055 4.14412 13.6918 4.32225C13.8781 4.50038 13.9885 4.7435 14 5.00098C14 6.65498 15.346 8.00098 17 8.00098C18.654 8.00098 20 6.65498 20 5.00098V3.00098H18ZM12.666 10.292C13.6393 10.6372 14.4822 11.2749 15.079 12.1177C15.6759 12.9605 15.9975 13.9672 16 15C16 17.757 13.757 20 11 20C8.243 20 6 17.757 6 15C6.00246 13.9672 6.32415 12.9605 6.92099 12.1177C7.51784 11.2749 8.36066 10.6372 9.334 10.292C9.52871 10.223 9.69728 10.0954 9.81653 9.9267C9.93579 9.75802 9.99988 9.55655 10 9.34998V9.00098H12V9.34998C12.0001 9.55655 12.0642 9.75802 12.1835 9.9267C12.3027 10.0954 12.4713 10.223 12.666 10.292Z" fill="#3B4042"/>
<path d="M7 15H9C9 13.898 9.896 13 11 13V11C8.795 11 7 12.794 7 15Z" fill="#3B4042"/>
</svg>
