<svg width="24" height="24" viewBox="0 0 24 24" fill="none" xmlns="http://www.w3.org/2000/svg">
<path d="M11 8V14H15V12H13V8H11Z" fill="#747A7C"/>
<path d="M12 2.00001C10.6871 1.99845 9.3869 2.25731 8.17471 2.76162C6.96251 3.26593 5.86238 4.00566 4.938 4.93801L3 3.00001V9.00001H9L6.351 6.35101C7.09027 5.60494 7.97023 5.01299 8.93991 4.60943C9.90958 4.20587 10.9497 3.99873 12 4.00001C16.411 4.00001 20 7.58901 20 12C20 16.411 16.411 20 12 20V22C17.514 22 22 17.515 22 12C22 6.48501 17.514 2.00001 12 2.00001Z" fill="#747A7C"/>
</svg>
