<svg width="19" height="20" viewBox="0 0 19 20" fill="none" xmlns="http://www.w3.org/2000/svg">
<path d="M8 6V12H12V10H10V6H8Z" fill="#747A7C"/>
<path d="M9 7.02477e-06C7.68709 -0.00155474 6.3869 0.257311 5.17471 0.76162C3.96251 1.26593 2.86238 2.00566 1.938 2.93801L0 1.00001V7.00001H6L3.351 4.35101C4.09027 3.60494 4.97023 3.01299 5.93991 2.60943C6.90958 2.20587 7.9497 1.99873 9 2.00001C13.411 2.00001 17 5.58901 17 10C17 14.411 13.411 18 9 18V20C14.514 20 19 15.515 19 10C19 4.48501 14.514 7.02477e-06 9 7.02477e-06Z" fill="#747A7C"/>
</svg>
