<svg width="68" height="68" viewBox="0 0 68 68" fill="none" xmlns="http://www.w3.org/2000/svg">
<path d="M23.3779 48.1665C23.3779 41.647 27.4834 37.5415 34.0029 37.5415C40.5224 37.5415 44.6279 41.647 44.6279 48.1665H23.3779Z" fill="#3B4042"/>
<path d="M34.0028 34C37.9148 34 41.0861 30.8287 41.0861 26.9167C41.0861 23.0047 37.9148 19.8334 34.0028 19.8334C30.0907 19.8334 26.9194 23.0047 26.9194 26.9167C26.9194 30.8287 30.0907 34 34.0028 34Z" fill="#3B4042"/>
<path d="M56.6693 62.3334H45.3359V56.6667H56.6693V45.3334H62.3359V56.6667C62.3359 59.7919 59.7944 62.3334 56.6693 62.3334Z" fill="#3B4042"/>
<path d="M62.3359 22.6665H56.6693V11.3332H45.3359V5.6665H56.6693C59.7944 5.6665 62.3359 8.20517 62.3359 11.3332V22.6665Z" fill="#3B4042"/>
<path d="M11.3361 22.6666H5.66943V11.3332C5.66943 8.20523 8.21093 5.66656 11.3361 5.66656H22.6694V11.3332H11.3361V22.6666Z" fill="#3B4042"/>
<path d="M22.6694 62.3334H11.3361C8.21093 62.3334 5.66943 59.7919 5.66943 56.6667V45.3334H11.3361V56.6667H22.6694V62.3334Z" fill="#3B4042"/>
</svg>
