<svg width="18" height="18" viewBox="0 0 18 18" fill="none" xmlns="http://www.w3.org/2000/svg">
<path d="M16.726 12.3752V12.375C16.726 10.8723 15.5037 9.65 14.001 9.65C12.4982 9.65 11.276 10.8723 11.276 12.375C11.276 13.1074 11.5706 13.7668 12.0414 14.2562C10.9868 14.6768 10.151 15.4505 10.151 16.5V16.6H10.251H11.751H11.851V16.5C11.851 16.4268 11.8956 16.3314 12.0054 16.2229C12.1132 16.1165 12.2726 16.0091 12.4729 15.9131C12.873 15.7213 13.4207 15.5822 14.001 15.5822C14.5812 15.5822 15.129 15.7214 15.5291 15.9134C15.7293 16.0094 15.8888 16.1169 15.9965 16.2233C16.1064 16.3317 16.151 16.427 16.151 16.5V16.6H16.251H17.751H17.851V16.5C17.851 15.45 17.0155 14.6771 15.9614 14.2565C16.1846 14.0262 16.3654 13.7579 16.4952 13.4637C16.6465 13.1207 16.7251 12.7501 16.726 12.3752ZM14.001 11.35C14.566 11.35 15.026 11.81 15.026 12.375C15.026 12.94 14.566 13.4 14.001 13.4C13.436 13.4 12.976 12.94 12.976 12.375C12.976 11.81 13.436 11.35 14.001 11.35Z" fill="#3B4042" stroke="#3B4042" stroke-width="0.2"/>
<path d="M7.72598 12.3752V12.375C7.72598 10.8723 6.5037 9.65 5.00098 9.65C3.49825 9.65 2.27598 10.8723 2.27598 12.375C2.27598 13.1074 2.57057 13.7668 3.04136 14.2562C1.98685 14.6767 1.15098 15.4497 1.15098 16.5V16.6H1.25098H2.75098H2.85098V16.5C2.85098 16.4268 2.89557 16.3314 3.00541 16.2229C3.11318 16.1165 3.27262 16.0091 3.47287 15.9131C3.87298 15.7213 4.42069 15.5822 5.00098 15.5822C5.58124 15.5822 6.12895 15.7214 6.52907 15.9134C6.72932 16.0094 6.88877 16.1169 6.99655 16.2233C7.10642 16.3317 7.15098 16.427 7.15098 16.5V16.6H7.25098H8.75098H8.85098V16.5C8.85098 15.45 8.01553 14.6771 6.96139 14.2565C7.18456 14.0262 7.36543 13.7579 7.49521 13.4637C7.64653 13.1207 7.7251 12.7501 7.72598 12.3752ZM5.00098 11.35C5.566 11.35 6.02598 11.81 6.02598 12.375C6.02598 12.94 5.566 13.4 5.00098 13.4C4.43596 13.4 3.97598 12.94 3.97598 12.375C3.97598 11.81 4.43596 11.35 5.00098 11.35Z" fill="#3B4042" stroke="#3B4042" stroke-width="0.2"/>
<path d="M11.651 8.25V8.35H11.751H13.251H13.351V8.25C13.351 7.2 12.5155 6.42709 11.4614 6.0065C11.6846 5.77622 11.8654 5.50788 11.9952 5.21372C12.1465 4.87074 12.2251 4.50011 12.226 4.12523V4.125C12.226 2.62227 11.0037 1.4 9.50098 1.4C7.99825 1.4 6.77598 2.62227 6.77598 4.125C6.77598 4.85743 7.07057 5.51684 7.54136 6.00618C6.48685 6.4267 5.65098 7.19974 5.65098 8.25V8.35H5.75098H7.25098H7.35098V8.25C7.35098 8.17682 7.39557 8.08136 7.50541 7.97293C7.61318 7.86654 7.77262 7.75912 7.97287 7.66311C8.37298 7.47126 8.92069 7.33225 9.50098 7.33225C10.0813 7.33225 10.629 7.47126 11.0291 7.66311C11.2293 7.75912 11.3888 7.86654 11.4965 7.97293C11.6064 8.08136 11.651 8.17682 11.651 8.25ZM9.50098 3.1C10.066 3.1 10.526 3.55998 10.526 4.125C10.526 4.69002 10.066 5.15 9.50098 5.15C8.93596 5.15 8.47598 4.69002 8.47598 4.125C8.47598 3.55998 8.93596 3.1 9.50098 3.1Z" fill="#3B4042" stroke="#3B4042" stroke-width="0.2"/>
</svg>
