<svg width="24" height="24" viewBox="0 0 24 24" fill="none" xmlns="http://www.w3.org/2000/svg">
<g clip-path="url(#clip0)">
<path d="M12 24C18.6274 24 24 18.6274 24 12C24 5.37258 18.6274 0 12 0C5.37258 0 0 5.37258 0 12C0 18.6274 5.37258 24 12 24Z" fill="#F3D13B"/>
<path fill-rule="evenodd" clip-rule="evenodd" d="M12 24C5.37278 24 0 18.6272 0 12H24C24 18.6272 18.6272 24 12 24Z" fill="#DD9E25"/>
<path d="M12 23.2189C18.196 23.2189 23.2189 18.196 23.2189 12C23.2189 5.80395 18.196 0.781059 12 0.781059C5.80396 0.781059 0.781067 5.80395 0.781067 12C0.781067 18.196 5.80396 23.2189 12 23.2189Z" fill="url(#paint0_linear)"/>
<path fill-rule="evenodd" clip-rule="evenodd" d="M12 1.04141C5.84616 1.04141 0.85799 5.99408 0.786984 12.1302C0.786984 12.0888 0.781067 12.0414 0.781067 12C0.781067 5.80473 5.80474 0.781059 12 0.781059C18.1953 0.781059 23.2189 5.80473 23.2189 12C23.2189 12.0414 23.2189 12.0888 23.213 12.1302C23.142 5.99408 18.1479 1.04141 12 1.04141Z" fill="white"/>
<path d="M18.456 18.4555C22.0215 14.8899 22.0215 9.10909 18.456 5.54357C14.8905 1.97805 9.1096 1.97805 5.54408 5.54357C1.97856 9.10909 1.97856 14.8899 5.54408 18.4555C9.1096 22.021 14.8905 22.021 18.456 18.4555Z" fill="#DD9E25"/>
<path fill-rule="evenodd" clip-rule="evenodd" d="M12 21.1302C6.95857 21.1302 2.86981 17.0414 2.86981 12H21.1302C21.1302 17.0414 17.0414 21.1302 12 21.1302Z" fill="#F9ED5E"/>
<path d="M12 20.3491C16.6111 20.3491 20.3491 16.6111 20.3491 12C20.3491 7.38891 16.6111 3.65089 12 3.65089C7.3889 3.65089 3.65088 7.38891 3.65088 12C3.65088 16.6111 7.3889 20.3491 12 20.3491Z" fill="url(#paint1_linear)"/>
<path fill-rule="evenodd" clip-rule="evenodd" d="M15.996 14.3283C15.996 14.3283 15.8477 12.2592 12.5851 11.3976C11.2433 11.0445 9.97214 10.2607 10.4312 9.13074C10.8478 8.09969 12.804 7.76778 14.633 9.18724C14.8025 9.31435 15.0214 8.933 15.2404 8.52341C15.4805 8.08557 15.5864 7.87371 15.657 7.73953C15.6641 7.72541 15.6711 7.69716 15.6711 7.69716C15.6711 7.6901 15.6711 7.68304 15.6711 7.67598V7.06159L15.424 7.02628L15.205 7.19576C14.8449 6.9486 14.3576 6.70849 14.0257 6.58844C13.7291 6.48251 13.3195 6.38364 12.8605 6.32714V4.76645C12.8605 4.6464 12.7616 4.54753 12.6416 4.54753H11.4269C11.3068 4.54753 11.208 4.6464 11.208 4.76645V6.34833C9.00465 6.70849 8.34082 7.64773 8.18546 8.67877L8.15015 9.02481C8.15015 9.02481 8.15015 9.56858 8.15015 9.60389C8.15721 9.90049 8.19252 10.1406 8.22783 10.2889C8.67274 12.1391 10.869 12.8595 11.7023 13.1631C13.0158 13.6292 14.1458 14.2436 13.6938 15.3735C13.2771 16.4046 11.1939 16.8 9.21651 15.0416C9.04702 14.9145 8.79985 15.2958 8.49619 15.6489C8.43969 15.7195 8.37614 15.7902 8.31964 15.8608L7.93829 15.8467V16.4822C7.93829 16.8495 9.4778 17.7039 10.0922 17.9158C10.4312 18.0359 10.8196 18.0994 11.1939 18.1347V19.7378C11.1939 19.8578 11.2927 19.9567 11.4128 19.9567H12.6274C12.7475 19.9567 12.8464 19.8578 12.8464 19.7378V18.1347C12.8464 18.1347 14.8873 18.0217 15.6711 16.2421C15.9254 15.6701 15.9889 15.204 15.9889 14.8227L15.996 14.3283Z" fill="#D28E22"/>
<path fill-rule="evenodd" clip-rule="evenodd" d="M12.585 10.7691C13.6514 11.1505 15.6005 11.6942 15.9324 13.5445C16.0171 14.0317 16.0948 14.6744 15.6852 15.6136C14.9084 17.3932 12.8604 17.5062 12.8604 17.5062V19.1093C12.8604 19.2293 12.7616 19.3282 12.6415 19.3282H11.4269C11.3068 19.3282 11.208 19.2293 11.208 19.1093V17.5062C10.8266 17.4709 10.4382 17.4074 10.1063 17.2873C9.4919 17.0684 7.95239 16.2139 7.95239 15.8537C7.95239 15.6984 8.22781 15.3523 8.50323 15.0275C8.79983 14.6744 9.047 14.293 9.22354 14.4201C11.2009 16.1786 13.2842 15.7831 13.7008 14.7521C14.1599 13.6221 13.0229 13.0078 11.7094 12.5417C10.869 12.2451 8.67271 11.5247 8.23487 9.66745C8.07245 8.99657 7.83234 6.27771 11.215 5.72688V4.13794C11.215 4.01789 11.3139 3.91902 11.4339 3.91902H12.6486C12.7686 3.91902 12.8675 4.01789 12.8675 4.13794V5.69863C13.3265 5.75513 13.7361 5.854 14.0327 5.95993C14.6471 6.17885 15.8053 6.83561 15.664 7.11102C15.5934 7.2452 15.4875 7.45706 15.2474 7.8949C15.0285 8.3045 14.8095 8.67878 14.6401 8.55872C12.8181 7.13927 10.8549 7.47118 10.4382 8.50223C9.97211 9.63214 11.2715 10.296 12.585 10.7691Z" fill="url(#paint2_linear)"/>
<path fill-rule="evenodd" clip-rule="evenodd" d="M12.7101 6.97042C13.0947 7.01775 13.4379 7.10059 13.6864 7.18935C14.0947 7.33728 14.8048 7.71598 15.0059 7.98225C15.0237 7.94675 15.0414 7.91716 15.0533 7.89349C15.1716 7.66272 14.1953 7.11243 13.6864 6.92899C13.4379 6.84024 13.0947 6.7574 12.7101 6.71006V6.97042Z" fill="white"/>
<path fill-rule="evenodd" clip-rule="evenodd" d="M12.4852 10.9586C11.5976 10.6391 10.716 10.213 10.6095 9.56213C10.4911 10.361 11.4852 10.858 12.4852 11.2189C13.3787 11.5385 15.0118 11.9941 15.2899 13.5444C15.3136 13.6746 15.3373 13.8225 15.3432 13.9823C15.355 13.7101 15.3254 13.4793 15.2899 13.284C15.0118 11.7278 13.3787 11.2781 12.4852 10.9586Z" fill="white"/>
<path fill-rule="evenodd" clip-rule="evenodd" d="M9.05919 14.7811C9.30772 14.4852 9.51482 14.1657 9.66274 14.2722C11.3195 15.7456 13.0651 15.4142 13.4142 14.5503C13.4911 14.355 13.5148 14.1775 13.4911 14.0178C13.4793 14.1065 13.4556 14.1953 13.4142 14.2959C13.0651 15.1598 11.3195 15.4911 9.66274 14.0178C9.52073 13.9112 9.31363 14.2308 9.05919 14.5266C8.82843 14.7988 8.59766 15.0888 8.59766 15.2189C8.59766 15.2544 8.61541 15.2959 8.64499 15.3373C8.72192 15.1834 8.89351 14.9763 9.05919 14.7811Z" fill="white"/>
<path fill-rule="evenodd" clip-rule="evenodd" d="M11.5089 5.47338H12.5266C12.6272 5.47338 12.7101 5.55622 12.7101 5.65681V5.39645C12.7101 5.29586 12.6272 5.21302 12.5266 5.21302H11.5089C11.4083 5.21302 11.3254 5.29586 11.3254 5.39645V5.65681C11.3254 5.55622 11.4083 5.47338 11.5089 5.47338Z" fill="white"/>
<path fill-rule="evenodd" clip-rule="evenodd" d="M11.3254 6.98817V6.72781C9.04141 7.10059 8.73372 8.65089 8.76922 9.53255C8.80473 8.63906 9.24851 7.32545 11.3254 6.98817Z" fill="white"/>
</g>
<defs>
<linearGradient id="paint0_linear" x1="11.9995" y1="0.782574" x2="11.9995" y2="23.2165" gradientUnits="userSpaceOnUse">
<stop stop-color="#FAEE5F"/>
<stop offset="1" stop-color="#EEC12E"/>
</linearGradient>
<linearGradient id="paint1_linear" x1="11.9995" y1="3.65202" x2="11.9995" y2="20.347" gradientUnits="userSpaceOnUse">
<stop stop-color="#F0C939"/>
<stop offset="0.0143862" stop-color="#D8AA09"/>
<stop offset="0.3915" stop-color="#DEA108"/>
<stop offset="1" stop-color="#CB9209"/>
</linearGradient>
<linearGradient id="paint2_linear" x1="11.9695" y1="3.91686" x2="11.9695" y2="19.3304" gradientUnits="userSpaceOnUse">
<stop offset="0.0509804" stop-color="#FFF177"/>
<stop offset="0.5618" stop-color="#FFE75C"/>
<stop offset="1" stop-color="#FFE163"/>
</linearGradient>
<clipPath id="clip0">
<rect width="24" height="24" fill="white"/>
</clipPath>
</defs>
</svg>
