<svg width="20" height="20" viewBox="0 0 20 20" fill="none" xmlns="http://www.w3.org/2000/svg">
<path d="M10 20C4.486 20 0 15.515 0 10C0 4.487 4.486 0 10 0C15.514 0 20 4.486 20 10C20 15.515 15.514 20 10 20ZM10 2C5.589 2 2 5.589 2 10C2 14.411 5.589 18 10 18C14.411 18 18 14.411 18 10C18 5.589 14.411 2 10 2Z" fill="#3B4042"/>
<path d="M11 13H9V10H10C10.3956 10 10.7822 9.8827 11.1111 9.66294C11.44 9.44318 11.6964 9.13082 11.8478 8.76537C11.9991 8.39991 12.0387 7.99778 11.9616 7.60982C11.8844 7.22186 11.6939 6.86549 11.4142 6.58579C11.1345 6.30608 10.7781 6.1156 10.3902 6.03843C10.0022 5.96126 9.60009 6.00087 9.23463 6.15224C8.86918 6.30362 8.55682 6.55996 8.33706 6.88886C8.1173 7.21776 8 7.60444 8 8H6C6 5.795 7.795 4 10 4C12.205 4 14 5.795 14 8C13.9986 8.88665 13.7034 9.74784 13.1606 10.4489C12.6178 11.15 11.858 11.6515 11 11.875V13Z" fill="#3B4042"/>
<path d="M10 16.25C10.6904 16.25 11.25 15.6904 11.25 15C11.25 14.3096 10.6904 13.75 10 13.75C9.30964 13.75 8.75 14.3096 8.75 15C8.75 15.6904 9.30964 16.25 10 16.25Z" fill="#3B4042"/>
</svg>
