<svg width="30" height="25" viewBox="0 0 30 25" fill="none" xmlns="http://www.w3.org/2000/svg">
<g filter="url(#filter0_f)">
<path d="M28.1381 3.95853C28.1381 4.94724 27.3292 5.80113 26.2956 5.80113C25.3068 5.80113 24.453 4.99218 24.453 3.95853C24.453 2.96982 25.2619 2.11594 26.2956 2.11594C27.3292 2.11594 28.1381 2.92488 28.1381 3.95853Z" fill="url(#paint0_radial)"/>
</g>
<path d="M24.8215 4.63417C24.8215 4.32707 24.8829 3.28294 25.7428 3.22152C25.4971 3.40577 25.6199 3.83571 25.6199 3.83571C25.6199 3.83571 26.1727 3.03726 26.9098 3.1601C26.9098 3.1601 26.357 3.71287 26.357 4.01997C26.357 4.01997 26.9712 3.77429 27.2169 3.59003C27.2169 3.59003 26.9712 4.38849 26.4798 4.63417C26.4798 4.63417 27.4011 4.75701 27.5854 4.69559C27.5854 4.69559 27.0326 5.30979 26.2956 5.12553C26.2956 5.12553 26.7255 5.43263 26.9712 5.55547C26.9712 5.55547 25.4357 5.98541 25.0672 5.00269C24.8215 4.81843 24.8215 4.63417 24.8215 4.63417Z" fill="url(#paint1_linear)"/>
<path d="M19.2323 19.1293C16.7755 24.1657 10.6949 26.1925 5.71991 23.7358C0.683484 21.279 -1.34337 15.1984 1.11342 10.2234C3.57022 5.18695 9.65079 3.16009 14.6258 5.61689C19.6008 8.01226 21.6891 14.0928 19.2323 19.1293Z" fill="url(#paint2_radial)"/>
<path d="M13.4588 16.1811C14.3801 14.2771 13.5817 12.066 11.6162 11.1447C9.7122 10.2234 7.43967 10.8376 6.51837 12.803C5.84275 14.1543 6.21127 15.3827 7.13257 16.304C7.07115 16.3654 7.07115 16.4268 7.00973 16.4882C6.70263 17.1639 7.13257 18.0237 8.05386 18.4537C8.91374 18.8836 9.89646 18.6993 10.2036 18.0852C10.265 18.0237 10.265 17.9623 10.265 17.8395C11.6162 17.9623 12.7832 17.5324 13.4588 16.1811ZM7.56251 15.137C6.94831 14.8299 6.82547 13.8472 7.25541 12.8645C7.74676 11.9432 8.60664 11.3904 9.22084 11.6975C9.83504 12.0046 9.95788 13.0487 9.52794 13.97C9.098 14.8913 8.1767 15.4441 7.56251 15.137ZM9.03658 16.5497C8.60664 16.304 8.36096 15.9355 8.4838 15.6898C8.60664 15.4441 9.03658 15.4441 9.46652 15.6898C9.89646 15.9355 10.1421 16.304 10.0193 16.4882C9.89646 16.7953 9.46652 16.7953 9.03658 16.5497ZM11.1249 16.9182C10.5107 16.6111 10.3878 15.6284 10.8178 14.6456C11.3091 13.7243 12.169 13.1716 12.7832 13.4787C13.3974 13.7858 13.5202 14.7685 13.0903 15.7512C12.6604 16.7339 11.7391 17.2253 11.1249 16.9182Z" fill="url(#paint3_radial)"/>
<path d="M6.76406 14.8299L4.67578 15.2598C4.67578 15.1984 4.67578 15.0755 4.67578 15.0141C4.55294 14.4613 4.06158 14.0928 3.5088 14.2157C2.95603 14.3385 2.58751 14.8299 2.71035 15.3826C2.77177 15.6897 3.01745 15.9968 3.32455 16.1197C3.14029 16.3654 3.07887 16.611 3.14029 16.9181C3.26313 17.4709 3.75448 17.8394 4.30726 17.7166C4.86004 17.5938 5.22856 17.1024 5.10572 16.5496C5.10572 16.4882 5.10572 16.4882 5.0443 16.4268L7.31684 15.9968C7.07116 15.6283 6.8869 15.2598 6.76406 14.8299ZM17.2669 14.0928C17.2054 13.7857 16.9598 13.4786 16.6527 13.3558C16.8369 13.1101 16.8983 12.8644 16.8369 12.5573C16.7141 12.0045 16.2227 11.636 15.6699 11.7589C15.1172 11.8817 14.7486 12.3731 14.8715 12.9258C14.8715 13.0487 14.9329 13.1101 14.9943 13.1715L13.336 13.4786C13.4588 13.8471 13.5817 14.2157 13.5817 14.6456L15.3014 14.2771C15.3014 14.3385 15.3014 14.3385 15.3014 14.3999C15.4243 14.9527 15.9156 15.3212 16.4684 15.1984C17.0212 15.1984 17.3897 14.6456 17.2669 14.0928Z" fill="url(#paint4_radial)"/>
<path d="M10.6335 17.5938L11.6776 19.6821C11.6162 19.6821 11.6162 19.6821 11.5548 19.7435C11.0634 19.9892 10.8792 20.6034 11.1249 21.0947C11.3705 21.5861 11.9847 21.7703 12.4761 21.5247C12.7218 21.4018 12.906 21.1561 12.9675 20.9105C13.2746 21.0333 13.5817 21.0947 13.8888 20.9105C14.3801 20.6648 14.5644 20.0506 14.3187 19.5592C14.073 19.0679 13.4588 18.8836 12.9675 19.1293C12.906 19.1907 12.7832 19.2521 12.7218 19.3135L11.8005 17.4095C11.4934 17.5324 11.0634 17.5938 10.6335 17.5938ZM5.53565 9.9163C5.78133 10.4077 6.39553 10.5919 6.88689 10.3462C6.94831 10.3462 6.94831 10.2848 7.00973 10.2848L7.80819 11.8203C8.11529 11.5746 8.48381 11.3904 8.85232 11.2675L8.11529 9.79346C8.17671 9.79346 8.29955 9.73204 8.36097 9.73204C8.85232 9.48636 9.03658 8.87216 8.7909 8.3808C8.54523 7.88944 7.93103 7.70518 7.43967 7.95086C7.19399 8.0737 7.00973 8.31938 6.94831 8.56506C6.64121 8.44222 6.33411 8.3808 6.02701 8.56506C5.53565 8.81074 5.28997 9.42494 5.53565 9.9163Z" fill="url(#paint5_radial)"/>
<path d="M16.1613 7.76658C15.977 8.1351 15.0557 8.01226 14.073 7.5209C13.0903 7.02954 12.4147 6.35393 12.5989 5.98541C12.7832 5.61689 13.7045 5.73973 14.6872 6.23109C15.6699 6.72245 16.3455 7.39806 16.1613 7.76658Z" fill="#212121"/>
<path d="M16.5298 5.80113L15.7313 7.45947C15.6085 7.70515 14.81 7.58231 13.9502 7.21379C13.0903 6.78385 12.5375 6.23107 12.6603 5.98539L13.4588 4.32706L16.5298 5.80113Z" fill="url(#paint6_linear)"/>
<path d="M16.5298 5.80118C16.407 6.04686 15.6085 5.92402 14.7486 5.5555C13.8888 5.12556 13.336 4.57278 13.4588 4.3271C13.5817 4.02 14.3801 4.14284 15.24 4.57278C16.0999 5.00272 16.6526 5.5555 16.5298 5.80118Z" fill="url(#paint7_linear)"/>
<path d="M15.6085 5.30979C15.5471 5.43263 15.24 5.37121 14.9329 5.18695C14.6258 5.00269 14.3801 4.81843 14.4415 4.69559C14.503 4.57275 14.8101 4.63417 15.1172 4.81843C15.4243 5.00269 15.6699 5.24837 15.6085 5.30979Z" fill="black"/>
<path d="M14.7486 4.87987C14.9943 4.38851 15.6085 3.52863 16.407 2.85301C17.2054 2.17739 18.311 1.68603 19.4165 2.23881C19.8465 2.48449 20.2764 2.85301 20.7064 3.40579C21.2591 4.20425 21.8119 4.69561 22.3647 4.94129C23.4703 5.49407 24.453 5.12555 24.8829 4.94129C25.0058 4.87987 25.0672 4.81845 25.0672 4.81845C25.19 4.75703 25.3743 4.75703 25.4357 4.87987C25.4971 5.00271 25.4971 5.18697 25.3743 5.24839C25.3743 5.24839 23.8388 6.23111 22.119 5.37123C21.5048 5.06413 20.8292 4.51135 20.2764 3.65147C19.9079 3.16011 19.5394 2.85301 19.2323 2.66875C18.4338 2.30023 17.574 2.60733 16.8369 3.22153C16.0999 3.83573 15.5471 4.69561 15.3628 5.06413C15.3014 5.18697 15.1172 5.24839 14.9943 5.18697C14.7486 5.18697 14.6872 5.00271 14.7486 4.87987Z" fill="url(#paint8_linear)"/>
<defs>
<filter id="filter0_f" x="23.2246" y="0.887539" width="6.14199" height="6.14199" filterUnits="userSpaceOnUse" color-interpolation-filters="sRGB">
<feFlood flood-opacity="0" result="BackgroundImageFix"/>
<feBlend mode="normal" in="SourceGraphic" in2="BackgroundImageFix" result="shape"/>
<feGaussianBlur stdDeviation="0.614199" result="effect1_foregroundBlur"/>
</filter>
<radialGradient id="paint0_radial" cx="0" cy="0" r="1" gradientUnits="userSpaceOnUse" gradientTransform="translate(26.321 3.94244) scale(1.82669)">
<stop stop-color="#FFB700"/>
<stop offset="0.0850665" stop-color="#FFB909"/>
<stop offset="0.2213" stop-color="#FFC020"/>
<stop offset="0.3918" stop-color="#FFCB46"/>
<stop offset="0.833333" stop-color="#FFDA7B"/>
</radialGradient>
<linearGradient id="paint1_linear" x1="24.9827" y1="5.00638" x2="28.0738" y2="3.52616" gradientUnits="userSpaceOnUse">
<stop stop-color="#FFFA59"/>
<stop offset="0.3091" stop-color="#F9BF3C"/>
<stop offset="0.7838" stop-color="#F06911"/>
<stop offset="1" stop-color="#ED4700"/>
</linearGradient>
<radialGradient id="paint2_radial" cx="0" cy="0" r="1" gradientUnits="userSpaceOnUse" gradientTransform="translate(7.56261 11.2224) rotate(26.1423) scale(14.1539)">
<stop stop-color="#919191"/>
<stop offset="0.1255" stop-color="#828282"/>
<stop offset="0.3666" stop-color="#5A5A5A"/>
<stop offset="0.4396" stop-color="#4D4D4D"/>
<stop offset="0.5329" stop-color="#3E3E3E"/>
<stop offset="0.7122" stop-color="#161616"/>
<stop offset="0.8022"/>
<stop offset="0.8706" stop-color="#0F0F0F"/>
<stop offset="1" stop-color="#363636"/>
</radialGradient>
<radialGradient id="paint3_radial" cx="0" cy="0" r="1" gradientUnits="userSpaceOnUse" gradientTransform="translate(6.70748 10.722) scale(15.3358)">
<stop stop-color="white"/>
<stop offset="0.1067" stop-color="#F0F0F0"/>
<stop offset="0.3114" stop-color="#C8C8C8"/>
<stop offset="0.511" stop-color="#9C9C9C"/>
<stop offset="0.5727" stop-color="#8D8D8D"/>
<stop offset="0.692" stop-color="#666565"/>
<stop offset="0.8553" stop-color="#282526"/>
<stop offset="0.8846" stop-color="#1C191A"/>
</radialGradient>
<radialGradient id="paint4_radial" cx="0" cy="0" r="1" gradientUnits="userSpaceOnUse" gradientTransform="translate(6.70749 10.7219) scale(15.3359)">
<stop stop-color="white"/>
<stop offset="0.1067" stop-color="#F0F0F0"/>
<stop offset="0.3114" stop-color="#C8C8C8"/>
<stop offset="0.511" stop-color="#9C9C9C"/>
<stop offset="0.5727" stop-color="#8D8D8D"/>
<stop offset="0.692" stop-color="#666565"/>
<stop offset="0.8553" stop-color="#282526"/>
<stop offset="0.8846" stop-color="#1C191A"/>
</radialGradient>
<radialGradient id="paint5_radial" cx="0" cy="0" r="1" gradientUnits="userSpaceOnUse" gradientTransform="translate(6.70748 10.7219) scale(15.3361)">
<stop stop-color="white"/>
<stop offset="0.1067" stop-color="#F0F0F0"/>
<stop offset="0.3114" stop-color="#C8C8C8"/>
<stop offset="0.511" stop-color="#9C9C9C"/>
<stop offset="0.5727" stop-color="#8D8D8D"/>
<stop offset="0.692" stop-color="#666565"/>
<stop offset="0.8553" stop-color="#282526"/>
<stop offset="0.8846" stop-color="#1C191A"/>
</radialGradient>
<linearGradient id="paint6_linear" x1="12.9199" y1="5.37063" x2="16.0169" y2="6.89066" gradientUnits="userSpaceOnUse">
<stop stop-color="#919191"/>
<stop offset="0.2187" stop-color="#676767"/>
<stop offset="0.4511" stop-color="#414141"/>
<stop offset="0.6664" stop-color="#252525"/>
<stop offset="0.8561" stop-color="#151515"/>
<stop offset="1" stop-color="#0F0F0F"/>
</linearGradient>
<linearGradient id="paint7_linear" x1="13.4512" y1="4.28807" x2="16.5482" y2="5.80809" gradientUnits="userSpaceOnUse">
<stop stop-color="#BDBDBD"/>
<stop offset="0.0964445" stop-color="#AEAEAE"/>
<stop offset="0.3653" stop-color="#888888"/>
<stop offset="0.6143" stop-color="#6C6C6C"/>
<stop offset="0.8336" stop-color="#5C5C5C"/>
<stop offset="1" stop-color="#565656"/>
</linearGradient>
<linearGradient id="paint8_linear" x1="20.0954" y1="3.12301" x2="20.0775" y2="6.07584" gradientUnits="userSpaceOnUse">
<stop offset="0.0879121" stop-color="#823311"/>
<stop offset="0.2769" stop-color="#752E0F"/>
<stop offset="0.6237" stop-color="#541F08"/>
<stop offset="1" stop-color="#290D00"/>
</linearGradient>
</defs>
</svg>
