<svg width="24" height="24" viewBox="0 0 24 24" fill="none" xmlns="http://www.w3.org/2000/svg">
<path d="M18 18.001V20.001H6V18.001H4V20.001C4 21.103 4.896 22.001 6 22.001H18C19.104 22.001 20 21.103 20 20.001V18.001H18Z" fill="white"/>
<path d="M11.293 15.708C11.3857 15.8012 11.4958 15.8751 11.6171 15.9256C11.7385 15.976 11.8686 16.002 12 16.002C12.1314 16.002 12.2615 15.976 12.3829 15.9256C12.5042 15.8751 12.6143 15.8012 12.707 15.708L17.707 10.708C17.8468 10.5681 17.942 10.39 17.9806 10.196C18.0192 10.0021 17.9993 9.80102 17.9237 9.61832C17.848 9.43562 17.7199 9.27946 17.5555 9.16958C17.391 9.05969 17.1978 9.00102 17 9.00098H15V3.00098C15 2.73576 14.8946 2.48141 14.7071 2.29387C14.5196 2.10633 14.2652 2.00098 14 2.00098H10C9.73478 2.00098 9.48043 2.10633 9.29289 2.29387C9.10536 2.48141 9 2.73576 9 3.00098V9.00098H7C6.80225 9.00102 6.60895 9.05969 6.44454 9.16958C6.28013 9.27946 6.15199 9.43562 6.07632 9.61832C6.00065 9.80102 5.98085 10.0021 6.01942 10.196C6.05798 10.39 6.15319 10.5681 6.293 10.708L11.293 15.708ZM10 11.001C10.2652 11.001 10.5196 10.8956 10.7071 10.7081C10.8946 10.5205 11 10.2662 11 10.001V4.00098H13V10.001C13 10.2662 13.1054 10.5205 13.2929 10.7081C13.4804 10.8956 13.7348 11.001 14 11.001H14.586L12 13.587L9.414 11.001H10Z" fill="white"/>
</svg>
