<svg width="24" height="24" viewBox="0 0 24 24" xmlns="http://www.w3.org/2000/svg">
<path d="M5.998 22V18H3.998C2.894 18 1.998 17.103 1.998 16V4C1.998 3.46957 2.20871 2.96086 2.58379 2.58579C2.95886 2.21071 3.46757 2 3.998 2H19.998C20.5284 2 21.0371 2.21071 21.4122 2.58579C21.7873 2.96086 21.998 3.46957 21.998 4V16C21.998 17.103 21.102 18 19.998 18H11.332L5.998 22ZM3.998 4V16H7.998V18L10.664 16H19.998V4H3.998Z" />
<path d="M7.42 11C8.192 12.764 9.948 14 11.998 14C14.048 14 15.804 12.764 16.576 11H7.42Z" />
<path d="M8.998 8.5C9.68836 8.5 10.248 7.94036 10.248 7.25C10.248 6.55964 9.68836 6 8.998 6C8.30765 6 7.748 6.55964 7.748 7.25C7.748 7.94036 8.30765 8.5 8.998 8.5Z" />
<path d="M14.998 8.5C15.6884 8.5 16.248 7.94036 16.248 7.25C16.248 6.55964 15.6884 6 14.998 6C14.3076 6 13.748 6.55964 13.748 7.25C13.748 7.94036 14.3076 8.5 14.998 8.5Z" />
</svg>
