<svg width="24" height="24" viewBox="0 0 24 24" fill="none" xmlns="http://www.w3.org/2000/svg">
<path d="M19 5.171V3C19 2.73478 18.8946 2.48043 18.7071 2.29289C18.5196 2.10536 18.2652 2 18 2H6C5.73478 2 5.48043 2.10536 5.29289 2.29289C5.10536 2.48043 5 2.73478 5 3V5.172C5 5.962 5.32 6.735 5.879 7.293L10.586 12L5.879 16.708C5.59934 16.9857 5.37762 17.3162 5.22673 17.6803C5.07583 18.0444 4.99877 18.4349 5 18.829V21C5 21.2652 5.10536 21.5196 5.29289 21.7071C5.48043 21.8946 5.73478 22 6 22H18C18.2652 22 18.5196 21.8946 18.7071 21.7071C18.8946 21.5196 19 21.2652 19 21V18.829C19.0011 18.4347 18.924 18.0442 18.7732 17.6799C18.6223 17.3157 18.4006 16.985 18.121 16.707L13.414 12L18.121 7.293C18.682 6.72904 18.9979 5.9665 19 5.171ZM17 18.829V20H7V18.829C7 18.561 7.104 18.31 7.293 18.121L12 13.414L16.707 18.122C16.8003 18.2145 16.8743 18.3247 16.9246 18.446C16.9749 18.5674 17.0005 18.6976 17 18.829ZM17 5.171C17 5.434 16.893 5.692 16.707 5.878L12 10.585L7.293 5.878C7.10619 5.69001 7.00093 5.43602 7 5.171V4H17V5.171Z" fill="#747A7C"/>
<path d="M9 19L12 16L15 19H9Z" fill="#747A7C"/>
</svg>
