<svg width="32" height="32" viewBox="0 0 32 32" fill="none" xmlns="http://www.w3.org/2000/svg">
<path d="M24.0013 20.8667V23.572C25.656 24.0427 26.668 24.656 26.668 25.332C26.668 26.8053 21.8933 27.9987 16.0013 27.9987C10.1093 27.9987 5.33467 26.8053 5.33467 25.332C5.33467 24.656 6.34667 24.0413 8.00134 23.572V20.8653C3.99067 21.8173 1.33467 23.46 1.33467 25.3333C1.33467 28.28 7.90134 30.6667 16.0013 30.6667C24.1 30.6667 30.668 28.28 30.668 25.3333C30.668 23.46 28.012 21.8173 24.0013 20.8667Z" fill="#3B4042"/>
<path d="M22.668 6.66667C23.768 6.66667 24.668 7.56801 24.668 8.66667C24.668 9.76534 23.768 10.6667 22.668 10.6667C21.568 10.6667 20.668 9.76534 20.668 8.66667C20.668 7.56801 21.568 6.66667 22.668 6.66667Z" fill="#3B4042"/>
<path d="M25.3347 20H20.0013V14.6667C20.0013 13.9594 20.2823 13.2811 20.7824 12.781C21.2825 12.281 21.9608 12 22.668 12C23.3753 12 24.0535 12.281 24.5536 12.781C25.0537 13.2811 25.3347 13.9594 25.3347 14.6667V20Z" fill="#3B4042"/>
<path d="M16.0013 4C17.1013 4 18.0013 4.90133 18.0013 6C18.0013 7.09867 17.1013 8 16.0013 8C14.9013 8 14.0013 7.09867 14.0013 6C14.0013 4.90133 14.9013 4 16.0013 4Z" fill="#3B4042"/>
<path d="M18.668 17.3333H13.3347V12C13.3347 11.2928 13.6156 10.6145 14.1157 10.1144C14.6158 9.61428 15.2941 9.33333 16.0013 9.33333C16.7086 9.33333 17.3869 9.61428 17.887 10.1144C18.3871 10.6145 18.668 11.2928 18.668 12V17.3333Z" fill="#3B4042"/>
<path d="M9.33467 6.66667C10.4347 6.66667 11.3347 7.56801 11.3347 8.66667C11.3347 9.76534 10.4347 10.6667 9.33467 10.6667C8.23467 10.6667 7.33467 9.76534 7.33467 8.66667C7.33467 7.56801 8.23467 6.66667 9.33467 6.66667Z" fill="#3B4042"/>
<path d="M12.0013 20H6.668V14.6667C6.668 13.9594 6.94895 13.2811 7.44905 12.781C7.94914 12.281 8.62742 12 9.33467 12C10.0419 12 10.7202 12.281 11.2203 12.781C11.7204 13.2811 12.0013 13.9594 12.0013 14.6667V20Z" fill="#3B4042"/>
</svg>
