<svg width="24" height="24" viewBox="0 0 24 24"  xmlns="http://www.w3.org/2000/svg">
<path d="M21 4H14C13.8687 3.99981 13.7386 4.0256 13.6172 4.07589C13.4959 4.12617 13.3857 4.19996 13.293 4.293L12 5.586L10.707 4.293C10.5195 4.10545 10.2652 4.00006 10 4H3C2.73478 4 2.48043 4.10536 2.29289 4.29289C2.10536 4.48043 2 4.73478 2 5V18C2 18.2652 2.10536 18.5196 2.29289 18.7071C2.48043 18.8946 2.73478 19 3 19H9.586L11.293 20.707C11.3857 20.8002 11.4958 20.8741 11.6171 20.9246C11.7385 20.9751 11.8686 21.001 12 21.001C12.1314 21.001 12.2615 20.9751 12.3829 20.9246C12.5042 20.8741 12.6143 20.8002 12.707 20.707L14.414 19H21C21.2652 19 21.5196 18.8946 21.7071 18.7071C21.8946 18.5196 22 18.2652 22 18V5C22 4.73478 21.8946 4.48043 21.7071 4.29289C21.5196 4.10536 21.2652 4 21 4ZM10 17H4V6H9.586L11 7.415V17.587L10.707 17.294C10.6143 17.2008 10.5042 17.1269 10.3828 17.0764C10.2615 17.026 10.1314 17 10 17ZM20 17H14C13.8687 16.9998 13.7386 17.0256 13.6172 17.0759C13.4959 17.1262 13.3857 17.2 13.293 17.293L13 17.586V7.415L14.414 6H20V17Z" />
<path d="M7 8H10V10H7V8Z" />
<path d="M5 11H10V13H5V11Z" />
<path d="M5 14H10V16H5V14Z" />
<path d="M14 14H19V16H14V14Z" />
<path d="M14 11H19V13H14V11Z" />
<path d="M14 8H17V10H14V8Z" />
</svg>
