<svg width="140" height="140" viewBox="0 0 140 140" fill="none" xmlns="http://www.w3.org/2000/svg">
<rect x="2" y="2" width="136" height="136" rx="3" stroke="#3B4042" stroke-width="4" stroke-linecap="square" stroke-linejoin="bevel" stroke-dasharray="6 12"/>
<path d="M84.5063 40.8359H52.1667C49.0415 40.8359 46.5 43.3774 46.5 46.5026V97.5026C46.5 100.628 49.0415 103.169 52.1667 103.169H91.8333C94.9585 103.169 97.5 100.628 97.5 97.5026V53.8296L84.5063 40.8359ZM52.1667 97.5026V46.5026H80.5V57.8359H91.8333L91.8362 97.5026H52.1667Z" fill="#3B4042"/>
<path d="M72 83.339L66.3333 77.6723L57.8333 89.0056H86.1667L77.6667 72.0056L72 83.339Z" fill="#3B4042"/>
<path d="M66.3333 74.8389C69.463 74.8389 72 72.3019 72 69.1723C72 66.0427 69.463 63.5056 66.3333 63.5056C63.2037 63.5056 60.6667 66.0427 60.6667 69.1723C60.6667 72.3019 63.2037 74.8389 66.3333 74.8389Z" fill="#3B4042"/>
</svg>
