<svg width="17" height="17" viewBox="0 0 17 17" fill="none" xmlns="http://www.w3.org/2000/svg">
<path d="M12.2345 0.911612L12.1461 0.823223L12.0577 0.911612L10.9861 1.98325L10.8977 2.07164L10.9861 2.16003L12.5105 3.68446H1H0.875V3.80946V5.32521V5.45021H1H12.5105L10.9861 6.97464L10.8977 7.06306L10.9861 7.15145L12.0578 8.22233L12.1461 8.31065L12.2345 8.22231L15.8018 4.65573L15.8902 4.56734L15.8018 4.47895L12.2345 0.911612Z" fill="#3B4042" stroke="#3B4042" stroke-width="0.25"/>
<path d="M4.47886 9.24828L4.56725 9.15989L4.65564 9.24828L5.72728 10.3199L5.81567 10.4083L5.72728 10.4967L4.20286 12.0211H15.7134H15.8384V12.1461V13.6619V13.7869H15.7134H4.20286L5.72728 15.3113L5.8157 15.3997L5.72725 15.4881L4.65561 16.559L4.56723 16.6473L4.47887 16.559L0.911539 12.9924L0.823132 12.904L0.91153 12.8156L4.47886 9.24828Z" fill="#3B4042" stroke="#3B4042" stroke-width="0.25"/>
</svg>
