<svg width="48" height="48" viewBox="0 0 48 48" fill="none" xmlns="http://www.w3.org/2000/svg">
<path d="M47.8744 23.5313L37.0491 4.78132C36.8816 4.49126 36.5722 4.31258 36.2372 4.31258H28.737C28.402 4.31258 28.0925 4.49126 27.9251 4.78132C27.7576 5.07139 27.7576 5.42876 27.9251 5.71882L38.4797 24L27.9251 42.2812C27.7576 42.5712 27.7576 42.9286 27.9251 43.2187C28.0925 43.5087 28.402 43.6874 28.737 43.6874H36.2372C36.5722 43.6874 36.8816 43.5087 37.0491 43.2187L47.8744 24.4687C48.0418 24.1787 48.0418 23.8213 47.8744 23.5313ZM35.6959 41.8124H30.3608L40.3741 24.4687C40.5416 24.1787 40.5416 23.8213 40.3741 23.5313L30.3608 6.18757H35.696L45.98 24L35.6959 41.8124Z" fill="#FF7100"/>
<path d="M33.1198 23.5714L23.2223 6.42857C23.0692 6.16337 22.7863 6 22.48 6H15.6227C15.3165 6 15.0335 6.16337 14.8804 6.42857C14.7273 6.69377 14.7273 7.02052 14.8804 7.28572L17.9002 12.5161C18.1368 12.9259 18.6611 13.0665 19.0711 12.8298C19.4811 12.5931 19.6216 12.0689 19.3848 11.6589L17.1074 7.71429H21.9852L31.3878 24L21.9852 40.2857H17.1074L26.2625 24.4286C26.4156 24.1634 26.4156 23.8366 26.2625 23.5714L23.2425 18.3407C23.0057 17.9308 22.4816 17.7903 22.0716 18.027C21.6616 18.2638 21.5212 18.7879 21.7579 19.1979L24.5304 24L14.8804 40.7143C14.7273 40.9795 14.7273 41.3063 14.8804 41.5715C15.0335 41.8367 15.3165 42 15.6227 42H22.48C22.7863 42 23.0692 41.8367 23.2223 41.5715L33.1198 24.4286C33.2729 24.1634 33.2729 23.8366 33.1198 23.5714Z" fill="#FF4B00"/>
<path d="M17.9017 23.6336L9.43497 8.9687C9.30402 8.74183 9.06197 8.60207 8.79999 8.60207H2.93382C2.67184 8.60207 2.42979 8.74183 2.29883 8.9687C2.1678 9.19556 2.1678 9.47507 2.29883 9.70194L10.5539 24.0002L2.29883 38.2984C2.1678 38.5253 2.1678 38.8048 2.29883 39.0317C2.42979 39.2585 2.67184 39.3983 2.93382 39.3983H8.79999C9.06197 39.3983 9.30402 39.2585 9.43497 39.0317L17.9017 24.3668C18.0328 24.1399 18.0328 23.8604 17.9017 23.6336ZM8.37668 37.9318H4.20387L12.0356 24.3668C12.1666 24.1399 12.1666 23.8604 12.0356 23.6336L4.20387 10.0686H8.37668L16.4201 24.0002L8.37668 37.9318Z" fill="#3B4042"/>
<path d="M21.4285 15.4286C21.4285 14.9553 21.0448 14.5715 20.5714 14.5715H20.5708C20.0974 14.5715 19.714 14.9553 19.714 15.4286C19.714 15.9019 20.098 16.2858 20.5714 16.2858C21.0448 16.2858 21.4285 15.9019 21.4285 15.4286Z" fill="#FF4B00"/>
</svg>
