<svg width="19" height="21" viewBox="0 0 19 21" fill="none" xmlns="http://www.w3.org/2000/svg">
<path d="M9.49799 7.99805C10.3264 7.99805 10.998 7.32647 10.998 6.49805C10.998 5.66962 10.3264 4.99805 9.49799 4.99805C8.66956 4.99805 7.99799 5.66962 7.99799 6.49805C7.99799 7.32647 8.66956 7.99805 9.49799 7.99805Z" fill="url(#free3_paint0_radial)"/>
<path d="M12.412 10.998L18.053 5.35705C18.1458 5.26434 18.2195 5.15425 18.2698 5.03307C18.3202 4.91188 18.3461 4.78197 18.3462 4.65075C18.3463 4.51954 18.3205 4.38959 18.2704 4.26833C18.2202 4.14708 18.1467 4.03688 18.054 3.94405C16.158 2.04505 13.653 0.998047 10.998 0.998047C5.48399 0.998047 0.997986 5.48505 0.997986 10.998C0.997986 16.512 5.48399 20.998 10.998 20.998C13.652 20.998 16.158 19.953 18.054 18.053C18.1467 17.9602 18.2202 17.85 18.2704 17.7288C18.3205 17.6075 18.3463 17.4776 18.3462 17.3463C18.3461 17.2151 18.3202 17.0852 18.2698 16.964C18.2195 16.8428 18.1458 16.7327 18.053 16.64L12.412 10.998ZM10.998 18.998C6.58699 18.998 2.99799 15.41 2.99799 10.998C2.99799 6.58705 6.58699 2.99805 10.998 2.99805C12.785 2.99805 14.489 3.59405 15.89 4.69205L10.291 10.291C10.198 10.3839 10.1243 10.4942 10.0739 10.6156C10.0236 10.737 9.9977 10.8671 9.9977 10.9985C9.9977 11.13 10.0236 11.2601 10.0739 11.3815C10.1243 11.5029 10.198 11.6132 10.291 11.706L15.89 17.305C14.4957 18.4028 12.7725 18.9992 10.998 18.998Z" fill="url(#free3_paint1_radial)"/>
<defs>
<radialGradient id="free3_paint0_radial" cx="0" cy="0" r="1" gradientUnits="userSpaceOnUse" gradientTransform="translate(9.49799 6.49805) rotate(90) scale(1.5)">
<stop stop-color="#FF8000"/>
<stop offset="1" stop-color="#FF4A00"/>
</radialGradient>
<radialGradient id="free3_paint1_radial" cx="0" cy="0" r="1" gradientUnits="userSpaceOnUse" gradientTransform="translate(9.67209 10.998) rotate(90) scale(10 8.6741)">
<stop stop-color="#FF8000"/>
<stop offset="1" stop-color="#FF4A00"/>
</radialGradient>
</defs>
</svg>
