<svg width="24" height="24" viewBox="0 0 24 24" fill="none" xmlns="http://www.w3.org/2000/svg">
<path d="M19 10.998H22V9H19C17.346 9 16 10.343 16 11.998C16 13.653 17.346 14.998 19 14.998C19.2577 15.0095 19.5011 15.12 19.6794 15.3065C19.8577 15.4929 19.9572 15.741 19.9572 15.999C19.9572 16.257 19.8577 16.5051 19.6794 16.6915C19.5011 16.878 19.2577 16.9885 19 17H15V6.998C15.2652 6.998 15.5196 6.89264 15.7071 6.70511C15.8946 6.51757 16 6.26322 16 5.998V3C16 2.73478 15.8946 2.48043 15.7071 2.29289C15.5196 2.10536 15.2652 2 15 2H3C2.73478 2 2.48043 2.10536 2.29289 2.29289C2.10536 2.48043 2 2.73478 2 3V5.998C2 6.26322 2.10536 6.51757 2.29289 6.70511C2.48043 6.89264 2.73478 6.998 3 6.998V16.998C2.73478 16.998 2.48043 17.1034 2.29289 17.2909C2.10536 17.4784 2 17.7328 2 17.998V21C2 21.2652 2.10536 21.5196 2.29289 21.7071C2.48043 21.8946 2.73478 22 3 22H15C15.2652 22 15.5196 21.8946 15.7071 21.7071C15.8946 21.5196 16 21.2652 16 21V18.998H19C20.654 18.998 22 17.653 22 15.998C22 14.344 20.654 12.998 19 12.998C18.449 12.998 18 12.549 18 11.998C18 11.447 18.449 10.998 19 10.998ZM5 9.998H13V11H5V9.998ZM5 12.998H13V14H5V12.998ZM4 4H14V5H4V4ZM13 6.998V8H5V6.998H13ZM5 15.998H13V17H5V15.998ZM14 20H4V18.998H14V20Z" fill="url(#free2_paint0_radial)"/>
<defs>
<radialGradient id="free2_paint0_radial" cx="0" cy="0" r="1" gradientUnits="userSpaceOnUse" gradientTransform="translate(12 12) rotate(90) scale(10)">
<stop stop-color="#FF8000"/>
<stop offset="1" stop-color="#FF4A00"/>
</radialGradient>
</defs>
</svg>
