<svg width="171" height="71" viewBox="0 0 171 71" fill="none" xmlns="http://www.w3.org/2000/svg">
<mask id="mask0" mask-type="alpha" maskUnits="userSpaceOnUse" x="-4" y="-9" width="89" height="87">
<rect x="-4" y="-9" width="89" height="87" fill="#25F7B6"/>
</mask>
<g mask="url(#mask0)">
<path opacity="0.3" d="M167.943 -45.4258L149.441 -29.4689L133.557 -0.480232L115.07 28.289L96.5683 15.4767L78.0811 24.4424L59.5793 43.032L41.0921 36.3625L22.6049 49.1018L4.10303 61.2705V104.3H167.943V-45.4258Z" fill="#25F7B6"/>
<path d="M4.36628 61.6654L3.85437 60.8756L22.3416 48.7068L41.0189 35.836L59.4622 42.4761L77.8032 24.0621L77.8763 24.0328L96.6122 14.9355L114.924 27.6162L133.148 -0.714298L149.075 -29.7761L149.134 -29.8346L167.636 -45.7769L168.25 -45.0602L149.821 -29.1764L133.967 -0.23164L133.952 -0.21701L115.202 28.9471L96.5244 16.0178L78.359 24.8372L59.7109 43.5731L41.1652 36.889L22.8681 49.482L4.36628 61.6654Z" fill="#25F7B6"/>
<path d="M4.41007 66.916H3.56177V68.2324H4.41007V66.916Z" fill="#25F7B6"/>
<path d="M4.41007 64.5466H3.56177V65.863H4.41007V64.5466Z" fill="#25F7B6"/>
<path d="M4.41007 62.1919H3.56177V63.5082H4.41007V62.1919Z" fill="#25F7B6"/>
<path d="M4.41007 69.3H3.56177V70.6164H4.41007V69.3Z" fill="#25F7B6"/>
<path d="M22.8974 55.2737H22.0491V56.7217H22.8974V55.2737Z" fill="#25F7B6"/>
<path d="M22.8974 52.6704H22.0491V54.1184H22.8974V52.6704Z" fill="#25F7B6"/>
<path d="M22.8974 50.0669H22.0491V51.5149H22.8974V50.0669Z" fill="#25F7B6"/>
<path d="M22.8974 63.1133H22.0491V64.5612H22.8974V63.1133Z" fill="#25F7B6"/>
<path d="M22.8974 60.4954H22.0491V61.9433H22.8974V60.4954Z" fill="#25F7B6"/>
<path d="M22.8974 57.9065H22.0491V59.3545H22.8974V57.9065Z" fill="#25F7B6"/>
<path d="M22.8974 70.938H22.0491V72.386H22.8974V70.938Z" fill="#25F7B6"/>
<path d="M22.8974 68.3347H22.0491V69.7827H22.8974V68.3347Z" fill="#25F7B6"/>
<path d="M22.8974 65.7312H22.0491V67.1792H22.8974V65.7312Z" fill="#25F7B6"/>
<path d="M41.3992 42.1982H40.5509V43.5877H41.3992V42.1982Z" fill="#25F7B6"/>
<path d="M41.3992 39.697H40.5509V41.0865H41.3992V39.697Z" fill="#25F7B6"/>
<path d="M41.3992 37.2107H40.5509V38.6002H41.3992V37.2107Z" fill="#25F7B6"/>
<path d="M41.3992 49.7161H40.5509V51.1055H41.3992V49.7161Z" fill="#25F7B6"/>
<path d="M41.3992 47.2148H40.5509V48.6043H41.3992V47.2148Z" fill="#25F7B6"/>
<path d="M41.3992 44.7285H40.5509V46.118H41.3992V44.7285Z" fill="#25F7B6"/>
<path d="M41.3992 57.2336H40.5509V58.6231H41.3992V57.2336Z" fill="#25F7B6"/>
<path d="M41.3992 54.7324H40.5509V56.1219H41.3992V54.7324Z" fill="#25F7B6"/>
<path d="M41.3992 52.2461H40.5509V53.6356H41.3992V52.2461Z" fill="#25F7B6"/>
<path d="M41.3992 64.7515H40.5509V66.1409H41.3992V64.7515Z" fill="#25F7B6"/>
<path d="M41.3992 62.2502H40.5509V63.6397H41.3992V62.2502Z" fill="#25F7B6"/>
<path d="M41.3992 59.7639H40.5509V61.1534H41.3992V59.7639Z" fill="#25F7B6"/>
<path d="M41.3992 69.7681H40.5509V71.1575H41.3992V69.7681Z" fill="#25F7B6"/>
<path d="M41.3992 67.2817H40.5509V68.6712H41.3992V67.2817Z" fill="#25F7B6"/>
<path d="M59.8864 49.0432H59.0381V50.4619H59.8864V49.0432Z" fill="#25F7B6"/>
<path d="M59.8864 46.4983H59.0381V47.917H59.8864V46.4983Z" fill="#25F7B6"/>
<path d="M59.8864 43.9827H59.0381V45.4014H59.8864V43.9827Z" fill="#25F7B6"/>
<path d="M59.8864 56.6487H59.0381V58.0674H59.8864V56.6487Z" fill="#25F7B6"/>
<path d="M59.8864 54.1184H59.0381V55.5371H59.8864V54.1184Z" fill="#25F7B6"/>
<path d="M59.8864 51.5881H59.0381V53.0068H59.8864V51.5881Z" fill="#25F7B6"/>
<path d="M59.8864 64.2688H59.0381V65.6875H59.8864V64.2688Z" fill="#25F7B6"/>
<path d="M59.8864 61.7239H59.0381V63.1426H59.8864V61.7239Z" fill="#25F7B6"/>
<path d="M59.8864 59.2083H59.0381V60.627H59.8864V59.2083Z" fill="#25F7B6"/>
<path d="M59.8864 69.344H59.0381V70.7627H59.8864V69.344Z" fill="#25F7B6"/>
<path d="M59.8864 66.8137H59.0381V68.2324H59.8864V66.8137Z" fill="#25F7B6"/>
<path d="M78.3736 30.6731H77.5253V32.1503H78.3736V30.6731Z" fill="#25F7B6"/>
<path d="M78.3736 28.0403H77.5253V29.5175H78.3736V28.0403Z" fill="#25F7B6"/>
<path d="M78.3736 25.3931H77.5253V26.8703H78.3736V25.3931Z" fill="#25F7B6"/>
<path d="M78.3736 38.6296H77.5253V40.1069H78.3736V38.6296Z" fill="#25F7B6"/>
<path d="M78.3736 35.9822H77.5253V37.4594H78.3736V35.9822Z" fill="#25F7B6"/>
<path d="M78.3736 33.3496H77.5253V34.8268H78.3736V33.3496Z" fill="#25F7B6"/>
<path d="M78.3736 46.5862H77.5253V48.0634H78.3736V46.5862Z" fill="#25F7B6"/>
<path d="M78.3736 43.9387H77.5253V45.4159H78.3736V43.9387Z" fill="#25F7B6"/>
<path d="M78.3736 41.2915H77.5253V42.7687H78.3736V41.2915Z" fill="#25F7B6"/>
<path d="M78.3736 54.5281H77.5253V56.0053H78.3736V54.5281Z" fill="#25F7B6"/>
<path d="M78.3736 51.8806H77.5253V53.3578H78.3736V51.8806Z" fill="#25F7B6"/>
<path d="M78.3736 49.248H77.5253V50.7253H78.3736V49.248Z" fill="#25F7B6"/>
<path d="M78.3736 62.4846H77.5253V63.9618H78.3736V62.4846Z" fill="#25F7B6"/>
<path d="M78.3736 59.8372H77.5253V61.3144H78.3736V59.8372Z" fill="#25F7B6"/>
<path d="M78.3736 57.2046H77.5253V58.6818H78.3736V57.2046Z" fill="#25F7B6"/>
<path d="M78.3736 70.4412H77.5253V71.9184H78.3736V70.4412Z" fill="#25F7B6"/>
<path d="M78.3736 67.7937H77.5253V69.2709H78.3736V67.7937Z" fill="#25F7B6"/>
<path d="M78.3736 65.1465H77.5253V66.6237H78.3736V65.1465Z" fill="#25F7B6"/>
<path d="M4.10296 63.3766C5.26615 63.3766 6.2091 62.4336 6.2091 61.2704C6.2091 60.1073 5.26615 59.1643 4.10296 59.1643C2.93978 59.1643 1.99683 60.1073 1.99683 61.2704C1.99683 62.4336 2.93978 63.3766 4.10296 63.3766Z" fill="#25F7B6"/>
<path d="M4.10298 63.8446C2.68426 63.8446 1.52881 62.6892 1.52881 61.2705C1.52881 59.8517 2.68426 58.6963 4.10298 58.6963C5.52169 58.6963 6.67714 59.8517 6.67714 61.2705C6.67714 62.6892 5.52169 63.8446 4.10298 63.8446ZM4.10298 59.6324C3.19617 59.6324 2.46487 60.3636 2.46487 61.2705C2.46487 62.1773 3.19617 62.9086 4.10298 62.9086C5.00979 62.9086 5.74108 62.1773 5.74108 61.2705C5.74108 60.3636 5.00979 59.6324 4.10298 59.6324Z" fill="#25F7B6"/>
<path d="M22.6048 51.2079C23.768 51.2079 24.7109 50.2649 24.7109 49.1017C24.7109 47.9386 23.768 46.9956 22.6048 46.9956C21.4416 46.9956 20.4987 47.9386 20.4987 49.1017C20.4987 50.2649 21.4416 51.2079 22.6048 51.2079Z" fill="#25F7B6"/>
<path d="M22.6048 51.6759C21.1861 51.6759 20.0306 50.5205 20.0306 49.1018C20.0306 47.683 21.1861 46.5276 22.6048 46.5276C24.0235 46.5276 25.179 47.683 25.179 49.1018C25.179 50.5205 24.0235 51.6759 22.6048 51.6759ZM22.6048 47.4637C21.698 47.4637 20.9667 48.195 20.9667 49.1018C20.9667 50.0086 21.698 50.7399 22.6048 50.7399C23.5116 50.7399 24.2429 50.0086 24.2429 49.1018C24.2429 48.195 23.497 47.4637 22.6048 47.4637Z" fill="#25F7B6"/>
<path d="M41.092 38.4686C42.2552 38.4686 43.1981 37.5257 43.1981 36.3625C43.1981 35.1993 42.2552 34.2563 41.092 34.2563C39.9288 34.2563 38.9858 35.1993 38.9858 36.3625C38.9858 37.5257 39.9288 38.4686 41.092 38.4686Z" fill="#25F7B6"/>
<path d="M41.092 38.9367C39.6733 38.9367 38.5178 37.7812 38.5178 36.3625C38.5178 34.9438 39.6733 33.7883 41.092 33.7883C42.5107 33.7883 43.6662 34.9438 43.6662 36.3625C43.6662 37.7812 42.5107 38.9367 41.092 38.9367ZM41.092 34.7244C40.1852 34.7244 39.4539 35.4557 39.4539 36.3625C39.4539 37.2693 40.1852 38.0006 41.092 38.0006C41.9988 38.0006 42.7301 37.2693 42.7301 36.3625C42.7301 35.4557 41.9988 34.7244 41.092 34.7244Z" fill="#25F7B6"/>
<path d="M59.5792 45.1381C60.7423 45.1381 61.6853 44.1951 61.6853 43.0319C61.6853 41.8687 60.7423 40.9258 59.5792 40.9258C58.416 40.9258 57.473 41.8687 57.473 43.0319C57.473 44.1951 58.416 45.1381 59.5792 45.1381Z" fill="#25F7B6"/>
<path d="M59.5792 45.6061C58.1605 45.6061 57.005 44.4507 57.005 43.0319C57.005 41.6132 58.1605 40.4578 59.5792 40.4578C60.9979 40.4578 62.1533 41.6132 62.1533 43.0319C62.168 44.4507 61.0125 45.6061 59.5792 45.6061ZM59.5792 41.3792C58.6724 41.3792 57.9411 42.1105 57.9411 43.0173C57.9411 43.9241 58.6724 44.6554 59.5792 44.6554C60.486 44.6554 61.2173 43.9241 61.2173 43.0173C61.2173 42.1105 60.486 41.3792 59.5792 41.3792Z" fill="#25F7B6"/>
<path d="M79.5638 25.9309C80.3863 25.1084 80.3863 23.7749 79.5638 22.9524C78.7413 22.1299 77.4078 22.1299 76.5853 22.9524C75.7628 23.7749 75.7628 25.1084 76.5853 25.9309C77.4078 26.7534 78.7413 26.7534 79.5638 25.9309Z" fill="#25F7B6"/>
<path d="M78.0811 27.0311C76.6624 27.0311 75.507 25.8757 75.507 24.457C75.507 23.0383 76.6624 21.8828 78.0811 21.8828C79.4998 21.8828 80.6553 23.0383 80.6553 24.457C80.6553 25.8757 79.4998 27.0311 78.0811 27.0311ZM78.0811 22.8043C77.1743 22.8043 76.443 23.5355 76.443 24.4424C76.443 25.3492 77.1743 26.0805 78.0811 26.0805C78.9879 26.0805 79.7192 25.3492 79.7192 24.4424C79.7192 23.5502 78.9879 22.8043 78.0811 22.8043Z" fill="#25F7B6"/>
</g>
</svg>
