<svg width="170" height="71" viewBox="0 0 170 71" fill="none" xmlns="http://www.w3.org/2000/svg">
<path opacity="0.3" d="M166.943 -45.4258L148.441 -29.4689L132.557 -0.480232L114.07 28.289L95.5683 15.4767L77.0811 24.4424L58.5793 43.032L40.0921 36.3625L21.6049 49.1018L3.10303 61.2705V104.3H166.943V-45.4258Z" fill="#25F7B6"/>
<path d="M3.36628 61.6654L2.85437 60.8756L21.3416 48.7068L40.0189 35.836L58.4622 42.4761L76.8032 24.0621L76.8763 24.0328L95.6122 14.9355L113.924 27.6162L132.148 -0.714298L148.075 -29.7761L148.134 -29.8346L166.636 -45.7769L167.25 -45.0602L148.821 -29.1764L132.967 -0.23164L132.952 -0.21701L114.202 28.9471L95.5244 16.0178L77.359 24.8372L58.7109 43.5731L40.1652 36.889L21.8681 49.482L3.36628 61.6654Z" fill="#25F7B6"/>
<path d="M3.41007 66.916H2.56177V68.2324H3.41007V66.916Z" fill="#25F7B6"/>
<path d="M3.41007 64.5466H2.56177V65.863H3.41007V64.5466Z" fill="#25F7B6"/>
<path d="M3.41007 62.1919H2.56177V63.5082H3.41007V62.1919Z" fill="#25F7B6"/>
<path d="M3.41007 69.3H2.56177V70.6164H3.41007V69.3Z" fill="#25F7B6"/>
<path d="M21.8974 55.2737H21.0491V56.7217H21.8974V55.2737Z" fill="#25F7B6"/>
<path d="M21.8974 52.6704H21.0491V54.1184H21.8974V52.6704Z" fill="#25F7B6"/>
<path d="M21.8974 50.0669H21.0491V51.5149H21.8974V50.0669Z" fill="#25F7B6"/>
<path d="M21.8974 63.1133H21.0491V64.5612H21.8974V63.1133Z" fill="#25F7B6"/>
<path d="M21.8974 60.4954H21.0491V61.9433H21.8974V60.4954Z" fill="#25F7B6"/>
<path d="M21.8974 57.9065H21.0491V59.3545H21.8974V57.9065Z" fill="#25F7B6"/>
<path d="M21.8974 70.938H21.0491V72.386H21.8974V70.938Z" fill="#25F7B6"/>
<path d="M21.8974 68.3347H21.0491V69.7827H21.8974V68.3347Z" fill="#25F7B6"/>
<path d="M21.8974 65.7312H21.0491V67.1792H21.8974V65.7312Z" fill="#25F7B6"/>
<path d="M40.3992 42.1982H39.5509V43.5877H40.3992V42.1982Z" fill="#25F7B6"/>
<path d="M40.3992 39.697H39.5509V41.0865H40.3992V39.697Z" fill="#25F7B6"/>
<path d="M40.3992 37.2107H39.5509V38.6002H40.3992V37.2107Z" fill="#25F7B6"/>
<path d="M40.3992 49.7161H39.5509V51.1055H40.3992V49.7161Z" fill="#25F7B6"/>
<path d="M40.3992 47.2148H39.5509V48.6043H40.3992V47.2148Z" fill="#25F7B6"/>
<path d="M40.3992 44.7285H39.5509V46.118H40.3992V44.7285Z" fill="#25F7B6"/>
<path d="M40.3992 57.2336H39.5509V58.6231H40.3992V57.2336Z" fill="#25F7B6"/>
<path d="M40.3992 54.7324H39.5509V56.1219H40.3992V54.7324Z" fill="#25F7B6"/>
<path d="M40.3992 52.2461H39.5509V53.6356H40.3992V52.2461Z" fill="#25F7B6"/>
<path d="M40.3992 64.7515H39.5509V66.1409H40.3992V64.7515Z" fill="#25F7B6"/>
<path d="M40.3992 62.2502H39.5509V63.6397H40.3992V62.2502Z" fill="#25F7B6"/>
<path d="M40.3992 59.7639H39.5509V61.1534H40.3992V59.7639Z" fill="#25F7B6"/>
<path d="M40.3992 69.7681H39.5509V71.1575H40.3992V69.7681Z" fill="#25F7B6"/>
<path d="M40.3992 67.2817H39.5509V68.6712H40.3992V67.2817Z" fill="#25F7B6"/>
<path d="M58.8864 49.0432H58.0381V50.4619H58.8864V49.0432Z" fill="#25F7B6"/>
<path d="M58.8864 46.4983H58.0381V47.917H58.8864V46.4983Z" fill="#25F7B6"/>
<path d="M58.8864 43.9827H58.0381V45.4014H58.8864V43.9827Z" fill="#25F7B6"/>
<path d="M58.8864 56.6487H58.0381V58.0674H58.8864V56.6487Z" fill="#25F7B6"/>
<path d="M58.8864 54.1184H58.0381V55.5371H58.8864V54.1184Z" fill="#25F7B6"/>
<path d="M58.8864 51.5881H58.0381V53.0068H58.8864V51.5881Z" fill="#25F7B6"/>
<path d="M58.8864 64.2688H58.0381V65.6875H58.8864V64.2688Z" fill="#25F7B6"/>
<path d="M58.8864 61.7239H58.0381V63.1426H58.8864V61.7239Z" fill="#25F7B6"/>
<path d="M58.8864 59.2083H58.0381V60.627H58.8864V59.2083Z" fill="#25F7B6"/>
<path d="M58.8864 69.344H58.0381V70.7627H58.8864V69.344Z" fill="#25F7B6"/>
<path d="M58.8864 66.8137H58.0381V68.2324H58.8864V66.8137Z" fill="#25F7B6"/>
<path d="M77.3736 30.6731H76.5253V32.1503H77.3736V30.6731Z" fill="#25F7B6"/>
<path d="M77.3736 28.0403H76.5253V29.5175H77.3736V28.0403Z" fill="#25F7B6"/>
<path d="M77.3736 25.3931H76.5253V26.8703H77.3736V25.3931Z" fill="#25F7B6"/>
<path d="M77.3736 38.6296H76.5253V40.1069H77.3736V38.6296Z" fill="#25F7B6"/>
<path d="M77.3736 35.9822H76.5253V37.4594H77.3736V35.9822Z" fill="#25F7B6"/>
<path d="M77.3736 33.3496H76.5253V34.8268H77.3736V33.3496Z" fill="#25F7B6"/>
<path d="M77.3736 46.5862H76.5253V48.0634H77.3736V46.5862Z" fill="#25F7B6"/>
<path d="M77.3736 43.9387H76.5253V45.4159H77.3736V43.9387Z" fill="#25F7B6"/>
<path d="M77.3736 41.2915H76.5253V42.7687H77.3736V41.2915Z" fill="#25F7B6"/>
<path d="M77.3736 54.5281H76.5253V56.0053H77.3736V54.5281Z" fill="#25F7B6"/>
<path d="M77.3736 51.8806H76.5253V53.3578H77.3736V51.8806Z" fill="#25F7B6"/>
<path d="M77.3736 49.248H76.5253V50.7253H77.3736V49.248Z" fill="#25F7B6"/>
<path d="M77.3736 62.4846H76.5253V63.9618H77.3736V62.4846Z" fill="#25F7B6"/>
<path d="M77.3736 59.8372H76.5253V61.3144H77.3736V59.8372Z" fill="#25F7B6"/>
<path d="M77.3736 57.2046H76.5253V58.6818H77.3736V57.2046Z" fill="#25F7B6"/>
<path d="M77.3736 70.4412H76.5253V71.9184H77.3736V70.4412Z" fill="#25F7B6"/>
<path d="M77.3736 67.7937H76.5253V69.2709H77.3736V67.7937Z" fill="#25F7B6"/>
<path d="M77.3736 65.1465H76.5253V66.6237H77.3736V65.1465Z" fill="#25F7B6"/>
<path d="M3.10296 63.3766C4.26615 63.3766 5.2091 62.4336 5.2091 61.2704C5.2091 60.1073 4.26615 59.1643 3.10296 59.1643C1.93978 59.1643 0.996826 60.1073 0.996826 61.2704C0.996826 62.4336 1.93978 63.3766 3.10296 63.3766Z" fill="#25F7B6"/>
<path d="M3.10298 63.8446C1.68426 63.8446 0.528809 62.6892 0.528809 61.2705C0.528809 59.8517 1.68426 58.6963 3.10298 58.6963C4.52169 58.6963 5.67714 59.8517 5.67714 61.2705C5.67714 62.6892 4.52169 63.8446 3.10298 63.8446ZM3.10298 59.6324C2.19617 59.6324 1.46487 60.3636 1.46487 61.2705C1.46487 62.1773 2.19617 62.9086 3.10298 62.9086C4.00979 62.9086 4.74108 62.1773 4.74108 61.2705C4.74108 60.3636 4.00979 59.6324 3.10298 59.6324Z" fill="#25F7B6"/>
<path d="M21.6048 51.2079C22.768 51.2079 23.7109 50.2649 23.7109 49.1017C23.7109 47.9386 22.768 46.9956 21.6048 46.9956C20.4416 46.9956 19.4987 47.9386 19.4987 49.1017C19.4987 50.2649 20.4416 51.2079 21.6048 51.2079Z" fill="#25F7B6"/>
<path d="M21.6048 51.6759C20.1861 51.6759 19.0306 50.5205 19.0306 49.1018C19.0306 47.683 20.1861 46.5276 21.6048 46.5276C23.0235 46.5276 24.179 47.683 24.179 49.1018C24.179 50.5205 23.0235 51.6759 21.6048 51.6759ZM21.6048 47.4637C20.698 47.4637 19.9667 48.195 19.9667 49.1018C19.9667 50.0086 20.698 50.7399 21.6048 50.7399C22.5116 50.7399 23.2429 50.0086 23.2429 49.1018C23.2429 48.195 22.497 47.4637 21.6048 47.4637Z" fill="#25F7B6"/>
<path d="M40.092 38.4686C41.2552 38.4686 42.1981 37.5257 42.1981 36.3625C42.1981 35.1993 41.2552 34.2563 40.092 34.2563C38.9288 34.2563 37.9858 35.1993 37.9858 36.3625C37.9858 37.5257 38.9288 38.4686 40.092 38.4686Z" fill="#25F7B6"/>
<path d="M40.092 38.9367C38.6733 38.9367 37.5178 37.7812 37.5178 36.3625C37.5178 34.9438 38.6733 33.7883 40.092 33.7883C41.5107 33.7883 42.6662 34.9438 42.6662 36.3625C42.6662 37.7812 41.5107 38.9367 40.092 38.9367ZM40.092 34.7244C39.1852 34.7244 38.4539 35.4557 38.4539 36.3625C38.4539 37.2693 39.1852 38.0006 40.092 38.0006C40.9988 38.0006 41.7301 37.2693 41.7301 36.3625C41.7301 35.4557 40.9988 34.7244 40.092 34.7244Z" fill="#25F7B6"/>
<path d="M58.5792 45.1381C59.7423 45.1381 60.6853 44.1951 60.6853 43.0319C60.6853 41.8687 59.7423 40.9258 58.5792 40.9258C57.416 40.9258 56.473 41.8687 56.473 43.0319C56.473 44.1951 57.416 45.1381 58.5792 45.1381Z" fill="#25F7B6"/>
<path d="M58.5792 45.6061C57.1605 45.6061 56.005 44.4507 56.005 43.0319C56.005 41.6132 57.1605 40.4578 58.5792 40.4578C59.9979 40.4578 61.1533 41.6132 61.1533 43.0319C61.168 44.4507 60.0125 45.6061 58.5792 45.6061ZM58.5792 41.3792C57.6724 41.3792 56.9411 42.1105 56.9411 43.0173C56.9411 43.9241 57.6724 44.6554 58.5792 44.6554C59.486 44.6554 60.2173 43.9241 60.2173 43.0173C60.2173 42.1105 59.486 41.3792 58.5792 41.3792Z" fill="#25F7B6"/>
<path d="M78.5638 25.9309C79.3863 25.1084 79.3863 23.7749 78.5638 22.9524C77.7413 22.1299 76.4078 22.1299 75.5853 22.9524C74.7628 23.7749 74.7628 25.1084 75.5853 25.9309C76.4078 26.7534 77.7413 26.7534 78.5638 25.9309Z" fill="#25F7B6"/>
<path d="M77.0811 27.0311C75.6624 27.0311 74.507 25.8757 74.507 24.457C74.507 23.0383 75.6624 21.8828 77.0811 21.8828C78.4998 21.8828 79.6553 23.0383 79.6553 24.457C79.6553 25.8757 78.4998 27.0311 77.0811 27.0311ZM77.0811 22.8043C76.1743 22.8043 75.443 23.5355 75.443 24.4424C75.443 25.3492 76.1743 26.0805 77.0811 26.0805C77.9879 26.0805 78.7192 25.3492 78.7192 24.4424C78.7192 23.5502 77.9879 22.8043 77.0811 22.8043Z" fill="#25F7B6"/>
</svg>
