<svg width="21" height="24" viewBox="0 0 21 24" fill="none" xmlns="http://www.w3.org/2000/svg">
<path d="M19.1082 0.930782C19.1987 0.912279 19.366 1.0853 19.5167 1.34647C19.6627 1.59922 19.7337 1.83904 19.6725 1.90809L18.7963 2.41397L18.232 1.43666L19.1082 0.930782Z" fill="url(#paint0_linear)"/>
<path d="M1.48468 11.2069C1.48468 11.2069 1.00741 11.606 0.461243 11.4383C0.127708 11.3276 -0.151529 11.7584 -0.0137727 11.8024C0.123984 11.8464 1.36361 11.6587 1.67492 12.1979C1.99465 12.7323 2.778 11.6959 1.48468 11.2069Z" fill="#575756"/>
<path d="M2.04613 12.3543C2.18093 12.2765 2.26578 12.0927 2.25049 11.9106C2.2352 11.7284 2.12393 11.3995 1.50385 11.1621L1.47727 11.155L1.452 11.1696C1.452 11.1696 1.39788 11.2121 1.30521 11.2656C1.14513 11.358 0.822375 11.4994 0.467125 11.39C0.324504 11.3375 0.20525 11.3839 0.120999 11.4325C-0.0138014 11.5104 -0.118113 11.6605 -0.108036 11.7557C-0.105429 11.7992 -0.0775478 11.828 -0.0461051 11.8436C-0.00623734 11.8542 0.0721951 11.8539 0.220634 11.8581C0.629646 11.8466 1.38739 11.836 1.61114 12.2235C1.75802 12.4196 1.9366 12.4176 2.04613 12.3543ZM1.49221 11.2587C2.04098 11.4698 2.14122 11.7602 2.15521 11.9206C2.16564 12.0944 2.08174 12.2214 1.99749 12.2701C1.89638 12.3284 1.79363 12.2867 1.72553 12.1687C1.47259 11.7306 0.676286 11.7523 0.249122 11.7517C0.148975 11.7534 0.0355386 11.7515 0.00896014 11.7444C0.00896014 11.7444 0.00896013 11.7444 0.00409592 11.7359C-0.00337509 11.6841 0.0636764 11.5667 0.181627 11.4986C0.240603 11.4646 0.334582 11.4328 0.44576 11.4697C0.827588 11.5863 1.18049 11.4387 1.35741 11.3365C1.42125 11.3109 1.46694 11.2733 1.49221 11.2587Z" fill="#9D9D9C"/>
<path d="M10.0857 21.4736C10.0857 21.4736 10.2403 21.5079 10.6017 21.3554C10.6872 21.3285 10.7903 21.4487 10.6555 21.5265C10.5207 21.6044 10.1302 21.7063 10.0038 21.7792C9.89074 21.8557 9.59708 21.7557 10.0857 21.4736Z" fill="#878787"/>
<path d="M4.49675 18.0389C4.49675 18.0389 4.19926 18.1657 4.22559 18.3864C4.25191 18.6072 4.00842 21.3763 4.35858 22.7806C4.71993 23.7177 4.94003 23.8266 5.37813 23.5736C5.81623 23.3207 5.88507 17.6418 4.49675 18.0389Z" fill="#706F6F"/>
<path d="M5.3928 23.5989C5.71296 23.414 5.7137 21.6837 5.71526 21.4918C5.71097 20.2586 5.55278 19.1479 5.29298 18.5228C5.02344 17.8809 4.67566 17.8233 4.42743 17.8992L4.419 17.9041C4.419 17.9041 4.39373 17.9187 4.36003 17.9381C4.17468 18.0451 4.07879 18.1904 4.1012 18.3459C4.10381 18.3894 4.09869 18.5945 4.08775 18.848C4.04234 19.7616 3.96031 21.6625 4.23906 22.7485L4.24392 22.7569C4.47585 23.3532 4.65322 23.6215 4.87557 23.6953C5.06292 23.7669 5.24958 23.6816 5.3928 23.5989ZM4.49457 18.0739C4.58013 18.047 4.83809 17.9879 5.08651 18.496C5.3557 19.0595 5.52457 20.1303 5.53859 21.3804C5.54999 22.587 5.40861 23.3538 5.30395 23.4255C5.13544 23.5228 5.02818 23.551 4.93029 23.5177C4.77438 23.4616 4.62003 23.2138 4.41859 22.6898C4.14957 21.6206 4.23777 19.7499 4.27475 18.8411C4.28534 18.5092 4.29437 18.3692 4.29046 18.3041C4.27552 18.2004 4.40546 18.1141 4.46443 18.0801C4.47772 18.0836 4.48615 18.0788 4.49457 18.0739Z" fill="#DADADA"/>
<path d="M1.12922 14.5799C1.12922 14.5799 0.749742 14.7204 0.62702 15.0721C0.509163 15.4322 0.751326 15.6181 0.914009 15.5691C1.07669 15.5201 2.37806 14.8362 2.97913 15.4103C3.58019 15.9844 3.58941 16.4284 3.6162 18.1092C3.62437 18.3179 3.92611 18.3347 4.33338 17.9311C4.74064 17.5274 4.87821 12.9209 1.12922 14.5799Z" fill="#878787"/>
<path d="M4.1018 18.2108C4.2029 18.1524 4.31112 18.0675 4.41804 17.9608C4.57064 17.8165 4.66122 17.2924 4.64419 16.7181C4.62785 16.3007 4.54592 15.5167 4.13056 14.914C3.71033 14.3029 2.85225 13.7312 1.13249 14.4882C1.12407 14.493 1.06865 14.5138 1.00125 14.5527C0.858026 14.6354 0.666856 14.7907 0.589471 15.0263C0.522769 15.2221 0.55135 15.4078 0.662878 15.5232C0.746523 15.6097 0.866127 15.6417 0.96497 15.6184C0.995109 15.6122 1.03723 15.5879 1.1095 15.5574C1.48767 15.3952 2.48253 14.9781 2.95878 15.4333C3.51867 15.975 3.55056 16.361 3.57023 18.0684C3.57544 18.1552 3.61435 18.2226 3.6821 18.2621C3.7826 18.3389 3.9333 18.3081 4.1018 18.2108ZM1.07908 14.6875C1.13805 14.6535 1.18504 14.6376 1.18504 14.6376L1.19347 14.6327C2.50135 14.0573 3.44194 14.1883 4.00062 15.0003C4.39297 15.5826 4.47715 16.3315 4.49219 16.7273C4.50827 17.3583 4.39788 17.7703 4.3198 17.849C4.22131 17.9508 4.12507 18.0176 4.03239 18.0711C3.89759 18.149 3.81074 18.1542 3.766 18.1351C3.76114 18.1266 3.73456 18.1195 3.73196 18.0761C3.71133 16.4255 3.70793 15.9332 3.07412 15.3218C2.51909 14.7885 1.45683 15.2445 1.05695 15.408C1.00153 15.4287 0.950982 15.4579 0.929268 15.4592C0.882278 15.4751 0.824256 15.4525 0.778221 15.4116C0.704304 15.342 0.696484 15.2117 0.735654 15.0655C0.798795 14.883 0.961128 14.7556 1.07908 14.6875Z" fill="#DADADA"/>
<path d="M19.7704 2.73906C19.8871 2.94126 20.0136 3.16031 20.106 3.32039C20.3249 3.69952 20.5071 3.97624 20.3133 4.08812C20.1196 4.19999 16.1851 6.47158 16.1851 6.47158L15.4651 5.22467L19.7704 2.73906Z" fill="url(#paint1_linear)"/>
<path d="M4.35344 16.74C4.19932 15.1889 3.07189 14.5592 1.61573 14.6248C1.0839 14.696 1.17814 14.4506 1.67357 14.0634C2.17386 13.6847 2.02879 13.0833 1.98371 12.9857C1.93863 12.8882 15.885 4.95977 15.885 4.95977L15.9386 5.05244L16.0456 5.23779L15.995 5.26698L16.4279 6.01681L16.569 6.26114C16.569 6.26114 16.7123 6.47046 16.4933 6.59693C16.2742 6.7234 13.6709 8.22644 13.0137 8.60585C12.3566 8.98525 11.9857 9.70488 12.4235 10.4631C12.8613 11.2214 12.8035 12.0748 12.0621 12.5028C11.3207 12.9309 10.7562 13.2568 10.2254 13.5632C9.69467 13.8697 9.05211 14.2743 8.97656 15.1942C8.90944 16.1091 10.2471 21.4029 10.2471 21.4029L9.99433 21.5488L10.0184 21.8045L5.37947 23.5953L5.08806 23.4603C5.08189 23.4302 4.50756 18.2911 4.35344 16.74ZM9.70383 12.1344C10.0758 12.7397 10.4696 12.8381 10.6423 12.8844C10.6822 12.8951 10.7004 12.9071 10.7052 12.9155C10.7185 12.9191 10.7318 12.9226 10.7451 12.9262L10.7548 12.943C10.7548 12.943 11.4878 12.5198 11.9175 12.2718C12.3472 12.0237 12.6765 11.1932 12.1752 10.5391C11.8594 10.0699 11.1214 9.90059 10.8012 10.0854C10.4811 10.2703 9.52062 10.8248 9.52062 10.8248L9.39425 10.8977C9.41596 10.8964 9.42925 10.9 9.43411 10.9084L9.43898 10.9169C9.42117 10.9833 9.34388 11.511 9.67951 12.0923C9.67951 12.0923 9.68924 12.1091 9.70383 12.1344Z" fill="url(#paint2_linear)"/>
<path d="M17.6145 0.95072C17.6384 0.914414 17.666 0.864817 17.7032 0.832071C17.7778 0.766579 17.8682 0.748076 17.9683 0.746424C18.1469 0.744422 18.3258 0.820852 18.3258 0.820852L18.4037 0.955653L17.4179 1.52477L17.3401 1.38996C17.5507 1.26836 17.5367 1.10793 17.6145 0.95072Z" fill="#575756"/>
<path d="M15.4554 5.20782C15.4554 5.20782 15.0034 4.50272 15.4921 4.2206C15.9807 3.93847 19.3676 1.98306 19.3676 1.98306L19.4941 2.20211C19.4941 2.20211 19.6303 2.43802 19.7908 2.71604L15.4603 5.21625L15.4554 5.20782Z" fill="url(#paint3_linear)"/>
<path d="M5.43677 23.1691C5.50487 23.2871 5.65105 23.3262 5.769 23.2581C5.88695 23.19 5.92612 23.0439 5.85802 22.9259C5.78993 22.808 5.64374 22.7688 5.52579 22.8369C5.40784 22.905 5.36867 23.0512 5.43677 23.1691Z" fill="#575756"/>
<path d="M5.52099 23.1205C5.5599 23.1879 5.65293 23.2128 5.72033 23.1739C5.78773 23.135 5.81265 23.042 5.77374 22.9746C5.73482 22.9072 5.6418 22.8822 5.5744 22.9212C5.507 22.9601 5.48207 23.0531 5.52099 23.1205Z" fill="#878787"/>
<path d="M8.00316 13.6443C8.13936 13.8802 8.44501 13.9621 8.68091 13.8259C8.91681 13.6897 8.99871 13.384 8.86252 13.1481C8.72632 12.9122 8.42066 12.8303 8.18476 12.9665C7.94886 13.1027 7.86696 13.4084 8.00316 13.6443Z" fill="#878787"/>
<path d="M8.10421 13.5859C8.21123 13.7713 8.45043 13.8354 8.63578 13.7283C8.82113 13.6213 8.88523 13.3821 8.77822 13.1968C8.6712 13.0114 8.432 12.9473 8.24665 13.0543C8.06616 13.1698 7.9972 13.4006 8.10421 13.5859Z" fill="#B2B2B2"/>
<path d="M18.757 0.886512C18.976 0.760042 19.1848 1.04389 19.1848 1.04389L19.7004 1.93694C19.7004 1.93694 19.792 2.44575 20.1078 2.91495L19.9393 3.01223L18.757 0.886512Z" fill="url(#paint4_linear)"/>
<path d="M20.1078 2.91496C20.1126 2.92338 20.1223 2.94023 20.1272 2.94866C20.4612 3.42984 20.3848 3.60877 20.3848 3.60877L20.2921 3.66227L19.9308 3.0171L20.1078 2.91496Z" fill="#878787"/>
<path d="M8.4458 10.3445C8.4458 10.3445 9.73779 9.7221 10.1001 9.51294C10.4623 9.30377 10.1496 8.45084 9.65256 8.73783C9.15548 9.02482 8.10235 9.63284 8.10235 9.63284L8.4458 10.3445Z" fill="#706F6F"/>
<path d="M8.38743 10.2434C8.38743 10.2434 9.67455 9.61257 10.0368 9.40341C10.3991 9.19425 10.1496 8.45084 9.65256 8.73783C9.15548 9.02482 8.10235 9.63284 8.10235 9.63284L8.38743 10.2434Z" fill="url(#paint5_linear)"/>
<path d="M8.01885 10.1304L6.89927 10.7206L6.74196 10.3509L8.10231 9.63286L8.01885 10.1304Z" fill="#C6C6C6"/>
<path d="M8.06941 10.1012C8.12778 10.2023 8.29698 10.2619 8.41172 10.2855C8.42275 10.3241 8.42049 10.3591 8.42049 10.3591L7.0757 11.0456L6.89086 10.7255L8.06941 10.1012Z" fill="#706F6F"/>
<path d="M3.47682 14.6961C3.47682 14.6961 2.83458 14.0896 1.59304 14.3908C1.59304 14.3908 1.63768 14.1179 1.73618 14.0161C1.83467 13.9143 2.15578 13.6727 2.34685 13.2254C2.53793 12.7781 3.30461 12.3354 3.30461 12.3354L3.77208 12.7171C3.77208 12.7171 3.69053 13.1011 3.89518 13.5334C4.09983 13.9657 3.91136 14.4565 3.47682 14.6961Z" fill="url(#paint6_linear)"/>
<path d="M6.64451 10.688L6.83829 10.5761L6.88207 10.6519L6.68829 10.7638L6.64451 10.688Z" fill="url(#paint7_linear)"/>
<path d="M3.37787 12.5403L3.70645 12.3506L3.75023 12.4264L3.42165 12.6161L3.37787 12.5403Z" fill="url(#paint8_linear)"/>
<path d="M3.58647 12.2401L6.55209 10.5279L6.77585 10.9154L3.81023 12.6276L3.58647 12.2401Z" fill="url(#paint9_linear)"/>
<path d="M3.62611 13.554C3.70394 13.6888 3.88156 13.7435 4.02479 13.6608C4.16801 13.5781 4.21431 13.4053 4.13161 13.2621C4.05379 13.1273 3.87616 13.0726 3.73294 13.1553C3.59813 13.2331 3.54342 13.4107 3.62611 13.554Z" fill="#9D9D9C"/>
<path d="M8.10233 9.63286L8.01044 10.1352C8.098 10.2869 8.44578 10.3445 8.44578 10.3445L8.10233 9.63286Z" fill="#B2B2B2"/>
<path d="M16.2221 4.76519L19.7774 2.71249L19.8261 2.79674L16.2707 4.84944L16.2221 4.76519Z" fill="#706F6F"/>
<path d="M3.47681 14.6961L3.25776 14.8226C3.25776 14.8226 2.23865 14.4 1.64203 14.5535L1.59304 14.3908C1.59304 14.3908 2.99907 13.6352 3.47681 14.6961Z" fill="#706F6F"/>
<path d="M10.0982 21.8259L10.0741 21.5701L10.3353 21.4194L10.3229 21.3591C10.3155 21.3072 8.99017 16.0737 9.05373 15.1721C9.11633 14.3271 9.68533 13.9312 10.2582 13.6005L12.0949 12.5401C12.8279 12.1169 12.9809 11.2534 12.4847 10.3941C12.0567 9.65266 12.4567 8.98359 13.0465 8.64309L16.5176 6.63904C16.6187 6.58067 16.6618 6.49963 16.6676 6.45134C16.6997 6.33173 16.628 6.22707 16.6134 6.2018L16.0881 5.29189L16.1386 5.26271L15.9051 4.8583L15.8377 4.89722C15.7788 4.93127 9.58731 8.44974 5.51801 10.7992C4.4059 11.4412 3.53812 11.9422 2.94481 12.296C2.61623 12.4857 2.35992 12.6449 2.19628 12.7507C2.10361 12.8042 2.04107 12.8515 1.99895 12.8758C1.93641 12.9232 1.87743 12.9572 1.90792 13.0295C1.94684 13.0969 2.08087 13.6598 1.62271 14.0142C1.15125 14.365 1.15195 14.5219 1.1873 14.6026C1.24342 14.7387 1.46056 14.7256 1.62099 14.7116C2.52943 14.6702 4.08096 14.8865 4.27149 16.7536C4.4243 18.283 4.99733 23.4003 4.99994 23.4438L5.00255 23.4872L5.37013 23.6569L10.0982 21.8259ZM10.1564 21.3429L9.91203 21.484L9.93965 21.7264L5.38984 23.477L5.16132 23.3731C5.10476 22.8665 4.57951 18.1821 4.43547 16.7263C4.28656 15.2621 3.26701 14.469 1.62385 14.5415L1.61542 14.5464C1.38629 14.5775 1.34026 14.5367 1.34026 14.5367C1.34026 14.5367 1.33374 14.4282 1.72581 14.1344C2.20925 13.7654 2.1368 13.2119 2.08164 13.019C2.23199 12.9098 2.92996 12.4843 5.60913 10.9375C9.45095 8.71944 15.1742 5.46007 15.8615 5.07449L15.9393 5.20929L15.8887 5.23848L16.5016 6.30003C16.5114 6.31688 16.5454 6.37586 16.5312 6.42902C16.5289 6.46402 16.5001 6.4919 16.4495 6.52109L12.97 8.53001C12.3212 8.90455 11.8697 9.65952 12.3512 10.4936C12.7258 11.1423 12.7633 11.9856 12.0135 12.4185L10.1768 13.4789C9.57024 13.8292 8.96398 14.2578 8.89686 15.1728C8.82714 16.0443 9.998 20.7379 10.1564 21.3429ZM10.7082 13.0373L11.9383 12.3272C12.191 12.1812 12.3864 11.8775 12.4572 11.5333C12.5352 11.1625 12.4515 10.784 12.2197 10.4797C11.8892 9.98524 11.1065 9.79686 10.7442 10.006L9.46359 10.7454L9.33722 10.8183L9.38491 10.9593C9.37162 10.9558 9.35833 10.9522 9.3486 10.9353C9.33887 10.9185 9.33757 10.8968 9.34113 10.8835C9.34113 10.8835 9.33757 10.8968 9.33401 10.9101C9.2997 11.0647 9.27426 11.5849 9.58557 12.1241C9.5953 12.1409 9.60989 12.1662 9.61962 12.183C10.0013 12.8052 10.4217 12.9107 10.5993 12.9654C10.6126 12.969 10.6126 12.969 10.6259 12.9726L10.6356 12.9894L10.6622 12.9965L10.6914 13.0471L10.7082 13.0373ZM9.50772 10.8996L9.55827 10.8705L10.8389 10.1311C11.1001 9.98031 11.8053 10.1123 12.1066 10.5562C12.3057 10.8232 12.3868 11.1583 12.3195 11.4893C12.2544 11.7852 12.0879 12.061 11.8773 12.1826L10.7568 12.8296L10.7435 12.826C10.7253 12.814 10.6988 12.8069 10.6673 12.7914C10.5078 12.7486 10.1357 12.6489 9.78326 12.0773C9.77353 12.0605 9.7638 12.0436 9.75407 12.0268C9.39187 11.4383 9.49574 10.9178 9.50772 10.8996C9.50416 10.9129 9.4993 10.9045 9.50772 10.8996Z" fill="url(#paint10_linear)"/>
<path d="M11.6416 8.83637C11.6416 8.83637 11.7452 8.52941 12.3518 8.17919C12.9584 7.82897 16.4127 5.83464 16.4127 5.83464L16.6948 6.32329C16.6948 6.32329 16.7211 6.544 16.5442 6.64615C16.3673 6.74829 13.3932 8.46536 13.0562 8.65993C12.7192 8.8545 12.5067 9.08954 12.4364 9.2986L11.6416 8.83637Z" fill="url(#paint11_linear)"/>
<path d="M10.8378 12.8727C10.8378 12.8727 11.0488 12.8295 10.8845 12.7783C10.7201 12.7272 10.3179 12.6336 9.94108 12.0199C9.56428 11.4062 9.63896 10.8351 9.65677 10.7686C9.66033 10.7554 9.61203 10.7495 9.53977 10.78C9.31811 10.8631 8.8622 11.1825 9.02517 12.0095C9.23391 13.091 10.5514 13.038 10.8378 12.8727Z" fill="url(#paint12_linear)"/>
<path d="M8.79257 14.5253C8.97132 14.0177 9.22086 13.9635 9.52416 13.7884C9.52416 13.7884 11.4872 12.655 12.0348 12.3388C12.5825 12.0227 12.6554 11.0594 12.1843 10.3991C11.7131 9.73868 10.8413 9.88254 10.8413 9.88254L12.282 9.05076L12.4104 9.15638C12.184 9.52301 12.1462 9.98292 12.4137 10.4463C12.8515 11.2046 12.7938 12.0579 12.0524 12.486C11.311 12.914 10.7465 13.2399 10.2157 13.5464C9.68493 13.8528 9.04237 14.2575 8.96683 15.1773C8.96005 15.2823 8.96918 15.4343 8.98933 15.6249C9.00262 15.6285 8.61383 15.0329 8.79257 14.5253Z" fill="url(#paint13_linear)"/>
<path d="M8.15926 15.3739C8.21831 14.5423 8.75707 13.8605 8.99297 13.7243C9.28785 13.5541 9.23329 13.2261 8.96716 13.0765C8.70102 12.9268 8.8115 12.8069 8.63388 12.7521C7.70258 12.2676 8.02141 10.9714 8.47636 10.7087C8.93131 10.4461 11.6695 8.8652 11.6695 8.8652C11.6695 8.8652 12.1718 8.95709 12.3002 9.0627L9.38515 10.7457L9.29196 11.2264L9.75262 13.6003C9.75262 13.6003 9.75653 13.6654 9.76305 13.774C9.32399 14.0836 8.97831 14.4967 8.91987 15.1932C8.90502 15.3815 8.94759 15.7276 9.02195 16.1677C8.83529 16.253 8.60842 16.2492 8.32188 16.1226C8.25438 15.8695 8.2086 15.6151 8.15926 15.3739Z" fill="url(#paint14_linear)"/>
<path d="M5.55589 11.7209L5.56432 11.716C5.9114 11.6168 6.34759 11.4773 6.71057 11.425L6.39858 11.8185L5.55589 11.7209Z" fill="url(#paint15_linear)"/>
<path d="M6.39376 11.8101L6.70574 11.4165C6.91316 11.3866 7.10502 11.3882 7.23566 11.4588C7.23566 11.4588 7.27136 11.6179 7.32817 11.9109L6.39376 11.8101Z" fill="url(#paint16_linear)"/>
<path d="M4.59898 12.2621C4.84035 11.9992 5.20393 11.8118 5.52574 11.7271L5.53903 11.7306L4.99992 12.334L4.59898 12.2621Z" fill="url(#paint17_linear)"/>
<path d="M5.01196 12.3158L5.55594 11.7209L6.39377 11.8101L5.8874 12.4506L5.01196 12.3158Z" fill="url(#paint18_linear)"/>
<path d="M5.88736 12.4507L6.39372 11.8101L7.32813 11.9109C7.333 11.9193 7.3343 11.941 7.33917 11.9495L6.8678 12.5923L5.88736 12.4507Z" fill="url(#paint19_linear)"/>
<path d="M6.8629 12.5839L7.33426 11.941C7.37613 12.1303 7.42191 12.3847 7.48714 12.6728L6.8629 12.5839Z" fill="url(#paint20_linear)"/>
<path d="M4.37379 13.4481C4.3598 13.2876 4.35198 13.1574 4.3419 13.0621L4.54601 12.8319L5.45289 12.9823L4.99091 13.5636L4.37379 13.4481Z" fill="url(#paint21_linear)"/>
<path d="M4.99576 13.572L5.45774 12.9908L6.44792 13.1493L5.9921 13.7607L4.99576 13.572Z" fill="url(#paint22_linear)"/>
<path d="M7.50453 13.3255L7.61927 13.3492C7.66861 13.5903 7.72281 13.8398 7.77346 14.1026L7.05002 13.9586L7.50453 13.3255Z" fill="url(#paint23_linear)"/>
<path d="M5.99209 13.7607L6.4479 13.1493L7.50453 13.3255L7.05488 13.9671L5.99209 13.7607Z" fill="url(#paint24_linear)"/>
<path d="M4.32794 12.9016C4.33019 12.8666 4.33245 12.8316 4.33471 12.7966L4.54603 12.8319L4.34193 13.0621C4.33315 12.9885 4.3341 12.9318 4.32794 12.9016Z" fill="url(#paint25_linear)"/>
<path d="M4.43944 14.1066C4.41538 13.8509 4.38905 13.6302 4.37376 13.4481L4.99089 13.5636L4.54089 14.1267L4.43944 14.1066Z" fill="url(#paint26_linear)"/>
<path d="M4.54577 14.1351L4.99577 13.572L5.99211 13.7606L5.56513 14.3442L4.54577 14.1351Z" fill="url(#paint27_linear)"/>
<path d="M6.63281 14.559L7.05493 13.9671L7.77837 14.1111C7.81407 14.2702 7.84621 14.4426 7.87835 14.615L7.75007 14.8014L6.63281 14.559Z" fill="url(#paint28_linear)"/>
<path d="M7.75358 14.7881L7.88187 14.6017C7.89907 14.6704 7.9127 14.7524 7.9299 14.8211L7.75358 14.7881Z" fill="url(#paint29_linear)"/>
<path d="M5.56512 14.3442L5.99209 13.7607L7.05489 13.9671L6.63277 14.559L5.56512 14.3442Z" fill="url(#paint30_linear)"/>
<path d="M4.4395 14.1066L4.54095 14.1267L4.45218 14.2453C4.44957 14.2019 4.44697 14.1585 4.4395 14.1066Z" fill="url(#paint31_linear)"/>
<path d="M4.50643 14.7869C4.48628 14.5964 4.47099 14.4142 4.45214 14.2454L4.5409 14.1267L5.56026 14.3358L5.12486 14.9242L4.50643 14.7869Z" fill="url(#paint32_linear)"/>
<path d="M5.12492 14.9241L5.56518 14.3441L6.63284 14.559L6.19874 15.1691L5.12492 14.9241Z" fill="url(#paint33_linear)"/>
<path d="M6.19873 15.1691L6.63283 14.559L7.75365 14.7881L7.32085 15.4199L6.19873 15.1691Z" fill="url(#paint34_linear)"/>
<path d="M7.75366 14.7881L7.92998 14.8211C7.98419 15.0707 8.02997 15.3251 8.08061 15.5879L7.32087 15.4199L7.75366 14.7881Z" fill="url(#paint35_linear)"/>
<path d="M4.50646 14.7869L5.12488 14.9241L4.59229 15.636C4.57048 15.3453 4.54025 15.0594 4.50646 14.7869Z" fill="url(#paint36_linear)"/>
<path d="M4.60241 15.7313C4.59625 15.7011 4.5985 15.6661 4.5972 15.6444L5.12979 14.9325L6.19875 15.1691L5.63993 15.9523L4.60241 15.7313Z" fill="url(#paint37_linear)"/>
<path d="M7.99395 16.4692L8.19415 16.1738C8.21882 16.2944 8.24349 16.415 8.2633 16.5271L7.99395 16.4692Z" fill="url(#paint38_linear)"/>
<path d="M6.78375 16.2018L7.32085 15.4199L8.0806 15.5879C8.12247 15.7771 8.15591 15.9713 8.19778 16.1605L7.99758 16.4558L6.78375 16.2018Z" fill="url(#paint39_linear)"/>
<path d="M5.6399 15.9523L6.19872 15.1691L7.32084 15.4199L6.78373 16.2018L5.6399 15.9523Z" fill="url(#paint40_linear)"/>
<path d="M5.02469 16.813L5.63988 15.9523L6.78371 16.2018L6.20708 17.0515L5.02469 16.813Z" fill="url(#paint41_linear)"/>
<path d="M6.2071 17.0515L6.78373 16.2018L7.99401 16.4691L7.42094 17.3055L6.2071 17.0515Z" fill="url(#paint42_linear)"/>
<path d="M7.42091 17.3055L8.0024 16.4643L8.27174 16.5222C8.33958 16.8537 8.40743 17.1853 8.47527 17.5168L7.42091 17.3055Z" fill="url(#paint43_linear)"/>
<path d="M4.70708 16.7492C4.67294 16.3982 4.63523 16.0605 4.60239 15.7313L5.63149 15.9572L5.01629 16.8178L4.70708 16.7492Z" fill="url(#paint44_linear)"/>
<path d="M4.89724 18.5379C4.8657 18.2303 4.83416 17.9228 4.79776 17.6068L5.68198 17.8152L5.14131 18.6104L4.89724 18.5379Z" fill="url(#paint45_linear)"/>
<path d="M5.14971 18.6056L5.69038 17.8104L6.88381 18.0874L6.32273 18.9056L5.14971 18.6056Z" fill="url(#paint46_linear)"/>
<path d="M6.32271 18.9056L6.88379 18.0874L8.16537 18.381L7.58388 19.2222L6.32271 18.9056Z" fill="url(#paint47_linear)"/>
<path d="M7.58392 19.2222L8.16541 18.381L8.6691 18.4946C8.71844 18.7357 8.76292 18.9684 8.81095 19.1878L8.62404 19.4866L7.58392 19.2222Z" fill="url(#paint48_linear)"/>
<path d="M8.61561 19.4915L8.80252 19.1926C8.82719 19.3132 8.85186 19.4337 8.87653 19.5543L8.61561 19.4915Z" fill="url(#paint49_linear)"/>
<path d="M5.20899 20.5372L5.72569 19.7783L6.96645 20.1179L6.44133 20.8817L5.20899 20.5372Z" fill="url(#paint50_linear)"/>
<path d="M6.44138 20.8816L6.9665 20.1179L8.01279 20.4125L7.51425 21.1833L6.44138 20.8816Z" fill="url(#paint51_linear)"/>
<path d="M8.90802 20.6595L9.09407 20.7093C9.16582 21.106 9.23367 21.4375 9.26972 21.6751L8.42763 21.4423L8.90802 20.6595Z" fill="url(#paint52_linear)"/>
<path d="M7.51425 21.1833L8.01279 20.4125L8.90804 20.6595L8.44094 21.4459L7.51425 21.1833Z" fill="url(#paint53_linear)"/>
<path d="M5.11596 20.5123C5.08573 20.2264 5.04932 19.9104 5.01648 19.5812L5.72568 19.7783L5.20898 20.5372L5.11596 20.5123Z" fill="url(#paint54_linear)"/>
<path d="M5.23435 21.6122C5.20542 21.348 5.17258 21.0188 5.12871 20.6509L5.20905 20.5371L6.45468 20.8852L5.83724 21.7808L5.23435 21.6122Z" fill="url(#paint55_linear)"/>
<path d="M5.82874 21.7858L6.44132 20.8817L7.51419 21.1834L6.92332 22.0862L5.82874 21.7858Z" fill="url(#paint56_linear)"/>
<path d="M6.92335 22.0861L7.51422 21.1833L8.44091 21.4459L7.88991 22.3594L6.92335 22.0861Z" fill="url(#paint57_linear)"/>
<path d="M8.4409 21.4459L9.28299 21.6787C9.2856 21.7221 9.29663 21.7607 9.30766 21.7992L7.91161 22.3581L7.89833 22.3545L8.4409 21.4459Z" fill="url(#paint58_linear)"/>
<path d="M5.11595 20.5123L5.20898 20.5372L5.12864 20.651C5.12116 20.5991 5.11856 20.5557 5.11595 20.5123Z" fill="url(#paint59_linear)"/>
<path d="M5.30879 22.3443C5.30879 22.3443 5.275 22.0717 5.22591 21.617L5.8288 21.7857L5.44394 22.3449C5.40408 22.3342 5.36065 22.3368 5.30879 22.3443Z" fill="url(#paint60_linear)"/>
<path d="M5.44389 22.3449L5.82874 21.7858L6.92332 22.0862L6.35286 22.966C6.31134 22.8551 6.08238 22.3807 5.44389 22.3449Z" fill="url(#paint61_linear)"/>
<path d="M6.35294 22.9659L6.9234 22.0862L7.88995 22.3594L7.87796 22.3775L6.35424 22.9877C6.36266 22.9828 6.3578 22.9744 6.35294 22.9659Z" fill="url(#paint62_linear)"/>
<path d="M4.89721 18.5379L5.14484 18.5971L4.93621 18.8973C4.9297 18.7888 4.91345 18.6633 4.89721 18.5379Z" fill="url(#paint63_linear)"/>
<path d="M5.01654 19.5811C4.99022 19.3604 4.97232 19.1349 4.94599 18.9142L5.15462 18.614L6.32764 18.914L5.7306 19.7867L5.01654 19.5811Z" fill="url(#paint64_linear)"/>
<path d="M5.72572 19.7783L6.32276 18.9056L7.58393 19.2222L6.96649 20.1179L5.72572 19.7783Z" fill="url(#paint65_linear)"/>
<path d="M6.96649 20.1179L7.58393 19.2222L8.61563 19.4915L8.01278 20.4125L6.96649 20.1179Z" fill="url(#paint66_linear)"/>
<path d="M8.01273 20.4125L8.61559 19.4915L8.88137 19.5627C8.93949 19.8774 9.00472 20.1655 9.04694 20.4332L8.90798 20.6595L8.01273 20.4125Z" fill="url(#paint67_linear)"/>
<path d="M8.90797 20.6595L9.04694 20.4332C9.0703 20.5321 9.08881 20.6225 9.09888 20.7178L8.90797 20.6595Z" fill="url(#paint68_linear)"/>
<path d="M4.70701 16.7493L5.02465 16.813L4.75965 17.1907C4.7421 17.0435 4.72456 16.8964 4.70701 16.7493Z" fill="url(#paint69_linear)"/>
<path d="M4.80265 17.6152C4.78997 17.4765 4.77242 17.3294 4.75973 17.1906L5.02473 16.813L6.20712 17.0515L5.69043 17.8103L4.80265 17.6152Z" fill="url(#paint70_linear)"/>
<path d="M5.6904 17.8104L6.2071 17.0515L7.42093 17.3055L6.88383 18.0874L5.6904 17.8104Z" fill="url(#paint71_linear)"/>
<path d="M6.88385 18.0874L7.42096 17.3055L8.47533 17.5168C8.49869 17.6156 8.5185 17.7278 8.54187 17.8266L8.169 18.3677L6.88385 18.0874Z" fill="url(#paint72_linear)"/>
<path d="M8.16537 18.381L8.53824 17.84C8.57785 18.0642 8.62589 18.2836 8.67393 18.503L8.16537 18.381Z" fill="url(#paint73_linear)"/>
<path d="M4.33473 12.7966C4.35314 12.595 4.45971 12.4099 4.59416 12.2537L5.01195 12.3158L4.54606 12.8319L4.33473 12.7966Z" fill="url(#paint74_linear)"/>
<path d="M5.45778 12.9907L5.88737 12.4506L6.86295 12.5839L6.44796 13.1492L5.45778 12.9907Z" fill="url(#paint75_linear)"/>
<path d="M6.4479 13.1493L6.8629 12.5839L7.48714 12.6728C7.52284 12.8319 7.55985 13.0128 7.59329 13.2069L7.50453 13.3256L6.4479 13.1493Z" fill="url(#paint76_linear)"/>
<path d="M7.50462 13.3255L7.59338 13.2069C7.60085 13.2587 7.61189 13.2973 7.61936 13.3491L7.50462 13.3255Z" fill="url(#paint77_linear)"/>
<path d="M4.54598 12.8319L5.01187 12.3158L5.88731 12.4507L5.45772 12.9908L4.54598 12.8319Z" fill="url(#paint78_linear)"/>
<path d="M8.96231 13.068C8.69618 12.9184 8.80666 12.7984 8.62903 12.7437C8.36704 11.356 9.37674 10.7506 9.37674 10.7506L9.28355 11.2313L9.74421 13.6052C9.74421 13.6052 9.74196 13.6402 9.74943 13.692L9.30646 13.9365C9.30646 13.9365 9.22542 13.8934 9.07107 13.6456C9.26936 13.4637 9.197 13.2021 8.96231 13.068Z" fill="url(#paint79_linear)"/>
<path d="M10.7403 12.9177C10.7403 12.9177 10.9513 12.8746 10.7869 12.8234C10.6226 12.7722 10.2204 12.6787 9.83869 12.0566C9.46189 11.4428 9.53171 10.8633 9.55438 10.8053C9.55794 10.792 9.50965 10.7862 9.43738 10.8167C9.21572 10.8997 8.75982 11.2191 8.92278 12.0462C9.13639 13.136 10.4538 13.0831 10.7403 12.9177Z" fill="#B2B2B2"/>
<path d="M18.8503 0.989858C18.9255 1.08123 18.9777 1.15219 18.9777 1.15219L19.3912 1.86832L19.5614 2.1632L19.2581 2.33831L18.1544 2.97552L17.2192 3.51545C16.3767 4.00187 16.2473 4.75058 16.2473 4.75058L15.8177 4.99866L11.3103 7.60101L5.70759 10.8357L1.97529 12.9906C1.6017 12.2851 1.49094 11.529 1.46096 11.0296L18.8503 0.989858Z" fill="url(#paint80_linear)"/>
<path d="M1.9588 13.0787L16.2645 4.8193L16.2717 4.79272C16.2668 4.7843 16.4024 4.06572 17.2027 3.60362L19.5955 2.22219L18.9777 1.1522C18.9777 1.1522 18.9206 1.07282 18.8454 0.981446L18.8127 0.944185L1.40651 10.9936L1.40426 11.0286C1.43067 11.5414 1.5463 12.3059 1.92475 13.0197L1.9588 13.0787ZM16.1508 4.73896L2.00509 12.906C1.66911 12.2462 1.56226 11.5553 1.52872 11.0691L18.7917 1.10235C18.839 1.16489 18.8766 1.21058 18.8815 1.219L19.4311 2.17103L17.1479 3.48923C16.3728 3.93674 16.1899 4.59278 16.1508 4.73896Z" fill="url(#paint81_linear)"/>
<path d="M1.47769 10.4358L3.71033 9.14682L6.81075 7.35679L6.85453 7.43261L9.9718 5.63286L10.6542 5.23885L13.8221 3.40991C13.8221 3.40991 18.2705 0.84161 18.4558 0.734598C18.6328 0.632449 18.9959 1.16418 18.9959 1.16418L14.042 4.02434L5.79386 8.7864L1.50551 11.2623C1.45025 10.7774 1.47769 10.4358 1.47769 10.4358Z" fill="url(#paint82_linear)"/>
<path d="M5.81745 8.67166L6.73678 10.264L6.59356 10.3467L5.61099 8.64483L5.81745 8.67166Z" fill="#878787"/>
<path d="M5.53934 8.83221L6.45867 10.4245L6.31545 10.5072L5.33288 8.80538L5.53934 8.83221Z" fill="#878787"/>
<path d="M5.26139 8.99269L6.18072 10.585L6.0375 10.6677L5.05492 8.96585L5.26139 8.99269Z" fill="#878787"/>
<path d="M4.98334 9.15323L5.90268 10.7456L5.75945 10.8283L4.77688 9.12639L4.7853 9.12153L4.98334 9.15323Z" fill="#878787"/>
<path d="M4.70526 9.31376L5.6246 10.9061L5.48137 10.9888L4.4988 9.28693L4.50723 9.28207L4.70526 9.31376Z" fill="#878787"/>
<path d="M4.42722 9.4743L5.34655 11.0666L5.21175 11.1445L4.22918 9.4426L4.42722 9.4743Z" fill="#878787"/>
<path d="M4.14926 9.63478L5.0686 11.2271L4.9338 11.3049L3.95123 9.60308L4.14926 9.63478Z" fill="#878787"/>
<path d="M3.87119 9.79532L4.79052 11.3877L4.65572 11.4655L3.67315 9.76362L3.87119 9.79532Z" fill="#878787"/>
<path d="M3.59314 9.95585L4.51248 11.5482L4.37768 11.626L3.39511 9.92416L3.59314 9.95585Z" fill="#878787"/>
<path d="M3.31519 10.1163L4.23452 11.7087L4.09972 11.7865L3.11715 10.0846L3.31519 10.1163Z" fill="#878787"/>
<path d="M3.03711 10.2769L3.95645 11.8692L3.82165 11.947L2.83908 10.2452L3.03711 10.2769Z" fill="#878787"/>
<path d="M5.67423 8.75433L6.59356 10.3467L6.45876 10.4245L5.47619 8.72263L5.67423 8.75433Z" fill="url(#paint83_linear)"/>
<path d="M5.39615 8.91485L6.31549 10.5072L6.18069 10.585L5.19812 8.88316L5.39615 8.91485Z" fill="url(#paint84_linear)"/>
<path d="M5.11811 9.07539L6.03744 10.6677L5.90264 10.7456L4.92007 9.04369L5.11811 9.07539Z" fill="url(#paint85_linear)"/>
<path d="M4.84015 9.23588L5.75949 10.8282L5.62469 10.906L4.64212 9.20419L4.84015 9.23588Z" fill="url(#paint86_linear)"/>
<path d="M4.56208 9.39642L5.48141 10.9888L5.34661 11.0666L4.36404 9.36472L4.56208 9.39642Z" fill="url(#paint87_linear)"/>
<path d="M4.01444 9.7126L4.93377 11.3049L4.79055 11.3876L3.80798 9.68576L4.01444 9.7126Z" fill="url(#paint88_linear)"/>
<path d="M4.29248 9.55206L5.21182 11.1444L5.06859 11.2271L4.08602 9.52523L4.29248 9.55206Z" fill="url(#paint89_linear)"/>
<path d="M3.73648 9.87309L4.65582 11.4654L4.51259 11.5481L3.53002 9.84626L3.73648 9.87309Z" fill="url(#paint90_linear)"/>
<path d="M3.45841 10.0336L4.37774 11.6259L4.23452 11.7086L3.25195 10.0068L3.45841 10.0336Z" fill="url(#paint91_linear)"/>
<path d="M3.18036 10.1942L4.0997 11.7865L3.95647 11.8692L2.9739 10.1673L2.98233 10.1625L3.18036 10.1942Z" fill="url(#paint92_linear)"/>
<path d="M2.90232 10.3547L3.82165 11.947L3.67843 12.0297L2.69586 10.3279L2.70428 10.323L2.90232 10.3547Z" fill="url(#paint93_linear)"/>
<path d="M3.40884 12.1854C3.40884 12.1854 3.29506 12.105 3.15469 12.0176C3.01077 11.9434 2.93164 11.7869 2.47496 12.747L3.40884 12.1854Z" fill="black"/>
<path d="M11.8411 7.29456L11.6294 7.18086L11.0561 7.4332L11.1923 7.6691L11.8411 7.29456Z" fill="black"/>
<path d="M10.3475 8.19055C10.3475 8.19055 10.0131 8.13653 9.9263 8.43376L10.3475 8.19055Z" fill="black"/>
<path d="M2.11856 12.9079L19.7606 2.72221L19.8093 2.80646L2.15877 12.997C2.08295 13.0408 2.01424 13.058 1.99965 13.0327C1.99835 13.011 2.04273 12.9516 2.11856 12.9079Z" fill="black"/>
<path d="M2.8032 9.50201C2.89267 9.54023 2.95686 9.59304 2.95686 9.59304C2.95686 9.59304 2.95139 9.71976 2.67336 9.88028C2.40376 10.0359 2.266 9.9919 2.266 9.9919C2.266 9.9919 2.21024 9.93423 2.22187 9.83765L2.8032 9.50201Z" fill="#575756"/>
<path d="M2.27083 9.70829C2.36898 9.52806 2.3252 9.45223 2.3252 9.45223L2.46843 9.36954C2.54365 9.46091 2.65839 9.48453 2.65839 9.48453C2.70182 9.48193 2.75497 9.49617 2.7997 9.51528L2.2268 9.84605C2.23262 9.79775 2.2433 9.75788 2.27083 9.70829Z" fill="#9D9D9C"/>
<path d="M9.43344 21.8614L9.41981 21.7794C9.1347 20.0793 7.36982 11.5161 7.35618 11.4341L7.34871 11.3823L7.30398 11.3632C6.96297 11.2006 6.33752 11.382 5.78919 11.5413C5.69521 11.5731 5.60479 11.5916 5.51924 11.6185C5.33484 11.6688 5.14333 11.7456 4.97482 11.8429C4.6968 12.0035 4.22534 12.3543 4.24108 12.9069C4.25942 13.5029 5.18291 21.9901 5.22191 22.3495L5.23199 22.4448L5.33214 22.4432C6.06687 22.4121 6.27577 22.988 6.27707 23.0097L6.31373 23.1121L6.41613 23.0755L9.43344 21.8614ZM7.15268 11.5292C7.30556 12.2609 8.88186 19.9332 9.19033 21.7322L6.42837 22.8437C6.32492 22.6451 6.03959 22.2482 5.41569 22.2377C5.31005 21.2764 4.46197 13.4646 4.45466 12.9071C4.43702 12.468 4.84237 12.1778 5.0867 12.0367C5.23835 11.9492 5.40816 11.8736 5.58413 11.8282C5.66968 11.8012 5.7601 11.7827 5.85408 11.7509C6.26856 11.6127 6.86388 11.4375 7.15268 11.5292Z" fill="url(#paint94_linear)"/>
<path d="M1.25986 14.6505C1.25986 14.6505 1.05349 14.9157 1.25613 15.1694C1.25613 15.1694 1.87221 15.0496 2.20765 15.0469C2.31979 15.0271 2.60519 14.6264 2.71993 14.6501C2.8298 14.6653 2.04183 14.39 1.25986 14.6505Z" fill="#575756"/>
<path d="M6.99426 20.9443C6.79206 21.0611 6.7244 21.3136 6.84114 21.5158C6.95788 21.718 7.21038 21.7856 7.41258 21.6689C7.61478 21.5522 7.68244 21.2997 7.5657 21.0975C7.44896 20.8953 7.19646 20.8276 6.99426 20.9443Z" fill="#432918"/>
<path d="M7.28892 20.9876C7.11616 20.9413 6.93081 21.0484 6.87609 21.226C6.8298 21.3987 6.93681 21.5841 7.11444 21.6388C7.2872 21.6851 7.47255 21.5781 7.52727 21.4005C7.57712 21.2144 7.47497 21.0375 7.28892 20.9876Z" fill="url(#paint95_linear)"/>
<path d="M7.28173 21.0142C7.12226 20.9715 6.94534 21.0736 6.90261 21.2331C6.85987 21.3926 6.96202 21.5695 7.12149 21.6122C7.28097 21.655 7.45789 21.5528 7.50062 21.3934C7.54691 21.2206 7.44963 21.0521 7.28173 21.0142Z" fill="url(#paint96_linear)"/>
<path d="M7.23808 21.2304C7.26952 21.246 7.29384 21.2881 7.28316 21.328C7.2796 21.3413 7.26761 21.3594 7.25076 21.3691C7.25858 21.4994 7.24339 21.6093 7.22167 21.6106C7.19996 21.6119 7.17659 21.5131 7.15548 21.3792C7.12404 21.3637 7.09972 21.3216 7.1104 21.2817C7.11396 21.2684 7.12595 21.2502 7.1428 21.2405C7.13011 21.1018 7.15018 21.0004 7.17189 20.999C7.20203 20.9929 7.23026 21.1001 7.23808 21.2304Z" fill="url(#paint97_linear)"/>
<path d="M5.58917 12.4206C5.38697 12.5374 5.31931 12.7899 5.43605 12.9921C5.55279 13.1943 5.80529 13.2619 6.00749 13.1452C6.20969 13.0284 6.27735 12.7759 6.16061 12.5737C6.04873 12.38 5.79137 12.3039 5.58917 12.4206Z" fill="#432918"/>
<path d="M5.88867 12.4724C5.71591 12.4261 5.53056 12.5331 5.47584 12.7107C5.42955 12.8835 5.53656 13.0688 5.71419 13.1235C5.88695 13.1698 6.0723 13.0628 6.12701 12.8852C6.17687 12.6991 6.06143 12.5187 5.88867 12.4724Z" fill="url(#paint98_linear)"/>
<path d="M5.87673 12.4905C5.71726 12.4477 5.54034 12.5499 5.49761 12.7094C5.45488 12.8688 5.55702 13.0458 5.7165 13.0885C5.87597 13.1312 6.05289 13.0291 6.09562 12.8696C6.14678 12.7053 6.04949 12.5368 5.87673 12.4905Z" fill="url(#paint99_linear)"/>
<path d="M5.87943 12.8259C5.86388 12.8574 5.82176 12.8817 5.78189 12.871C5.7686 12.8675 5.75045 12.8555 5.74072 12.8386C5.61043 12.8464 5.50056 12.8312 5.49925 12.8095C5.49795 12.7878 5.59679 12.7644 5.73064 12.7433C5.74619 12.7119 5.78831 12.6876 5.82818 12.6983C5.84147 12.7018 5.85962 12.7138 5.86935 12.7307C6.00806 12.718 6.10951 12.738 6.11082 12.7597C6.11212 12.7815 6.00972 12.8181 5.87943 12.8259Z" fill="url(#paint100_linear)"/>
<path d="M3.70194 13.5102C3.76031 13.6113 3.87991 13.6434 3.98102 13.585C4.08212 13.5266 4.11416 13.407 4.05579 13.3059C3.99742 13.2048 3.87782 13.1728 3.77672 13.2311C3.68404 13.2846 3.64357 13.4091 3.70194 13.5102Z" fill="#575756"/>
<path d="M3.13357 13.771C3.16501 13.7865 3.21687 13.779 3.22755 13.7392L3.67259 12.8756C3.68813 12.8442 3.68066 12.7923 3.6408 12.7816L3.17272 12.5351C3.14127 12.5196 3.08942 12.5271 3.07874 12.5669L2.6337 13.4305C2.60973 13.4668 2.62562 13.5138 2.66549 13.5245L3.13357 13.771Z" fill="url(#paint101_linear)"/>
<path d="M9.39423 21.7155L6.46603 22.8894C6.46603 22.8894 6.41218 22.7183 6.24975 22.5537C8.05913 21.3293 9.39423 21.7155 9.39423 21.7155Z" fill="#634E42"/>
<path d="M5.58471 11.693C5.59313 11.6881 5.60156 11.6833 5.61485 11.6868L5.60642 11.6917L5.58471 11.693Z" fill="#634E42"/>
<path d="M7.95372 22.3338L7.92358 22.3399L7.94043 22.3302L7.95372 22.3338Z" fill="#634E42"/>
<defs>
<linearGradient id="paint0_linear" x1="19.2986" y1="2.11749" x2="18.7371" y2="1.14491" gradientUnits="userSpaceOnUse">
<stop stop-color="#575756"/>
<stop offset="0.0359811" stop-color="#6E6D6D"/>
<stop offset="0.106" stop-color="#929191"/>
<stop offset="0.1784" stop-color="#ADADAD"/>
<stop offset="0.2526" stop-color="#C1C1C1"/>
<stop offset="0.3295" stop-color="#CFCFCF"/>
<stop offset="0.4106" stop-color="#D7D7D7"/>
<stop offset="0.503" stop-color="#DADADA"/>
<stop offset="0.5885" stop-color="#D6D6D6"/>
<stop offset="0.6946" stop-color="#CACACA"/>
<stop offset="0.8116" stop-color="#B7B6B6"/>
<stop offset="0.9356" stop-color="#999999"/>
<stop offset="1" stop-color="#878787"/>
</linearGradient>
<linearGradient id="paint1_linear" x1="18.3418" y1="5.22805" x2="17.6189" y2="3.97607" gradientUnits="userSpaceOnUse">
<stop stop-color="#575756"/>
<stop offset="0.0294874" stop-color="#60605F"/>
<stop offset="0.083623" stop-color="#6A6A6A"/>
<stop offset="0.1455" stop-color="#6E6D6D"/>
<stop offset="0.2788" stop-color="#6E6D6D"/>
<stop offset="0.6061" stop-color="#DADADA"/>
</linearGradient>
<linearGradient id="paint2_linear" x1="18.7786" y1="9.97917" x2="2.68317" y2="19.2719" gradientUnits="userSpaceOnUse">
<stop offset="0.0787879" stop-color="white"/>
<stop offset="0.1994" stop-color="#E5E5E5"/>
<stop offset="0.3196" stop-color="#CFCFCF"/>
<stop offset="0.3879" stop-color="#C6C6C6"/>
<stop offset="0.4664" stop-color="#D2D1D1"/>
<stop offset="0.5515" stop-color="#DADADA"/>
<stop offset="0.8848" stop-color="#9D9D9C"/>
<stop offset="1" stop-color="#EDEDED"/>
</linearGradient>
<linearGradient id="paint3_linear" x1="17.6282" y1="3.97071" x2="17.207" y2="3.24117" gradientUnits="userSpaceOnUse">
<stop stop-color="#818080"/>
<stop offset="0.0475428" stop-color="#777676"/>
<stop offset="0.208" stop-color="#5A5A59"/>
<stop offset="0.377" stop-color="#414140"/>
<stop offset="0.5564" stop-color="#292828"/>
<stop offset="0.7531" stop-color="#0D0D0C"/>
<stop offset="1"/>
</linearGradient>
<linearGradient id="paint4_linear" x1="20.086" y1="2.92393" x2="18.8692" y2="0.816269" gradientUnits="userSpaceOnUse">
<stop stop-color="#575756"/>
<stop offset="0.0294874" stop-color="#60605F"/>
<stop offset="0.083623" stop-color="#6A6A6A"/>
<stop offset="0.1455" stop-color="#6E6D6D"/>
<stop offset="0.2788" stop-color="#6E6D6D"/>
<stop offset="0.6061" stop-color="#DADADA"/>
</linearGradient>
<linearGradient id="paint5_linear" x1="9.9488" y1="9.78641" x2="8.329" y2="9.09884" gradientUnits="userSpaceOnUse">
<stop stop-color="#EDEDED"/>
<stop offset="0.2328" stop-color="#E2E2E2"/>
<stop offset="0.4848" stop-color="#DADADA"/>
<stop offset="1" stop-color="#878787"/>
</linearGradient>
<linearGradient id="paint6_linear" x1="3.86925" y1="14.3223" x2="2.26029" y2="13.237" gradientUnits="userSpaceOnUse">
<stop stop-color="#706F6F"/>
<stop offset="0.1152" stop-color="#706F6F"/>
<stop offset="1" stop-color="#B2B2B2"/>
</linearGradient>
<linearGradient id="paint7_linear" x1="6.7851" y1="10.7114" x2="6.74134" y2="10.6356" gradientUnits="userSpaceOnUse">
<stop stop-color="#1C1C1C"/>
<stop offset="0.1062" stop-color="#30302F"/>
<stop offset="0.3229" stop-color="#626262"/>
<stop offset="0.5818" stop-color="#A6A6A5"/>
<stop offset="1" stop-color="#121212"/>
</linearGradient>
<linearGradient id="paint8_linear" x1="3.58674" y1="12.522" x2="3.54299" y2="12.4462" gradientUnits="userSpaceOnUse">
<stop stop-color="#1C1C1C"/>
<stop offset="0.1062" stop-color="#30302F"/>
<stop offset="0.3229" stop-color="#626262"/>
<stop offset="0.5818" stop-color="#A6A6A5"/>
<stop offset="1" stop-color="#121212"/>
</linearGradient>
<linearGradient id="paint9_linear" x1="5.29086" y1="11.7707" x2="5.06656" y2="11.3822" gradientUnits="userSpaceOnUse">
<stop stop-color="#B2B2B2"/>
<stop offset="0.0169739" stop-color="#A8A8A8"/>
<stop offset="0.0459327" stop-color="#8D8D8D"/>
<stop offset="0.0831452" stop-color="#616161"/>
<stop offset="0.0909091" stop-color="#575757"/>
<stop offset="0.1407" stop-color="#616161"/>
<stop offset="0.2255" stop-color="#7C7C7C"/>
<stop offset="0.3345" stop-color="#A8A8A8"/>
<stop offset="0.4424" stop-color="#DADADA"/>
<stop offset="0.5758" stop-color="#DADADA"/>
<stop offset="0.9152" stop-color="#333333"/>
<stop offset="1" stop-color="#B2B2B2"/>
</linearGradient>
<linearGradient id="paint10_linear" x1="18.8462" y1="9.94007" x2="2.6061" y2="19.3163" gradientUnits="userSpaceOnUse">
<stop stop-color="white"/>
<stop offset="0.1088" stop-color="#E5E5E5"/>
<stop offset="0.2172" stop-color="#CFCFCF"/>
<stop offset="0.2788" stop-color="#C6C6C6"/>
<stop offset="0.5174" stop-color="#D2D1D1"/>
<stop offset="0.7758" stop-color="#DADADA"/>
<stop offset="1" stop-color="#706F6F"/>
</linearGradient>
<linearGradient id="paint11_linear" x1="14.4782" y1="8.11572" x2="13.9747" y2="7.24376" gradientUnits="userSpaceOnUse">
<stop stop-color="#C6C6C6"/>
<stop offset="0.0417893" stop-color="#BCBCBB"/>
<stop offset="0.1652" stop-color="#9F9F9F"/>
<stop offset="0.2964" stop-color="#878786"/>
<stop offset="0.436" stop-color="#727271"/>
<stop offset="0.5877" stop-color="#636362"/>
<stop offset="0.7603" stop-color="#5A5A59"/>
<stop offset="1" stop-color="#575756"/>
</linearGradient>
<linearGradient id="paint12_linear" x1="10.3814" y1="13.1579" x2="9.13453" y2="10.9983" gradientUnits="userSpaceOnUse">
<stop stop-color="#DADADA"/>
<stop offset="0.3102" stop-color="#B9B9B8"/>
<stop offset="0.597" stop-color="#9E9E9E"/>
<stop offset="0.8367" stop-color="#8E8D8D"/>
<stop offset="1" stop-color="#878787"/>
</linearGradient>
<linearGradient id="paint13_linear" x1="13.35" y1="10.7747" x2="7.98737" y2="13.8708" gradientUnits="userSpaceOnUse">
<stop stop-color="#878787"/>
<stop offset="0.2198" stop-color="#ABABAB"/>
<stop offset="0.449" stop-color="#C8C8C8"/>
<stop offset="0.6628" stop-color="#DDDDDD"/>
<stop offset="0.8529" stop-color="#E9E8E8"/>
<stop offset="1" stop-color="#EDEDED"/>
</linearGradient>
<linearGradient id="paint14_linear" x1="11.5251" y1="14.7164" x2="9.02396" y2="10.3842" gradientUnits="userSpaceOnUse">
<stop stop-color="#C6C6C6"/>
<stop offset="0.1548" stop-color="#C2C2C2"/>
<stop offset="0.3549" stop-color="#B5B5B5"/>
<stop offset="0.5799" stop-color="#9F9F9F"/>
<stop offset="0.8213" stop-color="#807F7F"/>
<stop offset="1" stop-color="#616160"/>
</linearGradient>
<linearGradient id="paint15_linear" x1="6.69884" y1="11.6201" x2="5.55639" y2="11.5802" gradientUnits="userSpaceOnUse">
<stop stop-color="#CA9E67"/>
<stop offset="0.107" stop-color="#B18557"/>
<stop offset="0.276" stop-color="#926845"/>
<stop offset="0.4488" stop-color="#7B5438"/>
<stop offset="0.6248" stop-color="#6D4730"/>
<stop offset="0.8059" stop-color="#64402B"/>
<stop offset="1" stop-color="#613D29"/>
</linearGradient>
<linearGradient id="paint16_linear" x1="7.33814" y1="11.6621" x2="6.40219" y2="11.6295" gradientUnits="userSpaceOnUse">
<stop stop-color="#CA9E67"/>
<stop offset="0.107" stop-color="#B18557"/>
<stop offset="0.276" stop-color="#926845"/>
<stop offset="0.4488" stop-color="#7B5438"/>
<stop offset="0.6248" stop-color="#6D4730"/>
<stop offset="0.8059" stop-color="#64402B"/>
<stop offset="1" stop-color="#613D29"/>
</linearGradient>
<linearGradient id="paint17_linear" x1="5.54074" y1="12.0277" x2="4.60912" y2="11.9951" gradientUnits="userSpaceOnUse">
<stop stop-color="#CA9E67"/>
<stop offset="0.107" stop-color="#B18557"/>
<stop offset="0.276" stop-color="#926845"/>
<stop offset="0.4488" stop-color="#7B5438"/>
<stop offset="0.6248" stop-color="#6D4730"/>
<stop offset="0.8059" stop-color="#64402B"/>
<stop offset="1" stop-color="#613D29"/>
</linearGradient>
<linearGradient id="paint18_linear" x1="6.38556" y1="12.106" x2="5.02203" y2="12.0583" gradientUnits="userSpaceOnUse">
<stop stop-color="#CA9E67"/>
<stop offset="0.107" stop-color="#B18557"/>
<stop offset="0.276" stop-color="#926845"/>
<stop offset="0.4488" stop-color="#7B5438"/>
<stop offset="0.6248" stop-color="#6D4730"/>
<stop offset="0.8059" stop-color="#64402B"/>
<stop offset="1" stop-color="#613D29"/>
</linearGradient>
<linearGradient id="paint19_linear" x1="7.328" y1="12.2223" x2="5.89921" y2="12.1724" gradientUnits="userSpaceOnUse">
<stop stop-color="#CA9E67"/>
<stop offset="0.107" stop-color="#B18557"/>
<stop offset="0.276" stop-color="#926845"/>
<stop offset="0.4488" stop-color="#7B5438"/>
<stop offset="0.6248" stop-color="#6D4730"/>
<stop offset="0.8059" stop-color="#64402B"/>
<stop offset="1" stop-color="#613D29"/>
</linearGradient>
<linearGradient id="paint20_linear" x1="7.50001" y1="12.315" x2="6.87402" y2="12.2931" gradientUnits="userSpaceOnUse">
<stop stop-color="#CA9E67"/>
<stop offset="0.107" stop-color="#B18557"/>
<stop offset="0.276" stop-color="#926845"/>
<stop offset="0.4488" stop-color="#7B5438"/>
<stop offset="0.6248" stop-color="#6D4730"/>
<stop offset="0.8059" stop-color="#64402B"/>
<stop offset="1" stop-color="#613D29"/>
</linearGradient>
<linearGradient id="paint21_linear" x1="5.45022" y1="13.2262" x2="4.33773" y2="13.1874" gradientUnits="userSpaceOnUse">
<stop stop-color="#CA9E67"/>
<stop offset="0.107" stop-color="#B18557"/>
<stop offset="0.276" stop-color="#926845"/>
<stop offset="0.4488" stop-color="#7B5438"/>
<stop offset="0.6248" stop-color="#6D4730"/>
<stop offset="0.8059" stop-color="#64402B"/>
<stop offset="1" stop-color="#613D29"/>
</linearGradient>
<linearGradient id="paint22_linear" x1="6.43648" y1="13.3987" x2="5.00167" y2="13.3486" gradientUnits="userSpaceOnUse">
<stop stop-color="#CA9E67"/>
<stop offset="0.107" stop-color="#B18557"/>
<stop offset="0.276" stop-color="#926845"/>
<stop offset="0.4488" stop-color="#7B5438"/>
<stop offset="0.6248" stop-color="#6D4730"/>
<stop offset="0.8059" stop-color="#64402B"/>
<stop offset="1" stop-color="#613D29"/>
</linearGradient>
<linearGradient id="paint23_linear" x1="7.79288" y1="13.7208" x2="7.06525" y2="13.6954" gradientUnits="userSpaceOnUse">
<stop stop-color="#CA9E67"/>
<stop offset="0.107" stop-color="#B18557"/>
<stop offset="0.276" stop-color="#926845"/>
<stop offset="0.4488" stop-color="#7B5438"/>
<stop offset="0.6248" stop-color="#6D4730"/>
<stop offset="0.8059" stop-color="#64402B"/>
<stop offset="1" stop-color="#613D29"/>
</linearGradient>
<linearGradient id="paint24_linear" x1="7.50127" y1="13.5841" x2="6.00009" y2="13.5317" gradientUnits="userSpaceOnUse">
<stop stop-color="#CA9E67"/>
<stop offset="0.107" stop-color="#B18557"/>
<stop offset="0.276" stop-color="#926845"/>
<stop offset="0.4488" stop-color="#7B5438"/>
<stop offset="0.6248" stop-color="#6D4730"/>
<stop offset="0.8059" stop-color="#64402B"/>
<stop offset="1" stop-color="#613D29"/>
</linearGradient>
<linearGradient id="paint25_linear" x1="4.54394" y1="12.9389" x2="4.32924" y2="12.9314" gradientUnits="userSpaceOnUse">
<stop stop-color="#CA9E67"/>
<stop offset="0.107" stop-color="#B18557"/>
<stop offset="0.276" stop-color="#926845"/>
<stop offset="0.4488" stop-color="#7B5438"/>
<stop offset="0.6248" stop-color="#6D4730"/>
<stop offset="0.8059" stop-color="#64402B"/>
<stop offset="1" stop-color="#613D29"/>
</linearGradient>
<linearGradient id="paint26_linear" x1="4.98554" y1="13.8102" x2="4.36402" y2="13.7885" gradientUnits="userSpaceOnUse">
<stop stop-color="#CA9E67"/>
<stop offset="0.107" stop-color="#B18557"/>
<stop offset="0.276" stop-color="#926845"/>
<stop offset="0.4488" stop-color="#7B5438"/>
<stop offset="0.6248" stop-color="#6D4730"/>
<stop offset="0.8059" stop-color="#64402B"/>
<stop offset="1" stop-color="#613D29"/>
</linearGradient>
<linearGradient id="paint27_linear" x1="5.98445" y1="13.9802" x2="4.55315" y2="13.9302" gradientUnits="userSpaceOnUse">
<stop stop-color="#CA9E67"/>
<stop offset="0.107" stop-color="#B18557"/>
<stop offset="0.276" stop-color="#926845"/>
<stop offset="0.4488" stop-color="#7B5438"/>
<stop offset="0.6248" stop-color="#6D4730"/>
<stop offset="0.8059" stop-color="#64402B"/>
<stop offset="1" stop-color="#613D29"/>
</linearGradient>
<linearGradient id="paint28_linear" x1="7.88894" y1="14.3954" x2="6.63826" y2="14.3517" gradientUnits="userSpaceOnUse">
<stop stop-color="#CA9E67"/>
<stop offset="0.107" stop-color="#B18557"/>
<stop offset="0.276" stop-color="#926845"/>
<stop offset="0.4488" stop-color="#7B5438"/>
<stop offset="0.6248" stop-color="#6D4730"/>
<stop offset="0.8059" stop-color="#64402B"/>
<stop offset="1" stop-color="#613D29"/>
</linearGradient>
<linearGradient id="paint29_linear" x1="7.93118" y1="14.7168" x2="7.75587" y2="14.7107" gradientUnits="userSpaceOnUse">
<stop stop-color="#CA9E67"/>
<stop offset="0.107" stop-color="#B18557"/>
<stop offset="0.276" stop-color="#926845"/>
<stop offset="0.4488" stop-color="#7B5438"/>
<stop offset="0.6248" stop-color="#6D4730"/>
<stop offset="0.8059" stop-color="#64402B"/>
<stop offset="1" stop-color="#613D29"/>
</linearGradient>
<linearGradient id="paint30_linear" x1="7.0481" y1="14.1869" x2="5.56902" y2="14.1352" gradientUnits="userSpaceOnUse">
<stop stop-color="#CA9E67"/>
<stop offset="0.107" stop-color="#B18557"/>
<stop offset="0.276" stop-color="#926845"/>
<stop offset="0.4488" stop-color="#7B5438"/>
<stop offset="0.6248" stop-color="#6D4730"/>
<stop offset="0.8059" stop-color="#64402B"/>
<stop offset="1" stop-color="#613D29"/>
</linearGradient>
<linearGradient id="paint31_linear" x1="4.54435" y1="14.1831" x2="4.43698" y2="14.1793" gradientUnits="userSpaceOnUse">
<stop stop-color="#CA9E67"/>
<stop offset="0.107" stop-color="#B18557"/>
<stop offset="0.276" stop-color="#926845"/>
<stop offset="0.4488" stop-color="#7B5438"/>
<stop offset="0.6248" stop-color="#6D4730"/>
<stop offset="0.8059" stop-color="#64402B"/>
<stop offset="1" stop-color="#613D29"/>
</linearGradient>
<linearGradient id="paint32_linear" x1="5.55435" y1="14.5556" x2="4.44384" y2="14.5168" gradientUnits="userSpaceOnUse">
<stop stop-color="#CA9E67"/>
<stop offset="0.107" stop-color="#B18557"/>
<stop offset="0.276" stop-color="#926845"/>
<stop offset="0.4488" stop-color="#7B5438"/>
<stop offset="0.6248" stop-color="#6D4730"/>
<stop offset="0.8059" stop-color="#64402B"/>
<stop offset="1" stop-color="#613D29"/>
</linearGradient>
<linearGradient id="paint33_linear" x1="6.62328" y1="14.7814" x2="5.13317" y2="14.7293" gradientUnits="userSpaceOnUse">
<stop stop-color="#CA9E67"/>
<stop offset="0.107" stop-color="#B18557"/>
<stop offset="0.276" stop-color="#926845"/>
<stop offset="0.4488" stop-color="#7B5438"/>
<stop offset="0.6248" stop-color="#6D4730"/>
<stop offset="0.8059" stop-color="#64402B"/>
<stop offset="1" stop-color="#613D29"/>
</linearGradient>
<linearGradient id="paint34_linear" x1="7.74517" y1="15.0189" x2="6.20406" y2="14.9651" gradientUnits="userSpaceOnUse">
<stop stop-color="#CA9E67"/>
<stop offset="0.107" stop-color="#B18557"/>
<stop offset="0.276" stop-color="#926845"/>
<stop offset="0.4488" stop-color="#7B5438"/>
<stop offset="0.6248" stop-color="#6D4730"/>
<stop offset="0.8059" stop-color="#64402B"/>
<stop offset="1" stop-color="#613D29"/>
</linearGradient>
<linearGradient id="paint35_linear" x1="8.09704" y1="15.1995" x2="7.33061" y2="15.1728" gradientUnits="userSpaceOnUse">
<stop stop-color="#CA9E67"/>
<stop offset="0.107" stop-color="#B18557"/>
<stop offset="0.276" stop-color="#926845"/>
<stop offset="0.4488" stop-color="#7B5438"/>
<stop offset="0.6248" stop-color="#6D4730"/>
<stop offset="0.8059" stop-color="#64402B"/>
<stop offset="1" stop-color="#613D29"/>
</linearGradient>
<linearGradient id="paint36_linear" x1="5.11543" y1="15.2362" x2="4.49294" y2="15.2145" gradientUnits="userSpaceOnUse">
<stop stop-color="#CA9E67"/>
<stop offset="0.107" stop-color="#B18557"/>
<stop offset="0.276" stop-color="#926845"/>
<stop offset="0.4488" stop-color="#7B5438"/>
<stop offset="0.6248" stop-color="#6D4730"/>
<stop offset="0.8059" stop-color="#64402B"/>
<stop offset="1" stop-color="#613D29"/>
</linearGradient>
<linearGradient id="paint37_linear" x1="6.18646" y1="15.47" x2="4.60352" y2="15.4147" gradientUnits="userSpaceOnUse">
<stop stop-color="#CA9E67"/>
<stop offset="0.107" stop-color="#B18557"/>
<stop offset="0.276" stop-color="#926845"/>
<stop offset="0.4488" stop-color="#7B5438"/>
<stop offset="0.6248" stop-color="#6D4730"/>
<stop offset="0.8059" stop-color="#64402B"/>
<stop offset="1" stop-color="#613D29"/>
</linearGradient>
<linearGradient id="paint38_linear" x1="8.27767" y1="16.3479" x2="8.00073" y2="16.3382" gradientUnits="userSpaceOnUse">
<stop stop-color="#CA9E67"/>
<stop offset="0.107" stop-color="#B18557"/>
<stop offset="0.276" stop-color="#926845"/>
<stop offset="0.4488" stop-color="#7B5438"/>
<stop offset="0.6248" stop-color="#6D4730"/>
<stop offset="0.8059" stop-color="#64402B"/>
<stop offset="1" stop-color="#613D29"/>
</linearGradient>
<linearGradient id="paint39_linear" x1="8.20681" y1="15.9631" x2="6.79845" y2="15.914" gradientUnits="userSpaceOnUse">
<stop stop-color="#CA9E67"/>
<stop offset="0.107" stop-color="#B18557"/>
<stop offset="0.276" stop-color="#926845"/>
<stop offset="0.4488" stop-color="#7B5438"/>
<stop offset="0.6248" stop-color="#6D4730"/>
<stop offset="0.8059" stop-color="#64402B"/>
<stop offset="1" stop-color="#613D29"/>
</linearGradient>
<linearGradient id="paint40_linear" x1="7.31163" y1="15.7154" x2="5.64757" y2="15.6573" gradientUnits="userSpaceOnUse">
<stop stop-color="#CA9E67"/>
<stop offset="0.107" stop-color="#B18557"/>
<stop offset="0.276" stop-color="#926845"/>
<stop offset="0.4488" stop-color="#7B5438"/>
<stop offset="0.6248" stop-color="#6D4730"/>
<stop offset="0.8059" stop-color="#64402B"/>
<stop offset="1" stop-color="#613D29"/>
</linearGradient>
<linearGradient id="paint41_linear" x1="6.77671" y1="16.5355" x2="5.03726" y2="16.4748" gradientUnits="userSpaceOnUse">
<stop stop-color="#CA9E67"/>
<stop offset="0.107" stop-color="#B18557"/>
<stop offset="0.276" stop-color="#926845"/>
<stop offset="0.4488" stop-color="#7B5438"/>
<stop offset="0.6248" stop-color="#6D4730"/>
<stop offset="0.8059" stop-color="#64402B"/>
<stop offset="1" stop-color="#613D29"/>
</linearGradient>
<linearGradient id="paint42_linear" x1="7.98515" y1="16.7857" x2="6.21754" y2="16.724" gradientUnits="userSpaceOnUse">
<stop stop-color="#CA9E67"/>
<stop offset="0.107" stop-color="#B18557"/>
<stop offset="0.276" stop-color="#926845"/>
<stop offset="0.4488" stop-color="#7B5438"/>
<stop offset="0.6248" stop-color="#6D4730"/>
<stop offset="0.8059" stop-color="#64402B"/>
<stop offset="1" stop-color="#613D29"/>
</linearGradient>
<linearGradient id="paint43_linear" x1="8.49102" y1="17.0029" x2="7.43136" y2="16.9659" gradientUnits="userSpaceOnUse">
<stop stop-color="#CA9E67"/>
<stop offset="0.107" stop-color="#B18557"/>
<stop offset="0.276" stop-color="#926845"/>
<stop offset="0.4488" stop-color="#7B5438"/>
<stop offset="0.6248" stop-color="#6D4730"/>
<stop offset="0.8059" stop-color="#64402B"/>
<stop offset="1" stop-color="#613D29"/>
</linearGradient>
<linearGradient id="paint44_linear" x1="5.62511" y1="16.3008" x2="4.58615" y2="16.2646" gradientUnits="userSpaceOnUse">
<stop stop-color="#CA9E67"/>
<stop offset="0.107" stop-color="#B18557"/>
<stop offset="0.276" stop-color="#926845"/>
<stop offset="0.4488" stop-color="#7B5438"/>
<stop offset="0.6248" stop-color="#6D4730"/>
<stop offset="0.8059" stop-color="#64402B"/>
<stop offset="1" stop-color="#613D29"/>
</linearGradient>
<linearGradient id="paint45_linear" x1="5.67631" y1="18.1321" x2="4.78488" y2="18.101" gradientUnits="userSpaceOnUse">
<stop stop-color="#CA9E67"/>
<stop offset="0.107" stop-color="#B18557"/>
<stop offset="0.276" stop-color="#926845"/>
<stop offset="0.4488" stop-color="#7B5438"/>
<stop offset="0.6248" stop-color="#6D4730"/>
<stop offset="0.8059" stop-color="#64402B"/>
<stop offset="1" stop-color="#613D29"/>
</linearGradient>
<linearGradient id="paint46_linear" x1="6.87183" y1="18.3897" x2="5.15772" y2="18.3298" gradientUnits="userSpaceOnUse">
<stop stop-color="#CA9E67"/>
<stop offset="0.107" stop-color="#B18557"/>
<stop offset="0.276" stop-color="#926845"/>
<stop offset="0.4488" stop-color="#7B5438"/>
<stop offset="0.6248" stop-color="#6D4730"/>
<stop offset="0.8059" stop-color="#64402B"/>
<stop offset="1" stop-color="#613D29"/>
</linearGradient>
<linearGradient id="paint47_linear" x1="8.15011" y1="18.6895" x2="6.33284" y2="18.626" gradientUnits="userSpaceOnUse">
<stop stop-color="#CA9E67"/>
<stop offset="0.107" stop-color="#B18557"/>
<stop offset="0.276" stop-color="#926845"/>
<stop offset="0.4488" stop-color="#7B5438"/>
<stop offset="0.6248" stop-color="#6D4730"/>
<stop offset="0.8059" stop-color="#64402B"/>
<stop offset="1" stop-color="#613D29"/>
</linearGradient>
<linearGradient id="paint48_linear" x1="8.81452" y1="18.9509" x2="7.59322" y2="18.9082" gradientUnits="userSpaceOnUse">
<stop stop-color="#CA9E67"/>
<stop offset="0.107" stop-color="#B18557"/>
<stop offset="0.276" stop-color="#926845"/>
<stop offset="0.4488" stop-color="#7B5438"/>
<stop offset="0.6248" stop-color="#6D4730"/>
<stop offset="0.8059" stop-color="#64402B"/>
<stop offset="1" stop-color="#613D29"/>
</linearGradient>
<linearGradient id="paint49_linear" x1="8.88462" y1="19.3765" x2="8.61699" y2="19.3671" gradientUnits="userSpaceOnUse">
<stop stop-color="#CA9E67"/>
<stop offset="0.107" stop-color="#B18557"/>
<stop offset="0.276" stop-color="#926845"/>
<stop offset="0.4488" stop-color="#7B5438"/>
<stop offset="0.6248" stop-color="#6D4730"/>
<stop offset="0.8059" stop-color="#64402B"/>
<stop offset="1" stop-color="#613D29"/>
</linearGradient>
<linearGradient id="paint50_linear" x1="6.96052" y1="20.3609" x2="5.21231" y2="20.2998" gradientUnits="userSpaceOnUse">
<stop stop-color="#CA9E67"/>
<stop offset="0.107" stop-color="#B18557"/>
<stop offset="0.276" stop-color="#926845"/>
<stop offset="0.4488" stop-color="#7B5438"/>
<stop offset="0.6248" stop-color="#6D4730"/>
<stop offset="0.8059" stop-color="#64402B"/>
<stop offset="1" stop-color="#613D29"/>
</linearGradient>
<linearGradient id="paint51_linear" x1="8.00486" y1="20.6781" x2="6.45513" y2="20.624" gradientUnits="userSpaceOnUse">
<stop stop-color="#CA9E67"/>
<stop offset="0.107" stop-color="#B18557"/>
<stop offset="0.276" stop-color="#926845"/>
<stop offset="0.4488" stop-color="#7B5438"/>
<stop offset="0.6248" stop-color="#6D4730"/>
<stop offset="0.8059" stop-color="#64402B"/>
<stop offset="1" stop-color="#613D29"/>
</linearGradient>
<linearGradient id="paint52_linear" x1="9.29898" y1="21.1745" x2="8.44994" y2="21.1449" gradientUnits="userSpaceOnUse">
<stop stop-color="#CA9E67"/>
<stop offset="0.107" stop-color="#B18557"/>
<stop offset="0.276" stop-color="#926845"/>
<stop offset="0.4488" stop-color="#7B5438"/>
<stop offset="0.6248" stop-color="#6D4730"/>
<stop offset="0.8059" stop-color="#64402B"/>
<stop offset="1" stop-color="#613D29"/>
</linearGradient>
<linearGradient id="paint53_linear" x1="8.90152" y1="20.9492" x2="7.52094" y2="20.901" gradientUnits="userSpaceOnUse">
<stop stop-color="#CA9E67"/>
<stop offset="0.107" stop-color="#B18557"/>
<stop offset="0.276" stop-color="#926845"/>
<stop offset="0.4488" stop-color="#7B5438"/>
<stop offset="0.6248" stop-color="#6D4730"/>
<stop offset="0.8059" stop-color="#64402B"/>
<stop offset="1" stop-color="#613D29"/>
</linearGradient>
<linearGradient id="paint54_linear" x1="5.71374" y1="20.0791" x2="4.99502" y2="20.054" gradientUnits="userSpaceOnUse">
<stop stop-color="#CA9E67"/>
<stop offset="0.107" stop-color="#B18557"/>
<stop offset="0.276" stop-color="#926845"/>
<stop offset="0.4488" stop-color="#7B5438"/>
<stop offset="0.6248" stop-color="#6D4730"/>
<stop offset="0.8059" stop-color="#64402B"/>
<stop offset="1" stop-color="#613D29"/>
</linearGradient>
<linearGradient id="paint55_linear" x1="6.43538" y1="21.1899" x2="5.10899" y2="21.1436" gradientUnits="userSpaceOnUse">
<stop stop-color="#CA9E67"/>
<stop offset="0.107" stop-color="#B18557"/>
<stop offset="0.276" stop-color="#926845"/>
<stop offset="0.4488" stop-color="#7B5438"/>
<stop offset="0.6248" stop-color="#6D4730"/>
<stop offset="0.8059" stop-color="#64402B"/>
<stop offset="1" stop-color="#613D29"/>
</linearGradient>
<linearGradient id="paint56_linear" x1="7.49954" y1="21.5124" x2="5.84237" y2="21.4545" gradientUnits="userSpaceOnUse">
<stop stop-color="#CA9E67"/>
<stop offset="0.107" stop-color="#B18557"/>
<stop offset="0.276" stop-color="#926845"/>
<stop offset="0.4488" stop-color="#7B5438"/>
<stop offset="0.6248" stop-color="#6D4730"/>
<stop offset="0.8059" stop-color="#64402B"/>
<stop offset="1" stop-color="#613D29"/>
</linearGradient>
<linearGradient id="paint57_linear" x1="8.42729" y1="21.7931" x2="6.9355" y2="21.741" gradientUnits="userSpaceOnUse">
<stop stop-color="#CA9E67"/>
<stop offset="0.107" stop-color="#B18557"/>
<stop offset="0.276" stop-color="#926845"/>
<stop offset="0.4488" stop-color="#7B5438"/>
<stop offset="0.6248" stop-color="#6D4730"/>
<stop offset="0.8059" stop-color="#64402B"/>
<stop offset="1" stop-color="#613D29"/>
</linearGradient>
<linearGradient id="paint58_linear" x1="9.29715" y1="21.9395" x2="7.90745" y2="21.891" gradientUnits="userSpaceOnUse">
<stop stop-color="#CA9E67"/>
<stop offset="0.107" stop-color="#B18557"/>
<stop offset="0.276" stop-color="#926845"/>
<stop offset="0.4488" stop-color="#7B5438"/>
<stop offset="0.6248" stop-color="#6D4730"/>
<stop offset="0.8059" stop-color="#64402B"/>
<stop offset="1" stop-color="#613D29"/>
</linearGradient>
<linearGradient id="paint59_linear" x1="5.20243" y1="20.5823" x2="5.10874" y2="20.579" gradientUnits="userSpaceOnUse">
<stop stop-color="#CA9E67"/>
<stop offset="0.107" stop-color="#B18557"/>
<stop offset="0.276" stop-color="#926845"/>
<stop offset="0.4488" stop-color="#7B5438"/>
<stop offset="0.6248" stop-color="#6D4730"/>
<stop offset="0.8059" stop-color="#64402B"/>
<stop offset="1" stop-color="#613D29"/>
</linearGradient>
<linearGradient id="paint60_linear" x1="5.82352" y1="21.996" x2="5.21761" y2="21.9748" gradientUnits="userSpaceOnUse">
<stop stop-color="#CA9E67"/>
<stop offset="0.107" stop-color="#B18557"/>
<stop offset="0.276" stop-color="#926845"/>
<stop offset="0.4488" stop-color="#7B5438"/>
<stop offset="0.6248" stop-color="#6D4730"/>
<stop offset="0.8059" stop-color="#64402B"/>
<stop offset="1" stop-color="#613D29"/>
</linearGradient>
<linearGradient id="paint61_linear" x1="6.91249" y1="22.399" x2="5.44593" y2="22.3478" gradientUnits="userSpaceOnUse">
<stop stop-color="#CA9E67"/>
<stop offset="0.107" stop-color="#B18557"/>
<stop offset="0.276" stop-color="#926845"/>
<stop offset="0.4488" stop-color="#7B5438"/>
<stop offset="0.6248" stop-color="#6D4730"/>
<stop offset="0.8059" stop-color="#64402B"/>
<stop offset="1" stop-color="#613D29"/>
</linearGradient>
<linearGradient id="paint62_linear" x1="7.8836" y1="22.5756" x2="6.36838" y2="22.5227" gradientUnits="userSpaceOnUse">
<stop stop-color="#CA9E67"/>
<stop offset="0.107" stop-color="#B18557"/>
<stop offset="0.276" stop-color="#926845"/>
<stop offset="0.4488" stop-color="#7B5438"/>
<stop offset="0.6248" stop-color="#6D4730"/>
<stop offset="0.8059" stop-color="#64402B"/>
<stop offset="1" stop-color="#613D29"/>
</linearGradient>
<linearGradient id="paint63_linear" x1="5.14366" y1="18.7324" x2="4.89405" y2="18.7237" gradientUnits="userSpaceOnUse">
<stop stop-color="#CA9E67"/>
<stop offset="0.107" stop-color="#B18557"/>
<stop offset="0.276" stop-color="#926845"/>
<stop offset="0.4488" stop-color="#7B5438"/>
<stop offset="0.6248" stop-color="#6D4730"/>
<stop offset="0.8059" stop-color="#64402B"/>
<stop offset="1" stop-color="#613D29"/>
</linearGradient>
<linearGradient id="paint64_linear" x1="6.31212" y1="19.2211" x2="4.93058" y2="19.1728" gradientUnits="userSpaceOnUse">
<stop stop-color="#CA9E67"/>
<stop offset="0.107" stop-color="#B18557"/>
<stop offset="0.276" stop-color="#926845"/>
<stop offset="0.4488" stop-color="#7B5438"/>
<stop offset="0.6248" stop-color="#6D4730"/>
<stop offset="0.8059" stop-color="#64402B"/>
<stop offset="1" stop-color="#613D29"/>
</linearGradient>
<linearGradient id="paint65_linear" x1="7.571" y1="19.5449" x2="5.73469" y2="19.4807" gradientUnits="userSpaceOnUse">
<stop stop-color="#CA9E67"/>
<stop offset="0.107" stop-color="#B18557"/>
<stop offset="0.276" stop-color="#926845"/>
<stop offset="0.4488" stop-color="#7B5438"/>
<stop offset="0.6248" stop-color="#6D4730"/>
<stop offset="0.8059" stop-color="#64402B"/>
<stop offset="1" stop-color="#613D29"/>
</linearGradient>
<linearGradient id="paint66_linear" x1="8.6003" y1="19.8457" x2="6.98051" y2="19.7892" gradientUnits="userSpaceOnUse">
<stop stop-color="#CA9E67"/>
<stop offset="0.107" stop-color="#B18557"/>
<stop offset="0.276" stop-color="#926845"/>
<stop offset="0.4488" stop-color="#7B5438"/>
<stop offset="0.6248" stop-color="#6D4730"/>
<stop offset="0.8059" stop-color="#64402B"/>
<stop offset="1" stop-color="#613D29"/>
</linearGradient>
<linearGradient id="paint67_linear" x1="9.06045" y1="20.0838" x2="8.02682" y2="20.0477" gradientUnits="userSpaceOnUse">
<stop stop-color="#CA9E67"/>
<stop offset="0.107" stop-color="#B18557"/>
<stop offset="0.276" stop-color="#926845"/>
<stop offset="0.4488" stop-color="#7B5438"/>
<stop offset="0.6248" stop-color="#6D4730"/>
<stop offset="0.8059" stop-color="#64402B"/>
<stop offset="1" stop-color="#613D29"/>
</linearGradient>
<linearGradient id="paint68_linear" x1="9.10712" y1="20.5709" x2="8.9149" y2="20.5642" gradientUnits="userSpaceOnUse">
<stop stop-color="#CA9E67"/>
<stop offset="0.107" stop-color="#B18557"/>
<stop offset="0.276" stop-color="#926845"/>
<stop offset="0.4488" stop-color="#7B5438"/>
<stop offset="0.6248" stop-color="#6D4730"/>
<stop offset="0.8059" stop-color="#64402B"/>
<stop offset="1" stop-color="#613D29"/>
</linearGradient>
<linearGradient id="paint69_linear" x1="5.01961" y1="16.9789" x2="4.70332" y2="16.9679" gradientUnits="userSpaceOnUse">
<stop stop-color="#CA9E67"/>
<stop offset="0.107" stop-color="#B18557"/>
<stop offset="0.276" stop-color="#926845"/>
<stop offset="0.4488" stop-color="#7B5438"/>
<stop offset="0.6248" stop-color="#6D4730"/>
<stop offset="0.8059" stop-color="#64402B"/>
<stop offset="1" stop-color="#613D29"/>
</linearGradient>
<linearGradient id="paint70_linear" x1="6.19594" y1="17.3431" x2="4.75373" y2="17.2928" gradientUnits="userSpaceOnUse">
<stop stop-color="#CA9E67"/>
<stop offset="0.107" stop-color="#B18557"/>
<stop offset="0.276" stop-color="#926845"/>
<stop offset="0.4488" stop-color="#7B5438"/>
<stop offset="0.6248" stop-color="#6D4730"/>
<stop offset="0.8059" stop-color="#64402B"/>
<stop offset="1" stop-color="#613D29"/>
</linearGradient>
<linearGradient id="paint71_linear" x1="7.40916" y1="17.6026" x2="5.69689" y2="17.5428" gradientUnits="userSpaceOnUse">
<stop stop-color="#CA9E67"/>
<stop offset="0.107" stop-color="#B18557"/>
<stop offset="0.276" stop-color="#926845"/>
<stop offset="0.4488" stop-color="#7B5438"/>
<stop offset="0.6248" stop-color="#6D4730"/>
<stop offset="0.8059" stop-color="#64402B"/>
<stop offset="1" stop-color="#613D29"/>
</linearGradient>
<linearGradient id="paint72_linear" x1="8.53456" y1="17.87" x2="6.89202" y2="17.8127" gradientUnits="userSpaceOnUse">
<stop stop-color="#CA9E67"/>
<stop offset="0.107" stop-color="#B18557"/>
<stop offset="0.276" stop-color="#926845"/>
<stop offset="0.4488" stop-color="#7B5438"/>
<stop offset="0.6248" stop-color="#6D4730"/>
<stop offset="0.8059" stop-color="#64402B"/>
<stop offset="1" stop-color="#613D29"/>
</linearGradient>
<linearGradient id="paint73_linear" x1="8.67967" y1="18.1697" x2="8.16888" y2="18.1519" gradientUnits="userSpaceOnUse">
<stop stop-color="#CA9E67"/>
<stop offset="0.107" stop-color="#B18557"/>
<stop offset="0.276" stop-color="#926845"/>
<stop offset="0.4488" stop-color="#7B5438"/>
<stop offset="0.6248" stop-color="#6D4730"/>
<stop offset="0.8059" stop-color="#64402B"/>
<stop offset="1" stop-color="#613D29"/>
</linearGradient>
<linearGradient id="paint74_linear" x1="5.00443" y1="12.5618" x2="4.34509" y2="12.5388" gradientUnits="userSpaceOnUse">
<stop stop-color="#CA9E67"/>
<stop offset="0.107" stop-color="#B18557"/>
<stop offset="0.276" stop-color="#926845"/>
<stop offset="0.4488" stop-color="#7B5438"/>
<stop offset="0.6248" stop-color="#6D4730"/>
<stop offset="0.8059" stop-color="#64402B"/>
<stop offset="1" stop-color="#613D29"/>
</linearGradient>
<linearGradient id="paint75_linear" x1="6.85561" y1="12.822" x2="5.46605" y2="12.7735" gradientUnits="userSpaceOnUse">
<stop stop-color="#CA9E67"/>
<stop offset="0.107" stop-color="#B18557"/>
<stop offset="0.276" stop-color="#926845"/>
<stop offset="0.4488" stop-color="#7B5438"/>
<stop offset="0.6248" stop-color="#6D4730"/>
<stop offset="0.8059" stop-color="#64402B"/>
<stop offset="1" stop-color="#613D29"/>
</linearGradient>
<linearGradient id="paint76_linear" x1="7.60433" y1="12.9716" x2="6.45278" y2="12.9314" gradientUnits="userSpaceOnUse">
<stop stop-color="#CA9E67"/>
<stop offset="0.107" stop-color="#B18557"/>
<stop offset="0.276" stop-color="#926845"/>
<stop offset="0.4488" stop-color="#7B5438"/>
<stop offset="0.6248" stop-color="#6D4730"/>
<stop offset="0.8059" stop-color="#64402B"/>
<stop offset="1" stop-color="#613D29"/>
</linearGradient>
<linearGradient id="paint77_linear" x1="7.62725" y1="13.2775" x2="7.51221" y2="13.2735" gradientUnits="userSpaceOnUse">
<stop stop-color="#CA9E67"/>
<stop offset="0.107" stop-color="#B18557"/>
<stop offset="0.276" stop-color="#926845"/>
<stop offset="0.4488" stop-color="#7B5438"/>
<stop offset="0.6248" stop-color="#6D4730"/>
<stop offset="0.8059" stop-color="#64402B"/>
<stop offset="1" stop-color="#613D29"/>
</linearGradient>
<linearGradient id="paint78_linear" x1="5.88161" y1="12.6749" x2="4.55471" y2="12.6286" gradientUnits="userSpaceOnUse">
<stop stop-color="#CA9E67"/>
<stop offset="0.107" stop-color="#B18557"/>
<stop offset="0.276" stop-color="#926845"/>
<stop offset="0.4488" stop-color="#7B5438"/>
<stop offset="0.6248" stop-color="#6D4730"/>
<stop offset="0.8059" stop-color="#64402B"/>
<stop offset="1" stop-color="#613D29"/>
</linearGradient>
<linearGradient id="paint79_linear" x1="10.0118" y1="13.5438" x2="8.64351" y2="11.1739" gradientUnits="userSpaceOnUse">
<stop stop-color="#B2B2B2"/>
<stop offset="0.2112" stop-color="#8D8D8D"/>
<stop offset="0.4652" stop-color="#626261"/>
<stop offset="0.6907" stop-color="#3F3F3E"/>
<stop offset="0.8766" stop-color="#1A1A1A"/>
<stop offset="1"/>
</linearGradient>
<linearGradient id="paint80_linear" x1="17.5923" y1="9.04706" x2="3.22418" y2="4.92706" gradientUnits="userSpaceOnUse">
<stop offset="0.2121" stop-color="white"/>
<stop offset="0.7636" stop-color="#B2B2B2"/>
<stop offset="1" stop-color="#DADADA"/>
</linearGradient>
<linearGradient id="paint81_linear" x1="19.3674" y1="1.8258" x2="1.44195" y2="12.1751" gradientUnits="userSpaceOnUse">
<stop stop-color="#B2B2B2"/>
<stop offset="0.0867892" stop-color="#D4D4D3"/>
<stop offset="0.168" stop-color="#EDEDED"/>
<stop offset="0.2121" stop-color="#F6F6F6"/>
<stop offset="1" stop-color="#706F6F"/>
</linearGradient>
<linearGradient id="paint82_linear" x1="10.2412" y1="6.21516" x2="9.87969" y2="5.58904" gradientUnits="userSpaceOnUse">
<stop stop-color="#9D9D9C"/>
<stop offset="0.2076" stop-color="#9F9F9F"/>
<stop offset="0.3519" stop-color="#A7A7A7"/>
<stop offset="0.4772" stop-color="#B4B4B3"/>
<stop offset="0.5915" stop-color="#C5C5C5"/>
<stop offset="0.6973" stop-color="#DBDADA"/>
<stop offset="0.7974" stop-color="#F3F3F3"/>
<stop offset="0.8" stop-color="#F4F4F4"/>
<stop offset="0.8121" stop-color="#C6C6C6"/>
</linearGradient>
<linearGradient id="paint83_linear" x1="6.10467" y1="9.49641" x2="5.96587" y2="9.57655" gradientUnits="userSpaceOnUse">
<stop stop-color="#DADADA"/>
<stop offset="0.0388994" stop-color="#D1D1D1"/>
<stop offset="0.2061" stop-color="#ACACAC"/>
<stop offset="0.3543" stop-color="#908F8F"/>
<stop offset="0.4765" stop-color="#7D7D7D"/>
<stop offset="0.5576" stop-color="#767675"/>
<stop offset="0.6912" stop-color="#666665"/>
<stop offset="0.8428" stop-color="#5B5B5A"/>
<stop offset="1" stop-color="#575756"/>
</linearGradient>
<linearGradient id="paint84_linear" x1="5.82727" y1="9.65655" x2="5.68838" y2="9.73673" gradientUnits="userSpaceOnUse">
<stop stop-color="#DADADA"/>
<stop offset="0.0388994" stop-color="#D1D1D1"/>
<stop offset="0.2061" stop-color="#ACACAC"/>
<stop offset="0.3543" stop-color="#908F8F"/>
<stop offset="0.4765" stop-color="#7D7D7D"/>
<stop offset="0.5576" stop-color="#767675"/>
<stop offset="0.6912" stop-color="#666665"/>
<stop offset="0.8428" stop-color="#5B5B5A"/>
<stop offset="1" stop-color="#575756"/>
</linearGradient>
<linearGradient id="paint85_linear" x1="5.54981" y1="9.81674" x2="5.41109" y2="9.89683" gradientUnits="userSpaceOnUse">
<stop stop-color="#DADADA"/>
<stop offset="0.0388994" stop-color="#D1D1D1"/>
<stop offset="0.2061" stop-color="#ACACAC"/>
<stop offset="0.3543" stop-color="#908F8F"/>
<stop offset="0.4765" stop-color="#7D7D7D"/>
<stop offset="0.5576" stop-color="#767675"/>
<stop offset="0.6912" stop-color="#666665"/>
<stop offset="0.8428" stop-color="#5B5B5A"/>
<stop offset="1" stop-color="#575756"/>
</linearGradient>
<linearGradient id="paint86_linear" x1="5.27253" y1="9.97685" x2="5.13381" y2="10.0569" gradientUnits="userSpaceOnUse">
<stop stop-color="#DADADA"/>
<stop offset="0.0388994" stop-color="#D1D1D1"/>
<stop offset="0.2061" stop-color="#ACACAC"/>
<stop offset="0.3543" stop-color="#908F8F"/>
<stop offset="0.4765" stop-color="#7D7D7D"/>
<stop offset="0.5576" stop-color="#767675"/>
<stop offset="0.6912" stop-color="#666665"/>
<stop offset="0.8428" stop-color="#5B5B5A"/>
<stop offset="1" stop-color="#575756"/>
</linearGradient>
<linearGradient id="paint87_linear" x1="4.99497" y1="10.1371" x2="4.85641" y2="10.2171" gradientUnits="userSpaceOnUse">
<stop stop-color="#DADADA"/>
<stop offset="0.0388994" stop-color="#D1D1D1"/>
<stop offset="0.2061" stop-color="#ACACAC"/>
<stop offset="0.3543" stop-color="#908F8F"/>
<stop offset="0.4765" stop-color="#7D7D7D"/>
<stop offset="0.5576" stop-color="#767675"/>
<stop offset="0.6912" stop-color="#666665"/>
<stop offset="0.8428" stop-color="#5B5B5A"/>
<stop offset="1" stop-color="#575756"/>
</linearGradient>
<linearGradient id="paint88_linear" x1="4.44025" y1="10.4574" x2="4.30153" y2="10.5374" gradientUnits="userSpaceOnUse">
<stop stop-color="#DADADA"/>
<stop offset="0.0388994" stop-color="#D1D1D1"/>
<stop offset="0.2061" stop-color="#ACACAC"/>
<stop offset="0.3543" stop-color="#908F8F"/>
<stop offset="0.4765" stop-color="#7D7D7D"/>
<stop offset="0.5576" stop-color="#767675"/>
<stop offset="0.6912" stop-color="#666665"/>
<stop offset="0.8428" stop-color="#5B5B5A"/>
<stop offset="1" stop-color="#575756"/>
</linearGradient>
<linearGradient id="paint89_linear" x1="4.71771" y1="10.2972" x2="4.57899" y2="10.3772" gradientUnits="userSpaceOnUse">
<stop stop-color="#DADADA"/>
<stop offset="0.0388994" stop-color="#D1D1D1"/>
<stop offset="0.2061" stop-color="#ACACAC"/>
<stop offset="0.3543" stop-color="#908F8F"/>
<stop offset="0.4765" stop-color="#7D7D7D"/>
<stop offset="0.5576" stop-color="#767675"/>
<stop offset="0.6912" stop-color="#666665"/>
<stop offset="0.8428" stop-color="#5B5B5A"/>
<stop offset="1" stop-color="#575756"/>
</linearGradient>
<linearGradient id="paint90_linear" x1="4.16289" y1="10.6175" x2="4.02425" y2="10.6975" gradientUnits="userSpaceOnUse">
<stop stop-color="#DADADA"/>
<stop offset="0.0388994" stop-color="#D1D1D1"/>
<stop offset="0.2061" stop-color="#ACACAC"/>
<stop offset="0.3543" stop-color="#908F8F"/>
<stop offset="0.4765" stop-color="#7D7D7D"/>
<stop offset="0.5576" stop-color="#767675"/>
<stop offset="0.6912" stop-color="#666665"/>
<stop offset="0.8428" stop-color="#5B5B5A"/>
<stop offset="1" stop-color="#575756"/>
</linearGradient>
<linearGradient id="paint91_linear" x1="3.88557" y1="10.7776" x2="3.74685" y2="10.8577" gradientUnits="userSpaceOnUse">
<stop stop-color="#DADADA"/>
<stop offset="0.0388994" stop-color="#D1D1D1"/>
<stop offset="0.2061" stop-color="#ACACAC"/>
<stop offset="0.3543" stop-color="#908F8F"/>
<stop offset="0.4765" stop-color="#7D7D7D"/>
<stop offset="0.5576" stop-color="#767675"/>
<stop offset="0.6912" stop-color="#666665"/>
<stop offset="0.8428" stop-color="#5B5B5A"/>
<stop offset="1" stop-color="#575756"/>
</linearGradient>
<linearGradient id="paint92_linear" x1="3.60811" y1="10.9378" x2="3.46939" y2="11.0179" gradientUnits="userSpaceOnUse">
<stop stop-color="#DADADA"/>
<stop offset="0.0388994" stop-color="#D1D1D1"/>
<stop offset="0.2061" stop-color="#ACACAC"/>
<stop offset="0.3543" stop-color="#908F8F"/>
<stop offset="0.4765" stop-color="#7D7D7D"/>
<stop offset="0.5576" stop-color="#767675"/>
<stop offset="0.6912" stop-color="#666665"/>
<stop offset="0.8428" stop-color="#5B5B5A"/>
<stop offset="1" stop-color="#575756"/>
</linearGradient>
<linearGradient id="paint93_linear" x1="3.33074" y1="11.0979" x2="3.19203" y2="11.178" gradientUnits="userSpaceOnUse">
<stop stop-color="#DADADA"/>
<stop offset="0.0388994" stop-color="#D1D1D1"/>
<stop offset="0.2061" stop-color="#ACACAC"/>
<stop offset="0.3543" stop-color="#908F8F"/>
<stop offset="0.4765" stop-color="#7D7D7D"/>
<stop offset="0.5576" stop-color="#767675"/>
<stop offset="0.6912" stop-color="#666665"/>
<stop offset="0.8428" stop-color="#5B5B5A"/>
<stop offset="1" stop-color="#575756"/>
</linearGradient>
<linearGradient id="paint94_linear" x1="3.62945" y1="21.1561" x2="9.88068" y2="13.4365" gradientUnits="userSpaceOnUse">
<stop stop-color="#B2B2B2"/>
<stop offset="0.1057" stop-color="#B0AFAE"/>
<stop offset="0.2375" stop-color="#AAA6A3"/>
<stop offset="0.3833" stop-color="#A09890"/>
<stop offset="0.5392" stop-color="#948576"/>
<stop offset="0.7031" stop-color="#846D57"/>
<stop offset="0.8711" stop-color="#735334"/>
<stop offset="1" stop-color="#653F1B"/>
</linearGradient>
<linearGradient id="paint95_linear" x1="6.87808" y1="21.225" x2="7.52743" y2="21.399" gradientUnits="userSpaceOnUse">
<stop stop-color="#777776"/>
<stop offset="0.3255" stop-color="#656564"/>
<stop offset="0.6901" stop-color="#575756"/>
<stop offset="1" stop-color="#525251"/>
</linearGradient>
<linearGradient id="paint96_linear" x1="7.22542" y1="21.6161" x2="7.18229" y2="20.9993" gradientUnits="userSpaceOnUse">
<stop/>
<stop offset="0.4694" stop-color="#979796"/>
<stop offset="0.8352" stop-color="#DDDDDD"/>
<stop offset="1" stop-color="#F6F6F6"/>
</linearGradient>
<linearGradient id="paint97_linear" x1="7.12019" y1="21.3194" x2="7.28759" y2="21.2959" gradientUnits="userSpaceOnUse">
<stop stop-color="white"/>
<stop offset="0.0645142" stop-color="#E3E3E3"/>
<stop offset="0.161" stop-color="#BDBDBD"/>
<stop offset="0.2622" stop-color="#989898"/>
<stop offset="0.3662" stop-color="#777776"/>
<stop offset="0.4739" stop-color="#5A5A59"/>
<stop offset="0.5863" stop-color="#414140"/>
<stop offset="0.7054" stop-color="#292828"/>
<stop offset="0.8361" stop-color="#0D0D0C"/>
<stop offset="1"/>
</linearGradient>
<linearGradient id="paint98_linear" x1="5.47521" y1="12.7063" x2="6.12423" y2="12.8802" gradientUnits="userSpaceOnUse">
<stop stop-color="#777776"/>
<stop offset="0.3255" stop-color="#656564"/>
<stop offset="0.6901" stop-color="#575756"/>
<stop offset="1" stop-color="#525251"/>
</linearGradient>
<linearGradient id="paint99_linear" x1="5.82258" y1="13.0973" x2="5.77945" y2="12.4805" gradientUnits="userSpaceOnUse">
<stop/>
<stop offset="0.4694" stop-color="#979796"/>
<stop offset="0.8352" stop-color="#DDDDDD"/>
<stop offset="1" stop-color="#F6F6F6"/>
</linearGradient>
<linearGradient id="paint100_linear" x1="5.78922" y1="12.7052" x2="5.81274" y2="12.8726" gradientUnits="userSpaceOnUse">
<stop/>
<stop offset="0.1639" stop-color="#0D0D0C"/>
<stop offset="0.2946" stop-color="#292828"/>
<stop offset="0.4137" stop-color="#414140"/>
<stop offset="0.5261" stop-color="#5A5A59"/>
<stop offset="0.6338" stop-color="#777776"/>
<stop offset="0.7378" stop-color="#989898"/>
<stop offset="0.839" stop-color="#BDBDBD"/>
<stop offset="0.9355" stop-color="#E3E3E3"/>
<stop offset="1" stop-color="white"/>
</linearGradient>
<linearGradient id="paint101_linear" x1="3.45509" y1="13.305" x2="2.85459" y2="12.9914" gradientUnits="userSpaceOnUse">
<stop stop-color="#706F6F"/>
<stop offset="0.0968673" stop-color="#797978"/>
<stop offset="0.2607" stop-color="#919190"/>
<stop offset="0.4701" stop-color="#B5B4B4"/>
<stop offset="0.5697" stop-color="#C6C6C6"/>
<stop offset="0.6793" stop-color="#B6B5B5"/>
<stop offset="0.9056" stop-color="#878786"/>
<stop offset="1" stop-color="#706F6F"/>
</linearGradient>
</defs>
</svg>
