<svg width="24" height="24" viewBox="0 0 24 24" fill="none" xmlns="http://www.w3.org/2000/svg">
<g clip-path="url(#clip0)">
<path d="M12 24C18.6274 24 24 18.6274 24 12C24 5.37258 18.6274 0 12 0C5.37258 0 0 5.37258 0 12C0 18.6274 5.37258 24 12 24Z" fill="#01F47A"/>
<path fill-rule="evenodd" clip-rule="evenodd" d="M12 24C5.37278 24 0 18.6272 0 12H24C24 18.6272 18.6272 24 12 24Z" fill="#00C83E"/>
<path d="M12 23.2189C18.196 23.2189 23.2189 18.196 23.2189 12C23.2189 5.80396 18.196 0.781067 12 0.781067C5.80396 0.781067 0.781067 5.80396 0.781067 12C0.781067 18.196 5.80396 23.2189 12 23.2189Z" fill="url(#paint0_linear)"/>
<path fill-rule="evenodd" clip-rule="evenodd" d="M12 1.04142C5.84616 1.04142 0.85799 5.99409 0.786984 12.1302C0.786984 12.0888 0.781067 12.0414 0.781067 12C0.781067 5.80474 5.80474 0.781067 12 0.781067C18.1953 0.781067 23.2189 5.80474 23.2189 12C23.2189 12.0414 23.2189 12.0888 23.213 12.1302C23.142 5.99409 18.1479 1.04142 12 1.04142Z" fill="white"/>
<path d="M18.456 18.4555C22.0216 14.8899 22.0216 9.10909 18.456 5.54356C14.8905 1.97804 9.10967 1.97804 5.54414 5.54356C1.97862 9.10909 1.97862 14.8899 5.54414 18.4555C9.10967 22.021 14.8905 22.021 18.456 18.4555Z" fill="#00C83E"/>
<path fill-rule="evenodd" clip-rule="evenodd" d="M12.0001 21.1302C6.95863 21.1302 2.86987 17.0414 2.86987 12H21.1302C21.1302 17.0414 17.0415 21.1302 12.0001 21.1302Z" fill="#13FFAC"/>
<path d="M12.0001 20.3491C16.6111 20.3491 20.3492 16.6111 20.3492 12C20.3492 7.38892 16.6111 3.65089 12.0001 3.65089C7.38897 3.65089 3.65094 7.38892 3.65094 12C3.65094 16.6111 7.38897 20.3491 12.0001 20.3491Z" fill="url(#paint1_linear)"/>
<g opacity="0.7" clip-path="url(#clip1)">
<path d="M7.8023 12.5801L7.65631 12.7261H8.51401L8.66 12.5801H7.8023Z" fill="#00B331"/>
<path d="M7.8023 10.8465L7.65631 10.7005V12.7261L7.8023 12.5801V10.8465Z" fill="url(#paint2_linear)"/>
<path d="M7.8023 13.894H8.66L8.51401 13.748H7.65631L7.8023 13.894Z" fill="url(#paint3_linear)"/>
<path d="M8.65997 13.894V12.5801L8.51398 12.7261V13.748L8.65997 13.894Z" fill="url(#paint4_linear)"/>
<path d="M8.65997 10.8465V5.49958L8.51398 5.35359V10.7005L8.65997 10.8465Z" fill="url(#paint5_linear)"/>
<path d="M10.9229 10.8465L11.0688 10.7005V7.4887L10.9229 7.36096V10.8465Z" fill="#00B331"/>
<path d="M7.8023 13.894L7.65631 13.748V15.6642L7.8023 15.5182V13.894Z" fill="url(#paint6_linear)"/>
<path d="M11.3243 7.4887C11.8535 7.4887 12.255 7.4887 12.5652 7.50695C12.8755 7.50695 13.0762 7.5252 13.1857 7.54345C13.6237 7.5982 13.9339 7.76244 14.1529 8.03617C14.3719 8.29165 14.4814 8.63838 14.4814 9.07635C14.4814 9.45958 14.3901 9.76981 14.2259 10.0253C14.0616 10.2808 13.8244 10.4633 13.5142 10.5545C13.2222 10.6458 12.4558 10.7005 11.2331 10.7005H11.0688L10.9229 10.8465H11.2148C12.474 10.8465 13.2405 10.7917 13.5507 10.6822C13.8974 10.5728 14.1529 10.372 14.3354 10.0983C14.5179 9.82455 14.6091 9.47783 14.6091 9.07635C14.6091 8.62013 14.4814 8.23691 14.2441 7.94492C14.0069 7.65294 13.6419 7.47045 13.1857 7.41571C13.0762 7.39746 12.8755 7.39746 12.5652 7.37921C12.255 7.37921 11.8353 7.36096 11.3061 7.36096H10.9046L11.0506 7.50695H11.3243V7.4887Z" fill="url(#paint7_linear)"/>
<path d="M7.8023 10.8465H8.66L8.51401 10.7005H7.65631L7.8023 10.8465Z" fill="url(#paint8_linear)"/>
<path d="M14.3536 13.894L14.4996 13.748H11.0688L10.9229 13.894H14.3536Z" fill="url(#paint9_linear)"/>
<path d="M10.9229 15.5182L11.0688 15.6642H14.4996L14.3536 15.5182H10.9229Z" fill="url(#paint10_linear)"/>
<path d="M14.3535 13.894V15.5182L14.4995 15.6642V13.748L14.3535 13.894Z" fill="#00B331"/>
<path d="M10.9229 12.5801V13.894L11.0688 13.748V12.7261L10.9229 12.5801Z" fill="#00B331"/>
<path d="M16.58 6.90474C16.215 6.32078 15.7223 5.91931 15.1018 5.70032C14.4996 5.46309 13.5142 5.35359 12.1637 5.35359H8.51398L8.65997 5.49958H12.1637C13.4959 5.49958 14.4631 5.60908 15.0471 5.82806C15.631 6.04705 16.1055 6.43027 16.4522 6.97774C16.7989 7.5252 16.9814 8.16391 16.9814 8.89387C16.9814 9.49608 16.9084 10.007 16.7624 10.4085C16.6165 10.81 16.4157 11.1567 16.1602 11.4305C15.9048 11.7042 15.6128 11.9049 15.266 12.0692C14.9193 12.2334 14.5361 12.3429 14.1164 12.4159C13.6966 12.4889 13.2587 12.5436 12.8025 12.5619C12.3462 12.5801 11.8718 12.5801 11.3973 12.5801H10.9046L11.0506 12.7261H11.3973C11.8718 12.7261 12.328 12.7261 12.8025 12.7079C13.2587 12.6896 13.7149 12.6349 14.1346 12.5619C14.5543 12.4889 14.9558 12.3611 15.3208 12.1969C15.6858 12.0327 15.996 11.8137 16.2697 11.5399C16.5252 11.2662 16.7442 10.9012 16.8902 10.4815C17.0362 10.0618 17.1274 9.53257 17.1274 8.91211C17.1274 8.14566 16.9449 7.4887 16.58 6.90474Z" fill="url(#paint11_linear)"/>
<path d="M10.9229 17.854L11.0688 18V15.6642L10.9229 15.5182V17.854Z" fill="#00B331"/>
<path d="M8.65997 15.5182L8.51398 15.6642V18L8.65997 17.854V15.5182Z" fill="url(#paint12_linear)"/>
<path d="M10.9228 17.854H8.65997L8.51398 18H11.0688L10.9228 17.854Z" fill="url(#paint13_linear)"/>
<path d="M7.8023 15.5182L7.65631 15.6642H8.51401L8.66 15.5182H7.8023Z" fill="url(#paint14_linear)"/>
<path d="M7.9483 12.4341L7.80231 12.5801H8.66L8.80599 12.4341H7.9483Z" fill="url(#paint15_linear)"/>
<path d="M7.9483 10.9925L7.80231 10.8465V12.5801L7.9483 12.4341V10.9925Z" fill="url(#paint16_linear)"/>
<path d="M8.80596 12.4341L8.65997 12.5801V13.894L8.80596 14.04V12.4341Z" fill="#00B331"/>
<path d="M13.6054 10.81C13.9704 10.6822 14.2624 10.4633 14.4631 10.1713C14.6639 9.87929 14.7733 9.49607 14.7733 9.0581C14.7733 8.56538 14.6456 8.14566 14.3719 7.83543C14.1164 7.5252 13.7149 7.32446 13.2222 7.25146H13.2039C13.0945 7.23321 12.8755 7.23321 12.5652 7.21497C12.255 7.21497 11.8353 7.19672 11.3061 7.19672H10.7586L10.9046 7.34271H11.3061C11.8353 7.34271 12.255 7.34271 12.5652 7.36096C12.8755 7.36096 13.0762 7.3792 13.1857 7.39745C13.6419 7.47045 14.0069 7.65294 14.2441 7.92667C14.4814 8.21865 14.6091 8.60188 14.6091 9.0581C14.6091 9.45957 14.5179 9.8063 14.3354 10.08C14.1529 10.3538 13.8792 10.5545 13.5507 10.664C13.2222 10.7735 12.4557 10.8282 11.2148 10.8282H10.9228L10.7769 10.9742H11.2148C12.5105 10.9925 13.2769 10.9377 13.6054 10.81Z" fill="url(#paint17_linear)"/>
<path d="M10.9228 10.8465V7.36096L10.795 7.21497V10.9925L10.9228 10.8465Z" fill="white"/>
<path d="M8.80599 10.9925L8.66 10.8465H7.80231L7.9483 10.9925H8.80599Z" fill="url(#paint18_linear)"/>
<path d="M8.80599 14.04L8.66 13.894H7.80231L7.9483 14.04H8.80599Z" fill="url(#paint19_linear)"/>
<path d="M14.2076 15.3904L14.3536 15.5182V13.894L14.2076 14.04V15.3904Z" fill="white"/>
<path d="M10.795 14.04L10.9228 13.894V12.5801L10.795 12.4341V14.04Z" fill="url(#paint20_linear)"/>
<path d="M14.2076 14.04L14.3536 13.894H10.9228L10.795 14.04H14.2076Z" fill="#00B331"/>
<path d="M8.65997 10.8465L8.80596 10.9925V5.64558L8.65997 5.49959V10.8465Z" fill="#00B331"/>
<path d="M10.795 15.3905L10.9228 15.5182H14.3536L14.2076 15.3905H10.795Z" fill="url(#paint21_linear)"/>
<path d="M12.1637 5.64556C13.4777 5.64556 14.4449 5.75506 15.0106 5.97404C15.558 6.17478 16.0143 6.53976 16.3427 7.06897C16.6712 7.59819 16.8537 8.21865 16.8537 8.91211C16.8537 9.49607 16.7807 9.98879 16.6347 10.3903C16.4887 10.7735 16.3062 11.102 16.069 11.3574C15.8318 11.6129 15.5398 11.8137 15.2113 11.9597C14.8646 12.1057 14.4996 12.2334 14.0981 12.3064C13.6784 12.3794 13.2587 12.4341 12.8025 12.4524C12.3462 12.4706 11.8718 12.4706 11.4155 12.4706H10.7951L10.9411 12.6166H11.4338C11.9083 12.6166 12.3645 12.6166 12.839 12.5984C13.2952 12.5801 13.7331 12.5254 14.1529 12.4524C14.5726 12.3794 14.9558 12.2516 15.3025 12.1057C15.6493 11.9597 15.9413 11.7407 16.1967 11.4669C16.4522 11.1932 16.653 10.8647 16.799 10.445C16.9449 10.0253 17.0179 9.51432 17.0179 8.93035C17.0179 8.2004 16.8354 7.56169 16.4887 7.01423C16.142 6.46676 15.6675 6.08354 15.0836 5.86455C14.4996 5.64556 13.5324 5.53607 12.2002 5.53607H8.65997L8.80596 5.68206H12.1637V5.64556Z" fill="#00B331"/>
<path d="M8.80596 17.7263L8.65997 17.854H10.9228L10.7951 17.7263H8.80596Z" fill="white"/>
<path d="M7.9483 14.04L7.80231 13.894V15.5182L7.9483 15.3904V14.04Z" fill="url(#paint22_linear)"/>
<path d="M7.9483 15.3905L7.80231 15.5182H8.66L8.80599 15.3905H7.9483Z" fill="url(#paint23_linear)"/>
<path d="M8.80596 15.3905L8.65997 15.5182V17.854L8.80596 17.7263V15.3905Z" fill="#00B331"/>
<path d="M10.795 17.7263L10.9228 17.854V15.5182L10.795 15.3905V17.7263Z" fill="url(#paint24_linear)"/>
<path d="M7.94824 12.4341H8.80594V14.0218H7.94824V15.3722H8.80594V17.708H10.7951V15.3904H14.2258V14.04H10.7951V12.4524H11.4155C11.89 12.4524 12.3462 12.4524 12.8024 12.4341C13.2404 12.4159 13.6784 12.3794 14.0981 12.2881C14.4996 12.2151 14.8828 12.1056 15.2113 11.9414C15.5398 11.7954 15.8317 11.5947 16.069 11.3392C16.3062 11.0837 16.4887 10.7552 16.6347 10.372C16.7807 9.97053 16.8537 9.47781 16.8537 8.89384C16.8537 8.20039 16.6894 7.57993 16.3427 7.05071C15.996 6.5215 15.558 6.15652 15.0105 5.95578C14.4448 5.7368 13.4776 5.6273 12.1637 5.6273H8.80594V10.9742H7.94824V12.4341ZM10.7951 7.21495H11.3425C11.8717 7.21495 12.2915 7.21495 12.6017 7.2332C12.9119 7.2332 13.1309 7.25145 13.2404 7.2697H13.2587C13.7514 7.34269 14.1528 7.54343 14.4083 7.85366C14.6638 8.16389 14.8098 8.58361 14.8098 9.07633C14.8098 9.51431 14.7003 9.87928 14.4996 10.1895C14.2988 10.4997 14.0069 10.7187 13.6419 10.8282C13.2951 10.9377 12.5469 10.9925 11.2513 10.9925H10.8133V7.21495H10.7951Z" fill="url(#paint25_linear)"/>
<path d="M10.9229 10.8465C11.3608 10.8283 11.817 10.81 12.255 10.7918C12.474 10.7735 12.693 10.7735 12.912 10.737C13.0215 10.7188 13.131 10.7188 13.2405 10.7005C13.3499 10.6823 13.4594 10.664 13.5507 10.6275C13.7514 10.5545 13.9522 10.445 14.0981 10.299C14.1711 10.226 14.2441 10.1348 14.2989 10.0618C14.3536 9.97056 14.4084 9.87931 14.4449 9.76982C14.4814 9.66033 14.5179 9.56908 14.5361 9.45959C14.5544 9.3501 14.5726 9.2406 14.5726 9.13111C14.5909 8.91212 14.5726 8.69314 14.5179 8.47415C14.5909 8.69314 14.6091 8.91212 14.6091 9.13111C14.6091 9.3501 14.5726 9.58733 14.4996 9.78807C14.4266 10.0071 14.2989 10.1895 14.1346 10.3538C13.9704 10.518 13.7697 10.6275 13.5507 10.7005C13.4412 10.737 13.3317 10.7553 13.2222 10.7735C13.1127 10.7918 13.0032 10.81 12.8937 10.81C12.6747 10.8283 12.4558 10.8465 12.2185 10.8465C11.817 10.8647 11.3791 10.8647 10.9229 10.8465Z" fill="white"/>
<path d="M8.66 10.8465C8.587 10.8465 8.51401 10.8647 8.44101 10.8647C8.36802 10.8647 8.29502 10.8647 8.22203 10.883C8.14903 10.883 8.07604 10.883 8.00304 10.883C7.93005 10.883 7.85705 10.883 7.78406 10.883L7.82055 10.8465C7.82055 10.9925 7.82055 11.1385 7.82055 11.2845C7.82055 11.4305 7.82055 11.5764 7.82055 11.7224C7.82055 11.7954 7.82055 11.8684 7.82055 11.9414C7.82055 12.0144 7.82055 12.0874 7.82055 12.1604C7.82055 12.3064 7.80231 12.4524 7.78406 12.5984C7.76581 12.4524 7.76581 12.3064 7.74756 12.1604C7.74756 12.0874 7.74756 12.0144 7.74756 11.9414C7.74756 11.8684 7.74756 11.7954 7.74756 11.7224C7.74756 11.5764 7.74756 11.4305 7.74756 11.2845C7.74756 11.1385 7.74756 10.9925 7.74756 10.8465V10.81H7.78406C7.85705 10.81 7.93005 10.81 8.00304 10.81C8.07604 10.81 8.14903 10.81 8.22203 10.81C8.29502 10.81 8.36802 10.81 8.44101 10.8282C8.51401 10.8282 8.587 10.8282 8.66 10.8465Z" fill="white"/>
<path d="M10.9229 15.5182C11.2148 15.5 11.4886 15.4817 11.7805 15.4817C11.9265 15.4817 12.0725 15.4817 12.2003 15.4817H12.62H13.0397C13.1857 15.4817 13.3317 15.4817 13.4594 15.4817C13.7514 15.4817 14.0252 15.5 14.3171 15.5182C14.0252 15.5365 13.7514 15.5547 13.4594 15.5547C13.3134 15.5547 13.1675 15.5547 13.0397 15.5547H12.62H12.2003C12.0543 15.5547 11.9083 15.5547 11.7805 15.5547C11.5068 15.5547 11.2148 15.5365 10.9229 15.5182Z" fill="white"/>
<path d="M16.7077 10.591C16.6347 10.7917 16.5434 10.9925 16.4157 11.175C16.3609 11.2662 16.2879 11.3575 16.2149 11.4304C16.1419 11.5034 16.0689 11.5947 15.9777 11.6677C15.8135 11.8137 15.631 11.9414 15.4485 12.0327C15.3572 12.0874 15.2478 12.1239 15.1565 12.1604C15.047 12.1969 14.9558 12.2334 14.8463 12.2699C14.6455 12.3429 14.4266 12.3976 14.2076 12.4341C13.9886 12.4706 13.7878 12.5071 13.5689 12.5254C13.3499 12.5436 13.1309 12.5619 12.9302 12.5619C12.8207 12.5619 12.7112 12.5619 12.6017 12.5619C12.4922 12.5619 12.3827 12.5619 12.2732 12.5619C12.3827 12.5619 12.4922 12.5436 12.6017 12.5436C12.7112 12.5436 12.8207 12.5254 12.9302 12.5254C13.1491 12.5071 13.3499 12.4889 13.5689 12.4524C13.9886 12.3976 14.4083 12.3246 14.828 12.1787C15.0288 12.1057 15.2295 12.0327 15.412 11.9414C15.5032 11.8867 15.5945 11.8502 15.6857 11.7772C15.777 11.7224 15.8682 11.6494 15.9412 11.5947C16.1054 11.4669 16.2514 11.3027 16.3792 11.1385C16.5069 10.9742 16.5982 10.7917 16.7077 10.591Z" fill="white"/>
<path d="M8.65997 5.49959H8.93371H9.20744L9.7549 5.48134C10.1199 5.48134 10.4849 5.46309 10.8498 5.46309C11.2148 5.46309 11.5798 5.46309 11.9448 5.46309C12.3097 5.46309 12.6747 5.46309 13.0397 5.48134C13.1309 5.48134 13.2222 5.49959 13.3134 5.49959C13.4047 5.49959 13.4959 5.51784 13.5872 5.51784C13.7696 5.53608 13.9521 5.55433 14.1346 5.59083C14.3171 5.62733 14.4996 5.64558 14.6821 5.70032C14.7186 5.71857 14.7733 5.71857 14.8098 5.73682C14.8463 5.75507 14.9011 5.75507 14.9376 5.77332C14.9741 5.79157 15.0288 5.80982 15.0653 5.82807C15.1018 5.84631 15.1566 5.86456 15.1931 5.88281C15.3573 5.95581 15.5215 6.04705 15.6675 6.15654C15.8135 6.26604 15.9595 6.39378 16.0872 6.52152C16.215 6.64926 16.3245 6.79525 16.4157 6.95949C16.507 7.10548 16.5982 7.26972 16.6712 7.45221C16.507 7.12373 16.3062 6.8135 16.0507 6.55802C15.923 6.43028 15.777 6.32078 15.631 6.21129C15.485 6.1018 15.3208 6.0288 15.1566 5.95581C14.8281 5.80982 14.4631 5.73682 14.1164 5.70032C13.9339 5.68207 13.7514 5.64558 13.5689 5.64558C13.4777 5.64558 13.3864 5.62733 13.2952 5.62733C13.2039 5.62733 13.1127 5.60908 13.0214 5.60908C12.9302 5.60908 12.839 5.60908 12.7477 5.59083C12.6565 5.59083 12.5652 5.59083 12.474 5.59083C12.2915 5.59083 12.109 5.59083 11.9265 5.59083C11.5615 5.59083 11.1966 5.59083 10.8316 5.59083C10.4666 5.59083 10.1016 5.59083 9.73665 5.57258L9.18919 5.55433H8.91546L8.65997 5.49959Z" fill="white"/>
<path d="M7.80231 15.5182C7.78406 15.3904 7.78406 15.2445 7.76581 15.1167C7.76581 15.0437 7.76581 14.989 7.76581 14.916C7.76581 14.843 7.76581 14.7882 7.76581 14.7152C7.76581 14.5875 7.76581 14.4415 7.76581 14.3138V14.113C7.76581 14.04 7.76581 13.9853 7.76581 13.9123V13.8758H7.80231C7.8753 13.8758 7.9483 13.8758 8.02129 13.8758C8.09429 13.8758 8.16728 13.8758 8.24028 13.8758C8.31327 13.8758 8.38627 13.8758 8.45926 13.894C8.53226 13.894 8.60525 13.9123 8.67825 13.9123C8.60525 13.9123 8.53226 13.9305 8.45926 13.9305C8.38627 13.9305 8.31327 13.9305 8.24028 13.9488C8.16728 13.9488 8.09429 13.9488 8.02129 13.9488C7.9483 13.9488 7.8753 13.9488 7.80231 13.9488L7.8388 13.9123C7.8388 13.9853 7.8388 14.04 7.8388 14.113V14.3138C7.8388 14.4415 7.8388 14.5875 7.8388 14.7152C7.8388 14.7882 7.8388 14.843 7.8388 14.916C7.8388 14.989 7.8388 15.0437 7.8388 15.1167C7.82055 15.2445 7.82055 15.3904 7.80231 15.5182Z" fill="white"/>
</g>
</g>
<defs>
<linearGradient id="paint0_linear" x1="11.9995" y1="0.782582" x2="11.9995" y2="23.2165" gradientUnits="userSpaceOnUse">
<stop stop-color="#13FFAC"/>
<stop offset="1" stop-color="#00EC63"/>
</linearGradient>
<linearGradient id="paint1_linear" x1="11.9996" y1="3.65203" x2="11.9996" y2="20.347" gradientUnits="userSpaceOnUse">
<stop stop-color="#0AC25A"/>
<stop offset="0.9961" stop-color="#007329"/>
</linearGradient>
<linearGradient id="paint2_linear" x1="7.7293" y1="10.7006" x2="7.7293" y2="12.7258" gradientUnits="userSpaceOnUse">
<stop stop-color="#0AC25A"/>
<stop offset="0.9961" stop-color="#007329"/>
</linearGradient>
<linearGradient id="paint3_linear" x1="8.15797" y1="13.748" x2="8.15797" y2="13.894" gradientUnits="userSpaceOnUse">
<stop stop-color="#0FFFA4"/>
<stop offset="0.5618" stop-color="#06FC8C"/>
<stop offset="1" stop-color="#01F475"/>
</linearGradient>
<linearGradient id="paint4_linear" x1="8.58697" y1="12.5802" x2="8.58697" y2="13.8939" gradientUnits="userSpaceOnUse">
<stop stop-color="#0AC25A"/>
<stop offset="0.9961" stop-color="#007329"/>
</linearGradient>
<linearGradient id="paint5_linear" x1="8.58694" y1="5.3536" x2="8.58694" y2="10.845" gradientUnits="userSpaceOnUse">
<stop stop-color="#0FFFA4"/>
<stop offset="0.5618" stop-color="#06FC8C"/>
<stop offset="1" stop-color="#01F475"/>
</linearGradient>
<linearGradient id="paint6_linear" x1="7.72928" y1="13.748" x2="7.72928" y2="15.6637" gradientUnits="userSpaceOnUse">
<stop stop-color="#0FFFA4"/>
<stop offset="0.5618" stop-color="#06FC8C"/>
<stop offset="1" stop-color="#01F475"/>
</linearGradient>
<linearGradient id="paint7_linear" x1="12.7567" y1="7.3612" x2="12.7567" y2="10.846" gradientUnits="userSpaceOnUse">
<stop stop-color="#0AC25A"/>
<stop offset="0.9961" stop-color="#007329"/>
</linearGradient>
<linearGradient id="paint8_linear" x1="8.15797" y1="10.7005" x2="8.15797" y2="10.8464" gradientUnits="userSpaceOnUse">
<stop stop-color="#0FFFA4"/>
<stop offset="0.5618" stop-color="#06FC8C"/>
<stop offset="1" stop-color="#01F475"/>
</linearGradient>
<linearGradient id="paint9_linear" x1="12.7106" y1="13.748" x2="12.7106" y2="13.894" gradientUnits="userSpaceOnUse">
<stop stop-color="#0FFFA4"/>
<stop offset="0.5618" stop-color="#06FC8C"/>
<stop offset="1" stop-color="#01F475"/>
</linearGradient>
<linearGradient id="paint10_linear" x1="12.7111" y1="15.5182" x2="12.7111" y2="15.6642" gradientUnits="userSpaceOnUse">
<stop stop-color="#0AC25A"/>
<stop offset="0.9961" stop-color="#007329"/>
</linearGradient>
<linearGradient id="paint11_linear" x1="12.8204" y1="5.35409" x2="12.8204" y2="12.7252" gradientUnits="userSpaceOnUse">
<stop stop-color="#0AC25A"/>
<stop offset="0.9961" stop-color="#007329"/>
</linearGradient>
<linearGradient id="paint12_linear" x1="8.58694" y1="15.5182" x2="8.58694" y2="17.9994" gradientUnits="userSpaceOnUse">
<stop stop-color="#0FFFA4"/>
<stop offset="0.5618" stop-color="#06FC8C"/>
<stop offset="1" stop-color="#01F475"/>
</linearGradient>
<linearGradient id="paint13_linear" x1="9.79132" y1="17.854" x2="9.79132" y2="18" gradientUnits="userSpaceOnUse">
<stop stop-color="#0AC25A"/>
<stop offset="0.9961" stop-color="#007329"/>
</linearGradient>
<linearGradient id="paint14_linear" x1="8.15797" y1="15.5182" x2="8.15797" y2="15.6641" gradientUnits="userSpaceOnUse">
<stop stop-color="#0FFFA4"/>
<stop offset="0.5618" stop-color="#06FC8C"/>
<stop offset="1" stop-color="#01F475"/>
</linearGradient>
<linearGradient id="paint15_linear" x1="8.30412" y1="12.4341" x2="8.30412" y2="12.5801" gradientUnits="userSpaceOnUse">
<stop stop-color="#0AC25A"/>
<stop offset="0.9961" stop-color="#007329"/>
</linearGradient>
<linearGradient id="paint16_linear" x1="7.8753" y1="10.8466" x2="7.8753" y2="12.5799" gradientUnits="userSpaceOnUse">
<stop stop-color="#0AC25A"/>
<stop offset="0.9961" stop-color="#007329"/>
</linearGradient>
<linearGradient id="paint17_linear" x1="12.7652" y1="7.19672" x2="12.7652" y2="10.9766" gradientUnits="userSpaceOnUse">
<stop stop-color="#0FFFA4"/>
<stop offset="0.5618" stop-color="#06FC8C"/>
<stop offset="1" stop-color="#01F475"/>
</linearGradient>
<linearGradient id="paint18_linear" x1="8.30412" y1="10.8465" x2="8.30412" y2="10.9925" gradientUnits="userSpaceOnUse">
<stop stop-color="#0AC25A"/>
<stop offset="0.9961" stop-color="#007329"/>
</linearGradient>
<linearGradient id="paint19_linear" x1="8.30412" y1="13.8941" x2="8.30412" y2="14.04" gradientUnits="userSpaceOnUse">
<stop stop-color="#0AC25A"/>
<stop offset="0.9961" stop-color="#007329"/>
</linearGradient>
<linearGradient id="paint20_linear" x1="10.8589" y1="12.4341" x2="10.8589" y2="14.0396" gradientUnits="userSpaceOnUse">
<stop stop-color="#0FFFA4"/>
<stop offset="0.5618" stop-color="#06FC8C"/>
<stop offset="1" stop-color="#01F475"/>
</linearGradient>
<linearGradient id="paint21_linear" x1="12.5742" y1="15.3905" x2="12.5742" y2="15.5182" gradientUnits="userSpaceOnUse">
<stop stop-color="#0AC25A"/>
<stop offset="0.9961" stop-color="#007329"/>
</linearGradient>
<linearGradient id="paint22_linear" x1="7.8753" y1="13.8942" x2="7.8753" y2="15.518" gradientUnits="userSpaceOnUse">
<stop stop-color="#0AC25A"/>
<stop offset="0.9961" stop-color="#007329"/>
</linearGradient>
<linearGradient id="paint23_linear" x1="8.30412" y1="15.3905" x2="8.30412" y2="15.5182" gradientUnits="userSpaceOnUse">
<stop stop-color="#0AC25A"/>
<stop offset="0.9961" stop-color="#007329"/>
</linearGradient>
<linearGradient id="paint24_linear" x1="10.8589" y1="15.3905" x2="10.8589" y2="17.8534" gradientUnits="userSpaceOnUse">
<stop stop-color="#0FFFA4"/>
<stop offset="0.5618" stop-color="#06FC8C"/>
<stop offset="1" stop-color="#01F475"/>
</linearGradient>
<linearGradient id="paint25_linear" x1="12.3993" y1="5.62733" x2="12.3993" y2="17.7048" gradientUnits="userSpaceOnUse">
<stop stop-color="#0FFFA4"/>
<stop offset="0.5618" stop-color="#06FC8C"/>
<stop offset="1" stop-color="#01F475"/>
</linearGradient>
<clipPath id="clip0">
<rect width="24" height="24" fill="white"/>
</clipPath>
<clipPath id="clip1">
<rect width="9.92736" height="13.8691" fill="white" transform="translate(7.20001 4.13089)"/>
</clipPath>
</defs>
</svg>
