<svg width="46" height="58" viewBox="0 0 46 58" fill="none" xmlns="http://www.w3.org/2000/svg">
<path d="M44.3208 1.09144C43.9102 0.836956 43.4414 0.691658 42.9589 0.669342C42.4764 0.647027 41.9962 0.748436 41.5639 0.963936L31.7039 5.8996L24.5696 1.14244C24.1043 0.832393 23.5576 0.666956 22.9985 0.666956C22.4394 0.666956 21.8927 0.832393 21.4274 1.14244L14.2959 5.8996L4.43592 0.963936C4.00374 0.747371 3.52334 0.644981 3.04042 0.666507C2.55749 0.688033 2.08811 0.832759 1.67691 1.08692C1.26571 1.34108 0.926381 1.69621 0.691193 2.11855C0.456006 2.54088 0.332786 3.01637 0.333253 3.49977V54.4998C0.333253 55.4829 0.843253 56.3924 1.67909 56.9138C2.09052 57.1651 2.55904 57.3079 3.04073 57.3287C3.52242 57.3495 4.00151 57.2477 4.43309 57.0328L14.2931 52.1028L21.4274 56.8571C21.8927 57.1671 22.4394 57.3326 22.9985 57.3326C23.5576 57.3326 24.1043 57.1671 24.5696 56.8571L31.7011 52.1028L41.5639 57.0328C41.9959 57.2492 42.476 57.3516 42.9587 57.3302C43.4414 57.3088 43.9106 57.1644 44.3217 56.9105C44.7328 56.6567 45.0722 56.302 45.3076 55.88C45.543 55.4581 45.6666 54.9829 45.6666 54.4998V3.49977C45.6666 3.01682 45.5429 2.54192 45.3073 2.12033C45.0717 1.69874 44.7321 1.34452 44.3208 1.09144ZM39.9999 49.9154L32.7664 46.2973C32.3194 46.0744 31.8214 45.9735 31.3229 46.0049C30.8244 46.0362 30.343 46.1986 29.9274 46.4758L22.9999 51.0941L16.0724 46.4758C15.6565 46.1995 15.1752 46.0375 14.6768 46.0062C14.1785 45.9748 13.6807 46.0752 13.2334 46.2973L5.99992 49.9154V8.08694L13.2334 11.6966C13.6801 11.9202 14.178 12.0217 14.6766 11.9908C15.1751 11.96 15.6567 11.7979 16.0724 11.5209L22.9999 6.90544L29.9274 11.5238C30.343 11.801 30.8246 11.9633 31.3232 11.9941C31.8219 12.025 32.3198 11.9233 32.7664 11.6994L39.9999 8.08694V49.9154Z" fill="url(#paint0_radial)"/>
<path d="M25.8333 14.833H20.1667V17.808C16.9367 18.4682 14.5 21.327 14.5 24.7497C14.5 28.654 17.6762 31.833 21.5833 31.833H24.4167C24.7924 31.833 25.1527 31.9823 25.4184 32.2479C25.6841 32.5136 25.8333 32.874 25.8333 33.2497C25.8333 33.6254 25.6841 33.9857 25.4184 34.2514C25.1527 34.5171 24.7924 34.6663 24.4167 34.6663H14.5V40.333H20.1667V43.1663H25.8333V40.1913C29.0633 39.534 31.5 36.6723 31.5 33.2497C31.5 29.3453 28.3238 26.1663 24.4167 26.1663H21.5833C21.2076 26.1663 20.8473 26.0171 20.5816 25.7514C20.3159 25.4857 20.1667 25.1254 20.1667 24.7497C20.1667 24.374 20.3159 24.0136 20.5816 23.7479C20.8473 23.4823 21.2076 23.333 21.5833 23.333H31.5V17.6663H25.8333V14.833Z" fill="url(#paint1_radial)"/>
<defs>
<radialGradient id="paint0_radial" cx="0" cy="0" r="1" gradientUnits="userSpaceOnUse" gradientTransform="translate(22.9999 28.9984) rotate(90) scale(28.3347 22.6667)">
<stop stop-color="#FF8000"/>
<stop offset="1" stop-color="#FF4A00"/>
</radialGradient>
<radialGradient id="paint1_radial" cx="0" cy="0" r="1" gradientUnits="userSpaceOnUse" gradientTransform="translate(23 28.9997) rotate(90) scale(14.1667 8.5)">
<stop stop-color="#FF8000"/>
<stop offset="1" stop-color="#FF4A00"/>
</radialGradient>
</defs>
</svg>
