<svg width="64" height="58" viewBox="0 0 64 58" fill="none" xmlns="http://www.w3.org/2000/svg">
<path d="M55.7209 49.0004C56.7262 48.0786 57.5295 46.9583 58.0801 45.7104C58.6307 44.4624 58.9166 43.1139 58.9198 41.7499C58.9198 36.2816 54.4714 31.8333 49.0031 31.8333C43.5348 31.8333 39.0864 36.2816 39.0864 41.7499C39.0864 44.6201 40.3303 47.1843 42.2853 49.0004C38.0976 50.5134 34.8364 53.4261 34.8364 57.3333H40.5031C40.5031 55.6389 44.5066 53.4884 49.0031 53.4884C53.4996 53.4884 57.5031 55.6418 57.5031 57.3333H63.1698C63.1698 53.4233 59.9086 50.5134 55.7209 49.0004ZM49.0031 37.4999C51.3463 37.4999 53.2531 39.4068 53.2531 41.7499C53.2531 44.0931 51.3463 45.9999 49.0031 45.9999C46.6599 45.9999 44.7531 44.0931 44.7531 41.7499C44.7531 39.4068 46.6599 37.4999 49.0031 37.4999Z" fill="url(#paint0_radial)"/>
<path d="M21.7209 49.0004C22.7262 48.0786 23.5295 46.9583 24.0801 45.7104C24.6307 44.4624 24.9166 43.1139 24.9198 41.7499C24.9198 36.2816 20.4714 31.8333 15.0031 31.8333C9.53476 31.8333 5.08643 36.2816 5.08643 41.7499C5.08643 44.6201 6.33026 47.1843 8.28526 49.0004C4.09759 50.5134 0.836426 53.4233 0.836426 57.3333H6.50309C6.50309 55.6389 10.5066 53.4884 15.0031 53.4884C19.4996 53.4884 23.5031 55.6418 23.5031 57.3333H29.1698C29.1698 53.4233 25.9086 50.5134 21.7209 49.0004ZM15.0031 37.4999C17.3463 37.4999 19.2531 39.4068 19.2531 41.7499C19.2531 44.0931 17.3463 45.9999 15.0031 45.9999C12.6599 45.9999 10.7531 44.0931 10.7531 41.7499C10.7531 39.4068 12.6599 37.4999 15.0031 37.4999Z" fill="url(#paint1_radial)"/>
<path d="M40.5031 26.167H46.1698C46.1698 22.257 42.9086 19.3472 38.7209 17.8342C39.7262 16.9123 40.5295 15.792 41.0801 14.5441C41.6307 13.2962 41.9166 11.9476 41.9198 10.5837C41.9198 5.11533 37.4714 0.666992 32.0031 0.666992C26.5348 0.666992 22.0864 5.11533 22.0864 10.5837C22.0864 13.4538 23.3303 16.018 25.2853 17.8342C21.0976 19.3472 17.8364 22.257 17.8364 26.167H23.5031C23.5031 24.4727 27.5066 22.3222 32.0031 22.3222C36.4996 22.3222 40.5031 24.4727 40.5031 26.167ZM32.0031 6.33366C34.3463 6.33366 36.2531 8.24049 36.2531 10.5837C36.2531 12.9268 34.3463 14.8337 32.0031 14.8337C29.6599 14.8337 27.7531 12.9268 27.7531 10.5837C27.7531 8.24049 29.6599 6.33366 32.0031 6.33366Z" fill="url(#paint2_radial)"/>
<defs>
<radialGradient id="paint0_radial" cx="0" cy="0" r="1" gradientUnits="userSpaceOnUse" gradientTransform="translate(49.0031 44.5833) rotate(90) scale(12.75 14.1667)">
<stop stop-color="#FF8000"/>
<stop offset="1" stop-color="#FF4A00"/>
</radialGradient>
<radialGradient id="paint1_radial" cx="0" cy="0" r="1" gradientUnits="userSpaceOnUse" gradientTransform="translate(15.0031 44.5833) rotate(90) scale(12.75 14.1667)">
<stop stop-color="#FF8000"/>
<stop offset="1" stop-color="#FF4A00"/>
</radialGradient>
<radialGradient id="paint2_radial" cx="0" cy="0" r="1" gradientUnits="userSpaceOnUse" gradientTransform="translate(32.0031 13.417) rotate(90) scale(12.75 14.1667)">
<stop stop-color="#FF8000"/>
<stop offset="1" stop-color="#FF4A00"/>
</radialGradient>
</defs>
</svg>
