<svg width="49" height="72" viewBox="0 0 49 72" fill="none" xmlns="http://www.w3.org/2000/svg">
<path d="M33.6697 71C35.5697 71 37.2697 69.9 38.7697 67.8C38.9697 67.5 39.6697 66.4 48.4697 34.5L48.5697 34.2V33.9C48.5697 33.8 47.9697 23.6 37.2697 20.1C27.5697 16.9 13.9697 11.2 4.56972 2L2.56972 0L1.26973 2.5C1.16973 2.7 -1.33027 7.7 0.969729 14.3C1.76973 16.5 2.86973 18.5 4.46973 20.5C4.16973 20.3 3.96972 20.2 3.86972 20.1L1.26973 18.3L0.669726 21.4C0.569726 21.7 -0.330274 26.7 3.66973 32.6L0.769732 30.8L1.36972 35.2C1.46972 36.3 2.16973 42.2 6.26973 46.9C10.0697 51.3 14.2697 53.2 15.8697 53.8L15.9697 54.2C15.9697 54.3 19.0697 63.6 28.0697 64.9L27.3697 66.2L27.9697 67.2C28.0697 67.6 30.2697 71 33.6697 71Z" fill="#BE3D00"/>
<path d="M33.6698 69.6C35.0698 69.6 36.4698 68.6999 37.5698 66.9999C38.3698 65.8999 45.0698 41.5 47.0698 34.1V33.9999V33.8999C47.0698 33.7999 46.5698 24.5999 36.6698 21.2999C26.7698 17.9999 12.9698 12.1999 3.46978 2.89995L2.76978 2.19995L2.36977 2.99995C2.26977 3.19995 0.0697744 7.69995 2.16977 13.7C3.66977 18 6.96978 22 11.9698 25.5C8.36978 24 4.66977 22.2999 2.86977 21.0999L1.96978 20.5L1.76978 21.5C1.66978 21.9 0.069768 30.5999 11.5698 38.3999C9.06977 37.2999 6.36978 35.9 3.46978 34.1L2.26978 33.2999L2.46978 34.7999C2.46978 34.8999 2.96977 41.1 7.06977 45.7C11.6698 51 16.7698 52.4999 16.7698 52.4999L17.1698 53.7999C17.1698 53.8999 20.3698 63.6 30.0698 63.6H30.1698L28.7698 66.1L28.9698 66.3999C29.0698 66.5999 30.9698 69.6 33.6698 69.6Z" fill="url(#paint0_linear)"/>
<path d="M46.4697 34C46.4697 34 46.0697 25.2 36.5697 22.1C25.9697 18.6 12.4697 12.7 3.0697 3.5C3.0697 3.5 -4.53028 18.3 21.2697 30C21.2697 30 6.86971 24.7 2.66971 21.9C2.66971 21.9 0.0697136 34.4 21.2697 42.8C21.2697 42.8 13.0697 41 3.26971 35C3.26971 35 5.96971 55.1 30.3697 53.7C30.3697 53.7 22.8697 54.5 17.8697 53.7C17.8697 53.7 21.1697 64 31.4697 63L29.6697 66.2C29.6697 66.2 33.3697 72.2 37.0697 66.8C37.7697 65.6 46.4697 34 46.4697 34Z" fill="url(#paint1_linear)"/>
<path d="M23.5697 38C23.5697 38 23.1697 43.4 27.1697 47.6C31.1697 51.8 34.8697 55.9 35.2697 58.7C35.4697 60.4 34.5697 71.1 34.5697 71.1L38.2697 69.7L39.8697 53L24.1697 38H23.5697Z" fill="#DEB859"/>
<path d="M30.6697 21.5001C32.1697 22.1001 33.1697 23.1001 32.9697 23.6001C32.7697 24.1001 31.3697 24.0001 29.8697 23.4001C28.3697 22.8001 27.3697 21.8001 27.5697 21.3001C27.8697 20.8001 29.2697 20.9001 30.6697 21.5001Z" fill="white"/>
<path d="M25.2698 19.2C25.9698 19.5 26.4698 20.2 26.1698 20.7C25.9698 21.2 25.1698 21.4 24.4698 21.1C23.7698 20.8 23.2698 20.1 23.5698 19.6C23.7698 19.1 24.5698 18.9 25.2698 19.2Z" fill="white"/>
<defs>
<linearGradient id="paint0_linear" x1="24.5158" y1="14.2789" x2="22.7431" y2="54.2571" gradientUnits="userSpaceOnUse">
<stop stop-color="#FFFF8F"/>
<stop offset="0.3127" stop-color="#FFCB58"/>
<stop offset="0.6255" stop-color="#FF9E29"/>
<stop offset="0.8645" stop-color="#FF820B"/>
<stop offset="1" stop-color="#FF7700"/>
</linearGradient>
<linearGradient id="paint1_linear" x1="-3.80315" y1="24.6528" x2="43.4678" y2="49.7676" gradientUnits="userSpaceOnUse">
<stop stop-color="#FFFF53"/>
<stop offset="0.1244" stop-color="#FFF34D"/>
<stop offset="0.351" stop-color="#FFD23D"/>
<stop offset="0.6541" stop-color="#FF9D22"/>
<stop offset="1" stop-color="#FF5900"/>
</linearGradient>
</defs>
</svg>
