<svg width="24" height="18" viewBox="0 0 24 18" fill="none" xmlns="http://www.w3.org/2000/svg">
<path d="M19.707 7.70697L23.414 3.99997L19.707 0.292969L18.293 1.70697L19.586 2.99997H17C14.006 2.99997 12.1 5.08597 10.5 7.27497C8.9 5.08597 6.994 2.99997 4 2.99997H0V4.99997H4C6.275 4.99997 7.772 6.87397 9.276 8.99997C7.772 11.126 6.275 13 4 13H0V15H4C6.994 15 8.9 12.914 10.5 10.725C12.1 12.914 14.006 15 17 15H19.586L18.293 16.293L19.707 17.707L23.414 14L19.707 10.293L18.293 11.707L19.586 13H17C14.725 13 13.228 11.126 11.724 8.99997C13.228 6.87397 14.725 4.99997 17 4.99997H19.586L18.293 6.29297L19.707 7.70697Z" fill="#3B4042"/>
</svg>
