<svg width="359" height="70" viewBox="0 0 359 70" fill="none" xmlns="http://www.w3.org/2000/svg">
<mask id="mask0" mask-type="alpha" maskUnits="userSpaceOnUse" x="0" y="0" width="359" height="70">
<mask id="path-1-inside-1" mask-type="luminance" fill="white">
<path fill-rule="evenodd" clip-rule="evenodd" d="M354.205 8.77764C356.627 10.1036 359 12.2386 359 15V65C359 67.7614 356.761 70 354 70H5C2.23858 70 0 67.7614 0 65V14.4788C0 11.9087 2.06668 9.86294 4.25254 8.51109C5.72523 7.6003 6.94387 6.31795 7.77763 4.79488C9.10361 2.37264 11.2386 0 14 0H344C346.761 0 348.896 2.37262 350.222 4.79486C351.141 6.47304 352.527 7.85897 354.205 8.77764Z"/>
</mask>
<path fill-rule="evenodd" clip-rule="evenodd" d="M354.205 8.77764C356.627 10.1036 359 12.2386 359 15V65C359 67.7614 356.761 70 354 70H5C2.23858 70 0 67.7614 0 65V14.4788C0 11.9087 2.06668 9.86294 4.25254 8.51109C5.72523 7.6003 6.94387 6.31795 7.77763 4.79488C9.10361 2.37264 11.2386 0 14 0H344C346.761 0 348.896 2.37262 350.222 4.79486C351.141 6.47304 352.527 7.85897 354.205 8.77764Z" fill="url(#paint0_linear)"/>
<path d="M350.222 4.79486L349.345 5.27504L350.222 4.79486ZM7.77763 4.79488L8.6548 5.27506L7.77763 4.79488ZM354.205 8.77764L354.685 7.90047L354.205 8.77764ZM358 15V65H360V15H358ZM354 69H5V71H354V69ZM1 65V14.4788H-1V65H1ZM4.77853 9.36158C6.39792 8.36006 7.73774 6.9503 8.6548 5.27506L6.90046 4.3147C6.15 5.68561 5.05254 6.84053 3.72655 7.66059L4.77853 9.36158ZM14 1H344V-1H14V1ZM354.685 7.90047C353.175 7.07351 351.926 5.82534 351.1 4.31468L349.345 5.27504C350.356 7.12075 351.879 8.64444 353.725 9.65481L354.685 7.90047ZM344 1C345.076 1 346.078 1.45902 346.998 2.24816C347.924 3.04166 348.719 4.13195 349.345 5.27504L351.1 4.31468C350.399 3.03552 349.465 1.72838 348.3 0.730014C347.131 -0.272711 345.685 -1 344 -1V1ZM8.6548 5.27506C9.28055 4.13198 10.0763 3.04168 11.0015 2.24817C11.9217 1.45902 12.9235 1 14 1V-1C12.3151 -1 10.8687 -0.272702 9.69952 0.730028C8.53542 1.7284 7.6007 3.03555 6.90046 4.3147L8.6548 5.27506ZM1 14.4788C1 12.4626 2.65195 10.6768 4.77853 9.36158L3.72655 7.66059C1.48142 9.04911 -1 11.3548 -1 14.4788H1ZM5 69C2.79086 69 1 67.2091 1 65H-1C-1 68.3137 1.68629 71 5 71V69ZM358 65C358 67.2091 356.209 69 354 69V71C357.314 71 360 68.3137 360 65H358ZM360 15C360 13.3151 359.273 11.8687 358.27 10.6995C357.272 9.53542 355.964 8.60071 354.685 7.90047L353.725 9.65481C354.868 10.2806 355.958 11.0763 356.752 12.0015C357.541 12.9217 358 13.9235 358 15H360Z" fill="url(#paint1_linear)" mask="url(#path-1-inside-1)"/>
</mask>
<g mask="url(#mask0)">
<mask id="mask1" mask-type="alpha" maskUnits="userSpaceOnUse" x="-2" y="-13" width="103" height="101">
<rect x="-2" y="-13" width="103" height="101" fill="#25F7B6"/>
</mask>
<g mask="url(#mask1)">
<path opacity="0.2" d="M-7.49976 -50.3625L11.4563 -34.0139L27.7301 -4.3135L46.6862 25.1621L65.6273 12.0352L84.5684 21.221L103.524 40.267L122.466 33.4338L141.407 46.4858L160.363 58.9534V103.039H-7.49976V-50.3625Z" fill="#FF525C"/>
<path d="M160.093 59.358L160.617 58.5488L141.676 46.0812L122.54 32.8944L103.644 39.6976L84.8531 20.8314L84.7781 20.8015L65.5823 11.4808L46.821 24.4728L28.1497 -4.55325L11.8309 -34.3285L11.771 -34.3885L-7.18508 -50.7222L-7.81445 -49.9879L11.0667 -33.7141L27.3255 -4.05873V-4.04375L46.5363 25.8364L65.6722 12.5896L84.2836 21.6256L103.39 40.8215L122.391 33.9733L141.137 46.8754L160.093 59.358Z" fill="#FF525C"/>
<path d="M85.1377 27.6047H84.2686V29.1182H85.1377V27.6047Z" fill="#FF525C"/>
<path d="M85.1377 24.9072H84.2686V26.4207H85.1377V24.9072Z" fill="#FF525C"/>
<path d="M85.1377 22.1951H84.2686V23.7086H85.1377V22.1951Z" fill="#FF525C"/>
<path d="M85.1377 35.7566H84.2686V37.2701H85.1377V35.7566Z" fill="#FF525C"/>
<path d="M85.1377 33.0442H84.2686V34.5577H85.1377V33.0442Z" fill="#FF525C"/>
<path d="M85.1377 30.3469H84.2686V31.8604H85.1377V30.3469Z" fill="#FF525C"/>
<path d="M85.1377 43.9084H84.2686V45.4219H85.1377V43.9084Z" fill="#FF525C"/>
<path d="M85.1377 41.1963H84.2686V42.7098H85.1377V41.1963Z" fill="#FF525C"/>
<path d="M85.1377 38.4839H84.2686V39.9974H85.1377V38.4839Z" fill="#FF525C"/>
<path d="M85.1377 52.0454H84.2686V53.5589H85.1377V52.0454Z" fill="#FF525C"/>
<path d="M85.1377 49.333H84.2686V50.8465H85.1377V49.333Z" fill="#FF525C"/>
<path d="M85.1377 46.6357H84.2686V48.1492H85.1377V46.6357Z" fill="#FF525C"/>
<path d="M85.1377 60.1973H84.2686V61.7108H85.1377V60.1973Z" fill="#FF525C"/>
<path d="M85.1377 57.4849H84.2686V58.9984H85.1377V57.4849Z" fill="#FF525C"/>
<path d="M85.1377 54.7876H84.2686V56.3011H85.1377V54.7876Z" fill="#FF525C"/>
<path d="M85.1377 68.3489H84.2686V69.8624H85.1377V68.3489Z" fill="#FF525C"/>
<path d="M85.1377 65.6367H84.2686V67.1502H85.1377V65.6367Z" fill="#FF525C"/>
<path d="M85.1377 62.9243H84.2686V64.4378H85.1377V62.9243Z" fill="#FF525C"/>
<path d="M66.1816 18.0142H65.3125V19.4228H66.1816V18.0142Z" fill="#FF525C"/>
<path d="M66.1816 15.4966H65.3125V16.9052H66.1816V15.4966Z" fill="#FF525C"/>
<path d="M66.1816 12.9941H65.3125V14.4027H66.1816V12.9941Z" fill="#FF525C"/>
<path d="M66.1816 25.5667H65.3125V26.9752H66.1816V25.5667Z" fill="#FF525C"/>
<path d="M66.1816 23.0491H65.3125V24.4577H66.1816V23.0491Z" fill="#FF525C"/>
<path d="M66.1816 20.5466H65.3125V21.9552H66.1816V20.5466Z" fill="#FF525C"/>
<path d="M66.1816 33.1191H65.3125V34.5277H66.1816V33.1191Z" fill="#FF525C"/>
<path d="M66.1816 30.6016H65.3125V32.0102H66.1816V30.6016Z" fill="#FF525C"/>
<path d="M66.1816 28.0991H65.3125V29.5077H66.1816V28.0991Z" fill="#FF525C"/>
<path d="M66.1816 40.6716H65.3125V42.0802H66.1816V40.6716Z" fill="#FF525C"/>
<path d="M66.1816 38.1541H65.3125V39.5627H66.1816V38.1541Z" fill="#FF525C"/>
<path d="M66.1816 35.6516H65.3125V37.0602H66.1816V35.6516Z" fill="#FF525C"/>
<path d="M66.1816 48.2239H65.3125V49.6325H66.1816V48.2239Z" fill="#FF525C"/>
<path d="M66.1816 45.7063H65.3125V47.1149H66.1816V45.7063Z" fill="#FF525C"/>
<path d="M66.1816 43.2039H65.3125V44.6125H66.1816V43.2039Z" fill="#FF525C"/>
<path d="M66.1816 55.7766H65.3125V57.1852H66.1816V55.7766Z" fill="#FF525C"/>
<path d="M66.1816 53.259H65.3125V54.6676H66.1816V53.259Z" fill="#FF525C"/>
<path d="M66.1816 50.7566H65.3125V52.1652H66.1816V50.7566Z" fill="#FF525C"/>
<path d="M66.1816 63.3289H65.3125V64.7375H66.1816V63.3289Z" fill="#FF525C"/>
<path d="M66.1816 60.8113H65.3125V62.2199H66.1816V60.8113Z" fill="#FF525C"/>
<path d="M66.1816 58.3088H65.3125V59.7174H66.1816V58.3088Z" fill="#FF525C"/>
<path d="M66.1816 68.3638H65.3125V69.7724H66.1816V68.3638Z" fill="#FF525C"/>
<path d="M66.1816 65.8613H65.3125V67.2699H66.1816V65.8613Z" fill="#FF525C"/>
<path d="M47.2405 31.2759H46.3713V32.7144H47.2405V31.2759Z" fill="#FF525C"/>
<path d="M47.2405 28.6985H46.3713V30.137H47.2405V28.6985Z" fill="#FF525C"/>
<path d="M47.2405 26.1211H46.3713V27.5597H47.2405V26.1211Z" fill="#FF525C"/>
<path d="M47.2405 39.0232H46.3713V40.4618H47.2405V39.0232Z" fill="#FF525C"/>
<path d="M47.2405 36.4458H46.3713V37.8844H47.2405V36.4458Z" fill="#FF525C"/>
<path d="M47.2405 33.8833H46.3713V35.3219H47.2405V33.8833Z" fill="#FF525C"/>
<path d="M47.2405 46.7856H46.3713V48.2242H47.2405V46.7856Z" fill="#FF525C"/>
<path d="M47.2405 44.1931H46.3713V45.6317H47.2405V44.1931Z" fill="#FF525C"/>
<path d="M47.2405 41.6306H46.3713V43.0692H47.2405V41.6306Z" fill="#FF525C"/>
<path d="M47.2405 54.5327H46.3713V55.9713H47.2405V54.5327Z" fill="#FF525C"/>
<path d="M47.2405 51.9553H46.3713V53.3939H47.2405V51.9553Z" fill="#FF525C"/>
<path d="M47.2405 49.3779H46.3713V50.8165H47.2405V49.3779Z" fill="#FF525C"/>
<path d="M47.2405 62.28H46.3713V63.7186H47.2405V62.28Z" fill="#FF525C"/>
<path d="M47.2405 59.7026H46.3713V61.1412H47.2405V59.7026Z" fill="#FF525C"/>
<path d="M47.2405 57.1252H46.3713V58.5638H47.2405V57.1252Z" fill="#FF525C"/>
<path d="M47.2405 67.45H46.3713V68.8885H47.2405V67.45Z" fill="#FF525C"/>
<path d="M47.2405 64.8726H46.3713V66.3111H47.2405V64.8726Z" fill="#FF525C"/>
<path d="M28.2993 1.74023H27.4302V3.16381H28.2993V1.74023Z" fill="#FF525C"/>
<path d="M28.2993 -0.807129H27.4302V0.61645H28.2993V-0.807129Z" fill="#FF525C"/>
<path d="M28.2993 9.38257H27.4302V10.8061H28.2993V9.38257Z" fill="#FF525C"/>
<path d="M28.2993 6.83521H27.4302V8.25878H28.2993V6.83521Z" fill="#FF525C"/>
<path d="M28.2993 4.30273H27.4302V5.72631H28.2993V4.30273Z" fill="#FF525C"/>
<path d="M28.2993 17.01H27.4302V18.4336H28.2993V17.01Z" fill="#FF525C"/>
<path d="M28.2993 14.4778H27.4302V15.9014H28.2993V14.4778Z" fill="#FF525C"/>
<path d="M28.2993 11.9302H27.4302V13.3538H28.2993V11.9302Z" fill="#FF525C"/>
<path d="M28.2993 24.6523H27.4302V26.0759H28.2993V24.6523Z" fill="#FF525C"/>
<path d="M28.2993 22.1199H27.4302V23.5435H28.2993V22.1199Z" fill="#FF525C"/>
<path d="M28.2993 19.5725H27.4302V20.9961H28.2993V19.5725Z" fill="#FF525C"/>
<path d="M28.2993 32.2947H27.4302V33.7183H28.2993V32.2947Z" fill="#FF525C"/>
<path d="M28.2993 29.7473H27.4302V31.1709H28.2993V29.7473Z" fill="#FF525C"/>
<path d="M28.2993 27.2148H27.4302V28.6384H28.2993V27.2148Z" fill="#FF525C"/>
<path d="M28.2993 39.937H27.4302V41.3606H28.2993V39.937Z" fill="#FF525C"/>
<path d="M28.2993 37.3896H27.4302V38.8132H28.2993V37.3896Z" fill="#FF525C"/>
<path d="M28.2993 34.8572H27.4302V36.2808H28.2993V34.8572Z" fill="#FF525C"/>
<path d="M28.2993 47.5796H27.4302V49.0032H28.2993V47.5796Z" fill="#FF525C"/>
<path d="M28.2993 45.0322H27.4302V46.4558H28.2993V45.0322Z" fill="#FF525C"/>
<path d="M28.2993 42.4998H27.4302V43.9233H28.2993V42.4998Z" fill="#FF525C"/>
<path d="M28.2993 55.2219H27.4302V56.6455H28.2993V55.2219Z" fill="#FF525C"/>
<path d="M28.2993 52.6746H27.4302V54.0981H28.2993V52.6746Z" fill="#FF525C"/>
<path d="M28.2993 50.1421H27.4302V51.5657H28.2993V50.1421Z" fill="#FF525C"/>
<path d="M28.2993 62.8643H27.4302V64.2878H28.2993V62.8643Z" fill="#FF525C"/>
<path d="M28.2993 60.3169H27.4302V61.7405H28.2993V60.3169Z" fill="#FF525C"/>
<path d="M28.2993 57.7844H27.4302V59.208H28.2993V57.7844Z" fill="#FF525C"/>
<path d="M28.2993 67.9595H27.4302V69.3831H28.2993V67.9595Z" fill="#FF525C"/>
<path d="M28.2993 65.4119H27.4302V66.8354H28.2993V65.4119Z" fill="#FF525C"/>
<path d="M12.0107 2.35474H11.1416V3.76333H12.0107V2.35474Z" fill="#FF525C"/>
<path d="M12.0107 -0.162598H11.1416V1.246H12.0107V-0.162598Z" fill="#FF525C"/>
<path d="M12.0107 9.95215H11.1416V11.3607H12.0107V9.95215Z" fill="#FF525C"/>
<path d="M12.0107 7.41943H11.1416V8.82803H12.0107V7.41943Z" fill="#FF525C"/>
<path d="M12.0107 4.9021H11.1416V6.31069H12.0107V4.9021Z" fill="#FF525C"/>
<path d="M12.0107 17.5496H11.1416V18.9582H12.0107V17.5496Z" fill="#FF525C"/>
<path d="M12.0107 15.0171H11.1416V16.4257H12.0107V15.0171Z" fill="#FF525C"/>
<path d="M12.0107 12.4995H11.1416V13.9081H12.0107V12.4995Z" fill="#FF525C"/>
<path d="M12.0107 25.147H11.1416V26.5556H12.0107V25.147Z" fill="#FF525C"/>
<path d="M12.0107 22.6145H11.1416V24.0231H12.0107V22.6145Z" fill="#FF525C"/>
<path d="M12.0107 20.0969H11.1416V21.5055H12.0107V20.0969Z" fill="#FF525C"/>
<path d="M12.0107 32.7295H11.1416V34.1381H12.0107V32.7295Z" fill="#FF525C"/>
<path d="M12.0107 30.2119H11.1416V31.6205H12.0107V30.2119Z" fill="#FF525C"/>
<path d="M12.0107 27.6794H11.1416V29.088H12.0107V27.6794Z" fill="#FF525C"/>
<path d="M12.0107 40.3269H11.1416V41.7355H12.0107V40.3269Z" fill="#FF525C"/>
<path d="M12.0107 37.7944H11.1416V39.203H12.0107V37.7944Z" fill="#FF525C"/>
<path d="M12.0107 35.2769H11.1416V36.6855H12.0107V35.2769Z" fill="#FF525C"/>
<path d="M12.0107 47.9243H11.1416V49.3329H12.0107V47.9243Z" fill="#FF525C"/>
<path d="M12.0107 45.3918H11.1416V46.8004H12.0107V45.3918Z" fill="#FF525C"/>
<path d="M12.0107 42.8743H11.1416V44.2829H12.0107V42.8743Z" fill="#FF525C"/>
<path d="M12.0107 55.5066H11.1416V56.9152H12.0107V55.5066Z" fill="#FF525C"/>
<path d="M12.0107 52.9893H11.1416V54.3979H12.0107V52.9893Z" fill="#FF525C"/>
<path d="M12.0107 50.4717H11.1416V51.8803H12.0107V50.4717Z" fill="#FF525C"/>
<path d="M12.0107 63.1042H11.1416V64.5128H12.0107V63.1042Z" fill="#FF525C"/>
<path d="M12.0107 60.5718H11.1416V61.9804H12.0107V60.5718Z" fill="#FF525C"/>
<path d="M12.0107 58.0542H11.1416V59.4628H12.0107V58.0542Z" fill="#FF525C"/>
<path d="M12.0107 68.1689H11.1416V69.5775H12.0107V68.1689Z" fill="#FF525C"/>
<path d="M12.0107 65.6516H11.1416V67.0602H12.0107V65.6516Z" fill="#FF525C"/>
<path d="M103.524 42.9044C104.978 42.9044 106.162 41.7206 106.162 40.267C106.162 38.8135 104.978 37.6296 103.524 37.6296C102.071 37.6296 100.887 38.8135 100.887 40.267C100.872 41.7206 102.071 42.9044 103.524 42.9044ZM103.524 38.5737C104.454 38.5737 105.203 39.3229 105.203 40.252C105.203 41.1811 104.454 41.9303 103.524 41.9303C102.595 41.9303 101.846 41.1811 101.846 40.252C101.846 39.3229 102.595 38.5737 103.524 38.5737Z" fill="#FF525C"/>
<path d="M86.0897 22.7516C86.9323 21.909 86.9323 20.5427 86.0897 19.7C85.247 18.8573 83.8807 18.8573 83.038 19.7C82.1953 20.5427 82.1953 21.909 83.038 22.7516C83.8807 23.5943 85.247 23.5943 86.0897 22.7516Z" fill="#FF525C"/>
<path d="M84.5683 23.8731C86.0218 23.8731 87.2056 22.6893 87.2056 21.2358C87.2056 19.7822 86.0218 18.5984 84.5683 18.5984C83.1147 18.5984 81.9309 19.7822 81.9309 21.2358C81.9309 22.6893 83.1147 23.8731 84.5683 23.8731ZM84.5683 19.5424C85.4973 19.5424 86.2466 20.2917 86.2466 21.2208C86.2466 22.1498 85.4973 22.8991 84.5683 22.8991C83.6392 22.8991 82.8899 22.1498 82.8899 21.2208C82.8899 20.3067 83.6542 19.5424 84.5683 19.5424Z" fill="#FF525C"/>
<path d="M65.6271 14.1929C66.8188 14.1929 67.7849 13.2268 67.7849 12.035C67.7849 10.8433 66.8188 9.8772 65.6271 9.8772C64.4353 9.8772 63.4692 10.8433 63.4692 12.035C63.4692 13.2268 64.4353 14.1929 65.6271 14.1929Z" fill="#FF525C"/>
<path d="M65.6271 14.6724C67.0807 14.6724 68.2645 13.4886 68.2645 12.0351C68.2645 10.5815 67.0807 9.39771 65.6271 9.39771C64.1736 9.39771 62.9897 10.5815 62.9897 12.0351C62.9897 13.4886 64.1736 14.6724 65.6271 14.6724ZM65.6271 10.3567C66.5562 10.3567 67.3054 11.106 67.3054 12.0351C67.3054 12.9641 66.5562 13.7134 65.6271 13.7134C64.698 13.7134 63.9488 12.9641 63.9488 12.0351C63.9488 11.106 64.698 10.3567 65.6271 10.3567Z" fill="#FF525C"/>
<path d="M46.6862 27.3198C47.8779 27.3198 48.844 26.3537 48.844 25.162C48.844 23.9702 47.8779 23.0042 46.6862 23.0042C45.4944 23.0042 44.5283 23.9702 44.5283 25.162C44.5283 26.3537 45.4944 27.3198 46.6862 27.3198Z" fill="#FF525C"/>
<path d="M46.6861 27.7994C48.1396 27.7994 49.3235 26.6156 49.3235 25.162C49.3235 23.7085 48.1396 22.5247 46.6861 22.5247C45.2325 22.5247 44.0487 23.7085 44.0487 25.162C44.0337 26.6156 45.2176 27.7994 46.6861 27.7994ZM46.6861 23.4837C47.6152 23.4837 48.3644 24.2329 48.3644 25.162C48.3644 26.0911 47.6152 26.8403 46.6861 26.8403C45.757 26.8403 45.0078 26.0911 45.0078 25.162C44.9928 24.2329 45.757 23.4837 46.6861 23.4837Z" fill="#FF525C"/>
</g>
</g>
<defs>
<linearGradient id="paint0_linear" x1="209" y1="49" x2="-5.99999" y2="49" gradientUnits="userSpaceOnUse">
<stop stop-color="#037264" stop-opacity="0.13"/>
<stop offset="1" stop-color="#00B277"/>
</linearGradient>
<linearGradient id="paint1_linear" x1="-2" y1="71" x2="179" y2="71" gradientUnits="userSpaceOnUse">
<stop stop-color="#28FFBC"/>
<stop offset="1" stop-color="#28FFBC" stop-opacity="0"/>
</linearGradient>
</defs>
</svg>
