<svg width="103" height="104" viewBox="0 0 103 104" fill="none" xmlns="http://www.w3.org/2000/svg">
<g clip-path="url(#clip0)">
<g opacity="0.4">
<path d="M12.2642 34.7365L12.3453 34.7702L12.3792 34.6891L12.7049 33.9111L12.7391 33.8295L12.6573 33.7957L5.79467 30.9541C7.94425 26.3723 10.7634 22.1613 14.1826 18.4081L19.455 23.6625L19.5173 23.7246L19.5795 23.6624L20.1766 23.0653L20.2389 23.003L20.1766 22.9407L14.2239 16.988L14.1597 16.9239L14.0975 16.9898L13.7899 17.3155L13.7895 17.3159C10.0196 21.3577 6.93845 25.9794 4.63671 30.9997L4.6366 31L4.45566 31.398L4.41796 31.481L4.50212 31.5159L12.2642 34.7365Z" fill="#3B4042" stroke="#3B4042" stroke-width="0.176251"/>
<path d="M22.0425 21.057L22.1048 21.1191L22.167 21.0569L22.7641 20.4598L22.8264 20.3975L22.7641 20.3352L17.5099 15.081C21.2631 11.6618 25.474 8.84266 30.0558 6.69311L32.8974 13.5558L32.9312 13.6375L33.0128 13.6033L33.7908 13.2777L33.8718 13.2437L33.8382 13.1626L30.6176 5.40055L30.5827 5.3164L30.4997 5.3541L30.1017 5.53503L30.1014 5.53515C25.081 7.83694 20.4774 10.9181 16.4177 14.6878L16.4171 14.6883L16.0915 14.9959L16.0254 15.0583L16.0898 15.1224L22.0425 21.057Z" fill="#3B4042" stroke="#3B4042" stroke-width="0.176251"/>
<path d="M8.4986 51.1178H8.58673V51.0297V50.1974V50.1093H8.4986H1.06408C1.305 45.0066 2.28638 40.0284 3.99066 35.2965L10.8352 38.1201L10.9163 38.1536L10.9501 38.0727L11.2758 37.2947L11.3099 37.2131L11.2283 37.1793L3.46624 33.9586L3.37993 33.9228L3.34924 34.0111L3.2048 34.4263C1.2838 39.5916 0.21461 45.0285 0.0152385 50.592C0.0152354 50.5921 0.0152324 50.5922 0.0152293 50.5923L-0.00284415 51.026L-0.00666893 51.1178H0.0852051H8.4986Z" fill="#3B4042" stroke="#3B4042" stroke-width="0.176251"/>
<path d="M3.36733 70.8709L3.39803 70.9591L3.48434 70.9233L11.2464 67.7027L11.328 67.6688L11.2939 67.5873L10.9682 66.8092L10.9342 66.7281L10.853 66.7619L3.99065 69.6213C2.28639 64.8717 1.30504 59.8937 1.0641 54.8089H8.4986H8.58673V54.7207V53.8704V53.7822H8.4986H0.0852051H-0.00666888L-0.00284415 53.874L0.0152385 54.308C0.214607 59.8715 1.28378 65.3084 3.22295 70.4558C3.22309 70.4561 3.22322 70.4565 3.22335 70.4568L3.36733 70.8709Z" fill="#3B4042" stroke="#3B4042" stroke-width="0.176251"/>
<path d="M36.2989 12.1445L36.3328 12.2262L36.4143 12.1921L37.1923 11.8664L37.2733 11.8325L37.2397 11.7514L34.3982 4.88889C39.1478 3.18458 44.1259 2.20321 49.2108 1.96226V9.41486V9.50299H49.2989H50.1493H50.2374V9.41486V1.00146V0.909591L50.1456 0.913416L49.7119 0.931489C49.7118 0.931492 49.7117 0.931495 49.7117 0.931498C44.1301 1.13087 38.6931 2.20004 33.5459 4.12107L33.1307 4.2655L33.0425 4.29619L33.0783 4.3825L36.2989 12.1445Z" fill="#3B4042" stroke="#3B4042" stroke-width="0.176251"/>
<path d="M14.0975 87.9102L14.1598 87.9762L14.2239 87.9119L20.1586 81.9592L20.2207 81.8969L20.1585 81.8347L19.5614 81.2376L19.4991 81.1753L19.4368 81.2376L14.1825 86.4918C10.7634 82.7386 7.94423 78.5276 5.79467 73.9459L12.6573 71.1043L12.7391 71.0705L12.7049 70.9889L12.3792 70.2108L12.3453 70.1298L12.2642 70.1635L4.50212 73.3841L4.41796 73.419L4.45566 73.502L4.6366 73.9L4.63671 73.9003C6.9385 78.9207 10.0196 83.5242 13.7894 87.584L13.7899 87.5845L14.0975 87.9102Z" fill="#3B4042" stroke="#3B4042" stroke-width="0.176251"/>
<path d="M30.4997 99.5455L30.5827 99.5832L30.6176 99.4991L33.8382 91.737L33.8718 91.6559L33.7908 91.622L33.0128 91.2963L32.9312 91.2621L32.8974 91.3439L30.0558 98.2065C25.474 96.057 21.263 93.2378 17.5097 89.8186L22.7642 84.5462L22.8263 84.4839L22.7641 84.4217L22.167 83.8246L22.1047 83.7623L22.0424 83.8246L16.0897 89.7774L16.0255 89.8415L16.0915 89.9037L16.4171 90.2113L16.4175 90.2117C20.4593 93.9816 25.0629 97.0627 30.1015 99.3645L30.1017 99.3646L30.4997 99.5455Z" fill="#3B4042" stroke="#3B4042" stroke-width="0.176251"/>
<path d="M50.1276 104.004L50.1276 104.005H50.1312H50.1493H50.2375V103.916V95.503V95.4149H50.1493H49.2989H49.2108V95.503V102.938C44.1082 102.697 39.13 101.715 34.3981 100.011L37.2217 93.1664L37.2551 93.0854L37.1743 93.0515L36.3962 92.7258L36.3147 92.6917L36.2808 92.7734L33.0602 100.535L33.0244 100.622L33.1127 100.652L33.5279 100.797C38.6931 102.718 44.1301 103.787 49.6936 103.986C49.6937 103.986 49.6938 103.986 49.6938 103.986L50.1276 104.004Z" fill="#3B4042" stroke="#3B4042" stroke-width="0.176251"/>
<path d="M53.2229 61.0171V60.929H53.1347H48.3943H48.3062V61.0171V61.4332V61.5214H48.3943H53.1347H53.2229V61.4332V61.0171Z" fill="#3B4042" stroke="#3B4042" stroke-width="0.176251"/>
<path d="M53.2229 63.3513V63.2632H53.1347H48.3943H48.3062V63.3513V63.7675V63.8556H48.3943H53.1347H53.2229V63.7675V63.3513Z" fill="#3B4042" stroke="#3B4042" stroke-width="0.176251"/>
<path d="M53.2229 65.6853V65.5972H53.1347H48.3943H48.3062V65.6853V66.1014V66.1896H48.3943H53.1347H53.2229V66.1014V65.6853Z" fill="#3B4042" stroke="#3B4042" stroke-width="0.176251"/>
<path d="M53.2229 68.0374V67.9492H53.1347H48.3943H48.3062V68.0374V68.4535V68.5416H48.3943H53.1347H53.2229V68.4535V68.0374Z" fill="#3B4042" stroke="#3B4042" stroke-width="0.176251"/>
<path d="M53.2229 70.3713V70.2832H53.1347H48.3943H48.3062V70.3713V70.7875V70.8756H48.3943H53.1347H53.2229V70.7875V70.3713Z" fill="#3B4042" stroke="#3B4042" stroke-width="0.176251"/>
<path d="M53.2229 72.7056V72.6174H53.1347H48.3943H48.3062V72.7056V73.1217V73.2098H48.3943H53.1347H53.2229V73.1217V72.7056Z" fill="#3B4042" stroke="#3B4042" stroke-width="0.176251"/>
<path d="M53.2229 75.0396V74.9514H53.1347H48.3943H48.3062V75.0396V75.4557V75.5438H48.3943H53.1347H53.2229V75.4557V75.0396Z" fill="#3B4042" stroke="#3B4042" stroke-width="0.176251"/>
<path d="M53.2229 77.3735V77.2854H53.1347H48.3943H48.3062V77.3735V77.7897V77.8778H48.3943H53.1347H53.2229V77.7897V77.3735Z" fill="#3B4042" stroke="#3B4042" stroke-width="0.176251"/>
<path d="M53.2229 22.2974V22.2092H53.1347H48.3943H48.3062V22.2974V22.7135V22.8016H48.3943H53.1347H53.2229V22.7135V22.2974Z" fill="#3B4042" stroke="#3B4042" stroke-width="0.176251"/>
<path d="M53.2229 24.6313V24.5432H53.1347H48.3943H48.3062V24.6313V25.0475V25.1356H48.3943H53.1347H53.2229V25.0475V24.6313Z" fill="#3B4042" stroke="#3B4042" stroke-width="0.176251"/>
<path d="M53.2229 26.9656V26.8775H53.1347H48.3943H48.3062V26.9656V27.3817V27.4698H48.3943H53.1347H53.2229V27.3817V26.9656Z" fill="#3B4042" stroke="#3B4042" stroke-width="0.176251"/>
<path d="M53.2229 29.2996V29.2114H53.1347H48.3943H48.3062V29.2996V29.7157V29.8038H48.3943H53.1347H53.2229V29.7157V29.2996Z" fill="#3B4042" stroke="#3B4042" stroke-width="0.176251"/>
<path d="M53.2229 31.6335V31.5454H53.1347H48.3943H48.3062V31.6335V32.0497V32.1378H48.3943H53.1347H53.2229V32.0497V31.6335Z" fill="#3B4042" stroke="#3B4042" stroke-width="0.176251"/>
<path d="M53.2229 33.9678V33.8796H53.1347H48.3943H48.3062V33.9678V34.3839V34.472H48.3943H53.1347H53.2229V34.3839V33.9678Z" fill="#3B4042" stroke="#3B4042" stroke-width="0.176251"/>
<path d="M53.2229 36.3018V36.2136H53.1347H48.3943H48.3062V36.3018V36.7179V36.806H48.3943H53.1347H53.2229V36.7179V36.3018Z" fill="#3B4042" stroke="#3B4042" stroke-width="0.176251"/>
<path d="M53.2229 38.6538V38.5657H53.1347H48.3943H48.3062V38.6538V39.07V39.1581H48.3943H53.1347H53.2229V39.07V38.6538Z" fill="#3B4042" stroke="#3B4042" stroke-width="0.176251"/>
<path d="M87.6906 52.2234V52.1353H87.6024H13.9083H13.8202V52.2234V52.6395V52.7277H13.9083H87.6024H87.6906V52.6395V52.2234Z" fill="#3B4042" stroke="#3B4042" stroke-width="0.176251"/>
<path d="M30.3732 52.7461H30.4614V52.658V48.5508V48.4627H30.3732H18.9202H18.832V48.5508V52.658V52.7461H18.9202H30.3732ZM29.8509 52.1356H19.4244V49.0551H29.8509V52.1356Z" fill="#3B4042" stroke="#3B4042" stroke-width="0.176251"/>
<path d="M82.5905 52.7461H82.6786V52.658V48.5508V48.4627H82.5905H71.1375H71.0493V48.5508V52.658V52.7461H71.1375H82.5905ZM82.0682 52.1356H71.6417V49.0551H82.0682V52.1356Z" fill="#3B4042" stroke="#3B4042" stroke-width="0.176251"/>
<path d="M51.4545 103.898V103.986H51.5426C79.9616 103.986 103.088 80.8598 103.088 52.4589C103.088 24.0399 79.9616 0.913339 51.5426 0.913339H51.4545V1.00146V1.83376V1.92188H51.5426C79.3938 1.92188 102.062 24.5896 102.062 52.4408C102.062 80.292 79.3938 102.96 51.5426 102.96H51.4545V103.048V103.898Z" fill="#3B4042" stroke="#3B4042" stroke-width="0.176251"/>
<path d="M40.4899 59.1534V59.2415H40.578H60.8268H60.9149H60.933V59.1534H61.003V52.2417V52.1536H60.9149H40.578H40.4899V52.2417V59.1534ZM60.4106 52.746V58.631H41.1004V52.746H60.4106Z" fill="#3B4042" stroke="#3B4042" stroke-width="0.176251"/>
<path d="M47.4096 12.8679C47.0984 12.9124 46.775 12.9691 46.4378 13.0282C46.3659 13.0408 46.2933 13.0535 46.2201 13.0662L46.2198 13.0663C45.8535 13.1286 45.474 13.1871 45.0802 13.2478C44.5532 13.329 44.0006 13.4142 43.4199 13.5178C42.9082 13.6573 42.3694 13.7977 41.8119 13.9429C41.2898 14.0789 40.7514 14.2192 40.2035 14.367C39.4431 14.5844 38.6689 14.8816 37.8637 15.1909C37.4659 15.3436 37.0606 15.4992 36.6456 15.6496L36.642 15.6509L36.642 15.6508C36.3319 15.7483 36.0292 15.8861 35.7227 16.0371C35.622 16.0867 35.5204 16.138 35.4181 16.1896C35.2116 16.2939 35.0019 16.3997 34.7895 16.4969C34.7892 16.497 34.7889 16.4971 34.7886 16.4973L34.7806 16.5012C34.151 16.807 33.5213 17.1129 32.8558 17.4366C32.4038 17.6753 31.9709 17.948 31.5277 18.2272C31.3362 18.3478 31.1429 18.4696 30.9452 18.5904C30.7238 18.7359 30.4926 18.8732 30.2614 19.0104C30.1606 19.0703 30.0598 19.1302 29.9599 19.1907C29.6285 19.3913 29.3026 19.6013 29 19.8505L28.9983 19.8519L28.9983 19.8519C28.6445 20.1288 28.2833 20.399 27.9205 20.6704C26.996 21.362 26.0604 22.0618 25.2062 22.9031L25.2019 22.9073L25.2018 22.9071C22.6595 25.0888 20.4395 27.8674 18.4156 30.8849C17.9458 31.6619 17.476 32.457 17.0059 33.2526C16.6955 33.7778 16.4423 34.3314 16.1844 34.8951C16.0532 35.1819 15.9208 35.4713 15.7791 35.7609C15.779 35.7611 15.7789 35.7613 15.7788 35.7615L15.184 37.0232L14.6975 38.3565C14.6974 38.3568 14.6973 38.3571 14.6972 38.3575C14.5899 38.673 14.4768 38.9821 14.3644 39.2894C14.1518 39.8707 13.9414 40.4458 13.7763 41.0474L13.776 41.0485C12.7113 44.7299 12.2416 48.5389 12.1692 52.4765C12.2958 56.3058 12.8196 60.187 13.9384 63.8138L13.9386 63.8144C14.1048 64.3685 14.3103 64.9113 14.516 65.4549C14.6458 65.7978 14.7757 66.1409 14.8959 66.4873C14.896 66.4878 14.8962 66.4882 14.8964 66.4887L15.4006 67.8033L16.013 69.0641C16.0132 69.0645 16.0134 69.0649 16.0136 69.0653C16.1737 69.3721 16.3218 69.682 16.4686 69.9891C16.5214 70.0997 16.5741 70.2099 16.6271 70.3195C16.828 70.7348 17.0345 71.1431 17.2763 71.5372C17.7647 72.3151 18.235 73.0928 18.7048 73.8699C20.7466 76.8329 22.9845 79.5571 25.5266 81.6846L25.5316 81.6887L25.5314 81.6889C26.3704 82.5024 27.2874 83.1702 28.1958 83.8318C28.5752 84.1081 28.9532 84.3833 29.3233 84.6676M47.4096 12.8679L29.2697 84.7375M47.4096 12.8679C47.7474 12.8358 48.0707 12.818 48.3686 12.8017C48.4033 12.7998 48.4376 12.7979 48.4716 12.796C48.6524 12.7859 48.8275 12.7759 48.9958 12.7663C49.4344 12.7411 49.8266 12.7186 50.1528 12.7056M47.4096 12.8679L50.1528 12.7056M29.3233 84.6676L29.2697 84.7375M29.3233 84.6676C29.3233 84.6676 29.3232 84.6676 29.3232 84.6675L29.2697 84.7375M29.3233 84.6676C29.7269 84.9762 30.1576 85.2272 30.5889 85.4785C30.8108 85.6077 31.0328 85.7371 31.2513 85.8744M29.2697 84.7375C29.6774 85.0493 30.1169 85.3054 30.5513 85.5586C30.7723 85.6875 30.9921 85.8155 31.2057 85.9498M31.2513 85.8744C31.2509 85.8742 31.2505 85.8739 31.2501 85.8737L31.2057 85.9498M31.2513 85.8744C31.5016 86.0204 31.7448 86.168 31.985 86.3137C32.3739 86.5498 32.755 86.7809 33.1453 86.9929M31.2513 85.8744C31.2517 85.8747 31.2521 85.8749 31.2525 85.8752L31.2057 85.9498M31.2057 85.9498L33.1453 86.9929M33.1453 86.9929C33.1445 86.9926 33.1438 86.9922 33.1431 86.9919L33.1054 87.0716L33.1475 86.9941C33.1467 86.9937 33.146 86.9933 33.1453 86.9929ZM33.1453 86.9929C33.3552 87.0921 33.5631 87.1911 33.7695 87.2895C34.2037 87.4964 34.6316 87.7003 35.06 87.8961C35.2481 87.9821 35.4297 88.0703 35.6082 88.1571C36.0393 88.3665 36.4523 88.5672 36.8953 88.7064L36.8967 88.7068C37.3845 88.8694 37.8552 89.0417 38.3139 89.2096C39.0388 89.475 39.7339 89.7295 40.4198 89.9176M33.1453 86.9929L36.8689 88.7904C37.3509 88.9511 37.8195 89.1226 38.2777 89.2903C39.0062 89.5569 39.7084 89.8139 40.3971 90.0027M40.4198 89.9176C40.4195 89.9175 40.4191 89.9174 40.4188 89.9173L40.3971 90.0027M40.4198 89.9176C40.9319 90.0476 41.4307 90.1707 41.9134 90.2898C42.5009 90.4347 43.0646 90.5738 43.5997 90.7125M40.4198 89.9176C40.42 89.9176 40.4202 89.9177 40.4204 89.9177L40.3971 90.0027M40.3971 90.0027L43.5997 90.7125M43.5997 90.7125C44.2744 90.8229 44.907 90.9165 45.5043 91.005C45.7857 91.0466 46.0592 91.0871 46.3257 91.1277C46.5822 91.1611 46.8279 91.2019 47.062 91.2408C47.2065 91.2647 47.3466 91.288 47.4822 91.3084C47.7253 91.3314 47.9576 91.3394 48.181 91.3472C48.3046 91.3514 48.4254 91.3556 48.5438 91.3622C48.5439 91.3622 48.5439 91.3622 48.5439 91.3622L48.5391 91.4502L43.5997 90.7125ZM50.1528 12.7056C50.6147 12.6875 50.9681 12.6694 51.2061 12.6558C51.3251 12.649 51.4152 12.6433 51.4757 12.6393L51.544 12.6347L51.5613 12.6335L51.5639 12.6332L51.5656 12.6332L51.5667 12.6331L51.567 12.6331L51.5671 12.6331L51.5606 12.5452M50.1528 12.7056L32.6893 17.1409C33.0194 16.9892 33.3451 16.8332 33.6663 16.6792C33.9967 16.5209 34.3224 16.3649 34.6434 16.2181C34.8596 16.122 35.0698 16.02 35.2773 15.9192C35.6951 15.7164 36.102 15.5188 36.5251 15.3858M51.5606 12.5452L51.5672 12.6331L51.5574 12.4571L51.5606 12.5452ZM51.5606 12.5452L51.5574 12.4571L51.5573 12.4571L51.557 12.4571L51.5559 12.4572L51.5517 12.4573L51.5346 12.4579L51.4666 12.4605L51.1977 12.4707C50.9602 12.4797 50.6073 12.4933 50.1459 12.5114L50.1458 12.5114C50.0432 12.5155 49.9348 12.5196 49.8207 12.5239C49.4331 12.5386 48.9798 12.5558 48.4619 12.5838L48.4618 12.5838C48.3507 12.59 48.2332 12.5941 48.1111 12.5983C47.8831 12.6062 47.6391 12.6147 47.3908 12.6384L47.3908 12.6383L47.3867 12.6389C47.2292 12.6614 47.0676 12.6866 46.9032 12.7123C46.6656 12.7494 46.4219 12.7875 46.1755 12.8196L46.1755 12.8196L46.1737 12.8199C45.8822 12.8643 45.5736 12.9066 45.2518 12.9507C44.6601 13.0319 44.0237 13.1191 43.367 13.2364L43.3669 13.2362L43.3611 13.2377L40.1043 14.0519L40.1043 14.0518L40.1018 14.0525C39.3568 14.2621 38.6013 14.5398 37.8227 14.826C37.3889 14.9856 36.9479 15.1477 36.4976 15.3021C36.4972 15.3022 36.4969 15.3023 36.4965 15.3025L36.5251 15.3858M36.5251 15.3858C36.98 15.2298 37.4232 15.0669 37.8582 14.907C38.6341 14.6217 39.3836 14.3461 40.1257 14.1374M36.5251 15.3858L40.1257 14.1374M40.1257 14.1374L43.3825 13.3232L40.1257 14.1374ZM51.4999 93.3293L51.5876 93.3358L30.7352 18.2807C30.5024 18.4295 30.2626 18.569 30.0217 18.7092C29.5886 18.9612 29.1519 19.2153 28.745 19.5292L28.6918 19.4589C28.6917 19.459 28.6916 19.4591 28.6914 19.4592C28.3502 19.7175 27.9984 19.9715 27.6425 20.2284C26.6862 20.9189 25.7006 21.6304 24.8136 22.5036C22.2191 24.6815 19.917 27.4739 17.8164 30.516L17.8163 30.516L17.8139 30.52L17.0811 31.7142L16.3483 32.9083L16.3478 32.9091C16.0268 33.4442 15.7583 34.0062 15.4905 34.5668C15.3495 34.8621 15.2086 35.157 15.0603 35.4474L15.0597 35.4485L14.4265 36.7332L14.4261 36.733L14.4229 36.7413L13.9163 38.0983L13.9163 38.0983L13.9155 38.1008C13.7937 38.4589 13.6578 38.8139 13.5205 39.1725C13.4852 39.2648 13.4497 39.3574 13.4144 39.4503C13.2425 39.9028 13.0741 40.3621 12.9374 40.8359C11.7768 44.5722 11.2332 48.5788 11.1244 52.4747L11.1244 52.4747L11.1244 52.4783C11.1788 56.5013 11.6681 60.4356 12.7744 64.2081C12.911 64.6817 13.0748 65.141 13.2422 65.5958C13.2758 65.6871 13.3096 65.7782 13.3433 65.8692C13.4779 66.2324 13.6118 66.594 13.7343 66.9616L13.735 66.9636L14.2236 68.3206L14.2232 68.3207L14.2268 68.3283L14.8419 69.6311L14.8428 69.6328C14.9977 69.9426 15.1445 70.2574 15.2911 70.5716C15.5511 71.1291 15.8102 71.6846 16.1119 72.2068L16.1126 72.208C16.6012 73.0223 17.0895 73.8362 17.5598 74.632L17.5597 74.6321L17.5625 74.6363C19.6269 77.7148 21.9109 80.5616 24.5235 82.8119C25.3976 83.6856 26.3678 84.4117 27.3114 85.118C27.681 85.3946 28.0466 85.6682 28.4007 85.9465C28.7219 86.2034 29.0605 86.4183 29.3983 86.6223C29.4844 86.6744 29.5704 86.7256 29.656 86.7767C29.9074 86.9265 30.1555 87.0745 30.3968 87.2354L30.3968 87.2354L30.3998 87.2372C30.5839 87.3498 30.7689 87.4657 30.9544 87.582C31.4207 87.8744 31.8904 88.1689 32.3587 88.4161L32.3613 88.4174C32.5813 88.5244 32.7996 88.6315 33.0168 88.7382C33.4592 88.9553 33.8969 89.1701 34.3341 89.3766C34.4821 89.4485 34.6301 89.5229 34.7784 89.5975C35.2577 89.8385 35.7406 90.0813 36.2432 90.2489C36.7033 90.4109 37.1539 90.5808 37.5974 90.7479C38.3842 91.0445 39.1483 91.3326 39.9019 91.5529L39.9043 91.5535C41.0804 91.8611 42.1839 92.1505 43.1968 92.4219L43.1968 92.4221L43.2032 92.4233C43.8752 92.5508 44.5199 92.6489 45.1234 92.7409C45.4628 92.7926 45.7892 92.8423 46.1001 92.8941C46.1875 92.9087 46.2744 92.9233 46.3604 92.9377C46.7006 92.9949 47.0281 93.05 47.3324 93.0934L47.3324 93.0935L47.3365 93.0939C47.6787 93.1265 48.0063 93.1445 48.3044 93.1609C48.3392 93.1628 48.3736 93.1647 48.4075 93.1665C48.5872 93.1765 48.7616 93.1865 48.9294 93.1962C49.3689 93.2213 49.7636 93.244 50.0916 93.2571C50.5525 93.2752 50.9048 93.2932 51.1417 93.3068C51.2602 93.3135 51.3499 93.3192 51.4098 93.3231L51.4774 93.3277L51.4943 93.3289L51.4985 93.3292L51.4995 93.3293L51.4998 93.3293H51.4999Z" fill="#3B4042" stroke="#3B4042" stroke-width="0.176251"/>
<path d="M71.562 86.4353C72.0466 86.1159 72.5438 85.7769 73.0592 85.4255C73.3887 85.2008 73.7257 84.9711 74.0715 84.7382C74.9194 84.0886 75.7856 83.3849 76.6888 82.6443C78.4066 81.0711 80.2463 79.3211 81.8508 77.1937L81.8526 77.1913L81.8526 77.1913C83.5302 75.1169 85.0285 72.6985 86.3288 70.098C86.4314 69.8748 86.5338 69.6538 86.6362 69.433C86.8409 68.9916 87.0452 68.5508 87.2498 68.0935C87.4066 67.6963 87.5566 67.2949 87.708 66.89C87.8185 66.5943 87.9297 66.2967 88.0447 65.9977C88.0752 65.9149 88.1066 65.8316 88.1381 65.7478C88.2386 65.4807 88.3408 65.2091 88.4226 64.9366C88.4226 64.9364 88.4227 64.9362 88.4227 64.9361L88.7296 63.853C88.7296 63.8528 88.7297 63.8526 88.7297 63.8524C88.7993 63.5932 88.8746 63.3409 88.9493 63.0906C89.0912 62.6154 89.2309 62.1473 89.3252 61.6519L89.326 61.6481L89.326 61.6481C90.0297 58.6712 90.3188 55.5845 90.3731 52.4773C90.3007 49.3704 89.9755 46.2836 89.2538 43.3246L89.2533 43.3226L89.2533 43.3226C89.15 42.8516 89.011 42.3916 88.8716 41.9306C88.7922 41.6678 88.7127 41.4046 88.6396 41.1388C88.6395 41.1384 88.6394 41.1381 88.6393 41.1378L88.3147 40.056C88.2413 39.8463 88.1632 39.6465 88.0855 39.4474C88.0289 39.3025 87.9724 39.158 87.9181 39.0105C87.8538 38.8433 87.7905 38.6772 87.7276 38.5121C87.525 37.9801 87.3261 37.4578 87.106 36.935C86.7807 36.2663 86.4734 35.6155 86.1661 34.9468C84.8478 32.3644 83.3496 29.9824 81.6541 27.9261L81.6522 27.9238L81.6523 27.9238C80.0297 25.8145 78.1902 24.1007 76.4722 22.5454C75.5691 21.823 74.7031 21.1374 73.8554 20.506C72.9702 19.9279 72.1392 19.3679 71.3628 18.8443C70.5502 18.3929 69.7736 17.9594 69.0689 17.5619C68.608 17.3199 68.1648 17.1162 67.7478 16.9245C67.511 16.8157 67.2827 16.7108 67.0643 16.6049L67.0633 16.6044L67.0633 16.6044C66.2097 16.1776 65.4348 15.9011 64.8077 15.6774C64.5609 15.5894 64.337 15.5095 64.1402 15.4318C63.7965 15.3052 63.5341 15.2057 63.3574 15.1377C63.269 15.1037 63.2021 15.0776 63.1573 15.06L63.1066 15.0401L63.0938 15.035L63.0906 15.0337L63.0898 15.0334L63.0895 15.0333L63.0895 15.0333L63.0895 15.0333L71.562 86.4353ZM71.562 86.4353C71.3992 86.5273 71.2385 86.6179 71.0799 86.7074C70.4294 87.0742 69.8153 87.4205 69.248 87.755M71.562 86.4353L69.248 87.755M69.248 87.755C68.7966 88.0096 68.3495 88.2175 67.9222 88.4162C67.683 88.5274 67.4501 88.6357 67.2262 88.7477L67.2257 88.7479C66.4268 89.1533 65.7022 89.4311 65.1069 89.6523C65.102 89.654 65.0971 89.6558 65.0923 89.6575C64.7962 89.7646 64.5298 89.8609 64.3021 89.9567C63.9588 90.0832 63.6967 90.1826 63.5203 90.2505C63.4319 90.2845 63.365 90.3106 63.3201 90.3282L63.2695 90.3481L63.2567 90.3532L63.2534 90.3545L63.2526 90.3549L63.2524 90.3549L63.2523 90.355L63.2523 90.355L63.285 90.4368L63.3178 90.5186L63.3178 90.5186L63.3178 90.5186L63.318 90.5185L63.3188 90.5182L63.3219 90.517L63.3344 90.512L63.3845 90.4922C63.429 90.4748 63.4955 90.4489 63.5835 90.415C63.7596 90.3473 64.0215 90.2479 64.3649 90.1215L64.3676 90.1204C64.3677 90.1203 64.3679 90.1203 64.3681 90.1202C64.5477 90.0474 64.7569 89.97 64.9907 89.8834C65.0515 89.8609 65.114 89.8378 65.178 89.814C65.3227 89.7617 65.4755 89.7063 65.6363 89.6464C66.1354 89.4603 66.704 89.2329 67.3231 88.9234C67.5635 88.8032 67.8176 88.6887 68.0832 88.569C68.1552 88.5365 68.228 88.5037 68.3016 88.4702C68.6459 88.3139 69.0058 88.1455 69.3707 87.9448C70.0948 87.5465 70.8731 87.1121 71.7056 86.6415L71.7057 86.6417L71.7107 86.6384C72.5068 86.1137 73.3576 85.5526 74.2445 84.9552L74.2446 84.9554L74.2489 84.9521C75.0995 84.3006 75.987 83.6123 76.8928 82.8696L76.8929 82.8696L76.8957 82.867C78.6333 81.3105 80.5016 79.5513 82.153 77.4101C83.8583 75.3237 85.3811 72.8941 86.7219 70.2849L86.7228 70.2832C86.8858 69.948 87.0444 69.6128 87.2027 69.2781L87.2029 69.2777C87.3612 68.943 87.5192 68.6089 87.6817 68.2748L87.6818 68.2749L87.6837 68.2705C87.8881 67.7849 88.0749 67.2895 88.262 66.7933C88.3405 66.5852 88.419 66.3769 88.4989 66.1691L88.499 66.1691L88.4998 66.1666C88.5627 65.9871 88.63 65.8119 88.6979 65.6353L88.6981 65.6348C88.7659 65.4588 88.8341 65.2813 88.8979 65.0991L88.898 65.0991L88.8992 65.0949L89.2249 63.9912L89.2255 63.9891C89.2979 63.7192 89.3785 63.4487 89.4596 63.1765C89.5983 62.7111 89.7385 62.2408 89.8415 61.7605C89.8416 61.7601 89.8416 61.7597 89.8417 61.7592L69.248 87.755ZM63.4806 14.0373L63.3982 14.0043L90.8954 52.4589C90.8412 49.3107 90.5517 46.1805 89.846 43.1589L89.9326 43.1424C89.9325 43.1418 89.9324 43.1412 89.9323 43.1406C89.835 42.6306 89.6882 42.1331 89.5429 41.6406C89.4709 41.3964 89.3992 41.1534 89.3341 40.9106L89.3338 40.9098L89.0263 39.8061L89.0264 39.8061L89.0245 39.8006C88.9608 39.6184 88.8925 39.441 88.8248 39.2649L88.8246 39.2644C88.7567 39.0878 88.6893 38.9126 88.6265 38.7331L88.6265 38.7331L88.6256 38.7306C88.5217 38.4606 88.4223 38.1854 88.3227 37.9096C88.1647 37.4721 88.0061 37.0332 87.8284 36.6111L87.8285 36.6111L87.8277 36.6093C87.6444 36.1998 87.4541 35.7952 87.2654 35.394C87.1374 35.1219 87.0102 34.8514 86.8864 34.5821L86.8865 34.5821L86.8854 34.5799C85.5805 31.9338 84.0576 29.4859 82.3524 27.3814C80.701 25.204 78.8327 23.4267 77.0955 21.8343L77.0956 21.8342L77.092 21.8312C76.1685 21.0707 75.2811 20.3644 74.4298 19.7124L74.4299 19.7123L74.4265 19.7099C73.8776 19.3291 73.3416 18.9684 72.8245 18.6203C72.5064 18.4062 72.1953 18.1969 71.8928 17.9907L71.8929 17.9905L71.8878 17.9875C71.349 17.6712 70.8323 17.3773 70.3389 17.0967C70.0699 16.9438 69.8079 16.7947 69.5531 16.6482L69.5531 16.6482L69.5516 16.6474C69.1869 16.4468 68.8228 16.2739 68.474 16.1131C68.3929 16.0757 68.3127 16.0389 68.2335 16.0027C67.9715 15.8828 67.721 15.7682 67.4861 15.6507C66.5516 15.1767 65.7449 14.883 65.113 14.6529C64.8976 14.5745 64.7025 14.5035 64.5296 14.4352L64.5297 14.4352L64.5278 14.4345C64.1844 14.308 63.9224 14.2086 63.7464 14.1409C63.6584 14.1071 63.5918 14.0811 63.5474 14.0637L63.4972 14.0439L63.4847 14.039L63.4816 14.0377L63.4808 14.0374L63.4807 14.0373L63.4806 14.0373L63.4806 14.0373Z" fill="#3B4042" stroke="#3B4042" stroke-width="0.176251"/>
<path d="M64.2622 96.9051L64.2381 96.8203L64.1533 96.8444L63.753 96.9582L63.6682 96.9823L63.6923 97.0671L65.0185 101.731L65.0426 101.816L65.1274 101.792L65.5277 101.678L65.6125 101.654L65.5884 101.569L64.2622 96.9051Z" fill="#3B4042" stroke="#3B4042" stroke-width="0.176251"/>
<path d="M81.6259 87.4264L81.5685 87.3595L81.5016 87.4168L81.1858 87.6878L81.1189 87.7451L81.1763 87.812L84.333 91.4924L84.3904 91.5593L84.4572 91.5019L84.7731 91.231L84.84 91.1736L84.7826 91.1068L81.6259 87.4264Z" fill="#3B4042" stroke="#3B4042" stroke-width="0.176251"/>
<path d="M93.4472 71.5431L93.3671 71.5064L93.3304 71.5865L93.157 71.9647L93.1202 72.0448L93.2003 72.0816L97.6081 74.1026L97.6882 74.1394L97.7249 74.0593L97.8984 73.681L97.9351 73.6009L97.855 73.5642L93.4472 71.5431Z" fill="#3B4042" stroke="#3B4042" stroke-width="0.176251"/>
<path d="M102.455 52.2364L102.454 52.1483L102.366 52.1485L97.5173 52.1582L97.4292 52.1584L97.4293 52.2465L97.4302 52.6627L97.4303 52.7508L97.5185 52.7506L102.367 52.7409L102.456 52.7407L102.455 52.6526L102.455 52.2364Z" fill="#3B4042" stroke="#3B4042" stroke-width="0.176251"/>
<path d="M97.6295 30.8515L97.5925 30.7715L97.5125 30.8085L93.1111 32.8436L93.0311 32.8806L93.0681 32.9606L93.2427 33.3383L93.2797 33.4183L93.3597 33.3813L97.7612 31.3462L97.8412 31.3092L97.8042 31.2292L97.6295 30.8515Z" fill="#3B4042" stroke="#3B4042" stroke-width="0.176251"/>
<path d="M84.2996 13.4723L84.2325 13.4152L84.1754 13.4823L81.0318 17.1743L80.9746 17.2414L81.0417 17.2985L81.3586 17.5683L81.4257 17.6255L81.4828 17.5584L84.6264 13.8663L84.6836 13.7992L84.6165 13.7421L84.2996 13.4723Z" fill="#3B4042" stroke="#3B4042" stroke-width="0.176251"/>
<path d="M64.905 3.26214L64.8202 3.23838L64.7964 3.32325L63.4891 7.99284L63.4654 8.07771L63.5502 8.10147L63.951 8.21366L64.0358 8.23742L64.0596 8.15255L65.3669 3.48296L65.3906 3.39809L65.3058 3.37433L64.905 3.26214Z" fill="#3B4042" stroke="#3B4042" stroke-width="0.176251"/>
<path d="M51.4545 98.8681V98.9562H51.5426C77.1933 98.9562 98.0582 78.0914 98.0582 52.4406C98.0582 26.808 77.1933 5.94312 51.5426 5.94312H51.4545V6.03125V6.4474V6.53552H51.5426C76.8607 6.53552 97.4477 27.1405 97.4477 52.4587C97.4477 77.7769 76.8608 98.3638 51.5426 98.3638H51.4545V98.452V98.8681Z" fill="#3B4042" stroke="#3B4042" stroke-width="0.176251"/>
<path d="M57.8814 41.4777L57.9558 41.5262L58.0037 41.4514L58.456 40.7458L58.5031 40.6724L58.4302 40.6245C53.769 37.5656 47.724 37.5656 43.0627 40.6245L42.9885 40.6732L43.0378 40.7471L43.5082 41.4527L43.5566 41.5253L43.6296 41.4777C47.9609 38.6561 53.5502 38.6561 57.8814 41.4777Z" fill="#3B4042" stroke="#3B4042" stroke-width="0.176251"/>
<path d="M43.0557 64.044L43.0065 64.1178L43.0807 64.1665C45.4113 65.696 48.0879 66.4607 50.7644 66.4607C53.441 66.4607 56.1174 65.696 58.466 64.1667L58.5406 64.1181L58.4912 64.044L58.0208 63.3383L57.9724 63.2658L57.8994 63.3134C53.5681 66.135 47.9788 66.135 43.6476 63.3134L43.5745 63.2658L43.5261 63.3383L43.0557 64.044Z" fill="#3B4042" stroke="#3B4042" stroke-width="0.176251"/>
</g>
</g>
<defs>
<clipPath id="clip0">
<rect width="102.915" height="102.933" fill="white" transform="translate(0.0852051 0.983398)"/>
</clipPath>
</defs>
</svg>
